<svg width="48" height="48" viewBox="0 0 48 48" fill="none" xmlns="http://www.w3.org/2000/svg">
<g clip-path="url(#clip0_7060_29609)">
<path d="M48 19C48 29.4934 39.4934 38 29 38C18.5066 38 10 29.4934 10 19C10 8.50659 18.5066 0 29 0C39.4934 0 48 8.50659 48 19Z" fill="url(#paint0_linear_7060_29609)"/>
<path d="M23.5 38V40V42.5M23.5 42.5H14M23.5 42.5H33M2.5 13.5V9.5C2.5 8.39543 3.39543 7.5 4.5 7.5H10.5H43.5C44.6046 7.5 45.5 8.39698 45.5 9.50155C45.5 19.3493 45.5 25.6507 45.5 35.4984C45.5 36.603 44.6046 37.5 43.5 37.5H10.5H4.5C3.39543 37.5 2.5 36.6046 2.5 35.5V30.5M6.5 21.5C6.5 22.6046 5.60457 23.5 4.5 23.5C3.39543 23.5 2.5 22.6046 2.5 21.5C2.5 20.3954 3.39543 19.5 4.5 19.5C5.60457 19.5 6.5 20.3954 6.5 21.5ZM6.5 21.5H11.5M11.5 21.5H12.5C13.0523 21.5 13.5 21.9477 13.5 22.5V23.5M11.5 21.5V23.5" stroke="#AAEEF1" stroke-linecap="round"/>
<path d="M23.5 38V40V42.5M23.5 42.5H14M23.5 42.5H33M2.5 13.5V9.5C2.5 8.39543 3.39543 7.5 4.5 7.5H10.5H43.5C44.6046 7.5 45.5 8.39698 45.5 9.50155C45.5 19.3493 45.5 25.6507 45.5 35.4984C45.5 36.603 44.6046 37.5 43.5 37.5H10.5H4.5C3.39543 37.5 2.5 36.6046 2.5 35.5V30.5M6.5 21.5C6.5 22.6046 5.60457 23.5 4.5 23.5C3.39543 23.5 2.5 22.6046 2.5 21.5C2.5 20.3954 3.39543 19.5 4.5 19.5C5.60457 19.5 6.5 20.3954 6.5 21.5ZM6.5 21.5H11.5M11.5 21.5H12.5C13.0523 21.5 13.5 21.9477 13.5 22.5V23.5M11.5 21.5V23.5" stroke="url(#paint1_linear_7060_29609)" stroke-linecap="round"/>
<path d="M19 23C19.5523 23 20 22.5523 20 22C20 21.4477 19.5523 21 19 21C18.4477 21 18 21.4477 18 22C18 22.5523 18.4477 23 19 23Z" fill="white"/>
<path d="M19 23C19.5523 23 20 22.5523 20 22C20 21.4477 19.5523 21 19 21C18.4477 21 18 21.4477 18 22C18 22.5523 18.4477 23 19 23Z" fill="#AAEEF1"/>
<path d="M19 23C19.5523 23 20 22.5523 20 22C20 21.4477 19.5523 21 19 21C18.4477 21 18 21.4477 18 22C18 22.5523 18.4477 23 19 23Z" fill="url(#paint2_linear_7060_29609)"/>
<path d="M25 22C25 22.5523 24.5523 23 24 23C23.4477 23 23 22.5523 23 22C23 21.4477 23.4477 21 24 21C24.5523 21 25 21.4477 25 22Z" fill="white"/>
<path d="M25 22C25 22.5523 24.5523 23 24 23C23.4477 23 23 22.5523 23 22C23 21.4477 23.4477 21 24 21C24.5523 21 25 21.4477 25 22Z" fill="#AAEEF1"/>
<path d="M25 22C25 22.5523 24.5523 23 24 23C23.4477 23 23 22.5523 23 22C23 21.4477 23.4477 21 24 21C24.5523 21 25 21.4477 25 22Z" fill="url(#paint3_linear_7060_29609)"/>
<path d="M29 23C29.5523 23 30 22.5523 30 22C30 21.4477 29.5523 21 29 21C28.4477 21 28 21.4477 28 22C28 22.5523 28.4477 23 29 23Z" fill="white"/>
<path d="M29 23C29.5523 23 30 22.5523 30 22C30 21.4477 29.5523 21 29 21C28.4477 21 28 21.4477 28 22C28 22.5523 28.4477 23 29 23Z" fill="#AAEEF1"/>
<path d="M29 23C29.5523 23 30 22.5523 30 22C30 21.4477 29.5523 21 29 21C28.4477 21 28 21.4477 28 22C28 22.5523 28.4477 23 29 23Z" fill="url(#paint4_linear_7060_29609)"/>
<path d="M34 23C34.5523 23 35 22.5523 35 22C35 21.4477 34.5523 21 34 21C33.4477 21 33 21.4477 33 22C33 22.5523 33.4477 23 34 23Z" fill="white"/>
<path d="M34 23C34.5523 23 35 22.5523 35 22C35 21.4477 34.5523 21 34 21C33.4477 21 33 21.4477 33 22C33 22.5523 33.4477 23 34 23Z" fill="#AAEEF1"/>
<path d="M34 23C34.5523 23 35 22.5523 35 22C35 21.4477 34.5523 21 34 21C33.4477 21 33 21.4477 33 22C33 22.5523 33.4477 23 34 23Z" fill="url(#paint5_linear_7060_29609)"/>
<path d="M39 23C39.5523 23 40 22.5523 40 22C40 21.4477 39.5523 21 39 21C38.4477 21 38 21.4477 38 22C38 22.5523 38.4477 23 39 23Z" fill="white"/>
<path d="M39 23C39.5523 23 40 22.5523 40 22C40 21.4477 39.5523 21 39 21C38.4477 21 38 21.4477 38 22C38 22.5523 38.4477 23 39 23Z" fill="#AAEEF1"/>
<path d="M39 23C39.5523 23 40 22.5523 40 22C40 21.4477 39.5523 21 39 21C38.4477 21 38 21.4477 38 22C38 22.5523 38.4477 23 39 23Z" fill="url(#paint6_linear_7060_29609)"/>
</g>
<defs>
<linearGradient id="paint0_linear_7060_29609" x1="48" y1="38" x2="33.5473" y2="-7.13456" gradientUnits="userSpaceOnUse">
<stop stop-color="#3D4168"/>
<stop offset="1" stop-color="#0C1142"/>
</linearGradient>
<linearGradient id="paint1_linear_7060_29609" x1="49.9925" y1="10.6343" x2="-1.51158" y2="60.7282" gradientUnits="userSpaceOnUse">
<stop stop-color="#2BD4DB" stop-opacity="0.8"/>
<stop offset="1" stop-color="#FFFFC8" stop-opacity="0.3"/>
</linearGradient>
<linearGradient id="paint2_linear_7060_29609" x1="45" y1="8" x2="2.5" y2="37.5" gradientUnits="userSpaceOnUse">
<stop stop-color="#2BD4DB" stop-opacity="0.8"/>
<stop offset="1" stop-color="#FFFFC8" stop-opacity="0.3"/>
</linearGradient>
<linearGradient id="paint3_linear_7060_29609" x1="45" y1="8" x2="2.5" y2="37.5" gradientUnits="userSpaceOnUse">
<stop stop-color="#2BD4DB" stop-opacity="0.8"/>
<stop offset="1" stop-color="#FFFFC8" stop-opacity="0.3"/>
</linearGradient>
<linearGradient id="paint4_linear_7060_29609" x1="45" y1="8" x2="2.5" y2="37.5" gradientUnits="userSpaceOnUse">
<stop stop-color="#2BD4DB" stop-opacity="0.8"/>
<stop offset="1" stop-color="#FFFFC8" stop-opacity="0.3"/>
</linearGradient>
<linearGradient id="paint5_linear_7060_29609" x1="45" y1="8" x2="2.5" y2="37.5" gradientUnits="userSpaceOnUse">
<stop stop-color="#2BD4DB" stop-opacity="0.8"/>
<stop offset="1" stop-color="#FFFFC8" stop-opacity="0.3"/>
</linearGradient>
<linearGradient id="paint6_linear_7060_29609" x1="45" y1="8" x2="2.5" y2="37.5" gradientUnits="userSpaceOnUse">
<stop stop-color="#2BD4DB" stop-opacity="0.8"/>
<stop offset="1" stop-color="#FFFFC8" stop-opacity="0.3"/>
</linearGradient>
<clipPath id="clip0_7060_29609">
<rect width="48" height="48" fill="white"/>
</clipPath>
</defs>
</svg>
