<svg width="680" height="480" viewBox="0 0 680 480" fill="none" xmlns="http://www.w3.org/2000/svg">
<path d="M556.774 182.543L489.237 182.543" stroke="#CECFD9"/>
<path d="M552.774 146.543L488.774 146.543" stroke="#CECFD9"/>
<path d="M123 93H345C348.866 93 352 96.134 352 100V376C352 379.866 348.866 383 345 383H123C119.134 383 116 379.866 116 376V100C116 96.134 119.134 93 123 93Z" fill="white" stroke="#2BD4DB" stroke-width="2"/>
<path d="M138 140.5H193" stroke="#2BD4DB"/>
<path d="M138 165.5H238" stroke="#0C1142"/>
<path d="M138 191.5H219.573" stroke="#CECFD9"/>
<path d="M138 217.5H264.38" stroke="#CECFD9"/>
<path d="M138 242.5H205.786" stroke="#CECFD9"/>
<path d="M138 294.5H188.552" stroke="#CECFD9"/>
<path d="M138 345.5H169.437" stroke="#0C1142"/>
<path d="M138 319.5H212.306" stroke="#2BD4DB"/>
<path d="M138 268.5H259.784" stroke="#CECFD9"/>
<path d="M290 86C290 82.134 293.134 79 297 79H556C559.866 79 563 82.134 563 86V390C563 393.866 559.866 397 556 397H297C293.134 397 290 393.866 290 390V86Z" fill="white" stroke="#0C1142" stroke-width="2"/>
<path d="M330 102.5H312" stroke="#2BD4DB"/>
<path d="M544 102.547H488" stroke="#0C1142"/>
<path d="M330 373.5H312" stroke="#0C1142"/>
<path d="M544 373.5H494" stroke="#6BE1E6"/>
<rect x="364.5" y="146.5" width="128" height="173" rx="59.5" fill="white" stroke="#0C1142"/>
<path d="M378.5 167.5C381.294 170.294 406.27 199.294 491.5 196.5M364.5 197C372.883 197 389.159 195.906 403.131 183.504" stroke="#0C1142"/>
<path d="M450.677 325.547H456.5C481.905 325.547 502.5 304.952 502.5 279.547V196.547C502.5 163.41 475.637 136.547 442.5 136.547H413.5C380.363 136.547 353.5 163.41 353.5 196.547V257.672" stroke="#0C1142"/>
<path d="M367 254V210C367 207.791 365.209 206 363 206H354H345C342.791 206 341 207.791 341 210V254C341 256.209 342.791 258 345 258H363C365.209 258 367 256.209 367 254Z" fill="#0C1142"/>
<path d="M515 255V210C515 207.791 513.209 206 511 206H502H493C490.791 206 489 207.791 489 210V255C489 257.209 490.791 259 493 259H511C513.209 259 515 257.209 515 255Z" fill="#0C1142"/>
<path d="M412 315C412 312.791 413.791 311 416 311H449C451.209 311 453 312.791 453 315V335C453 337.209 451.209 339 449 339H416C413.791 339 412 337.209 412 335V315Z" fill="#80E5E9"/>
<path d="M412 315C412 312.791 413.791 311 416 311H449C451.209 311 453 312.791 453 315V335C453 337.209 451.209 339 449 339H416C413.791 339 412 337.209 412 335V315Z" fill="url(#paint0_linear)" fill-opacity="0.9"/>
<defs>
<linearGradient id="paint0_linear" x1="479.845" y1="352.496" x2="410.488" y2="307.322" gradientUnits="userSpaceOnUse">
<stop stop-color="#FFFFC8"/>
<stop offset="1" stop-color="#FFFFC8" stop-opacity="0"/>
</linearGradient>
</defs>
</svg>
