<svg width="600" height="264" viewBox="0 0 600 264" fill="none" xmlns="http://www.w3.org/2000/svg">
<mask id="mask0" mask-type="alpha" maskUnits="userSpaceOnUse" x="0" y="0" width="600" height="264">
<path d="M0 0H600V264H0V0Z" fill="#E1E5EB"/>
</mask>
<g mask="url(#mask0)">
<g opacity="0.5">
<path d="M0 87.5H600" stroke="#CECFD9"/>
<path d="M0 49.5H600" stroke="#CECFD9"/>
<path d="M0 125.5H600" stroke="#CECFD9"/>
<path d="M0 163.5H600" stroke="#CECFD9"/>
<path d="M0 201.5H600" stroke="#CECFD9"/>
<path d="M0 239.5H212.5H287H371H600" stroke="#CECFD9"/>
<path d="M0 258.5H212.5H287H371H600" stroke="#CECFD9"/>
<path d="M0 68.5H600" stroke="#CECFD9"/>
<path d="M0 30.5H600" stroke="#CECFD9"/>
<path d="M0 106.5H600" stroke="#CECFD9"/>
<path d="M0 144.5H600" stroke="#CECFD9"/>
<path d="M0 182.5H600" stroke="#CECFD9"/>
<path d="M0 220.5H212.5H287H371H600" stroke="#CECFD9"/>
</g>
<path d="M481 220.5L523.146 220.5L537.922 220.5L554.582 220.5L600 220.5" stroke="#2BD4DB"/>
<path d="M345 87.4998L438 87.4997" stroke="#0C1142"/>
<path d="M0 87.5004H143" stroke="#2BD4DB"/>
<path d="M473 49.501L600 49.5009" stroke="#0C1142"/>
<path d="M513 68.5017L600 68.5017" stroke="#0C1142"/>
<path d="M351 144.5L600 144.5" stroke="#0C1142"/>
<path d="M136.579 23.5H216.948C221.109 23.5 224.475 26.8877 224.448 31.0488L223.921 112.049C223.894 116.172 220.544 119.5 216.421 119.5H136.052C131.891 119.5 128.525 116.112 128.552 111.951L129.079 30.9512C129.106 26.8282 132.456 23.5 136.579 23.5Z" fill="white" stroke="#2BD4DB"/>
<g clip-path="url(#clip0)">
<path d="M190.875 57.3578C190.875 57.0928 190.626 57.0045 190.46 57.0045C190.295 57.0045 186.899 56.7396 186.899 56.7396C186.899 56.7396 184.58 54.2666 184.331 54.0016C184.083 53.7366 183.586 53.825 183.42 53.825C183.42 53.825 182.923 54.0016 182.095 54.2666C181.267 51.7936 179.942 49.5856 177.457 49.5856C177.374 49.5856 177.291 49.5856 177.208 49.5856C176.546 48.7023 175.718 48.2607 174.972 48.2607C169.34 48.2607 166.607 55.8564 165.779 59.6542C163.542 60.3607 161.969 60.8907 161.803 60.979C160.561 61.4206 160.561 61.4206 160.395 62.6571C160.229 63.6286 157.082 90.1249 157.082 90.1249L182.095 95.1592L195.678 92.068C195.596 91.9797 190.875 57.6228 190.875 57.3578ZM180.687 54.7082C180.024 54.8848 179.362 55.1498 178.616 55.4147C178.616 55.2381 178.616 55.1498 178.616 54.8848C178.616 53.3834 178.451 52.2352 178.12 51.2637C179.279 51.4403 180.107 52.9418 180.687 54.7082ZM176.463 51.6169C176.794 52.5885 177.043 53.825 177.043 55.6797C177.043 55.768 177.043 55.8564 177.043 55.9447C175.635 56.3863 174.144 56.9162 172.653 57.3578C173.481 53.9133 175.138 52.2352 176.463 51.6169ZM174.807 49.8505C175.055 49.8505 175.303 49.9388 175.552 50.1155C173.73 50.9987 171.825 53.295 170.997 57.8877C169.837 58.3293 168.595 58.6826 167.518 59.0359C168.429 55.5914 170.748 49.8505 174.807 49.8505Z" fill="#95BF47"/>
<path d="M190.461 57.0045C190.295 57.0045 186.9 56.7395 186.9 56.7395C186.9 56.7395 184.58 54.2666 184.332 54.0016C184.249 53.9133 184.083 53.825 184.001 53.825L182.096 95.1592L195.679 92.068C195.679 92.068 190.958 57.7111 190.875 57.4461C190.792 57.1812 190.627 57.0045 190.461 57.0045Z" fill="#5E8E3E"/>
<path d="M177.457 64.9532L175.801 70.2525C175.801 70.2525 174.31 69.3693 172.488 69.3693C169.838 69.3693 169.755 71.1357 169.755 71.5773C169.755 73.962 175.718 74.9335 175.718 80.586C175.718 85.0904 173.068 87.9167 169.506 87.9167C165.199 87.9167 163.046 85.0904 163.046 85.0904L164.205 81.0276C164.205 81.0276 166.442 83.1474 168.347 83.1474C169.589 83.1474 170.086 82.0875 170.086 81.2926C170.086 78.1131 165.199 78.0247 165.199 72.8138C165.199 68.4861 168.098 64.2466 174.062 64.2466C176.298 64.2466 177.457 64.9532 177.457 64.9532Z" fill="white"/>
</g>
<path d="M531 140.5H579.097C583.239 140.5 586.597 143.858 586.597 148L586.597 196.097C586.597 200.239 583.239 203.597 579.097 203.597H531C526.858 203.597 523.5 200.239 523.5 196.097V148C523.5 143.858 526.858 140.5 531 140.5Z" fill="white" stroke="#2BD4DB"/>
<path d="M543.11 179.505C542.898 179.605 542.76 179.818 542.76 180.056C542.76 180.295 542.898 180.507 543.11 180.607L554.879 186.121C555.038 186.195 555.208 186.232 555.377 186.232V173.933C555.202 173.933 555.027 173.97 554.863 174.044L543.11 179.505Z" fill="#F27923"/>
<path d="M555.377 173.928V186.227C555.557 186.232 555.743 186.19 555.912 186.116L567.65 180.623C567.862 180.523 568 180.311 568 180.072C568 179.839 567.862 179.621 567.65 179.521L555.891 174.044C555.727 173.97 555.552 173.928 555.377 173.928Z" fill="#F5A730"/>
<path d="M542.76 163.41C542.76 163.649 542.898 163.861 543.11 163.962L554.879 169.47C555.038 169.544 555.208 169.581 555.377 169.587C555.526 169.587 555.674 169.565 555.817 169.512C555.929 169.459 555.907 169.47 556.146 169.359C557.36 168.797 556.554 169.168 567.645 163.978C567.857 163.877 567.995 163.665 567.995 163.426C567.995 163.193 567.857 162.976 567.645 162.875L555.892 157.399C555.568 157.245 555.192 157.245 554.868 157.399L543.11 162.859C542.898 162.96 542.76 163.177 542.76 163.41Z" fill="#20AD92"/>
<path d="M555.377 170.276V173.929C555.202 173.929 555.027 173.966 554.863 174.04L543.11 179.506C542.898 179.607 542.76 179.819 542.76 180.058V163.819C542.76 163.819 542.76 163.353 542.76 163.411C542.76 163.65 542.898 163.862 543.11 163.962L554.879 169.471C555.038 169.545 555.208 169.582 555.377 169.587C555.526 169.587 555.674 169.566 555.817 169.513L555.796 169.524C555.43 169.688 555.377 169.858 555.377 170.276Z" fill="#D0D1D1"/>
<path d="M507 61.5H549C553.142 61.5 556.5 64.8579 556.5 69L556.5 111C556.5 115.142 553.142 118.5 549 118.5H507C502.858 118.5 499.5 115.142 499.5 111V69C499.5 64.8579 502.858 61.5 507 61.5Z" fill="white" stroke="#2BD4DB"/>
<path d="M507.639 79.5107V101.675H530.28L552.443 79.5131H507.639V79.5107Z" fill="url(#paint0_linear)"/>
<path d="M536.318 99.4113V101.064H536.567V100.347H536.848L537.3 101.064H537.581L537.097 100.347C537.339 100.317 537.534 100.177 537.534 99.8791C537.534 99.5533 537.335 99.4113 536.941 99.4113H536.318ZM536.567 99.6296H536.91C537.079 99.6296 537.269 99.6571 537.269 99.8635C537.269 100.122 537.077 100.144 536.863 100.144H536.567V99.6296ZM536.879 98.8031C536.088 98.8031 535.413 99.4129 535.413 100.238C535.413 101.069 536.088 101.688 536.879 101.688C537.66 101.688 538.314 101.069 538.314 100.238C538.314 99.4129 537.66 98.8031 536.879 98.8031ZM536.879 99.037C537.525 99.037 538.033 99.5587 538.033 100.238C538.033 100.929 537.525 101.439 536.879 101.439C536.222 101.439 535.694 100.929 535.694 100.238C535.694 99.5587 536.222 99.037 536.879 99.037Z" fill="#1870C5"/>
<path fill-rule="evenodd" clip-rule="evenodd" d="M534.485 90.1166H533.514V86.565H534.485C535.782 86.565 536.814 86.9922 536.814 88.3181C536.814 89.6875 535.782 90.1166 534.485 90.1166V90.1166ZM524.033 92.6557C523.519 92.6557 523.037 92.5619 522.62 92.4052L524.019 87.9937H524.049L525.419 92.4172C525.006 92.5649 524.537 92.6557 524.035 92.6557H524.033ZM534.228 83.6796H529.818V94.1658L525.965 83.6796H522.147L518.855 92.4466C518.507 90.2369 516.218 89.4719 514.419 88.9015C513.232 88.5197 511.97 87.9588 511.981 87.3375C511.991 86.8295 512.66 86.3584 513.977 86.4288C514.866 86.4737 515.649 86.5455 517.205 87.2976L518.737 84.6287C517.318 83.9037 515.351 83.4485 513.742 83.445H513.732C511.855 83.445 510.291 84.0569 509.321 85.0584C508.647 85.7591 508.282 86.6453 508.266 87.6319C508.241 88.9833 508.738 89.9425 509.78 90.7095C510.661 91.3552 511.785 91.7709 512.778 92.0823C514.003 92.4601 515.004 92.79 514.992 93.4931C514.982 93.7491 514.887 93.9891 514.702 94.1788C514.397 94.4957 513.928 94.6129 513.28 94.6274C512.03 94.6524 511.104 94.4577 509.627 93.5854L508.266 96.2917C509.737 97.1296 511.479 97.6196 513.257 97.6196H513.487C515.034 97.5897 516.284 97.148 517.283 96.3456L517.444 96.2044L517.003 97.3901H521.008L521.681 95.3445C522.384 95.5826 523.186 95.7163 524.034 95.7163C524.862 95.7163 525.643 95.5915 526.334 95.364L526.981 97.3901H533.515V93.1533H534.941C538.384 93.1533 540.423 91.4007 540.423 88.4593C540.423 85.1857 538.443 83.6841 534.227 83.6841" fill="white"/>
<path d="M408.027 162.5H477.735C481.867 162.5 485.221 165.842 485.235 169.974L485.473 239.683C485.487 243.835 482.125 247.208 477.973 247.208H408.265C404.133 247.208 400.779 243.866 400.765 239.734L400.527 170.026C400.513 165.873 403.875 162.5 408.027 162.5Z" fill="white" stroke="#2BD4DB"/>
<path d="M455.541 221.178C453.732 219.823 451.054 218.792 448.224 217.704C444.856 216.409 441.017 214.937 438.169 212.675C434.922 210.108 433.34 206.875 433.34 202.779C433.312 201.027 433.7 199.292 434.471 197.715C435.243 196.138 436.377 194.763 437.782 193.701C441.04 191.156 445.979 189.809 452.059 189.809C453.655 189.803 455.249 189.905 456.831 190.114C456.894 190.122 456.958 190.109 457.014 190.079C457.07 190.048 457.114 190 457.141 189.943C457.168 189.885 457.175 189.821 457.162 189.759C457.149 189.697 457.117 189.64 457.07 189.598C454.553 187.353 451.525 185.749 448.245 184.925C444.965 184.1 441.533 184.079 438.243 184.865C434.953 185.65 431.905 187.217 429.362 189.432C426.819 191.646 424.857 194.441 423.645 197.576C422.432 200.711 422.007 204.091 422.404 207.425C422.802 210.759 424.011 213.948 425.927 216.715C427.842 219.483 430.408 221.746 433.402 223.31C436.395 224.875 439.728 225.693 443.111 225.695C447.584 225.715 451.943 224.298 455.537 221.656C455.575 221.629 455.605 221.593 455.626 221.552C455.647 221.511 455.658 221.465 455.659 221.419C455.659 221.373 455.649 221.327 455.628 221.285C455.608 221.243 455.578 221.206 455.541 221.178Z" fill="#189EFF"/>
<path d="M463.908 203.089C463.901 203.01 463.862 202.937 463.801 202.886C459.447 199.299 455.923 197.842 451.641 197.842C449.365 197.842 447.605 198.298 446.437 199.193C445.948 199.556 445.552 200.028 445.283 200.572C445.014 201.116 444.879 201.716 444.889 202.321C444.889 205.878 449.27 207.501 454.345 209.379C456.959 210.346 459.656 211.347 462.144 212.714C462.188 212.739 462.237 212.752 462.288 212.751C462.323 212.751 462.358 212.744 462.39 212.733C462.431 212.718 462.468 212.695 462.499 212.665C462.529 212.635 462.553 212.599 462.569 212.559C463.519 210.149 464.004 207.582 463.999 204.994C463.995 204.391 463.972 203.748 463.908 203.089Z" fill="#189EFF"/>
<path d="M261.381 63.5H354.97C359.123 63.5 362.486 66.875 362.47 71.028L362.119 165.028C362.103 169.159 358.75 172.5 354.619 172.5H261.03C256.877 172.5 253.514 169.125 253.53 164.972L253.881 70.972C253.897 66.8408 257.25 63.5 261.381 63.5Z" fill="white" stroke="#2BD4DB"/>
<g clip-path="url(#clip1)">
<path d="M308.366 92.4284L286.677 105.076V130.198L292.874 133.836L292.788 108.628L308.366 99.6184L323.859 108.628V133.836L330.056 130.198V104.989L308.366 92.4284Z" fill="#F26322"/>
<path d="M311.465 133.837L308.367 135.656L305.268 133.837V108.629L299.071 112.267V137.389L308.367 142.846L317.662 137.389V112.267L311.465 108.629V133.837Z" fill="#F26322"/>
</g>
<path d="M399.008 26.5H468.979C473.118 26.5 476.475 29.8531 476.479 33.9922L476.552 103.963C476.556 108.108 473.197 111.471 469.052 111.471H399.081C394.942 111.471 391.585 108.118 391.581 103.978L391.508 34.0078C391.504 29.8626 394.863 26.5 399.008 26.5Z" fill="white" stroke="#2BD4DB"/>
<g clip-path="url(#clip2)">
<path fill-rule="evenodd" clip-rule="evenodd" d="M415.411 55H453.316C455.715 55 457.656 57.0076 457.656 59.4875V74.4457C457.656 76.9257 455.715 78.9332 453.316 78.9332H439.722L441.588 83.6569L433.383 78.9332H415.43C413.031 78.9332 411.089 76.9257 411.089 74.4457V59.4875C411.07 57.0272 413.012 55 415.411 55Z" fill="white"/>
<path d="M413.412 59.074C413.679 58.7 414.079 58.5032 414.612 58.4638C415.583 58.3851 416.135 58.8575 416.268 59.8809C416.858 63.9945 417.506 67.4782 418.191 70.332L422.36 62.1247C422.741 61.3768 423.217 60.9831 423.788 60.9438C424.626 60.8847 425.14 61.4358 425.349 62.597C425.825 65.2147 426.434 67.4388 427.158 69.3283C427.653 64.3291 428.491 60.7273 429.671 58.5032C429.957 57.9521 430.375 57.6766 430.927 57.6372C431.365 57.5978 431.765 57.7356 432.127 58.0308C432.489 58.3261 432.679 58.7 432.717 59.1527C432.736 59.507 432.679 59.8022 432.527 60.0974C431.784 61.5145 431.175 63.8961 430.68 67.2026C430.204 70.4108 430.033 72.9104 430.147 74.7014C430.185 75.1935 430.109 75.6265 429.918 76.0004C429.69 76.4334 429.347 76.6696 428.909 76.709C428.414 76.7483 427.9 76.5122 427.405 75.9808C425.635 74.111 424.226 71.3161 423.198 67.5963C421.96 70.1155 421.047 72.005 420.456 73.2646C419.333 75.4887 418.381 76.6303 417.582 76.6893C417.068 76.7287 416.63 76.276 416.249 75.3312C415.278 72.7529 414.231 67.7734 413.108 60.3927C413.051 59.8809 413.146 59.4283 413.412 59.074Z" fill="#9B5C8F"/>
<path d="M454.345 62.1659C453.659 60.9259 452.65 60.178 451.299 59.8828C450.937 59.804 450.594 59.7647 450.27 59.7647C448.443 59.7647 446.958 60.7488 445.797 62.717C444.807 64.3899 444.312 66.24 444.312 68.2673C444.312 69.7828 444.616 71.0818 445.225 72.1643C445.911 73.4043 446.92 74.1522 448.271 74.4474C448.633 74.5261 448.976 74.5655 449.3 74.5655C451.146 74.5655 452.631 73.5814 453.774 71.6132C454.763 69.9206 455.258 68.0705 455.258 66.0432C455.258 64.508 454.954 63.2287 454.345 62.1659ZM451.946 67.6178C451.679 68.9168 451.203 69.8812 450.499 70.5307C449.947 71.0424 449.433 71.2589 448.957 71.1605C448.5 71.0621 448.119 70.6488 447.834 69.8812C447.605 69.2711 447.491 68.6609 447.491 68.0901C447.491 67.5981 447.529 67.106 447.624 66.6534C447.796 65.8464 448.119 65.0591 448.633 64.3112C449.261 63.3468 449.928 62.9532 450.613 63.0909C451.07 63.1893 451.451 63.6027 451.736 64.3703C451.965 64.9804 452.079 65.5905 452.079 66.1613C452.079 66.673 452.022 67.1651 451.946 67.6178Z" fill="#9B5C8F"/>
<path d="M442.407 62.1659C441.722 60.9259 440.694 60.178 439.361 59.8828C438.999 59.804 438.657 59.7647 438.333 59.7647C436.505 59.7647 435.02 60.7488 433.859 62.717C432.869 64.3899 432.374 66.24 432.374 68.2673C432.374 69.7828 432.679 71.0818 433.288 72.1643C433.973 73.4043 434.982 74.1522 436.334 74.4474C436.696 74.5261 437.038 74.5655 437.362 74.5655C439.209 74.5655 440.694 73.5814 441.836 71.6132C442.826 69.9206 443.321 68.0705 443.321 66.0432C443.321 64.508 443.016 63.2287 442.407 62.1659ZM440.008 67.6178C439.742 68.9168 439.266 69.8812 438.561 70.5307C438.009 71.0424 437.495 71.2589 437.019 71.1605C436.562 71.0621 436.182 70.6488 435.896 69.8812C435.668 69.2711 435.553 68.6609 435.553 68.0901C435.553 67.5981 435.591 67.106 435.687 66.6534C435.858 65.8464 436.182 65.0591 436.696 64.3112C437.324 63.3468 437.99 62.9532 438.676 63.0909C439.133 63.1893 439.513 63.6027 439.799 64.3703C440.027 64.9804 440.142 65.5905 440.142 66.1613C440.142 66.673 440.104 67.1651 440.008 67.6178Z" fill="#9B5C8F"/>
</g>
<path d="M143.075 170.5H209.075C213.22 170.5 216.579 173.863 216.575 178.008L216.508 244.008C216.504 248.147 213.147 251.5 209.008 251.5H143.008C138.863 251.5 135.504 248.137 135.508 243.992L135.575 177.992C135.579 173.853 138.936 170.5 143.075 170.5Z" fill="white" stroke="#2BD4DB"/>
<g clip-path="url(#clip3)">
<path d="M171.489 197.049C173.205 195.242 175.682 194.184 178.351 194.184C181.908 194.184 185.021 196.114 186.673 199.042C188.071 198.357 189.659 197.983 191.374 197.983C197.791 197.983 203 203.153 203 209.507C203 215.86 197.791 221.03 191.374 221.03C190.612 221.03 189.849 220.968 189.087 220.781C187.626 223.335 184.831 225.079 181.654 225.079C180.32 225.079 179.049 224.768 177.906 224.269C176.445 227.695 173.014 230.062 168.948 230.062C164.755 230.062 161.198 227.446 159.864 223.833C159.292 223.958 158.656 224.02 158.021 224.02C153.066 223.958 149 219.971 149 215.051C149 211.749 150.842 208.884 153.511 207.327C152.939 206.081 152.621 204.71 152.621 203.278C152.621 197.609 157.322 193 163.104 193C166.534 193 169.584 194.557 171.489 197.049Z" fill="#119FDA"/>
<path d="M156.814 212.184C156.751 212.246 156.814 212.308 156.814 212.308C156.941 212.371 157.005 212.433 157.132 212.495C157.704 212.807 158.212 212.869 158.72 212.869C159.8 212.869 160.499 212.308 160.499 211.374C160.499 210.502 159.737 210.191 158.974 210.004H158.911C158.339 209.817 157.894 209.692 157.894 209.318C157.894 209.007 158.148 208.82 158.593 208.82C159.101 208.82 159.61 208.945 159.991 209.194C159.991 209.194 160.118 209.256 160.118 209.132C160.118 209.069 160.308 208.571 160.372 208.509C160.372 208.446 160.372 208.384 160.308 208.384C159.864 208.135 159.292 207.948 158.72 207.948H158.593C157.577 207.948 156.878 208.571 156.878 209.381C156.878 210.315 157.64 210.564 158.403 210.813L158.53 210.876C159.038 211.063 159.546 211.187 159.546 211.561C159.546 211.872 159.228 212.122 158.784 212.122C158.593 212.122 158.021 212.122 157.386 211.748C157.323 211.685 157.259 211.685 157.196 211.623C157.132 211.623 157.068 211.561 157.068 211.685L156.814 212.184Z" fill="white"/>
<path d="M173.014 212.184C172.95 212.246 173.014 212.308 173.014 212.308C173.141 212.371 173.204 212.433 173.331 212.495C173.903 212.807 174.411 212.869 174.919 212.869C175.999 212.869 176.698 212.308 176.698 211.374C176.698 210.502 175.936 210.191 175.174 210.004H175.11C174.538 209.817 174.094 209.692 174.094 209.318C174.094 209.007 174.348 208.82 174.792 208.82C175.301 208.82 175.809 208.945 176.19 209.194C176.19 209.194 176.317 209.256 176.317 209.132C176.317 209.069 176.508 208.571 176.571 208.509C176.571 208.446 176.571 208.384 176.508 208.384C176.063 208.135 175.491 207.948 174.919 207.948H174.792C173.776 207.948 173.077 208.571 173.077 209.381C173.077 210.315 173.839 210.564 174.602 210.813L174.729 210.876C175.237 211.063 175.745 211.187 175.745 211.561C175.745 211.872 175.428 212.122 174.983 212.122C174.792 212.122 174.221 212.122 173.585 211.748C173.522 211.685 173.458 211.685 173.395 211.623C173.395 211.623 173.268 211.561 173.268 211.685L173.014 212.184Z" fill="white"/>
<path d="M184.132 210.38C184.132 210.879 184.005 211.315 183.814 211.626C183.624 211.938 183.306 212.062 182.925 212.062C182.544 212.062 182.226 211.938 182.035 211.626C181.845 211.315 181.718 210.941 181.718 210.38C181.718 209.882 181.845 209.446 182.035 209.135C182.226 208.823 182.544 208.698 182.925 208.698C183.306 208.698 183.624 208.823 183.814 209.135C184.005 209.446 184.132 209.882 184.132 210.38ZM185.021 209.384C184.958 209.072 184.767 208.823 184.577 208.574C184.386 208.325 184.132 208.2 183.878 208.076C183.624 207.951 183.242 207.889 182.861 207.889C182.48 207.889 182.162 207.951 181.845 208.076C181.591 208.2 181.337 208.387 181.146 208.574C180.955 208.823 180.828 209.072 180.701 209.384C180.638 209.695 180.574 210.007 180.574 210.38C180.574 210.754 180.638 211.066 180.701 211.377C180.765 211.688 180.955 211.938 181.146 212.187C181.337 212.436 181.591 212.56 181.845 212.685C182.099 212.81 182.48 212.872 182.861 212.872C183.242 212.872 183.56 212.81 183.878 212.685C184.132 212.56 184.386 212.374 184.577 212.187C184.767 211.938 184.894 211.688 185.021 211.377C185.085 211.066 185.148 210.754 185.148 210.38C185.148 210.007 185.148 209.695 185.021 209.384Z" fill="white"/>
<path d="M192.645 211.875C192.645 211.813 192.518 211.813 192.518 211.813C192.39 211.875 192.263 211.938 192.073 211.938C191.946 211.938 191.755 212 191.565 212C191.12 212 190.739 211.875 190.485 211.626C190.23 211.377 190.103 210.941 190.103 210.38C190.103 209.882 190.23 209.508 190.485 209.197C190.739 208.885 191.056 208.761 191.501 208.761C191.882 208.761 192.2 208.823 192.454 208.885C192.454 208.885 192.518 208.948 192.581 208.823C192.645 208.574 192.708 208.449 192.835 208.2C192.835 208.138 192.772 208.076 192.772 208.076C192.645 208.013 192.39 207.951 192.136 207.951C191.946 207.951 191.692 207.889 191.438 207.889C191.056 207.889 190.675 207.951 190.421 208.076C190.103 208.2 189.849 208.387 189.659 208.574C189.468 208.823 189.278 209.072 189.214 209.384C189.087 209.695 189.087 210.007 189.087 210.38C189.087 211.128 189.278 211.751 189.722 212.187C190.103 212.623 190.739 212.872 191.565 212.872C192.009 212.872 192.518 212.747 192.899 212.623C192.899 212.623 192.962 212.56 192.962 212.498L192.645 211.875Z" fill="white"/>
<path d="M194.232 209.882C194.296 209.571 194.359 209.321 194.486 209.135C194.677 208.823 194.995 208.698 195.376 208.698C195.757 208.698 196.075 208.885 196.265 209.135C196.392 209.321 196.456 209.571 196.456 209.882H194.232ZM197.345 209.259C197.282 208.948 197.091 208.698 196.964 208.512C196.773 208.325 196.583 208.138 196.392 208.076C196.138 207.951 195.821 207.889 195.503 207.889C195.122 207.889 194.741 207.951 194.486 208.076C194.169 208.2 193.978 208.387 193.788 208.636C193.597 208.885 193.47 209.135 193.343 209.446C193.279 209.757 193.216 210.069 193.216 210.443C193.216 210.816 193.279 211.128 193.343 211.439C193.406 211.751 193.597 212 193.788 212.249C193.978 212.498 194.232 212.623 194.55 212.747C194.868 212.872 195.249 212.934 195.693 212.934C196.583 212.934 197.091 212.747 197.282 212.623C197.345 212.623 197.345 212.56 197.282 212.498L197.091 211.938C197.091 211.875 196.964 211.875 196.964 211.875C196.71 211.938 196.392 212.124 195.693 212.124C195.185 212.124 194.868 212 194.613 211.751C194.359 211.502 194.296 211.19 194.232 210.754H197.345C197.345 210.754 197.409 210.754 197.409 210.692C197.472 210.505 197.536 209.944 197.345 209.259Z" fill="white"/>
<path d="M169.202 209.882C169.266 209.571 169.329 209.321 169.456 209.135C169.647 208.823 169.964 208.698 170.346 208.698C170.727 208.698 171.044 208.885 171.235 209.135C171.362 209.321 171.426 209.571 171.426 209.882H169.202ZM172.315 209.259C172.251 208.948 172.061 208.698 171.934 208.512C171.743 208.325 171.553 208.138 171.362 208.076C171.108 207.951 170.79 207.889 170.473 207.889C170.091 207.889 169.71 207.951 169.456 208.076C169.138 208.2 168.948 208.387 168.757 208.636C168.567 208.885 168.44 209.135 168.313 209.446C168.249 209.757 168.186 210.069 168.186 210.443C168.186 210.816 168.249 211.128 168.313 211.439C168.376 211.751 168.567 212 168.757 212.249C168.948 212.498 169.202 212.623 169.52 212.747C169.837 212.872 170.218 212.934 170.663 212.934C171.553 212.934 172.061 212.747 172.251 212.623C172.315 212.623 172.315 212.56 172.251 212.498L172.061 211.938C172.061 211.875 171.934 211.875 171.934 211.875C171.68 211.938 171.362 212.124 170.663 212.124C170.155 212.124 169.837 212 169.583 211.751C169.329 211.502 169.266 211.19 169.202 210.754H172.315C172.315 210.754 172.378 210.754 172.378 210.692C172.378 210.505 172.506 209.944 172.315 209.259Z" fill="white"/>
<path d="M162.404 211.875C162.277 211.751 162.277 211.751 162.214 211.688C162.15 211.564 162.15 211.439 162.15 211.315C162.15 211.066 162.214 210.879 162.404 210.692C162.404 210.692 162.658 210.443 163.294 210.443C163.738 210.443 164.12 210.505 164.12 210.505V211.875C164.12 211.875 163.738 211.938 163.294 212C162.722 212.124 162.404 211.875 162.404 211.875ZM163.675 209.757C163.548 209.757 163.357 209.757 163.167 209.757C162.913 209.757 162.658 209.82 162.404 209.882C162.15 209.944 161.96 210.069 161.769 210.193C161.578 210.318 161.451 210.505 161.324 210.692C161.197 210.879 161.134 211.128 161.134 211.377C161.134 211.626 161.197 211.875 161.261 212.062C161.388 212.249 161.515 212.436 161.642 212.56C161.833 212.685 162.023 212.747 162.277 212.81C162.531 212.872 162.786 212.872 163.103 212.872C163.421 212.872 163.738 212.872 164.056 212.81C164.374 212.747 164.755 212.685 164.818 212.685C164.946 212.685 165.009 212.623 165.009 212.623C165.073 212.623 165.073 212.498 165.073 212.498V209.695C165.073 209.072 164.882 208.636 164.564 208.325C164.247 208.013 163.738 207.889 163.103 207.889C162.849 207.889 162.468 207.951 162.277 207.951C162.277 207.951 161.578 208.076 161.324 208.325C161.324 208.325 161.261 208.387 161.324 208.449L161.515 209.01C161.515 209.072 161.642 209.072 161.642 209.072C161.642 209.072 161.642 209.072 161.706 209.072C162.277 208.761 163.04 208.761 163.04 208.761C163.357 208.761 163.611 208.823 163.802 208.948C163.993 209.072 164.056 209.259 164.056 209.695V209.82C163.929 209.757 163.675 209.757 163.675 209.757Z" fill="white"/>
<path d="M188.896 208.135C188.896 208.073 188.896 208.01 188.832 208.01C188.769 208.01 188.515 207.948 188.324 207.948C187.943 207.948 187.689 208.01 187.498 208.073C187.308 208.135 187.117 208.322 186.99 208.446V208.073C186.99 208.01 186.927 208.01 186.927 208.01H186.101C186.037 208.01 186.037 208.073 186.037 208.073V212.62C186.037 212.682 186.101 212.682 186.101 212.682H186.927C186.99 212.682 186.99 212.62 186.99 212.62V210.315C186.99 210.004 187.054 209.692 187.117 209.505C187.181 209.318 187.308 209.194 187.371 209.069C187.498 208.945 187.625 208.882 187.752 208.82C187.879 208.758 188.07 208.758 188.197 208.758C188.388 208.758 188.515 208.82 188.515 208.82C188.578 208.82 188.578 208.82 188.642 208.758C188.705 208.633 188.896 208.197 188.896 208.135Z" fill="white"/>
<path d="M181.209 206.019C181.082 206.019 181.018 205.957 180.891 205.957C180.764 205.957 180.637 205.895 180.446 205.895C179.875 205.895 179.43 206.082 179.112 206.331C178.795 206.642 178.604 207.078 178.477 207.701L178.413 207.888H177.715C177.715 207.888 177.651 207.888 177.588 207.95L177.46 208.573C177.46 208.635 177.46 208.698 177.588 208.698H178.286L177.588 212.622C177.524 212.933 177.46 213.183 177.397 213.369C177.333 213.556 177.27 213.681 177.206 213.805C177.143 213.93 177.079 213.992 176.889 213.992C176.762 214.055 176.635 214.055 176.508 214.055C176.444 214.055 176.317 214.055 176.253 214.055C176.19 214.055 176.126 214.055 176.063 213.992C176.063 213.992 175.999 213.992 175.936 214.055C175.936 214.117 175.745 214.615 175.682 214.677C175.682 214.74 175.682 214.802 175.745 214.802C175.809 214.864 175.936 214.864 176.063 214.864C176.253 214.927 176.38 214.927 176.508 214.927C176.825 214.927 177.079 214.864 177.27 214.802C177.46 214.74 177.651 214.615 177.842 214.428C178.032 214.241 178.159 214.055 178.223 213.743C178.35 213.494 178.413 213.12 178.477 212.684L179.176 208.76H180.192C180.192 208.76 180.256 208.76 180.319 208.698L180.446 208.075C180.446 208.012 180.446 207.95 180.319 207.95H179.493C179.493 207.95 179.557 207.576 179.684 207.265C179.748 207.14 179.811 207.016 179.875 206.954C179.938 206.891 180.065 206.829 180.129 206.767C180.256 206.704 180.319 206.704 180.446 206.704C180.51 206.704 180.637 206.704 180.7 206.704C180.828 206.704 180.828 206.704 180.891 206.767C181.018 206.767 181.018 206.767 181.018 206.704L181.272 206.082C181.272 206.082 181.209 206.019 181.209 206.019Z" fill="white"/>
<path d="M167.169 212.683C167.169 212.745 167.105 212.745 167.105 212.745H166.279C166.216 212.745 166.216 212.683 166.216 212.683V206.143C166.216 206.08 166.279 206.08 166.279 206.08H167.105C167.169 206.08 167.169 206.143 167.169 206.143V212.683Z" fill="white"/>
</g>
<path d="M28.6003 103.081H97.8621C101.999 103.081 105.355 106.431 105.362 110.568L105.486 179.83C105.493 183.977 102.133 187.343 97.9859 187.343H28.7241C24.5872 187.343 21.2315 183.993 21.2241 179.856L21.1003 110.594C21.0928 106.447 24.4529 103.081 28.6003 103.081Z" fill="white" stroke="#2BD4DB"/>
<g clip-path="url(#clip4)">
<path d="M56.0323 153.02C56.1874 152.969 56.3426 152.917 56.4886 152.865C56.8454 152.739 57.1942 152.588 57.5558 152.476C57.7632 152.412 57.9866 152.348 58.2437 152.283C58.7351 152.16 59.2266 152.038 59.718 151.915V151.915C60.6827 151.754 61.4562 152.634 61.1334 153.557C60.9477 154.088 60.7641 154.62 60.6024 155.151C60.5861 155.205 60.578 155.26 60.578 155.316V155.316C60.578 155.663 60.8816 155.93 61.2257 155.889C61.9926 155.798 62.7596 155.723 63.5265 155.723C64.3009 155.723 65.0753 155.8 65.8497 155.892C66.1819 155.932 66.475 155.673 66.475 155.339V155.339C66.475 155.268 66.4615 155.198 66.4355 155.132C66.2306 154.613 66.0471 154.094 65.8757 153.575C65.5684 152.645 66.4056 151.605 67.335 151.915V151.915C67.8265 152.038 68.3179 152.16 68.8093 152.283C69.1779 152.406 69.6693 152.529 70.0379 152.652C70.4064 152.775 70.775 152.898 71.0207 153.02V153.02C75.0492 154.833 80.3377 155.45 82.3813 151.533C83.9187 148.587 84.7805 145.246 84.7805 141.718C84.9034 129.801 75.3206 120.341 63.5265 120.341C51.7324 120.341 42.2725 129.924 42.2725 141.595C42.2725 145.344 43.2091 148.848 44.8714 151.874C46.9154 155.594 51.8787 155.083 55.6792 153.192C55.7966 153.133 55.9143 153.076 56.0323 153.02Z" fill="#8688A0"/>
<path d="M58.2515 154.567C57.972 155.462 58.9577 156.375 59.8693 156.158C59.9529 156.138 60.0367 156.119 60.1205 156.099C60.459 156.022 60.7005 155.722 60.7005 155.375V155.375C60.7005 155.28 60.7186 155.187 60.7531 155.099C60.9527 154.591 61.1321 154.083 61.2998 153.575C61.6071 152.645 60.7699 151.605 59.8405 151.915V151.915C59.3491 152.038 58.8577 152.16 58.3663 152.283C58.3583 152.286 58.3503 152.289 58.3422 152.291C58.0028 152.403 58.0147 152.854 58.3628 152.935V152.935C58.5635 152.981 58.6824 153.188 58.6209 153.385L58.2515 154.567Z" fill="#525353"/>
<path d="M53.4866 159.497C53.6714 159.312 53.8198 159.016 53.8535 158.756C53.8899 158.476 53.9437 158.178 53.9437 157.934C53.9437 157.689 54.0666 157.443 54.4351 157.443V157.443C54.6538 157.443 54.8464 157.299 54.9087 157.09L55.1478 156.285C55.5427 154.957 54.2186 153.841 53.0838 154.636C52.4353 155.091 51.8177 155.588 51.2374 156.128C50.3621 156.942 50.4847 158.314 51.4614 159.004C51.7345 159.197 52.0111 159.386 52.2894 159.574C52.6789 159.836 53.1544 159.829 53.4866 159.497V159.497Z" fill="#525353"/>
<path d="M74.2115 154.814C73.0886 154.023 71.7661 155.115 72.1575 156.431L72.3899 157.213C72.4522 157.423 72.6449 157.566 72.8635 157.566V157.566C73.1092 157.566 73.355 157.689 73.355 158.058C73.355 158.286 73.355 158.561 73.3841 158.826C73.4177 159.129 73.6204 159.376 73.8396 159.588V159.588C74.2088 159.946 74.7459 159.994 75.178 159.715C75.3531 159.602 75.5275 159.484 75.7007 159.363C76.8166 158.579 76.8866 156.976 75.8508 156.089C75.3172 155.632 74.7701 155.207 74.2115 154.814Z" fill="#525353"/>
<path d="M68.6773 153.385C68.6158 153.188 68.7347 152.981 68.9354 152.935V152.935C69.2835 152.854 69.3034 152.377 68.957 152.29C68.9487 152.287 68.9403 152.285 68.932 152.283C68.4405 152.16 67.9491 152.038 67.4577 151.915V151.915C66.493 151.754 65.7195 152.634 66.0422 153.557C66.2247 154.079 66.4051 154.601 66.5646 155.123C66.5868 155.195 66.5977 155.27 66.5977 155.346V155.346C66.5977 155.71 66.8509 156.024 67.2056 156.106C67.2802 156.123 67.3546 156.14 67.4289 156.158C68.3405 156.375 69.3262 155.462 69.0467 154.567L68.6773 153.385Z" fill="#525353"/>
<path d="M63.5265 157.567H65.6473C66.1301 157.567 66.5013 157.098 66.4834 156.616V156.616C66.4695 156.242 66.1964 155.934 65.8247 155.89C65.0586 155.798 64.2926 155.724 63.5265 155.724C62.7604 155.724 61.9943 155.798 61.2282 155.89C60.8565 155.934 60.5835 156.242 60.5696 156.616V156.616C60.5517 157.098 60.9228 157.567 61.4056 157.567H63.5265Z" fill="black"/>
<path d="M53.1786 159.764C53.0375 159.887 53.0462 160.126 53.2136 160.21C53.2329 160.219 53.2522 160.229 53.2715 160.239C53.4273 160.317 53.6158 160.23 53.6436 160.058C53.6487 160.027 53.6533 159.996 53.6575 159.965C53.6902 159.726 53.3605 159.606 53.1786 159.764V159.764Z" fill="black"/>
<path d="M57.4562 157.077C57.3626 157.311 57.5349 157.566 57.7869 157.566H59.9594C60.3229 157.566 60.6415 157.319 60.6721 156.957V156.957C60.7148 156.452 60.2306 156.069 59.7383 156.189C59.0068 156.367 58.2912 156.577 57.6282 156.892C57.5494 156.93 57.4886 156.996 57.4562 157.077V157.077Z" fill="black"/>
<path d="M73.8788 159.685C73.6857 159.492 73.3869 159.628 73.4285 159.898C73.4312 159.915 73.4338 159.932 73.4364 159.949C73.4669 160.151 73.6928 160.283 73.8752 160.192V160.192C74.0426 160.108 74.0788 159.885 73.9465 159.753C73.9242 159.731 73.9017 159.708 73.8788 159.685Z" fill="black"/>
<path d="M69.4686 157.566C69.6999 157.566 69.8734 157.354 69.828 157.127V157.127C69.8059 157.016 69.734 156.921 69.6315 156.873C68.9796 156.569 68.278 156.364 67.561 156.189C67.0687 156.069 66.5845 156.452 66.6272 156.957V156.957C66.6578 157.319 66.9765 157.566 67.3399 157.566H69.4686Z" fill="black"/>
<path d="M56.6342 157.566C56.9984 157.566 57.3121 157.308 57.3835 156.951V156.951L58.2243 154.261C58.4335 153.591 58.0287 152.885 57.3452 152.728V152.728C57.1292 152.678 56.9033 152.688 56.6936 152.76C56.67 152.768 56.6465 152.776 56.6233 152.784C56.2395 152.918 55.9664 153.241 55.8505 153.631L55.1008 156.152C54.8912 156.858 55.4194 157.566 56.1549 157.566V157.566H56.6342Z" fill="#AA9678"/>
<path d="M69.669 156.951V156.951C69.7404 157.308 70.054 157.566 70.4183 157.566H70.8975V157.566C71.6331 157.566 72.1613 156.858 71.9517 156.152L71.1975 153.615C71.0865 153.242 70.7982 152.953 70.433 152.817C70.4269 152.815 70.4209 152.813 70.4148 152.811C70.1667 152.718 69.8964 152.684 69.6383 152.743V152.743C68.992 152.893 68.6093 153.56 68.8071 154.193L69.669 156.951Z" fill="#AA9678"/>
<path d="M63.5269 160.698C63.5269 159.443 62.5093 158.426 61.254 158.426H60.4555H57.0155H56.1666C55.4141 158.426 54.8187 159.023 54.694 159.766V159.766C54.5854 160.412 54.8586 161.1 55.4621 161.357C57.2612 162.121 59.236 162.629 61.2584 162.848C62.5064 162.984 63.5269 161.954 63.5269 160.698V160.698Z" fill="#C0B098"/>
<path d="M72.5735 159.765C72.4551 158.995 71.7938 158.426 71.0152 158.426H70.1608H66.7208H65.9222C64.667 158.426 63.6494 159.443 63.6494 160.698V160.698C63.6494 161.954 64.6699 162.985 65.9183 162.854C67.9761 162.638 69.9202 162.128 71.7179 161.357C72.3369 161.092 72.6758 160.43 72.5735 159.765V159.765Z" fill="#AA9678"/>
<path d="M73.355 159.163C73.355 158.795 73.2321 158.303 73.2321 157.935C73.2321 157.689 73.1092 157.443 72.7407 157.443H72.3721H70.8978H69.7921H66.475H63.4037H60.3323H57.0152H55.9095H54.4352H54.3123C54.0666 157.443 53.8209 157.566 53.8209 157.935C53.8209 158.225 53.8209 158.592 53.7609 158.914C53.7297 159.082 53.7011 159.25 53.6873 159.42C53.6678 159.661 53.6261 159.872 53.5994 160.074C53.5738 160.268 53.6543 160.434 53.8309 160.517V160.517C54.1217 160.655 54.4772 160.467 54.5251 160.149C54.5667 159.874 54.6082 159.606 54.6497 159.335C54.7406 158.744 55.2484 158.303 55.847 158.303H57.0152H60.4551H63.5265H66.5979H70.0379H71.1185C71.743 158.303 72.2394 158.812 72.3265 159.431C72.362 159.683 72.4099 159.935 72.4701 160.193C72.5391 160.49 72.8282 160.647 73.1092 160.53V160.53C73.3023 160.449 73.4781 160.25 73.4493 160.043C73.4131 159.781 73.355 159.501 73.355 159.163Z" fill="#8B7460"/>
<path d="M70.1008 154.928C70.135 154.962 70.107 154.956 70.0679 154.928V154.928C70.0263 154.897 70.0643 154.891 70.1008 154.928V154.928Z" fill="#AA9678"/>
<path d="M77.8617 137.183C77.8069 137.012 77.7396 136.844 77.635 136.697C77.5835 136.625 77.5279 136.553 77.4746 136.481C77.3378 136.296 77.2034 136.106 77.0406 135.943V135.943L76.9178 135.821V135.821C76.8724 135.775 76.7949 135.807 76.7949 135.871V137.581C76.7949 137.636 76.8007 137.69 76.8122 137.744L77.5261 141.075C77.5301 141.094 77.5321 141.086 77.5321 141.105V141.105C77.5321 141.166 77.5528 141.252 77.591 141.3L77.9238 141.716C77.9868 141.795 78.0822 141.84 78.183 141.84H78.392C78.4599 141.84 78.5149 141.785 78.5149 141.718V141.718C78.6307 140.097 78.3101 138.585 77.8617 137.183Z" fill="#BBBCBD"/>
<path d="M77.5322 141.472C77.5322 141.595 77.5322 141.595 77.5322 141.718C77.5322 141.841 77.5322 141.841 77.5322 141.963V141.963C77.5322 142.045 77.6348 142.081 77.6857 142.017L77.8931 141.758C77.9645 141.669 77.9479 141.538 77.8564 141.469L77.7288 141.374C77.6478 141.313 77.5322 141.371 77.5322 141.472V141.472Z" fill="#676A6A"/>
<path d="M77.5323 142.21C77.5323 142.21 77.5323 142.21 77.5323 142.21C77.5323 142.21 77.5323 142.087 77.5323 142.21C77.5323 142.087 77.5323 142.087 77.5323 141.964C77.5323 141.964 77.5323 141.964 77.5323 141.964C77.5323 141.964 77.5323 141.964 77.5323 141.841C77.5323 141.719 77.5323 141.719 77.5323 141.596C77.5323 141.473 77.5323 141.473 77.5323 141.35C77.5323 141.35 77.5323 141.35 77.5323 141.35C77.5323 141.35 77.5323 141.35 77.5323 141.227C77.5323 141.104 77.4094 140.859 77.4094 140.736C77.4094 140.736 77.4094 140.736 77.4094 140.736C77.4094 140.736 77.4094 140.676 77.3673 140.639C77.3251 140.603 77.2645 140.591 77.2251 140.551V140.551C77.1858 140.512 77.1324 140.49 77.0768 140.49H77.0408H76.918H76.7951H76.7591C76.7035 140.49 76.6502 140.512 76.6108 140.551V140.551C76.5715 140.591 76.5559 140.65 76.5219 140.694C76.5197 140.697 76.5174 140.699 76.515 140.702C76.4721 140.747 76.3983 140.758 76.3658 140.812C76.3037 140.914 76.3037 141.031 76.3037 141.227C76.3037 141.35 76.3037 141.35 76.3037 141.473V141.596V141.596C76.3037 141.719 76.3037 141.719 76.3037 141.841C76.3037 142.701 76.6723 143.316 77.1637 143.316C77.2575 143.316 77.2797 143.316 77.3397 143.261C77.3857 143.219 77.4531 143.201 77.4984 143.158C77.5009 143.156 77.5033 143.153 77.5057 143.151C77.5419 143.109 77.5544 143.048 77.5937 143.009L77.6148 142.987C77.6406 142.962 77.653 142.925 77.6676 142.892C77.6696 142.887 77.6718 142.883 77.6744 142.878C77.7087 142.82 77.778 142.769 77.778 142.701V142.701C77.778 142.701 77.778 142.701 77.778 142.701C77.778 142.701 77.778 142.64 77.8218 142.604C77.8579 142.574 77.8971 142.542 77.9039 142.496V142.496C77.9148 142.421 77.8945 142.331 77.8195 142.324C77.5323 142.296 77.5323 142.21 77.5323 142.21ZM76.7951 141.596C76.6723 141.596 76.4266 141.35 76.4266 141.104C76.4266 140.859 76.5494 140.613 76.7951 140.613C76.813 140.613 76.8302 140.614 76.8468 140.617C77.2587 140.679 77.2118 141.596 76.7951 141.596V141.596Z" fill="black"/>
<path d="M76.7953 141.595C76.9989 141.595 77.1639 141.375 77.1639 141.103C77.1639 140.832 76.9989 140.612 76.7953 140.612C76.5918 140.612 76.4268 140.832 76.4268 141.103C76.4268 141.375 76.5918 141.595 76.7953 141.595Z" fill="white"/>
<path d="M76.0411 140.607C76.0275 140.671 76.0574 140.678 76.0574 140.613V140.613C76.0574 140.613 76.0574 140.613 76.0574 140.613C76.0574 140.613 76.0574 140.553 76.0995 140.517C76.1417 140.481 76.2024 140.468 76.2417 140.429V140.429C76.281 140.389 76.3344 140.367 76.39 140.367H76.426H76.5488H76.6717H76.7077C76.7633 140.367 76.8167 140.389 76.856 140.429V140.429C76.8953 140.468 76.9109 140.527 76.945 140.571C76.9609 140.592 76.9859 140.609 77.0253 140.612C77.0348 140.613 77.0439 140.617 77.0505 140.624V140.624C77.0813 140.656 77.0976 140.646 77.0913 140.601L76.8117 138.645C76.7838 138.449 76.5056 138.44 76.4642 138.633L76.0411 140.607Z" fill="#909393"/>
<path d="M66.5984 141.84C66.5984 141.717 66.5984 141.717 66.5984 141.594C66.5984 141.471 66.5984 141.471 66.5984 141.471V141.348V141.348V141.348C66.5984 141.309 66.5984 141.283 66.5945 141.265C66.5788 141.19 66.4526 141.121 66.3781 141.106V141.106C66.3423 141.098 66.3378 141.088 66.3143 141.06C66.2042 140.93 66.0941 140.721 65.9841 140.611C65.9216 140.549 65.8274 140.486 65.7175 140.424C65.4934 140.296 65.2591 140.12 65.0013 140.12V140.12C64.8784 140.12 64.7555 140.12 64.6327 140.12C64.5098 140.12 64.387 140.12 64.2641 140.12C64.1413 140.12 64.0184 140.243 63.8955 140.243C63.8808 140.243 63.8661 140.244 63.8513 140.247C63.6336 140.293 63.4386 140.454 63.2813 140.611V140.611C63.1659 140.726 63.0505 140.842 62.9351 141.059C62.9199 141.088 62.901 141.114 62.8781 141.137L62.8302 141.185C62.8044 141.211 62.792 141.247 62.7773 141.281C62.7754 141.285 62.7732 141.29 62.7706 141.294C62.7363 141.353 62.667 141.403 62.667 141.471V141.471V141.594C62.667 141.717 62.667 141.717 62.667 141.84C62.667 141.962 62.667 142.085 62.667 142.208V142.208C62.667 142.466 62.8435 142.7 62.971 142.924C63.0335 143.034 63.0959 143.129 63.1584 143.191C63.2738 143.306 63.3892 143.422 63.6063 143.537C63.635 143.552 63.6615 143.571 63.6844 143.594L63.7323 143.642C63.7582 143.668 63.7946 143.68 63.828 143.695C63.8325 143.697 63.8369 143.699 63.8413 143.702C63.8999 143.736 63.9506 143.805 64.0184 143.805V143.805H64.1413C64.2641 143.805 64.2641 143.805 64.387 143.805C64.6327 143.805 64.8784 143.682 65.1241 143.682V143.682C65.3819 143.682 65.6252 143.507 65.7894 143.308C65.8639 143.218 65.924 143.128 65.9841 143.068V143.068C66.1628 142.889 66.2399 142.622 66.4036 142.43C66.5984 142.201 66.5984 142.02 66.5984 141.84ZM64.6327 141.594C64.2641 141.594 63.8955 141.225 63.8955 140.857C63.8955 140.488 64.2641 140.12 64.6327 140.12C65.0013 140.12 65.3698 140.488 65.3698 140.857C65.3698 141.225 65.0013 141.594 64.6327 141.594Z" fill="black"/>
<path d="M64.6326 141.594C65.0398 141.594 65.3698 141.264 65.3698 140.857C65.3698 140.45 65.0398 140.12 64.6326 140.12C64.2255 140.12 63.8955 140.45 63.8955 140.857C63.8955 141.264 64.2255 141.594 64.6326 141.594Z" fill="white"/>
<path d="M59.9247 141.121C62.0046 140.654 63.6833 139.123 64.3394 137.095L64.4808 136.658C64.5811 136.348 64.6321 136.024 64.6321 135.699V135.699C64.6321 135.576 64.6321 135.576 64.6321 135.453C64.6321 135.453 64.6321 135.453 64.6321 135.453C64.6321 135.453 64.6321 135.453 64.6321 135.33V135.33C64.6321 135.259 64.5809 135.199 64.5109 135.187C63.8019 135.071 62.9949 134.962 62.2978 134.962C62.0521 134.962 61.8064 134.962 61.4379 134.962H61.315C59.9636 135.084 58.6122 135.453 57.2608 135.944C56.1551 136.436 55.1722 137.05 54.1894 137.91C53.9934 138.106 53.7974 138.302 53.6014 138.436C53.5064 138.501 53.4107 138.566 53.3294 138.647V138.647C53.11 138.867 52.9886 139.086 52.7902 139.218C52.7423 139.25 52.6944 139.282 52.6537 139.323V139.323C52.613 139.364 52.5799 139.411 52.5504 139.46C52.4297 139.662 52.2346 139.864 52.0333 140.066C51.9979 140.102 51.978 140.103 51.978 140.153V140.153C51.978 140.183 51.9714 140.258 51.9572 140.284C51.8431 140.491 51.6511 140.698 51.5283 140.905C51.4989 140.955 51.4658 141.002 51.4251 141.043L51.3957 141.072C51.3745 141.094 51.3539 141.124 51.3405 141.151V141.151C51.2291 141.373 51.4201 141.719 51.6687 141.719H56.9857C57.1685 141.719 57.3508 141.698 57.5292 141.658L59.9247 141.121Z" fill="#BBBCBD"/>
<path d="M68.5367 140.051C68.5538 139.934 68.5642 139.816 68.5642 139.697C68.5642 139.584 68.5642 139.46 68.5642 139.384C68.5642 139.138 68.5642 138.892 68.5642 138.769C68.5642 138.647 68.5642 138.401 68.5642 138.278V138.155C68.5642 137.823 68.5642 137.547 68.5642 137.252C68.5642 137.004 68.3819 136.729 68.1662 136.608C68.147 136.597 68.127 136.586 68.106 136.575C68.0843 136.564 68.0597 136.559 68.0361 136.552C67.9999 136.542 67.9499 136.514 67.9499 136.435V136.435H67.8271H67.7042V136.435V136.435C67.4866 136.326 67.1725 136.218 66.9328 136.109C66.8733 136.082 66.8133 136.056 66.7511 136.036C66.174 135.848 65.4717 135.661 64.9717 135.474C64.8131 135.414 64.6328 135.529 64.6328 135.698V135.698V135.821V135.821C64.6328 136.146 64.6839 136.47 64.7841 136.78L65.8882 140.193C65.9513 140.388 66.0694 140.557 66.1931 140.721C66.2406 140.783 66.2882 140.857 66.3358 140.948C66.3472 140.969 66.3511 140.994 66.3571 141.018C66.3614 141.035 66.3687 141.049 66.3777 141.06C66.4162 141.107 66.4478 141.168 66.491 141.211V141.211C66.5342 141.254 66.5985 141.276 66.5985 141.337C66.5985 141.349 66.5985 141.349 66.5985 141.349C66.5985 141.349 66.5985 141.349 66.5985 141.349C66.5985 141.472 66.5985 141.472 66.5985 141.472C66.5985 141.472 66.5985 141.472 66.5985 141.472V141.472C66.5985 141.608 66.7085 141.718 66.8442 141.718H67.5644C68.0076 141.718 68.3875 141.414 68.4328 140.973C68.4616 140.693 68.488 140.385 68.5367 140.051Z" fill="#E2DDDB"/>
<path d="M66.5971 147.861C66.9657 147.492 67.3342 147.124 67.7028 146.755C67.9485 146.509 68.0714 146.387 68.3171 146.141C69.6399 144.698 70.7273 143.255 71.3488 141.466C71.3756 141.389 71.3885 141.308 71.3885 141.227V141.227C71.3885 141.104 71.3885 141.104 71.3885 140.981V140.981C71.3885 140.97 71.3712 140.747 71.3694 140.737C71.2335 139.943 70.8979 139.252 70.6642 138.562C70.6557 138.537 70.6415 138.514 70.6227 138.495L70.5285 138.401C70.4478 138.32 70.314 138.24 70.1969 138.124C70.0712 138 69.963 137.855 69.8252 137.744C69.7406 137.677 69.6554 137.607 69.5692 137.536C69.0669 137.128 68.4399 137.508 68.4399 138.155V138.155V138.278C68.4399 138.401 68.4399 138.647 68.4399 138.77C68.4399 139.015 68.4399 139.261 68.4399 139.384C68.4399 139.507 68.4399 139.752 68.4399 139.875C68.4399 140.49 68.3171 141.104 68.1942 141.718L68.0714 142.578C67.7028 144.175 66.8428 145.772 66.1057 147.369C65.9836 147.736 65.7403 148.223 65.6167 148.591C65.6151 148.596 65.6143 148.601 65.6143 148.606V148.606C65.6143 148.648 65.6657 148.669 65.6957 148.639C65.8704 148.465 65.9759 148.359 66.0747 148.26C66.0952 148.24 66.119 148.223 66.1447 148.209C66.3647 148.093 66.4809 147.977 66.5971 147.861Z" fill="#FBB040"/>
<path d="M63.3872 140.036C63.3602 140.12 63.4638 140.183 63.526 140.121V140.121C63.6488 139.998 63.7717 139.998 63.8946 139.998C64.0174 139.998 64.1403 139.875 64.2631 139.875C64.386 139.875 64.5088 139.875 64.6317 139.875C64.7545 139.875 64.8774 139.875 65.0003 139.875C65.1103 139.875 65.2204 139.974 65.3304 139.994C65.3554 139.999 65.3857 140.006 65.4084 140.018V140.018C65.5623 140.095 65.8267 139.883 65.7737 139.719L65.2083 137.972C65.0273 137.412 64.2361 137.412 64.0551 137.972L63.3872 140.036Z" fill="#909393"/>
<path d="M62.8212 142.64C62.7962 142.591 62.7921 142.547 62.7738 142.495C62.7407 142.399 62.6668 142.304 62.6668 142.209C62.6668 142.086 62.6668 141.963 62.6668 141.84C62.6668 141.717 62.6668 141.717 62.6668 141.595V141.472V141.349C62.6668 141.349 62.6668 141.349 62.6668 141.349C62.6668 141.349 62.6668 141.332 62.6729 141.311C62.6971 141.228 62.749 141.12 62.8343 141.106V141.106C62.874 141.1 62.9241 141.093 62.9501 141.062V141.062C63.0495 140.944 62.8951 140.71 62.7458 140.748L60.5588 141.307C59.7775 141.506 59.7886 142.62 60.5739 142.804L62.3982 143.231C62.7146 143.305 62.9669 142.931 62.8212 142.64V142.64Z" fill="#676A6A"/>
<path d="M75.8121 141.473V141.473C75.8121 141.228 75.838 140.984 75.8893 140.744L76.4748 138.012C76.5243 137.781 76.5492 137.545 76.5492 137.309V137.309C76.5492 136.291 76.1396 135.176 75.1558 134.914C74.9724 134.866 74.7824 134.839 74.5835 134.839C73.7235 134.839 72.8636 135.33 72.2493 135.944C71.6383 136.555 71.0274 137.409 70.6582 138.265C70.6542 138.274 70.6525 138.271 70.6521 138.281V138.281C70.6493 138.347 70.6094 138.482 70.6563 138.529C70.7368 138.609 70.8173 138.69 70.8979 138.77C71.1436 139.016 71.3893 139.262 71.7579 139.63C71.8807 139.753 72.0036 139.876 72.1264 139.999C72.2493 140.122 72.3721 140.244 72.495 140.367C72.6178 140.49 72.8636 140.736 72.9864 140.859V140.859C73.1492 141.021 73.2761 141.217 73.429 141.39C73.5384 141.513 73.6697 141.621 73.8032 141.696C73.8315 141.712 73.8581 141.73 73.881 141.753V141.753C73.9375 141.81 74.0142 141.842 74.0941 141.842H75.2877C75.5448 141.842 75.8121 141.73 75.8121 141.473V141.473Z" fill="#E2DDDB"/>
<path d="M49.9367 144.424C50.0279 144.188 50.0495 143.928 50.1464 143.695C50.2038 143.557 50.2611 143.436 50.3185 143.319C50.3597 143.235 50.3771 143.135 50.4431 143.069V143.069C50.5091 143.003 50.5263 142.903 50.568 142.819C50.6544 142.647 50.7407 142.474 50.827 142.301C50.8573 142.241 50.8644 142.167 50.9079 142.115C50.9199 142.1 50.9336 142.088 50.9466 142.074C51.0021 142.017 51.0277 141.932 51.0843 141.875V141.875C51.1072 141.852 51.1262 141.826 51.1407 141.797C51.2563 141.566 51.3718 141.342 51.4874 141.226L51.5871 141.127C51.6024 141.111 51.6151 141.094 51.6253 141.074C51.7341 140.872 51.9196 140.67 52.0447 140.468C52.0599 140.443 52.1017 140.291 52.1017 140.262V140.262C52.1017 140.258 52.1027 140.242 52.1046 140.238C52.2284 139.994 52.4722 139.75 52.716 139.506V139.506C52.7973 139.425 52.8622 139.329 52.928 139.235C53.0275 139.092 53.1615 138.958 53.3042 138.858C53.3986 138.793 53.4946 138.728 53.576 138.646V138.646V138.646C54.011 138.211 54.4007 137.692 54.6521 137.131C55.8709 134.408 58.5772 132.504 61.6844 132.504C63.0358 132.504 64.5101 132.872 65.6158 133.609C66.8326 134.339 67.8084 135.431 68.4238 136.646C68.4355 136.669 68.4415 136.694 68.4415 136.72V136.72C68.4415 136.773 68.4661 136.822 68.5085 136.853C68.9307 137.163 69.4321 137.473 69.8663 137.783C69.982 137.866 70.091 137.958 70.2036 138.045C70.317 138.132 70.4451 138.237 70.5251 138.391C70.5284 138.397 70.5327 138.403 70.5378 138.408L70.5688 138.439C70.5998 138.47 70.6529 138.449 70.6529 138.405V138.405C70.6529 138.402 70.6531 138.399 70.6535 138.397C71.1455 135.327 72.4964 133.118 74.0929 133.118C75.2956 133.118 76.3806 134.295 77.0021 136.189C77.0287 136.271 77.0591 136.352 77.1051 136.424C77.2053 136.581 77.3414 136.731 77.4465 136.839C77.5013 136.896 77.5328 136.971 77.5328 137.049V137.049V137.049C77.5328 136.968 77.5198 136.887 77.4934 136.81C75.4925 130.973 69.8728 126.729 63.4044 126.729C55.1731 126.729 48.416 133.364 48.416 141.718C48.416 142.874 48.5447 144.03 48.8021 145.139C48.8875 145.507 49.3995 145.509 49.4942 145.143V145.143C49.5114 145.077 49.5479 145.01 49.594 144.959C49.7635 144.773 49.8725 144.589 49.9367 144.424Z" fill="#525353"/>
<path d="M78.2228 141.841C78.0967 141.841 77.9775 141.898 77.8988 141.996L77.6147 142.351C77.5611 142.418 77.5556 142.51 77.5131 142.584C77.5011 142.605 77.4815 142.627 77.4493 142.66C77.4238 142.686 77.4112 142.722 77.3966 142.756C77.3946 142.76 77.3924 142.765 77.3898 142.769C77.3556 142.828 77.2862 142.878 77.2862 142.946V142.946C77.2862 142.946 77.2862 142.946 77.2862 142.946C77.2862 142.946 77.2862 143.006 77.2442 143.042C77.202 143.079 77.1413 143.091 77.1019 143.13L77.0809 143.152C77.055 143.177 77.0509 143.188 77.0151 143.195V143.195C76.9406 143.21 76.8516 143.32 76.7977 143.373C76.766 143.405 76.7353 143.438 76.672 143.438C76.2749 143.438 75.9581 143.037 75.851 142.429C75.8062 142.175 75.6025 141.963 75.3442 141.963V141.963C74.9274 141.963 74.6827 142.5 74.9583 142.813C75.0213 142.884 75.0869 142.956 75.1567 143.028C75.1838 143.055 75.2084 143.085 75.2305 143.117C75.4753 143.47 75.8227 143.822 76.0577 144.175C76.2899 144.523 76.5221 144.871 76.8581 145.22C76.8959 145.259 76.9082 145.279 76.9279 145.33V145.33C76.9526 145.394 77.0631 145.438 77.103 145.494C77.1376 145.542 77.1739 145.59 77.2115 145.638C77.4891 145.995 78.1005 145.881 78.2084 145.442C78.4621 144.41 78.6033 143.335 78.6321 142.255C78.6382 142.026 78.4519 141.841 78.2228 141.841V141.841Z" fill="white"/>
<path d="M61.3143 134.961C61.4372 134.961 61.4372 134.961 61.3143 134.961C61.6829 134.961 61.9286 134.961 62.1743 134.961C62.9872 134.961 63.6903 135.07 64.3874 135.186C64.4573 135.198 64.5085 135.258 64.5085 135.329V135.329C64.5085 135.329 64.5085 135.329 64.5085 135.329C64.5085 135.329 64.5085 135.329 64.5085 135.452V135.575V135.575C64.5085 135.325 64.7432 135.141 64.9843 135.206C65.4995 135.344 66.1765 135.549 66.72 135.821C66.9309 135.926 67.2323 136.031 67.4688 136.137C67.5426 136.17 67.622 136.189 67.7028 136.189V136.189H67.8257C67.8257 136.189 67.8257 136.189 67.8257 136.189C67.8257 136.189 67.8388 136.189 67.8565 136.193C67.9583 136.218 67.9889 136.356 68.0766 136.413C68.162 136.469 68.2605 136.517 68.3423 136.541C68.395 136.556 68.4399 136.513 68.4399 136.458V136.458C68.4399 136.443 68.4364 136.428 68.4294 136.414C67.8145 135.194 66.8358 134.096 65.6143 133.363C64.3857 132.626 63.0343 132.258 61.6829 132.258C59.5209 132.258 57.5531 133.18 56.1453 134.658C55.4133 135.426 56.4129 136.252 57.3829 135.821V135.821C58.6115 135.329 59.9629 134.961 61.3143 134.961Z" fill="black"/>
<path d="M72.3715 135.943C72.9858 135.329 73.8458 134.838 74.7058 134.838C75.415 134.838 76.0105 135.065 76.6017 135.63C76.6468 135.673 76.7511 135.703 76.779 135.759V135.759C76.8069 135.815 76.8191 135.845 76.8632 135.89L76.9172 135.943V135.943C76.9804 136.007 77.0828 135.944 77.0528 135.859C76.4218 134.087 75.3727 132.995 74.2144 132.995C73.1473 132.995 72.19 133.982 71.5255 135.553C71.3018 136.082 72.004 136.384 72.3715 135.943V135.943Z" fill="black"/>
<path d="M58.0394 155.517C58.1745 155.571 58.3204 155.607 58.4508 155.672V155.672C58.5531 155.722 58.6678 155.739 58.7769 155.772C60.3193 156.238 61.8657 156.582 63.5267 156.582C65.4594 156.582 67.2734 156.225 68.9686 155.513C69.0258 155.489 69.0972 155.483 69.1458 155.445V155.445C69.2409 155.369 69.3446 155.29 69.4611 155.255C69.4831 155.249 69.5063 155.244 69.5312 155.24C69.6969 155.217 69.8554 155.138 70.0212 155.114C70.0677 155.108 70.1143 155.108 70.1609 155.108V155.108C70.0793 155.108 69.9982 155.118 69.9182 155.135C69.4494 155.23 68.8931 155.221 68.4409 155.108C65.7814 154.682 64.8721 153.52 64.7557 152.258C64.7229 151.903 64.5071 151.607 64.2616 151.347C64.2505 151.335 64.2397 151.323 64.2292 151.311C64.1614 151.229 64.011 151.08 63.9264 151.016V151.016C63.3039 150.545 64.0352 149.72 64.7561 150.02C64.795 150.036 64.834 150.052 64.8732 150.068C64.8764 150.07 64.8831 150.07 64.8866 150.07V150.07C64.918 150.07 65.047 150.014 65.0551 149.984C65.1573 149.603 65.2594 149.295 65.3615 148.989C65.3668 148.973 65.3695 148.956 65.3695 148.94V148.895C65.3695 148.86 65.3736 148.825 65.3829 148.791C65.5094 148.325 65.7424 147.969 65.8609 147.613C66.5981 146.016 67.458 144.542 67.8266 142.822V142.822C67.8914 142.368 67.5392 141.962 67.0807 141.962H66.9788C66.5649 141.962 66.1066 142.285 66.1066 142.699V142.699C66.1066 142.779 66.0544 142.859 66.0181 142.939C65.9817 143.019 65.9661 143.111 65.913 143.181C65.8559 143.257 65.7879 143.319 65.7209 143.374C65.5948 143.476 65.5479 143.659 65.4203 143.76V143.76C65.3954 143.779 65.3552 143.812 65.3262 143.825C65.0949 143.928 64.8637 143.928 64.6324 143.928C64.5095 143.928 64.5095 143.928 64.3866 143.928H64.2638H64.1409C64.1409 143.928 64.1409 143.928 64.1409 143.928C64.1409 143.928 64.1243 143.928 64.1032 143.922C64.0202 143.897 63.9129 143.847 63.8983 143.761V143.761C63.8913 143.72 63.8791 143.665 63.8471 143.639C63.7777 143.581 63.6877 143.524 63.6023 143.466C63.4663 143.375 63.3192 143.294 63.1596 143.256L58.529 142.172C57.9314 142.033 57.3196 141.962 56.7059 141.962H51.2051C51.1495 141.962 51.0961 141.984 51.0568 142.023V142.023C51.0175 142.063 51.0023 142.121 50.9705 142.167C50.9523 142.193 50.9274 142.212 50.9073 142.236C50.8638 142.288 50.8568 142.362 50.8263 142.423C50.7561 142.562 50.6858 142.697 50.6155 142.803C50.5517 142.899 50.4934 143.006 50.4179 143.094V143.094C50.3737 143.145 50.3652 143.222 50.3351 143.283C50.2276 143.499 50.1201 143.728 50.0125 144.05C49.8897 144.419 49.7668 144.665 49.644 145.033V145.033C49.4219 145.922 49.4042 146.855 49.7665 147.696C50.8192 150.14 52.5091 152.216 54.5486 153.779C54.6343 153.844 54.7413 153.882 54.8198 153.956V153.956C54.8761 154.009 54.9632 154.019 55.0309 154.057C55.363 154.24 55.6437 154.474 55.9568 154.677C56.1644 154.811 56.3962 154.9 56.6293 154.982C57.1379 155.16 57.5922 155.339 58.0394 155.517Z" fill="white"/>
<path d="M69.048 151.01C68.7942 150.972 68.5635 151.166 68.5635 151.423V151.423C68.5635 151.669 68.5635 151.914 68.5635 152.16V152.16C68.5635 152.494 68.7278 152.821 68.8505 153.132C68.8714 153.185 68.8966 153.23 68.932 153.266C69.0549 153.389 69.0549 153.634 69.1778 153.757L69.2002 153.78C69.2645 153.844 69.2978 153.939 69.362 154.003V154.003C69.4263 154.067 69.468 154.155 69.5197 154.23C69.5248 154.237 69.529 154.244 69.5323 154.251C69.5661 154.323 69.569 154.407 69.6169 154.471C69.7556 154.655 69.8866 154.762 69.9645 154.817C70.0111 154.85 70.0674 154.863 70.1243 154.863V154.863C70.1484 154.863 70.1724 154.86 70.1961 154.856C70.8031 154.735 71.5238 154.612 72.1263 154.371C72.4557 154.262 72.6869 154.152 72.9954 154.042C73.0704 154.015 73.1602 154.01 73.2178 153.955V153.955C73.2958 153.881 73.4056 153.857 73.5029 153.81C73.5311 153.797 73.5592 153.783 73.5872 153.77C74.7846 153.188 73.7434 151.186 72.4128 151.221C71.1854 151.254 70.0452 151.159 69.048 151.01Z" fill="#9F2255"/>
<path d="M76.8008 145.202C76.7959 145.186 76.7895 145.15 76.7799 145.136C76.5953 144.859 76.4094 144.582 76.1701 144.305C76.0196 144.131 75.8724 143.954 75.7296 143.774C75.5111 143.498 75.2585 143.222 75.0746 142.946C74.8289 142.578 74.4604 142.209 74.0918 141.841C74.0918 141.841 74.0918 141.841 74.0918 141.841V141.841C74.0918 141.841 73.9456 141.663 73.8798 141.569C73.8128 141.473 73.7302 141.381 73.6398 141.3C73.4677 141.147 73.2717 141.02 73.109 140.858V140.858C72.9861 140.735 72.7404 140.489 72.6175 140.366C72.4947 140.243 72.3718 140.121 72.249 139.998C72.1261 139.875 72.0032 139.752 71.8804 139.629C71.6347 139.383 71.389 139.138 71.0204 138.769V138.769C70.9286 138.677 70.7802 138.77 70.8243 138.892C71.0393 139.487 71.2795 140.122 71.381 140.689C71.3865 140.719 71.3885 140.751 71.3905 140.782C71.4046 140.997 71.5118 141.12 71.5118 141.349C71.8634 144.045 71.0969 145.846 69.7456 148.033C69.6143 148.245 69.4611 148.452 69.321 148.659V148.659C69.2316 148.791 69.1261 148.905 69.0447 149.042C68.7898 149.472 68.6808 149.963 68.5789 150.378C68.5686 150.419 68.5655 150.451 68.5578 150.493V150.493C68.5119 150.745 68.6238 150.965 68.8774 151.002C70.8998 151.301 73.5247 151.334 76.3597 150.588C78.1933 150.107 78.7566 147.929 77.6546 146.386V146.386C77.4387 146.062 77.1279 145.738 76.889 145.415C76.8474 145.358 76.8208 145.269 76.8008 145.202V145.202Z" fill="#E2056F"/>
<path d="M69.4914 155.078C69.7235 155.072 69.8275 154.723 69.6945 154.533V154.533C69.6851 154.52 69.6625 154.489 69.6509 154.477C69.5456 154.372 69.5456 154.366 69.5456 154.249C69.5456 154.203 69.5281 154.174 69.5062 154.149C69.4324 154.066 69.3786 153.959 69.2999 153.881V153.881C69.271 153.852 69.2422 153.816 69.2149 153.777C69.0598 153.554 68.9806 153.298 68.9055 153.037V153.037C68.8615 152.884 68.7913 152.695 68.7356 152.546C68.7091 152.475 68.6856 152.391 68.6856 152.283C68.6856 152.198 68.6708 152.113 68.6567 152.028C68.6036 151.709 68.6856 151.378 68.6856 151.055V151.055V151.055C68.6856 150.714 68.8445 150.394 68.9646 150.076C69.0692 149.798 69.1987 149.509 69.3328 149.187C69.3931 149.042 69.4946 148.899 69.5702 148.762V148.762C69.6713 148.578 69.726 148.38 69.8332 148.199C71.2061 145.886 71.9888 144.191 71.6342 141.472C71.6342 141.349 71.5113 141.104 71.5113 140.858C71.5113 140.958 71.5113 141.058 71.4446 141.159C71.4133 141.206 71.3885 141.29 71.3885 141.347V141.347C71.3885 141.369 71.3847 141.36 71.3774 141.382C70.8509 142.947 70.0569 144.246 68.9197 145.507C68.5319 145.937 68.1122 146.346 67.7028 146.755V146.755C67.3342 147.124 66.9656 147.492 66.5971 147.861C66.4742 147.984 66.3514 148.106 66.1057 148.352C66.0394 148.418 65.9373 148.52 65.838 148.62C65.6908 148.767 65.5792 148.946 65.5202 149.146C65.4404 149.415 65.3607 149.71 65.281 149.963C65.2604 150.028 65.1814 150.107 65.1366 150.055V150.055C65.0943 150.006 65.0833 149.933 65.0236 149.908C64.906 149.86 64.79 149.81 64.6758 149.761C63.9181 149.432 63.2846 150.245 63.947 150.738C64.0738 150.833 64.2039 150.927 64.3373 151.021C64.3693 151.043 64.4032 151.064 64.4381 151.081C64.4709 151.098 64.5035 151.114 64.5357 151.132C64.9015 151.326 64.9647 151.766 65.0004 152.179C65.1164 153.519 66.0256 154.667 68.6856 154.986C68.9542 155.053 69.2228 155.084 69.4914 155.078Z" fill="black"/>
</g>
</g>
<defs>
<linearGradient id="paint0_linear" x1="530.025" y1="79.5226" x2="530.025" y2="101.676" gradientUnits="userSpaceOnUse">
<stop stop-color="#00B8F1"/>
<stop offset="0.219864" stop-color="#06A5E5"/>
<stop offset="0.794312" stop-color="#1870C5"/>
<stop offset="1" stop-color="#1D61BC"/>
</linearGradient>
<clipPath id="clip0">
<rect width="38.6792" height="46.8985" fill="white" transform="translate(157 48.2607)"/>
</clipPath>
<clipPath id="clip1">
<rect width="43.3789" height="50.4167" fill="white" transform="translate(286.677 92.4284)"/>
</clipPath>
<clipPath id="clip2">
<rect width="46.5674" height="28.6569" fill="white" transform="translate(411.09 55)"/>
</clipPath>
<clipPath id="clip3">
<rect width="54" height="37" fill="white" transform="translate(149 193)"/>
</clipPath>
<clipPath id="clip4">
<rect width="42.6309" height="42.6309" fill="white" transform="translate(42.2725 120.341)"/>
</clipPath>
</defs>
</svg>
