<svg width="680" height="581" viewBox="0 0 680 581" fill="none" xmlns="http://www.w3.org/2000/svg">
<g clip-path="url(#clip0_3_3434)">
<rect x="118" y="115.228" width="444" height="354" rx="8" fill="white"/>
<rect x="142.5" y="171.728" width="92" height="59" rx="3.5" fill="white" stroke="#2BD4DB"/>
<rect x="142.5" y="239.728" width="92" height="59" rx="3.5" fill="white" stroke="#2BD4DB"/>
<rect x="243.5" y="171.728" width="92" height="59" rx="3.5" fill="white" stroke="#2BD4DB"/>
<rect x="243.5" y="239.728" width="92" height="59" rx="3.5" fill="white" stroke="#2BD4DB"/>
<rect x="344.5" y="171.728" width="92" height="59" rx="3.5" fill="white" stroke="#2BD4DB"/>
<rect x="344.5" y="239.728" width="92" height="59" rx="3.5" fill="white" stroke="#2BD4DB"/>
<rect x="142.5" y="307.728" width="92" height="59" rx="3.5" fill="white" stroke="#2BD4DB"/>
<rect x="243.5" y="307.728" width="92" height="59" rx="3.5" fill="white" stroke="#2BD4DB"/>
<rect x="344.5" y="307.728" width="92" height="59" rx="3.5" fill="white" stroke="#2BD4DB"/>
<rect x="445.5" y="171.728" width="92" height="59" rx="3.5" fill="white" stroke="#2BD4DB"/>
<rect x="445.5" y="307.728" width="92" height="59" rx="3.5" fill="white" stroke="#2BD4DB"/>
<rect x="445.5" y="239.728" width="92" height="59" rx="3.5" fill="white" stroke="#2BD4DB"/>
<path d="M196.098 193.136C192.112 193.136 189.331 195.27 189.331 198.328C189.264 200.595 191.323 201.795 192.843 202.595C194.362 203.395 194.969 203.861 194.969 204.52C194.969 205.586 193.706 206.053 192.478 206.053C191.169 206.093 189.871 205.807 188.699 205.22L188.168 205.02L187.67 208.52C189.111 209.067 190.638 209.35 192.179 209.353C196.33 209.353 199.145 207.22 199.212 203.961C199.278 202.161 198.149 200.828 195.832 199.695C194.437 198.961 193.574 198.495 193.574 197.77C193.574 197.045 194.304 196.436 195.899 196.436C196.948 196.388 197.993 196.593 198.946 197.036L199.345 197.17L199.876 193.728C198.652 193.345 197.38 193.143 196.098 193.128V193.136ZM183.643 193.403L181.151 209.053H185.179L187.67 193.403H183.643ZM177.739 193.403L173.736 204.061L173.271 201.928C172.283 199.261 170.158 196.47 167.7 195.336L171.353 209.053H175.663L182.032 193.47L177.706 193.403H177.739ZM206.992 193.403C206.548 193.348 206.098 193.442 205.713 193.671C205.329 193.901 205.031 194.252 204.866 194.67L198.88 209.053H203.031C203.031 209.053 203.762 207.12 203.862 206.653H209.035C209.168 207.186 209.566 208.986 209.566 208.986H213.411L210.164 193.336L206.976 193.403H206.992ZM207.258 197.67L207.524 199.061C207.524 199.061 208.354 202.795 208.454 203.595H205.049C205.381 202.661 206.643 199.195 206.643 199.195C206.889 198.706 207.089 198.195 207.241 197.67H207.258Z" fill="#2A2B6D"/>
<path d="M170.091 193.403H163.589V193.669C168.63 195.003 171.951 198.194 173.404 201.928L171.951 194.736C171.685 193.736 171.021 193.469 170.091 193.403Z" fill="#F4B41A"/>
<path d="M307.884 208.678L307.51 208.303V208.678V208.303L307.884 208.678Z" fill="#F5931E"/>
<path d="M294.416 210.395H284.294V192.062H294.416V210.395Z" fill="#F06022"/>
<path d="M284.958 201.553C284.99 199.751 285.405 197.976 286.175 196.348C286.946 194.72 288.054 193.275 289.425 192.111C287.427 190.463 284.937 189.53 282.351 189.461C279.254 189.461 276.285 190.696 274.095 192.893C271.906 195.09 270.676 198.071 270.676 201.178C270.676 204.286 271.906 207.266 274.095 209.463C276.285 211.66 279.254 212.895 282.351 212.895C283.645 212.947 284.938 212.74 286.152 212.286C287.367 211.833 288.479 211.142 289.425 210.253C286.818 208.736 284.958 205.336 284.958 201.553Z" fill="#E91D25"/>
<path d="M308.183 201.411C308.161 204.475 306.939 207.408 304.781 209.575C302.623 211.742 299.702 212.971 296.649 212.995C295.358 213.05 294.068 212.848 292.854 212.402C291.64 211.956 290.526 211.274 289.575 210.395C290.967 209.356 292.097 208.003 292.873 206.446C293.649 204.888 294.049 203.169 294.042 201.428C294.01 199.637 293.594 197.873 292.823 196.257C292.053 194.641 290.945 193.21 289.575 192.061C291.808 190.57 294.042 189.445 296.649 189.445C299.723 189.607 302.622 190.931 304.762 193.151C306.902 195.371 308.124 198.323 308.183 201.411Z" fill="#F59D1E"/>
<path d="M167.965 277.978C172.673 278.053 177.099 274.111 177.099 269.303C177.086 268.119 176.839 266.949 176.371 265.862C175.903 264.775 175.225 263.792 174.374 262.97C173.524 262.149 172.52 261.506 171.419 261.078C170.319 260.65 169.145 260.446 167.965 260.478H163.88C162.735 260.478 161.601 260.704 160.543 261.144C159.486 261.584 158.524 262.228 157.715 263.041C156.905 263.853 156.263 264.818 155.825 265.88C155.387 266.941 155.161 268.079 155.161 269.228C155.161 270.377 155.387 271.515 155.825 272.577C156.263 273.638 156.905 274.603 157.715 275.415C158.524 276.228 159.486 276.872 160.543 277.312C161.601 277.752 162.735 277.978 163.88 277.978H167.965Z" fill="#0279BD"/>
<path d="M165.682 273.953V264.495C166.637 264.857 167.459 265.506 168.036 266.352C168.612 267.199 168.915 268.203 168.903 269.228C168.93 270.256 168.633 271.266 168.055 272.114C167.476 272.963 166.646 273.606 165.682 273.953ZM158.773 269.228C158.762 268.203 159.065 267.199 159.641 266.352C160.217 265.506 161.039 264.857 161.995 264.495V273.953C161.04 273.591 160.22 272.944 159.643 272.099C159.067 271.254 158.763 270.252 158.773 269.228ZM163.88 261.27C162.3 261.262 160.753 261.725 159.436 262.601C158.118 263.477 157.09 264.726 156.482 266.189C155.873 267.653 155.712 269.265 156.018 270.82C156.324 272.376 157.084 273.805 158.202 274.927C159.319 276.048 160.743 276.811 162.293 277.118C163.844 277.425 165.45 277.263 166.908 276.653C168.366 276.042 169.611 275.01 170.484 273.688C171.356 272.366 171.818 270.814 171.81 269.228C171.801 267.12 170.963 265.101 169.477 263.611C167.992 262.12 165.98 261.279 163.88 261.27Z" fill="white"/>
<path d="M179.823 264.228C179.823 263.436 179.433 263.436 179.034 263.436V263.203H181.708C184.066 263.203 185.395 264.778 185.395 266.436C185.395 267.378 184.846 269.67 181.625 269.67H179.134V269.428C179.682 269.353 179.914 269.353 179.914 268.72L179.823 264.228ZM180.761 268.561C180.761 269.27 181.317 269.353 181.708 269.353C183.667 269.353 184.298 267.853 184.298 266.511C184.327 266.118 184.272 265.722 184.137 265.351C184.002 264.98 183.791 264.642 183.516 264.359C183.241 264.077 182.91 263.856 182.544 263.711C182.178 263.566 181.785 263.501 181.392 263.52C181.156 263.532 180.92 263.557 180.686 263.595L180.761 268.595V268.561ZM185.743 269.395H185.901C186.142 269.395 186.291 269.395 186.291 269.078V266.578C186.291 266.178 186.142 266.103 185.826 265.945V265.786C186.148 265.709 186.462 265.603 186.765 265.47C186.807 265.427 186.863 265.401 186.922 265.395L187.005 265.47V269.02C187.005 269.336 187.155 269.336 187.47 269.336H187.628V269.57H185.71L185.743 269.395ZM186.69 264.036C186.575 264.026 186.468 263.97 186.393 263.881C186.319 263.792 186.282 263.677 186.291 263.561C186.298 263.451 186.34 263.345 186.412 263.261C186.484 263.177 186.582 263.118 186.69 263.095C186.922 263.095 187.08 263.253 187.08 263.561C187.105 263.626 187.113 263.696 187.103 263.765C187.093 263.834 187.065 263.899 187.022 263.953C186.98 264.008 186.923 264.051 186.859 264.077C186.795 264.103 186.725 264.112 186.657 264.103L186.69 264.036ZM188.5 266.728C188.5 266.411 188.342 266.253 187.952 266.103V265.895C188.357 265.769 188.752 265.61 189.131 265.42V266.128C189.565 265.74 190.12 265.516 190.701 265.495C191.489 265.495 191.722 266.053 191.722 266.761V269.145C191.722 269.461 191.88 269.461 192.195 269.461H192.353V269.703H190.426V269.461H190.584C190.817 269.461 190.975 269.461 190.975 269.145V266.786C190.981 266.681 190.964 266.575 190.927 266.476C190.889 266.378 190.831 266.288 190.757 266.213C190.682 266.138 190.593 266.08 190.495 266.043C190.396 266.005 190.291 265.989 190.186 265.995C189.807 266.051 189.452 266.216 189.164 266.47V269.145C189.164 269.461 189.322 269.461 189.638 269.461H189.795V269.703H187.911V269.461H188.068C188.301 269.461 188.459 269.461 188.459 269.145V266.728H188.5ZM193.216 267.203V267.753C193.193 268.138 193.319 268.517 193.569 268.811C193.818 269.105 194.171 269.29 194.553 269.328C194.797 269.332 195.038 269.277 195.256 269.168C195.474 269.059 195.663 268.9 195.807 268.703L195.965 268.861C195.783 269.162 195.531 269.412 195.229 269.591C194.928 269.77 194.588 269.871 194.238 269.886C192.826 269.886 192.511 268.461 192.511 267.836C192.511 266.02 193.69 265.545 194.313 265.545C194.51 265.528 194.71 265.551 194.898 265.615C195.086 265.679 195.259 265.78 195.407 265.914C195.554 266.048 195.672 266.211 195.754 266.392C195.836 266.574 195.879 266.77 195.882 266.97V267.128L195.807 267.203H193.216ZM194.877 266.886C195.118 266.886 195.118 266.811 195.118 266.653C195.127 266.545 195.114 266.436 195.078 266.333C195.043 266.23 194.985 266.137 194.911 266.058C194.836 265.979 194.746 265.917 194.646 265.876C194.545 265.835 194.437 265.816 194.329 265.82C194.06 265.824 193.802 265.933 193.612 266.125C193.421 266.316 193.312 266.574 193.308 266.845H194.877V266.886ZM196.139 269.486H196.372C196.613 269.486 196.762 269.486 196.762 269.17V266.67C196.762 266.353 196.372 266.27 196.297 266.27V266.12C196.679 265.936 197.073 265.777 197.476 265.645C197.496 265.645 197.515 265.653 197.529 265.667C197.543 265.681 197.551 265.7 197.551 265.72V266.553C197.783 266.236 198.182 265.603 198.73 265.603C198.865 265.596 198.997 265.642 199.099 265.73C199.201 265.819 199.265 265.943 199.278 266.078C199.287 266.193 199.252 266.306 199.179 266.395C199.106 266.484 199.002 266.54 198.888 266.553C198.647 266.553 198.647 266.311 198.257 266.311C198.159 266.321 198.065 266.351 197.98 266.399C197.895 266.447 197.82 266.513 197.761 266.591C197.702 266.669 197.659 266.758 197.636 266.854C197.613 266.949 197.609 267.048 197.626 267.145V269.228C197.626 269.545 197.783 269.545 198.024 269.545H198.572V269.778H196.081V269.461L196.139 269.486ZM199.668 268.461C199.826 269.095 200.142 269.57 200.847 269.57C201.404 269.57 201.678 269.253 201.678 268.861C201.678 267.753 199.71 268.153 199.71 266.653C199.71 266.103 200.108 265.47 201.13 265.47C201.481 265.489 201.826 265.568 202.151 265.703L202.226 266.653H202.068C202.069 266.534 202.045 266.416 201.996 266.307C201.948 266.198 201.877 266.101 201.788 266.022C201.699 265.943 201.594 265.884 201.481 265.849C201.367 265.814 201.248 265.804 201.13 265.82C200.731 265.82 200.424 265.978 200.424 266.445C200.424 267.47 202.541 267.161 202.541 268.653C202.541 269.286 202.068 269.92 200.972 269.92C200.58 269.936 200.192 269.825 199.868 269.603L199.71 268.495L199.668 268.461ZM210.588 264.995H210.355C210.328 264.765 210.254 264.543 210.14 264.342C210.025 264.142 209.872 263.966 209.688 263.826C209.504 263.686 209.295 263.585 209.071 263.528C208.848 263.471 208.615 263.46 208.387 263.495C208.021 263.5 207.66 263.581 207.327 263.734C206.994 263.886 206.696 264.107 206.452 264.381C206.209 264.655 206.025 264.978 205.912 265.327C205.799 265.677 205.76 266.046 205.796 266.411C205.753 267.194 206.016 267.962 206.53 268.553C207.043 269.143 207.766 269.508 208.545 269.57C208.987 269.577 209.416 269.421 209.75 269.13C210.085 268.839 210.3 268.435 210.355 267.995L210.513 268.07L210.355 269.411C209.713 269.706 209.018 269.868 208.312 269.886C207.846 269.917 207.379 269.849 206.941 269.687C206.503 269.524 206.104 269.27 205.77 268.942C205.436 268.614 205.175 268.22 205.003 267.783C204.832 267.347 204.754 266.88 204.775 266.411C204.818 265.528 205.203 264.696 205.849 264.094C206.494 263.491 207.348 263.166 208.229 263.186C208.982 263.229 209.724 263.386 210.43 263.653L210.588 264.995ZM210.903 269.486H211.061C211.293 269.486 211.451 269.486 211.451 269.17V264.028C211.451 263.395 211.293 263.395 210.978 263.32V263.161C211.376 263.003 211.808 262.845 211.924 262.761C212.041 262.678 212.082 262.603 212.082 262.603C212.122 262.647 212.148 262.702 212.157 262.761V269.145C212.157 269.461 212.315 269.461 212.63 269.461H212.788V269.703H210.845V269.461L210.903 269.486ZM216.732 269.145C216.732 269.303 216.89 269.303 216.973 269.303H217.363V269.461C216.973 269.545 216.184 269.703 216.026 269.703V268.87C215.832 269.105 215.594 269.3 215.324 269.443C215.055 269.586 214.76 269.675 214.457 269.703C214.311 269.716 214.165 269.695 214.028 269.643C213.891 269.591 213.768 269.509 213.667 269.402C213.567 269.296 213.491 269.168 213.447 269.028C213.403 268.888 213.39 268.74 213.411 268.595V266.228C213.411 265.995 213.411 265.761 212.863 265.678V265.52C213.178 265.52 213.884 265.445 214.042 265.445C214.2 265.445 214.2 265.52 214.2 265.678V268.045C214.2 268.361 214.2 269.145 214.98 269.145C215.395 269.078 215.78 268.886 216.085 268.595V266.153C216.085 265.995 215.686 265.836 215.254 265.761V265.603C216.085 265.52 216.591 265.445 216.666 265.445C216.741 265.445 216.749 265.52 216.749 265.603L216.732 269.145ZM218.617 266.153C219.005 265.765 219.51 265.516 220.054 265.445C220.296 265.46 220.533 265.522 220.751 265.629C220.969 265.736 221.164 265.885 221.324 266.068C221.485 266.251 221.608 266.464 221.686 266.694C221.764 266.925 221.797 267.168 221.781 267.411C221.801 268.018 221.581 268.608 221.168 269.051C220.756 269.495 220.185 269.756 219.58 269.778C219.145 269.764 218.717 269.656 218.326 269.461L218.086 269.62L217.928 269.461C218.022 268.941 218.074 268.415 218.086 267.886V263.945C218.086 263.32 217.928 263.32 217.621 263.236V263.078C218.011 262.92 218.401 262.761 218.559 262.686C218.717 262.611 218.717 262.528 218.717 262.528C218.759 262.571 218.785 262.627 218.791 262.686L218.634 266.153H218.617ZM218.617 268.653C218.631 268.9 218.736 269.132 218.91 269.306C219.085 269.48 219.318 269.583 219.564 269.595C219.979 269.551 220.36 269.344 220.624 269.019C220.889 268.695 221.015 268.279 220.975 267.861C220.984 267.443 220.848 267.034 220.59 266.705C220.333 266.375 219.971 266.145 219.564 266.053C219.252 266.091 218.961 266.229 218.733 266.445L218.65 268.653H218.617ZM178.959 274.978C179.192 274.978 179.35 274.903 179.35 274.67V272.061C179.35 271.753 179.192 271.753 178.959 271.753H178.876V271.595H180.446V271.728H180.371C180.213 271.728 179.981 271.803 179.981 272.036V274.645C179.981 274.953 180.138 274.953 180.371 274.953H180.446V275.111H178.876V274.978H178.959ZM183.941 274.195V272.303C183.941 271.911 183.701 271.828 183.543 271.828H183.352V271.67C183.593 271.67 183.825 271.753 184.066 271.753C184.307 271.753 184.456 271.67 184.689 271.67V271.828H184.614C184.456 271.828 184.215 271.911 184.215 272.461V275.295H184.066L181.575 272.378V274.428C181.575 274.903 181.65 275.061 182.048 275.061H182.123V275.22H180.844V275.061H180.919C181.317 275.061 181.317 274.828 181.317 274.428V272.378C181.32 272.315 181.309 272.253 181.286 272.195C181.263 272.136 181.228 272.084 181.184 272.04C181.139 271.996 181.086 271.962 181.027 271.94C180.969 271.917 180.907 271.908 180.844 271.911H180.761V271.728H181.782L183.941 274.195ZM185.511 271.911C185.121 271.911 185.121 271.986 185.037 272.378H184.846C184.839 272.218 184.868 272.059 184.93 271.911V271.511H185.087C185.087 271.67 185.237 271.67 185.395 271.67H187.994C188.143 271.67 188.226 271.67 188.226 271.511H188.384V272.303L188.226 272.378C188.226 272.22 188.226 271.911 187.836 271.911H187.005V274.511C187.005 274.903 187.163 274.978 187.396 274.978H187.479V275.136H185.951V274.978H186.009C186.241 274.978 186.399 274.903 186.399 274.511V271.828L185.461 271.911H185.511ZM188.5 274.978C188.741 274.978 188.899 274.903 188.899 274.67V272.061C188.899 271.753 188.741 271.753 188.5 271.753H188.425V271.595H190.991V272.303L190.833 272.378C190.833 272.061 190.759 271.753 190.202 271.753H189.496V273.011H190.128C190.443 273.011 190.518 272.853 190.518 272.62H190.676V273.803L190.601 273.953C190.601 273.645 190.601 273.403 190.202 273.403H189.58V274.586C189.58 274.903 189.812 274.903 190.202 274.903C190.833 274.903 191.033 274.828 191.224 274.27H191.381C191.298 274.541 191.245 274.82 191.224 275.103H188.542L188.459 275.02L188.5 274.978ZM192.037 272.22C192.037 271.911 191.88 271.828 191.647 271.828H191.564V271.67C191.722 271.67 192.037 271.753 192.394 271.753C192.751 271.753 192.942 271.67 193.175 271.67C193.806 271.67 194.354 271.828 194.354 272.503C194.34 272.699 194.264 272.886 194.137 273.036C194.01 273.185 193.839 273.291 193.648 273.336L194.479 274.603C194.636 274.761 194.719 274.911 194.952 274.911V275.07H193.956C193.553 274.555 193.21 273.996 192.934 273.403H192.652V274.503C192.652 274.895 192.81 274.895 193.042 274.895H193.117V275.053H191.523V274.978H191.606C191.763 274.978 191.996 274.903 191.996 274.67V272.22H192.037ZM192.702 273.395H192.934C193.491 273.395 193.723 273.236 193.723 272.611C193.723 272.136 193.491 271.903 192.934 271.903H192.702V273.395ZM198.356 274.228V272.303C198.356 271.911 198.124 271.828 197.966 271.828H197.808V271.67C198.041 271.67 198.282 271.753 198.514 271.753C198.747 271.753 198.904 271.67 199.145 271.67V271.828H199.062C198.904 271.828 198.672 271.911 198.672 272.461V275.295H198.514L196.023 272.378V274.428C196.023 274.903 196.106 275.061 196.496 275.061H196.579V275.22H195.292V275.061H195.375C195.766 275.061 195.766 274.828 195.766 274.428V272.378C195.768 272.315 195.757 272.253 195.734 272.195C195.711 272.136 195.676 272.084 195.632 272.04C195.587 271.996 195.534 271.962 195.476 271.94C195.417 271.917 195.355 271.908 195.292 271.911H195.218V271.728H196.239L198.356 274.228ZM199.926 274.461C199.926 274.62 199.768 274.778 199.768 274.861C199.768 274.945 199.926 275.011 200.167 275.011V275.17H198.987V274.978C199.145 274.978 199.378 274.903 199.378 274.67L200.208 272.378C200.295 272.18 200.349 271.969 200.366 271.753C200.515 271.753 200.756 271.595 200.831 271.595V271.728L201.777 274.328C201.863 274.473 201.917 274.635 201.935 274.803C201.935 274.953 202.093 274.953 202.251 274.953V275.111H200.756V274.978C200.914 274.978 201.072 274.978 201.072 274.828C201.072 274.678 201.072 274.67 200.914 274.511L200.756 273.878H200.05L199.926 274.461ZM200.632 272.253L200.167 273.678H201.105L200.632 272.253ZM202.832 271.945C202.442 271.945 202.442 272.02 202.359 272.411H202.209C202.203 272.252 202.228 272.094 202.284 271.945V271.545H202.442C202.442 271.703 202.6 271.703 202.757 271.703H205.348C205.506 271.703 205.581 271.703 205.581 271.545H205.738V272.336L205.506 272.411C205.506 272.253 205.506 271.945 205.116 271.945H204.285V274.545C204.285 274.936 204.443 275.011 204.675 275.011H204.758V275.17H203.231V274.978H203.305C203.538 274.978 203.696 274.903 203.696 274.511V271.828L202.865 271.911L202.832 271.945ZM205.938 274.978C206.178 274.978 206.328 274.903 206.328 274.67V272.061C206.328 271.753 206.178 271.753 205.938 271.753H205.863V271.595H207.432V271.728H207.349C207.191 271.728 206.959 271.803 206.959 272.036V274.645C206.959 274.953 207.117 274.953 207.349 274.953H207.432V275.111H205.821V274.978H205.938ZM209.475 271.595C209.964 271.585 210.437 271.77 210.789 272.11C211.142 272.45 211.346 272.917 211.356 273.407C211.366 273.898 211.181 274.372 210.842 274.726C210.503 275.08 210.039 275.285 209.55 275.295C209.3 275.317 209.049 275.286 208.813 275.205C208.576 275.124 208.359 274.994 208.175 274.824C207.991 274.654 207.845 274.447 207.746 274.216C207.646 273.986 207.596 273.737 207.598 273.486C207.572 273.236 207.601 272.982 207.683 272.744C207.765 272.506 207.899 272.289 208.074 272.109C208.249 271.928 208.462 271.788 208.696 271.7C208.931 271.611 209.183 271.575 209.433 271.595H209.475ZM209.475 275.061C210.413 275.061 210.654 274.228 210.654 273.486C210.654 272.745 210.255 271.82 209.475 271.82C208.694 271.82 208.296 272.653 208.296 273.32C208.254 274.228 208.645 275.061 209.433 275.061H209.475ZM214.739 274.228V272.303C214.739 271.911 214.499 271.828 214.341 271.828H214.183V271.67C214.424 271.67 214.656 271.753 214.889 271.753C215.121 271.753 215.287 271.67 215.52 271.67V271.828H215.404C215.246 271.828 215.005 271.911 215.005 272.461V275.295H214.847L212.356 272.378V274.428C212.356 274.903 212.431 275.061 212.83 275.061H212.904V275.22H211.634V275.061H211.75C212.14 275.061 212.14 274.828 212.14 274.428V272.378C212.144 272.316 212.134 272.254 212.112 272.195C212.09 272.137 212.056 272.084 212.012 272.04C211.968 271.996 211.916 271.962 211.857 271.94C211.799 271.917 211.737 271.908 211.675 271.911H211.592V271.728H212.58L214.739 274.228ZM216.309 274.461C216.309 274.62 216.151 274.778 216.151 274.861C216.151 274.945 216.309 275.011 216.541 275.011V275.17H215.321V274.978C215.478 274.978 215.711 274.903 215.711 274.67L216.541 272.378C216.632 272.181 216.686 271.969 216.699 271.753C216.857 271.753 217.089 271.595 217.172 271.595V271.728L218.111 274.328C218.2 274.472 218.254 274.634 218.268 274.803C218.268 274.953 218.426 274.953 218.584 274.953V275.111H217.089V274.978C217.247 274.978 217.405 274.978 217.405 274.828C217.405 274.678 217.405 274.67 217.247 274.511L217.089 273.878H215.902L216.309 274.461ZM217.015 272.253L216.541 273.678H217.488L217.015 272.253ZM220.236 274.703C220.236 274.861 220.394 274.936 220.544 274.936H221.175C221.339 274.874 221.498 274.796 221.648 274.703C221.723 274.545 221.806 274.461 221.806 274.303H221.963C221.963 274.62 221.806 274.861 221.806 275.136H219.09V274.978H219.173C219.331 274.978 219.564 274.903 219.564 274.67V272.17C219.564 271.936 219.406 271.936 219.173 271.936H219.09V271.728C219.331 271.728 219.638 271.803 219.921 271.803C220.203 271.803 220.469 271.728 220.701 271.728V271.886H220.469C220.311 271.886 220.079 271.886 220.079 272.12L220.236 274.62V274.703Z" fill="#1A1918"/>
<path d="M259.607 264.403H256.643V275.603H259.607C263.02 275.603 266.001 274.403 266.001 269.961C266.001 265.52 263.037 264.403 259.607 264.403ZM260.039 273.894H258.777V266.194H260.056C260.546 266.206 261.028 266.316 261.475 266.518C261.922 266.72 262.324 267.01 262.658 267.37C262.991 267.73 263.25 268.154 263.417 268.616C263.585 269.079 263.659 269.57 263.634 270.061C263.669 270.553 263.601 271.047 263.437 271.511C263.272 271.976 263.014 272.401 262.678 272.761C262.342 273.121 261.936 273.407 261.485 273.602C261.033 273.797 260.547 273.897 260.056 273.894H260.039Z" fill="black"/>
<path d="M269.09 264.403H266.873V275.611H269.09V264.403Z" fill="black"/>
<path d="M301.731 270.303L299.257 264.395H296.874L301.217 275.603H301.98L306.249 264.395H303.948L301.731 270.303Z" fill="black"/>
<path d="M272.154 267.561C272.154 266.453 272.984 266.195 273.815 266.37C274.705 266.542 275.552 266.89 276.306 267.395V265.253C275.606 264.594 274.683 264.227 273.723 264.228C271.847 264.228 269.887 265.17 269.887 267.653C269.887 271.411 274.662 270.47 274.662 272.653C274.662 273.678 273.64 274.02 272.702 273.853C271.735 273.517 270.817 273.054 269.97 272.478V274.786C270.786 275.447 271.788 275.834 272.835 275.895C275.052 276.153 276.987 274.953 276.987 272.561C276.928 268.678 272.154 269.528 272.154 267.561Z" fill="black"/>
<path d="M291.925 264.228C291.15 264.183 290.374 264.303 289.649 264.581C288.923 264.858 288.264 265.286 287.716 265.837C287.167 266.388 286.74 267.049 286.464 267.777C286.187 268.505 286.068 269.283 286.112 270.061C286.059 270.841 286.174 271.623 286.447 272.355C286.72 273.086 287.147 273.751 287.697 274.304C288.248 274.856 288.91 275.284 289.639 275.558C290.368 275.833 291.148 275.947 291.925 275.895C295.42 275.895 297.554 273.503 297.554 270.061C297.618 269.295 297.518 268.523 297.26 267.799C297.002 267.074 296.593 266.414 296.06 265.861C295.526 265.309 294.882 264.877 294.168 264.595C293.455 264.314 292.69 264.188 291.925 264.228Z" fill="#EB5E1A"/>
<path d="M320.398 271.245C320.331 270.953 320.184 270.687 319.972 270.478C319.76 270.268 319.493 270.124 319.202 270.061V269.978C319.826 269.909 320.401 269.606 320.812 269.13C321.223 268.655 321.44 268.041 321.419 267.411C321.419 264.245 318.604 264.328 316.304 264.328H313.913V275.52H316.13V270.811H316.902C317.84 270.811 318.089 271.153 318.43 271.928L319.708 275.436H322.2L320.398 271.245ZM316.811 269.228H316.072V266.111H316.835C317.948 266.111 319.227 266.278 319.227 267.561C319.202 269.02 317.923 269.228 316.811 269.228Z" fill="black"/>
<path d="M308.972 270.728H312.891V268.936H308.972V266.195H313.323V264.395H306.846V275.603H313.323V273.895H308.972V270.728Z" fill="black"/>
<path d="M285.622 274.494C284.866 275.202 283.889 275.623 282.857 275.686C279.453 275.944 277.153 274.019 277.153 270.211C277.153 266.403 279.228 264.144 282.857 264.311C283.837 264.366 284.782 264.692 285.589 265.253V267.478C284.77 266.927 283.835 266.576 282.857 266.453C280.648 266.369 279.453 267.819 279.453 270.128C279.453 272.436 280.474 273.719 282.857 273.553C283.857 273.401 284.799 272.987 285.589 272.353V274.494H285.622Z" fill="black"/>
<path d="M324.74 264.403C324.493 264.403 324.255 264.501 324.08 264.676C323.904 264.85 323.804 265.088 323.802 265.336C323.802 265.586 323.901 265.825 324.077 266.002C324.253 266.179 324.491 266.278 324.74 266.278C324.989 266.278 325.228 266.179 325.404 266.002C325.58 265.825 325.679 265.586 325.679 265.336C325.676 265.088 325.577 264.85 325.401 264.676C325.225 264.501 324.988 264.403 324.74 264.403ZM324.74 266.111C324.587 266.113 324.437 266.069 324.309 265.985C324.181 265.9 324.081 265.78 324.021 265.639C323.961 265.497 323.945 265.341 323.974 265.19C324.002 265.039 324.075 264.9 324.183 264.791C324.291 264.682 324.428 264.607 324.578 264.577C324.728 264.546 324.884 264.561 325.026 264.619C325.167 264.678 325.288 264.777 325.373 264.905C325.459 265.032 325.504 265.183 325.504 265.336C325.505 265.438 325.486 265.538 325.448 265.632C325.411 265.726 325.354 265.812 325.283 265.884C325.212 265.956 325.128 266.013 325.035 266.052C324.941 266.091 324.841 266.111 324.74 266.111Z" fill="black"/>
<path d="M324.823 265.428C324.873 265.43 324.922 265.422 324.968 265.405C325.015 265.388 325.057 265.361 325.093 265.327C325.128 265.292 325.157 265.251 325.176 265.206C325.195 265.16 325.205 265.111 325.205 265.061C325.205 264.886 325.122 264.72 324.782 264.72H324.358V265.895H324.524V265.378H324.608L324.956 265.895H325.122L324.823 265.428ZM324.483 265.253V264.911H324.657C324.74 264.911 324.823 264.911 324.823 265.086C324.82 265.129 324.801 265.17 324.771 265.2C324.74 265.231 324.7 265.249 324.657 265.253H324.483Z" fill="black"/>
<path d="M408.884 208.678L408.51 208.303V208.678V208.303L408.884 208.678Z" fill="#F5931E"/>
<path d="M395.416 210.395H385.294V192.062H395.416V210.395Z" fill="#6A69AF"/>
<path d="M385.958 201.553C385.99 199.751 386.405 197.976 387.175 196.348C387.946 194.72 389.054 193.275 390.425 192.111C388.427 190.463 385.937 189.53 383.351 189.461C380.254 189.461 377.285 190.696 375.095 192.893C372.906 195.09 371.676 198.071 371.676 201.178C371.676 204.286 372.906 207.266 375.095 209.463C377.285 211.66 380.254 212.895 383.351 212.895C384.645 212.947 385.938 212.74 387.152 212.286C388.367 211.833 389.479 211.142 390.425 210.253C387.818 208.736 385.958 205.336 385.958 201.553Z" fill="#E31E26"/>
<path d="M409.183 201.411C409.161 204.475 407.939 207.408 405.781 209.575C403.623 211.742 400.702 212.971 397.649 212.995C396.358 213.05 395.068 212.848 393.854 212.402C392.64 211.956 391.526 211.274 390.575 210.395C391.967 209.356 393.097 208.003 393.873 206.446C394.649 204.888 395.049 203.169 395.042 201.428C395.01 199.637 394.594 197.873 393.823 196.257C393.053 194.641 391.945 193.21 390.575 192.061C392.808 190.57 395.042 189.445 397.649 189.445C400.723 189.607 403.622 190.931 405.762 193.151C407.902 195.371 409.124 198.323 409.183 201.411Z" fill="#1694D2"/>
<path d="M407.713 277.17C407.711 278.599 407.144 279.969 406.137 280.98C405.13 281.99 403.765 282.559 402.341 282.561H373.278V261.286C373.281 259.856 373.848 258.484 374.857 257.473C375.866 256.463 377.233 255.895 378.659 255.895H407.722V277.17H407.713Z" fill="white"/>
<path d="M398.206 271.786H400.697C400.933 271.765 401.152 271.652 401.307 271.472C401.462 271.291 401.541 271.058 401.527 270.82C401.527 270.261 401.253 269.853 400.697 269.853H398.206V271.786Z" fill="url(#paint0_linear_3_3434)"/>
<path d="M400.14 257.695C399.633 257.686 399.129 257.78 398.659 257.971C398.189 258.162 397.762 258.447 397.404 258.808C397.047 259.17 396.766 259.6 396.578 260.073C396.39 260.546 396.3 261.052 396.312 261.561V265.57H402.125C403.362 265.57 404.325 266.261 404.325 267.361C404.347 267.586 404.319 267.812 404.244 268.024C404.168 268.237 404.046 268.429 403.888 268.589C403.729 268.748 403.537 268.87 403.325 268.946C403.114 269.022 402.888 269.05 402.665 269.028V269.17C403.902 269.17 404.865 269.861 404.865 270.961C404.865 272.061 403.769 272.895 402.374 272.895H396.42V280.77H402.067C402.576 280.782 403.083 280.691 403.556 280.501C404.029 280.311 404.459 280.027 404.819 279.665C405.179 279.304 405.463 278.872 405.652 278.397C405.841 277.923 405.932 277.414 405.92 276.903V257.736L400.14 257.695Z" fill="url(#paint1_linear_3_3434)"/>
<path d="M401.104 267.636C401.096 267.404 401.009 267.182 400.858 267.006C400.707 266.83 400.501 266.711 400.273 266.67H398.206V268.603H400.273C400.51 268.584 400.731 268.472 400.886 268.291C401.041 268.11 401.12 267.875 401.104 267.636Z" fill="url(#paint2_linear_3_3434)"/>
<path d="M378.933 257.695C378.424 257.682 377.917 257.774 377.444 257.963C376.971 258.153 376.541 258.438 376.181 258.799C375.821 259.161 375.537 259.592 375.348 260.067C375.159 260.542 375.068 261.05 375.08 261.561V270.953C376.097 271.531 377.234 271.863 378.402 271.92C378.667 271.941 378.933 271.906 379.184 271.818C379.434 271.73 379.664 271.591 379.859 271.409C380.053 271.227 380.208 271.007 380.313 270.762C380.418 270.517 380.471 270.253 380.469 269.986V265.57H383.791V269.986C383.791 271.653 382.686 273.17 379.107 273.17C377.765 273.167 376.427 273.028 375.113 272.753V280.761H380.76C381.269 280.774 381.776 280.683 382.249 280.493C382.722 280.303 383.152 280.018 383.512 279.657C383.872 279.295 384.156 278.864 384.345 278.389C384.534 277.914 384.625 277.406 384.613 276.895V257.728L378.933 257.695Z" fill="url(#paint3_linear_3_3434)"/>
<path d="M389.537 257.695C389.027 257.682 388.521 257.774 388.047 257.963C387.574 258.153 387.145 258.438 386.784 258.799C386.424 259.161 386.141 259.592 385.952 260.067C385.762 260.542 385.671 261.05 385.684 261.561V266.67C386.647 265.836 388.299 265.286 391.048 265.428C392.567 265.57 394.079 265.845 394.079 265.845V267.511C393.203 266.989 392.208 266.702 391.189 266.678C389.121 266.545 387.868 267.511 387.868 269.303C387.868 271.095 389.105 272.203 391.189 271.928C392.211 271.924 393.211 271.635 394.079 271.095V272.761C393.088 273.018 392.071 273.158 391.048 273.178C388.432 273.311 386.647 272.761 385.684 271.928V280.761H391.33C391.84 280.775 392.348 280.685 392.822 280.495C393.296 280.306 393.727 280.022 394.088 279.66C394.449 279.298 394.733 278.867 394.923 278.391C395.113 277.916 395.204 277.407 395.191 276.895V257.728L389.537 257.695Z" fill="url(#paint4_linear_3_3434)"/>
<path fill-rule="evenodd" clip-rule="evenodd" d="M187.147 331.744V336.828H190.161C190.499 336.829 190.834 336.76 191.145 336.627C191.457 336.494 191.738 336.299 191.971 336.053C192.204 335.816 192.385 335.532 192.502 335.221C192.62 334.91 192.671 334.577 192.652 334.244C192.646 333.58 192.405 332.939 191.971 332.436C191.75 332.174 191.471 331.967 191.157 331.831C190.843 331.695 190.502 331.634 190.161 331.653L187.155 331.744H187.147ZM187.147 338.636V344.586H185.345V329.936H190.069C190.937 329.933 191.786 330.188 192.508 330.671C193.23 331.153 193.792 331.84 194.124 332.645C194.455 333.45 194.54 334.335 194.368 335.188C194.196 336.041 193.775 336.824 193.158 337.436C192.753 337.838 192.27 338.152 191.738 338.359C191.207 338.565 190.639 338.66 190.069 338.636H187.147Z" fill="#5F6369"/>
<path fill-rule="evenodd" clip-rule="evenodd" d="M196.256 341.569C196.245 341.805 196.294 342.04 196.399 342.251C196.504 342.462 196.66 342.644 196.854 342.778C197.238 343.108 197.726 343.291 198.232 343.294C198.602 343.312 198.972 343.246 199.314 343.102C199.656 342.958 199.961 342.739 200.208 342.461C200.48 342.19 200.693 341.866 200.836 341.509C200.979 341.153 201.048 340.77 201.039 340.386C200.357 339.92 199.546 339.681 198.722 339.703C198.081 339.672 197.448 339.854 196.92 340.219C196.703 340.376 196.528 340.583 196.408 340.822C196.288 341.062 196.227 341.326 196.231 341.594L196.256 341.569ZM198.547 334.269C199.133 334.224 199.721 334.297 200.277 334.484C200.834 334.672 201.347 334.97 201.786 335.361C202.171 335.758 202.469 336.232 202.661 336.751C202.852 337.271 202.933 337.825 202.899 338.378V344.586H201.146V343.211H201.063C200.764 343.725 200.338 344.154 199.826 344.456C199.314 344.758 198.734 344.923 198.141 344.936C197.17 344.952 196.226 344.615 195.483 343.986C195.154 343.677 194.892 343.303 194.715 342.887C194.538 342.47 194.449 342.022 194.454 341.569C194.428 341.094 194.516 340.619 194.709 340.185C194.903 339.75 195.197 339.368 195.566 339.069C196.429 338.414 197.491 338.078 198.572 338.119C199.499 338.074 200.421 338.285 201.238 338.728V338.294C201.251 337.975 201.187 337.657 201.053 337.367C200.919 337.077 200.717 336.824 200.466 336.628C199.997 336.194 199.384 335.951 198.747 335.944C198.269 335.931 197.796 336.043 197.374 336.267C196.952 336.492 196.595 336.823 196.339 337.228L194.794 336.228C195.186 335.585 195.745 335.061 196.41 334.712C197.076 334.363 197.823 334.201 198.572 334.244" fill="#5F6369"/>
<path fill-rule="evenodd" clip-rule="evenodd" d="M212.73 334.553L206.718 349.036H204.916L207.15 343.944L203.198 334.553H205.091L207.922 341.794H208.014L210.762 334.553H212.73Z" fill="#5F6369"/>
<path fill-rule="evenodd" clip-rule="evenodd" d="M179.923 337.411C179.91 336.833 179.852 336.256 179.748 335.686H172.192V338.961H176.485C176.392 339.481 176.198 339.977 175.913 340.42C175.628 340.864 175.258 341.246 174.824 341.545V343.62H177.407C178.225 342.812 178.868 341.844 179.297 340.776C179.725 339.708 179.93 338.562 179.898 337.411" fill="#547DBE"/>
<path fill-rule="evenodd" clip-rule="evenodd" d="M172.192 345.603C174.168 345.634 176.078 344.889 177.514 343.528L174.94 341.461C174.131 342.009 173.167 342.281 172.192 342.236C171.181 342.209 170.206 341.86 169.405 341.24C168.605 340.62 168.023 339.761 167.741 338.786H165.059V340.944C165.686 342.319 166.69 343.487 167.953 344.311C169.215 345.136 170.685 345.584 172.192 345.603Z" fill="#34A751"/>
<path fill-rule="evenodd" clip-rule="evenodd" d="M167.741 338.786C167.561 338.249 167.474 337.686 167.484 337.119C167.481 336.554 167.568 335.991 167.741 335.453V333.361H165.059C164.496 334.545 164.203 335.841 164.203 337.153C164.203 338.465 164.496 339.76 165.059 340.944L167.741 338.786Z" fill="#F7BA16"/>
<path fill-rule="evenodd" clip-rule="evenodd" d="M172.192 332.153C172.767 332.146 173.338 332.257 173.869 332.479C174.4 332.701 174.881 333.03 175.281 333.445L177.597 331.028C176.899 330.331 176.068 329.782 175.153 329.416C174.239 329.049 173.26 328.872 172.275 328.895C170.77 328.914 169.3 329.361 168.038 330.184C166.776 331.007 165.771 332.172 165.142 333.545L167.808 335.703C168.042 334.708 168.601 333.821 169.395 333.18C170.189 332.54 171.173 332.185 172.192 332.17" fill="#E84334"/>
<path d="M277.709 336.978C277.718 337.746 277.951 338.495 278.379 339.131C278.806 339.768 279.411 340.265 280.117 340.561C279.82 341.449 279.401 342.291 278.871 343.061C278.124 344.145 277.294 345.228 276.131 345.228C274.969 345.228 274.554 344.561 273.142 344.561C271.73 344.561 271.315 345.228 270.153 345.311C268.99 345.395 268.077 344.145 267.329 343.061C265.752 340.895 264.589 336.895 266.167 334.228C266.557 333.58 267.104 333.041 267.757 332.662C268.411 332.283 269.149 332.076 269.904 332.061C271.066 332.061 272.146 332.811 272.893 332.811C273.64 332.811 274.969 331.895 276.38 331.978C277.03 331.999 277.666 332.167 278.241 332.471C278.816 332.774 279.316 333.204 279.702 333.728C279.092 334.018 278.579 334.48 278.225 335.057C277.871 335.633 277.692 336.301 277.709 336.978ZM275.384 330.478C275.736 330.104 276.001 329.655 276.159 329.165C276.317 328.675 276.364 328.155 276.297 327.645C275.272 327.722 274.317 328.201 273.64 328.978C272.973 329.735 272.617 330.718 272.644 331.728C273.166 331.751 273.687 331.65 274.163 331.433C274.639 331.215 275.057 330.888 275.384 330.478ZM284.518 329.228C285.016 329.145 285.514 329.061 286.096 328.978C286.702 328.909 287.312 328.881 287.922 328.895C288.766 328.859 289.609 328.972 290.413 329.228C291.047 329.46 291.636 329.798 292.157 330.228C292.535 330.617 292.844 331.068 293.071 331.561C293.323 332.138 293.437 332.766 293.403 333.395C293.409 334.138 293.268 334.874 292.987 335.561C292.723 336.193 292.292 336.74 291.742 337.145C291.207 337.58 290.583 337.893 289.915 338.061C289.155 338.26 288.375 338.372 287.59 338.395C286.95 338.392 286.311 338.336 285.68 338.228V345.061H284.518V329.228ZM285.68 337.145C285.974 337.248 286.282 337.304 286.594 337.311C286.926 337.311 287.258 337.395 287.673 337.395C288.888 337.459 290.089 337.107 291.078 336.395C291.484 336.033 291.801 335.581 292.003 335.075C292.205 334.568 292.286 334.022 292.24 333.478C292.268 332.93 292.153 332.385 291.908 331.895C291.706 331.435 291.392 331.034 290.995 330.728C290.576 330.408 290.095 330.181 289.583 330.061C289.017 329.891 288.43 329.807 287.839 329.811C287.395 329.792 286.949 329.82 286.511 329.895C286.199 329.902 285.891 329.958 285.597 330.061L285.68 337.145ZM302.454 342.311V343.728C302.463 344.177 302.518 344.624 302.62 345.061H301.54L301.374 343.478H301.291C301.121 343.72 300.927 343.944 300.71 344.145C300.481 344.365 300.231 344.56 299.962 344.728C299.646 344.902 299.312 345.042 298.966 345.145C298.557 345.241 298.14 345.297 297.721 345.311C297.211 345.324 296.704 345.239 296.226 345.061C295.818 344.89 295.45 344.634 295.146 344.311C294.875 344.03 294.676 343.687 294.565 343.311C294.423 342.94 294.366 342.541 294.399 342.145C294.371 341.518 294.52 340.897 294.829 340.351C295.137 339.806 295.593 339.359 296.143 339.061C297.305 338.311 299.049 337.978 301.374 337.978V337.645C301.388 337.309 301.36 336.973 301.291 336.645C301.239 336.256 301.097 335.885 300.876 335.561C300.669 335.199 300.385 334.886 300.045 334.645C299.56 334.39 299.014 334.275 298.468 334.311C297.959 334.313 297.455 334.398 296.973 334.561C296.493 334.698 296.042 334.924 295.645 335.228L295.312 334.395C295.804 334.078 296.334 333.826 296.89 333.645C297.457 333.48 298.044 333.396 298.634 333.395C299.321 333.377 300.003 333.52 300.627 333.811C301.122 334.036 301.53 334.416 301.789 334.895C302.101 335.309 302.301 335.797 302.371 336.311C302.467 336.834 302.522 337.363 302.537 337.895L302.454 342.311ZM301.374 338.895C300.736 338.881 300.098 338.909 299.464 338.978C298.839 339.028 298.223 339.168 297.637 339.395C297.11 339.601 296.629 339.912 296.226 340.311C295.837 340.778 295.63 341.37 295.645 341.978C295.615 342.301 295.66 342.627 295.775 342.93C295.89 343.233 296.073 343.506 296.309 343.728C296.744 344.113 297.307 344.321 297.887 344.311C298.307 344.308 298.726 344.252 299.132 344.145L300.129 343.645C300.392 343.436 300.617 343.182 300.793 342.895C300.964 342.635 301.103 342.355 301.208 342.061C301.263 341.844 301.291 341.62 301.291 341.395L301.374 338.895ZM304.696 333.645L307.685 341.061L308.183 342.311C308.349 342.728 308.432 343.145 308.598 343.478H308.681C308.796 343.081 308.934 342.691 309.096 342.311C309.262 341.895 309.429 341.395 309.595 340.978L312.335 333.645H313.58L310.176 341.978C309.844 342.811 309.512 343.561 309.179 344.395C308.925 345.057 308.62 345.698 308.266 346.311C307.992 346.83 307.687 347.33 307.353 347.811C307.037 348.239 306.675 348.63 306.273 348.978C305.92 349.34 305.496 349.624 305.028 349.811C304.612 349.978 304.363 350.145 304.28 350.145L303.865 349.228L304.862 348.728C305.255 348.498 305.618 348.218 305.941 347.895C306.766 347.093 307.416 346.128 307.851 345.061C307.92 344.9 307.975 344.732 308.017 344.561C307.975 344.391 307.92 344.223 307.851 344.061L303.699 333.478L304.696 333.645Z" fill="black"/>
<path d="M386.348 338.611H363.513V346.244H386.348V338.611Z" fill="#84B740"/>
<path d="M386.348 328.195H363.513V335.836H386.348V328.195Z" fill="#259BD6"/>
<path d="M409.175 344.728H409.075C408.834 344.792 408.586 344.825 408.336 344.828C407.738 344.828 407.032 344.519 407.032 343.078C407.032 342.336 407.157 341.353 408.27 341.353C408.552 341.367 408.831 341.418 409.1 341.503H409.183V344.728H409.175ZM409.357 337.536H409.175V340.203L409.017 340.153H408.967C408.635 340.042 408.288 339.98 407.937 339.969C405.712 339.969 405.247 341.636 405.247 343.069C405.201 343.475 405.246 343.887 405.378 344.273C405.51 344.66 405.726 345.012 406.011 345.304C406.295 345.596 406.641 345.821 407.024 345.962C407.406 346.103 407.814 346.157 408.22 346.119C408.895 346.141 409.569 346.048 410.213 345.844C410.326 345.833 410.436 345.799 410.535 345.744C410.635 345.688 410.722 345.613 410.791 345.522C410.861 345.432 410.911 345.328 410.938 345.217C410.966 345.106 410.97 344.99 410.952 344.878V337.228L409.341 337.503" fill="#27292D"/>
<path d="M415.784 344.728H415.693L415.353 344.819C415.081 344.891 414.803 344.932 414.522 344.944C413.999 344.944 413.692 344.686 413.692 344.244C413.692 343.961 413.817 343.478 414.672 343.478H415.776L415.784 344.728ZM415.004 339.919C414.235 339.931 413.473 340.063 412.745 340.311L412.172 340.478L412.363 341.769L412.92 341.586C413.519 341.393 414.143 341.289 414.771 341.278C415.012 341.278 415.76 341.278 415.76 342.111V342.461H414.722C412.828 342.461 411.957 343.069 411.957 344.369C411.957 345.478 412.787 346.144 414.115 346.144C414.622 346.13 415.126 346.063 415.618 345.944H415.677H415.843L417.503 346.236V342.011C417.503 340.636 416.673 339.936 415.012 339.936" fill="#27292D"/>
<path d="M402.615 344.728H402.515L402.183 344.819C401.912 344.891 401.633 344.933 401.353 344.944C400.83 344.944 400.523 344.686 400.523 344.244C400.523 343.961 400.655 343.478 401.502 343.478H402.607V344.728H402.615ZM401.843 339.919C401.071 339.93 400.307 340.063 399.576 340.311L399.011 340.478L399.194 341.769L399.75 341.586C400.35 341.395 400.973 341.291 401.602 341.278C401.851 341.278 402.59 341.278 402.59 342.111V342.461H401.56C399.634 342.453 398.804 343.061 398.804 344.361C398.804 345.469 399.634 346.136 400.971 346.136C401.477 346.122 401.981 346.055 402.474 345.936H402.532H402.69L404.35 346.236V341.986C404.35 340.603 403.52 339.911 401.859 339.911" fill="#27292D"/>
<path d="M395.482 339.945C394.849 339.951 394.224 340.09 393.647 340.353H393.581L393.514 340.303C393.015 340 392.435 339.86 391.853 339.903C391.195 339.907 390.541 340.005 389.91 340.195C389.329 340.378 389.08 340.653 389.08 341.178V346.061H390.89V341.578H390.973C391.239 341.478 391.52 341.43 391.804 341.436C392.327 341.436 392.584 341.711 392.584 342.27V346.111H394.361V342.195C394.364 342.062 394.347 341.93 394.311 341.803L394.245 341.686L394.369 341.636C394.642 341.493 394.942 341.41 395.25 341.395C395.363 341.374 395.48 341.381 395.59 341.416C395.701 341.45 395.801 341.511 395.882 341.593C395.964 341.675 396.025 341.775 396.059 341.886C396.093 341.997 396.101 342.114 396.08 342.228V346.07H397.807V342.053C397.807 340.636 397.052 339.945 395.474 339.945" fill="#27292D"/>
<path d="M414.456 333.178C414.104 333.173 413.754 333.134 413.41 333.061H413.302V330.445C413.314 330.32 413.314 330.194 413.302 330.07L413.243 329.961L413.36 329.911H413.451L413.576 329.87C413.884 329.784 414.202 329.737 414.522 329.728C415.627 329.728 415.759 330.711 415.759 331.453C415.759 332.895 415.037 333.203 414.447 333.203L414.456 333.178ZM414.447 328.203C413.41 328.203 412.338 328.495 411.956 329.036C411.74 329.33 411.627 329.688 411.633 330.053V332.753C411.641 332.87 411.621 332.987 411.574 333.095L411.516 333.211H408.195V331.336C408.195 329.353 406.983 328.261 405.297 328.261H403.636C403.562 328.745 403.512 329.095 403.445 329.57H405.106C405.936 329.57 406.426 330.303 406.426 331.436V333.328L406.277 333.261C406.149 333.23 406.018 333.213 405.887 333.211H403.088C403.03 333.57 402.964 334.045 402.889 334.511H411.599L412.546 334.345C413.126 334.57 413.743 334.683 414.364 334.678C414.789 334.701 415.214 334.632 415.61 334.476C416.006 334.321 416.364 334.081 416.659 333.775C416.955 333.469 417.182 333.102 417.325 332.7C417.468 332.298 417.523 331.87 417.487 331.445C417.52 331.026 417.466 330.605 417.328 330.209C417.19 329.813 416.971 329.45 416.685 329.144C416.398 328.838 416.051 328.595 415.666 328.432C415.281 328.268 414.866 328.187 414.447 328.195" fill="#27292D"/>
<path d="M399.177 335.303H399.26C401.154 335.303 402.034 334.678 402.034 333.136C402.036 332.858 401.98 332.583 401.87 332.328C401.759 332.073 401.597 331.844 401.392 331.656C401.188 331.468 400.946 331.326 400.684 331.237C400.421 331.149 400.142 331.118 399.867 331.145H398.123C398.011 331.156 397.898 331.143 397.792 331.105C397.686 331.068 397.589 331.007 397.51 330.927C397.43 330.847 397.369 330.75 397.332 330.644C397.294 330.537 397.281 330.424 397.293 330.311C397.293 329.978 397.425 329.553 398.272 329.553H402.125C402.208 329.053 402.25 328.72 402.324 328.245H398.322C396.479 328.245 395.549 329.02 395.549 330.311C395.549 331.603 396.379 332.261 397.716 332.261H399.451C399.672 332.261 399.883 332.349 400.039 332.505C400.194 332.662 400.282 332.874 400.282 333.095C400.29 333.221 400.27 333.348 400.222 333.466C400.174 333.583 400.1 333.688 400.005 333.773C399.911 333.857 399.798 333.919 399.676 333.953C399.554 333.987 399.426 333.993 399.302 333.97H392.427C391.596 333.97 390.965 333.478 390.965 332.345V331.561C390.965 330.378 391.43 329.636 392.427 329.636H394.087C394.162 329.136 394.212 328.803 394.278 328.336H392.011C390.351 328.336 389.155 329.478 389.113 331.453V332.345C389.078 332.736 389.129 333.131 389.262 333.501C389.394 333.87 389.606 334.207 389.883 334.485C390.159 334.764 390.493 334.979 390.86 335.114C391.228 335.25 391.621 335.303 392.011 335.27H399.177V335.303Z" fill="#27292D"/>
<path d="M482.889 196.561H479.153C479.026 196.55 478.9 196.589 478.802 196.67C478.704 196.751 478.642 196.868 478.63 196.995L477.06 206.595C476.977 206.77 477.152 206.945 477.409 206.945H479.236C479.362 206.956 479.488 206.917 479.586 206.836C479.684 206.755 479.746 206.638 479.759 206.511L480.108 203.886C480.134 203.766 480.199 203.657 480.294 203.579C480.389 203.5 480.508 203.456 480.631 203.453H481.843C484.284 203.453 485.762 202.228 486.103 199.878C486.209 199.459 486.218 199.02 486.129 198.597C486.039 198.174 485.854 197.777 485.588 197.436C485.222 197.112 484.794 196.867 484.329 196.717C483.865 196.566 483.375 196.513 482.889 196.561ZM483.321 200.136C483.064 201.536 482.109 201.536 481.063 201.536H480.539L480.888 199.036C480.888 198.861 481.063 198.778 481.237 198.778H481.536C482.112 198.684 482.703 198.805 483.197 199.12C483.412 199.261 483.412 199.703 483.321 200.136Z" fill="#253C7F"/>
<path d="M494.107 200.053H492.28C492.106 200.053 492.015 200.136 491.932 200.311L491.849 200.836L491.757 200.661C491.473 200.381 491.131 200.166 490.755 200.03C490.38 199.895 489.979 199.843 489.582 199.878C488.587 199.896 487.632 200.278 486.897 200.951C486.162 201.624 485.697 202.543 485.588 203.536C485.493 204.025 485.506 204.529 485.625 205.012C485.744 205.496 485.967 205.948 486.277 206.336C486.549 206.668 486.898 206.929 487.293 207.095C487.688 207.262 488.117 207.331 488.544 207.295C489.001 207.294 489.453 207.199 489.871 207.016C490.29 206.832 490.666 206.564 490.977 206.228L490.885 206.753C490.802 206.928 490.977 207.103 491.234 207.103H492.804C492.931 207.112 493.057 207.071 493.155 206.989C493.252 206.906 493.314 206.789 493.327 206.661L494.282 200.47C494.456 200.228 494.282 200.053 494.107 200.053ZM491.616 203.536C491.559 204.025 491.322 204.475 490.952 204.799C490.582 205.122 490.106 205.296 489.615 205.286C489.386 205.302 489.156 205.262 488.946 205.171C488.735 205.079 488.549 204.939 488.403 204.761C488.271 204.573 488.179 204.36 488.134 204.135C488.088 203.91 488.089 203.678 488.137 203.453C488.197 202.965 488.434 202.517 488.804 202.196C489.173 201.874 489.649 201.701 490.138 201.711C490.368 201.697 490.597 201.736 490.809 201.825C491.021 201.915 491.209 202.053 491.359 202.228C491.495 202.413 491.587 202.628 491.626 202.855C491.665 203.082 491.65 203.316 491.583 203.536H491.616Z" fill="#253C7F"/>
<path d="M503.673 200.053H501.846C501.756 200.051 501.668 200.074 501.59 200.12C501.513 200.166 501.449 200.232 501.406 200.311L498.973 203.978L497.935 200.486C497.903 200.375 497.833 200.28 497.737 200.216C497.642 200.152 497.527 200.124 497.412 200.136H495.652C495.601 200.136 495.551 200.148 495.506 200.173C495.462 200.198 495.425 200.235 495.399 200.278C495.373 200.322 495.359 200.372 495.358 200.423C495.357 200.474 495.37 200.525 495.395 200.569L497.396 206.403L495.569 209.019C495.528 209.067 495.501 209.125 495.493 209.187C495.485 209.249 495.495 209.312 495.523 209.368C495.55 209.424 495.594 209.471 495.648 209.503C495.702 209.534 495.764 209.549 495.826 209.544H497.653C497.742 209.547 497.83 209.525 497.907 209.479C497.983 209.433 498.045 209.366 498.085 209.286L504.088 200.553C504.105 200.394 503.955 200.053 503.673 200.053Z" fill="#253C7F"/>
<path d="M509.668 196.561H505.932C505.805 196.55 505.679 196.589 505.581 196.67C505.483 196.751 505.421 196.868 505.408 196.995L503.847 206.595C503.756 206.77 503.93 206.945 504.188 206.945H506.106C506.153 206.949 506.2 206.942 506.244 206.926C506.288 206.91 506.328 206.884 506.361 206.851C506.394 206.817 506.42 206.777 506.436 206.733C506.452 206.689 506.458 206.642 506.455 206.595L506.886 203.803C506.912 203.682 506.978 203.574 507.073 203.495C507.168 203.417 507.287 203.373 507.41 203.37H508.622C511.063 203.37 512.541 202.145 512.89 199.786C512.996 199.366 513.004 198.928 512.914 198.504C512.823 198.08 512.636 197.684 512.367 197.345C511.585 196.777 510.631 196.5 509.668 196.561ZM510.108 200.136C509.843 201.536 508.888 201.536 507.841 201.536H507.318L507.667 199.036C507.667 198.861 507.841 198.778 508.016 198.778H508.281C508.858 198.686 509.448 198.808 509.942 199.12C510.037 199.269 510.101 199.436 510.13 199.611C510.158 199.786 510.151 199.965 510.108 200.136Z" fill="#159AD6"/>
<path d="M520.886 200.053H519.059C518.885 200.053 518.802 200.136 518.711 200.311L518.628 200.836L518.536 200.661C518.251 200.381 517.909 200.166 517.534 200.03C517.158 199.895 516.758 199.843 516.361 199.878C515.366 199.898 514.413 200.28 513.678 200.953C512.943 201.626 512.477 202.544 512.367 203.536C512.275 204.028 512.292 204.533 512.417 205.017C512.542 205.501 512.771 205.951 513.089 206.336C513.36 206.668 513.707 206.928 514.1 207.095C514.494 207.262 514.922 207.331 515.348 207.295C515.8 207.291 516.247 207.194 516.661 207.011C517.076 206.827 517.448 206.561 517.756 206.228L517.664 206.753C517.581 206.928 517.756 207.103 518.013 207.103H519.582C519.71 207.112 519.836 207.071 519.933 206.989C520.031 206.906 520.093 206.789 520.106 206.661L521.061 200.47C521.235 200.228 521.061 200.053 520.886 200.053ZM518.395 203.536C518.337 204.025 518.101 204.475 517.731 204.799C517.361 205.122 516.884 205.296 516.394 205.286C516.165 205.301 515.936 205.261 515.725 205.17C515.514 205.079 515.328 204.939 515.182 204.761C515.05 204.573 514.958 204.36 514.912 204.135C514.867 203.91 514.868 203.678 514.916 203.453C514.975 202.965 515.213 202.517 515.583 202.196C515.952 201.874 516.428 201.701 516.917 201.711C517.135 201.707 517.352 201.751 517.552 201.84C517.751 201.93 517.929 202.062 518.071 202.228C518.333 202.61 518.437 203.079 518.362 203.536H518.395Z" fill="#159AD6"/>
<path d="M522.97 196.82L521.393 206.678C521.301 206.853 521.476 207.028 521.741 207.028H523.303C523.429 207.04 523.555 207.001 523.653 206.919C523.751 206.838 523.813 206.721 523.826 206.595L525.387 196.995C525.478 196.82 525.304 196.645 525.046 196.645H523.303C523.145 196.561 523.053 196.645 522.97 196.82Z" fill="#159AD6"/>
<path d="M461.499 208.953L461.765 207.119H458.02L460.196 193.594C460.196 193.57 460.205 193.547 460.222 193.53C460.239 193.512 460.263 193.503 460.287 193.503C460.298 193.503 460.309 193.501 460.319 193.496C460.329 193.492 460.338 193.486 460.346 193.478C460.353 193.471 460.359 193.461 460.364 193.451C460.368 193.441 460.37 193.43 460.37 193.419H465.502C467.237 193.419 468.366 193.769 468.981 194.461C469.253 194.752 469.432 195.117 469.496 195.511C469.588 195.973 469.588 196.449 469.496 196.911V197.344L469.761 197.519C469.996 197.612 470.204 197.76 470.367 197.953C470.594 198.274 470.77 198.628 470.891 199.003C470.984 199.524 470.955 200.061 470.808 200.569C470.737 201.205 470.496 201.81 470.11 202.319C469.835 202.732 469.514 203.112 469.155 203.453C468.751 203.774 468.27 203.984 467.76 204.061C467.192 204.207 466.61 204.297 466.025 204.328H465.676C465.41 204.333 465.151 204.414 464.929 204.561C464.819 204.641 464.731 204.747 464.672 204.869C464.613 204.991 464.584 205.125 464.588 205.261L464.497 205.436L463.932 208.728V208.819C463.932 208.903 463.932 208.903 463.849 208.903H463.758C463.007 208.971 462.252 208.988 461.499 208.953Z" fill="#253C7F"/>
<path d="M470.193 197.061C470.193 197.145 470.11 197.32 470.11 197.411C469.413 200.92 467.063 202.145 464.098 202.145H462.546C462.374 202.137 462.206 202.196 462.076 202.31C461.947 202.423 461.865 202.581 461.848 202.753L461.068 207.645L460.777 209.036C460.764 209.089 460.764 209.144 460.776 209.197C460.787 209.25 460.811 209.3 460.844 209.342C460.878 209.385 460.921 209.419 460.969 209.443C461.018 209.466 461.072 209.478 461.126 209.478H463.849C464.005 209.471 464.154 209.417 464.279 209.324C464.403 209.23 464.497 209.101 464.547 208.953V208.861L465.153 205.528L465.236 205.353C465.27 205.196 465.359 205.058 465.487 204.963C465.616 204.867 465.774 204.823 465.933 204.836H466.282C468.889 204.836 470.891 203.786 471.497 200.728C471.654 200.214 471.689 199.67 471.598 199.14C471.507 198.61 471.293 198.109 470.974 197.678C470.756 197.424 470.491 197.214 470.193 197.061Z" fill="#159AD6"/>
<path d="M469.495 196.82C469.395 196.753 469.275 196.724 469.155 196.736C469.064 196.736 468.889 196.645 468.806 196.645C468.376 196.573 467.939 196.545 467.503 196.561H463.409C463.326 196.561 463.152 196.561 463.152 196.645C463.051 196.691 462.964 196.765 462.903 196.857C462.841 196.95 462.807 197.058 462.803 197.17L461.931 202.578V202.753C461.961 202.587 462.046 202.436 462.173 202.326C462.3 202.215 462.461 202.151 462.628 202.145H464.198C467.154 202.145 469.495 200.92 470.193 197.436C470.193 197.345 470.284 197.17 470.284 197.086L469.761 196.82H469.495Z" fill="#252E64"/>
<path d="M462.803 197.17C462.869 196.966 462.989 196.784 463.152 196.645C463.186 196.613 463.227 196.59 463.271 196.575C463.316 196.561 463.363 196.556 463.409 196.561H467.503C468.017 196.561 468.458 196.645 468.806 196.645C468.889 196.645 469.064 196.736 469.155 196.736C469.246 196.736 469.412 196.82 469.495 196.82C469.579 196.82 469.587 196.911 469.67 196.911C469.853 196.979 470.028 197.065 470.193 197.17C470.341 196.657 470.355 196.114 470.233 195.594C470.11 195.075 469.857 194.595 469.495 194.203C468.715 193.328 467.328 192.895 465.585 192.895H460.453C460.282 192.888 460.115 192.947 459.987 193.06C459.858 193.173 459.779 193.332 459.764 193.503L457.588 207.203C457.574 207.267 457.575 207.333 457.591 207.397C457.606 207.461 457.636 207.52 457.677 207.571C457.719 207.621 457.771 207.662 457.831 207.689C457.89 207.716 457.955 207.729 458.02 207.728H461.242L462.022 202.67L462.803 197.17Z" fill="#253C7F"/>
<g clip-path="url(#clip1_3_3434)">
<path d="M513.338 320.561H469.08V353.311H513.338V320.561Z" fill="url(#paint5_linear_3_3434)"/>
<path d="M482.698 336.228H492.164C492.081 334.311 491.583 332.395 490.171 331.145C488.428 329.645 485.438 329.145 482.698 329.145C479.875 329.145 476.803 329.728 475.059 331.311C473.564 332.645 473.232 334.895 473.232 336.895C473.232 338.978 473.896 341.395 475.474 342.811C477.218 344.311 480.041 344.645 482.698 344.645C485.355 344.645 488.179 344.228 489.839 342.811C491.583 341.395 492.164 339.061 492.164 336.895H482.698V336.228Z" fill="white"/>
<path d="M492.829 336.811V344.228H506.031C507.941 344.145 509.519 342.561 509.519 340.561C509.519 338.561 507.941 336.895 506.031 336.811H492.829Z" fill="white"/>
<path d="M509.27 332.811C509.27 330.895 507.775 329.395 505.865 329.395C505.699 329.395 505.616 329.395 505.45 329.395H492.829V336.228H506.114C507.858 336.061 509.27 334.561 509.27 332.811Z" fill="white"/>
</g>
<path d="M474.478 262.978H471.663C471.649 264.09 471.381 265.185 470.88 266.177C470.379 267.17 469.659 268.034 468.773 268.703L467.644 269.536L471.987 275.37H475.524L471.505 270.045C472.455 269.133 473.209 268.036 473.72 266.82C474.232 265.605 474.489 264.297 474.478 262.978ZM464.356 262.978H467.245V275.236H464.356V262.978ZM476.329 262.978H479.045V275.236H476.329V262.978ZM503.125 266.528C502.607 266.502 502.091 266.597 501.616 266.807C501.142 267.017 500.723 267.335 500.393 267.736V266.77H497.819V275.236H500.476V270.803C500.455 270.328 500.614 269.863 500.923 269.502C501.232 269.141 501.666 268.912 502.137 268.861H502.378C502.825 268.822 503.27 268.96 503.617 269.247C503.963 269.534 504.183 269.946 504.229 270.395V275.236H506.779V269.836C506.779 267.895 505.176 266.503 503.084 266.503L503.125 266.528ZM487.348 266.77V267.336C486.584 266.831 485.697 266.543 484.782 266.503C484.195 266.486 483.611 266.585 483.062 266.795C482.513 267.005 482.01 267.321 481.583 267.726C481.156 268.131 480.812 268.616 480.572 269.154C480.332 269.692 480.199 270.272 480.182 270.861C480.165 271.451 480.264 272.038 480.473 272.588C480.683 273.139 480.998 273.644 481.401 274.072C481.804 274.501 482.288 274.846 482.824 275.087C483.36 275.328 483.938 275.461 484.525 275.478H484.857C485.783 275.49 486.687 275.197 487.431 274.645V275.211H490.005V266.77H487.348ZM485.023 273.22C484.6 273.19 484.195 273.038 483.857 272.78C483.519 272.523 483.264 272.172 483.122 271.771C482.981 271.37 482.959 270.936 483.06 270.523C483.16 270.109 483.379 269.735 483.689 269.444C484 269.154 484.387 268.961 484.805 268.89C485.223 268.818 485.653 268.87 486.042 269.04C486.431 269.21 486.761 269.49 486.993 269.846C487.226 270.203 487.349 270.619 487.348 271.045C487.314 271.638 487.053 272.195 486.62 272.6C486.187 273.005 485.615 273.227 485.023 273.22ZM493.991 267.895V266.77H491.334V275.236H493.991V271.286C493.991 269.995 495.511 269.27 496.482 269.27V266.77C496.012 266.775 495.548 266.878 495.12 267.071C494.691 267.265 494.307 267.545 493.991 267.895ZM514.883 266.77V267.336C514.115 266.831 513.226 266.543 512.309 266.503C511.126 266.471 509.979 266.912 509.121 267.728C508.262 268.545 507.761 269.67 507.729 270.857C507.697 272.044 508.137 273.195 508.95 274.057C509.764 274.919 510.885 275.421 512.068 275.453H512.392C513.315 275.464 514.216 275.171 514.958 274.62V275.186H517.532V266.77H514.883ZM512.55 273.22C511.974 273.177 511.439 272.906 511.062 272.467C510.685 272.027 510.497 271.456 510.54 270.878C510.583 270.3 510.853 269.763 511.291 269.385C511.728 269.007 512.298 268.818 512.873 268.861C513.42 268.907 513.929 269.157 514.301 269.561C514.673 269.965 514.881 270.495 514.883 271.045C514.847 271.639 514.584 272.196 514.15 272.601C513.715 273.006 513.142 273.227 512.55 273.22ZM519.541 267.011C519.539 266.97 519.522 266.931 519.493 266.902C519.464 266.872 519.425 266.855 519.383 266.853H519.143V267.495H519.217V267.253H519.383L519.458 267.495H519.624L519.541 267.253V267.011ZM519.3 267.095H519.143V266.853H519.3C519.383 266.853 519.383 266.853 519.383 266.928C519.458 267.095 519.383 267.095 519.3 267.095ZM519.3 266.528C519.142 266.521 518.986 266.576 518.867 266.682C518.748 266.788 518.674 266.936 518.661 267.095C518.673 267.261 518.744 267.418 518.861 267.535C518.979 267.653 519.135 267.725 519.3 267.736C519.385 267.737 519.468 267.722 519.546 267.69C519.625 267.658 519.695 267.611 519.755 267.551C519.815 267.491 519.862 267.42 519.893 267.342C519.925 267.263 519.941 267.179 519.94 267.095C519.915 266.941 519.838 266.8 519.721 266.697C519.605 266.593 519.456 266.534 519.3 266.528ZM519.3 267.653C519.205 267.653 519.112 267.625 519.033 267.572C518.954 267.518 518.892 267.443 518.856 267.355C518.819 267.266 518.81 267.169 518.828 267.075C518.847 266.982 518.893 266.896 518.96 266.828C519.027 266.76 519.113 266.714 519.206 266.696C519.3 266.677 519.397 266.687 519.485 266.723C519.573 266.76 519.648 266.822 519.701 266.901C519.754 266.981 519.782 267.074 519.782 267.17C519.774 267.295 519.721 267.414 519.632 267.503C519.544 267.592 519.426 267.645 519.3 267.653ZM520.347 272.253C519.951 272.29 519.584 272.476 519.319 272.774C519.055 273.072 518.913 273.46 518.923 273.859C518.932 274.258 519.092 274.638 519.371 274.923C519.649 275.208 520.024 275.377 520.421 275.395C520.628 275.393 520.832 275.349 521.021 275.267C521.21 275.184 521.381 275.064 521.524 274.914C521.666 274.764 521.777 274.587 521.85 274.394C521.923 274.2 521.957 273.993 521.949 273.786C521.932 273.372 521.755 272.981 521.456 272.695C521.158 272.409 520.76 272.251 520.347 272.253Z" fill="black"/>
<path d="M142.902 150.228H144.365V147.236H145.465C147.148 147.236 148.347 146.499 148.347 144.838V144.794C148.347 143.144 147.192 142.363 145.432 142.363H142.902V150.228ZM144.365 146.18V143.496H145.432C146.367 143.496 146.917 143.859 146.917 144.794V144.838C146.917 145.707 146.4 146.18 145.432 146.18H144.365ZM151.214 149.381C150.554 149.381 150.29 149.062 150.29 148.578C150.29 147.874 150.939 147.643 151.951 147.643H152.633V148.215C152.633 148.952 152.028 149.381 151.214 149.381ZM150.895 150.338C151.775 150.338 152.281 150.019 152.655 149.524V150.228H153.964V146.455C153.964 144.882 152.952 144.354 151.665 144.354C150.378 144.354 149.311 144.915 149.201 146.257H150.488C150.554 145.685 150.895 145.355 151.588 145.355C152.369 145.355 152.633 145.74 152.633 146.51V146.807H151.918C150.268 146.807 148.97 147.291 148.97 148.633C148.97 149.832 149.839 150.338 150.895 150.338ZM155.966 152.197H157.275L160.41 144.475H159.112L157.704 148.182L156.175 144.475H154.734L157.011 149.645L155.966 152.197ZM161.408 150.228H162.739V146.785C162.739 145.905 163.344 145.465 164.004 145.465C164.653 145.465 165.027 145.828 165.027 146.675V150.228H166.358V146.785C166.358 145.905 166.963 145.465 167.623 145.465C168.283 145.465 168.646 145.828 168.646 146.675V150.228H169.977V146.587C169.977 145.003 169.119 144.354 168.063 144.354C167.348 144.354 166.556 144.673 166.116 145.388C165.83 144.673 165.236 144.354 164.488 144.354C163.641 144.354 163.014 144.816 162.739 145.355V144.475H161.408V150.228ZM174.036 150.338C175.51 150.338 176.489 149.678 176.676 148.468H175.389C175.29 149.029 174.872 149.348 174.069 149.348C173.079 149.348 172.529 148.732 172.485 147.643H176.698V147.258C176.698 145.201 175.411 144.354 173.981 144.354C172.342 144.354 171.121 145.542 171.121 147.324V147.412C171.121 149.227 172.342 150.338 174.036 150.338ZM172.507 146.752C172.639 145.861 173.178 145.322 173.981 145.322C174.806 145.322 175.312 145.762 175.378 146.752H172.507ZM177.887 150.228H179.218V146.84C179.218 145.927 179.823 145.465 180.571 145.465C181.363 145.465 181.715 145.861 181.715 146.73V150.228H183.046V146.609C183.046 145.025 182.232 144.354 181.077 144.354C180.131 144.354 179.493 144.827 179.218 145.388V144.475H177.887V150.228ZM186.537 150.327C186.944 150.327 187.23 150.261 187.439 150.184V149.128C187.252 149.205 187.054 149.238 186.79 149.238C186.372 149.238 186.13 149.007 186.13 148.501V145.476H187.395V144.475H186.13V143.21H184.799V144.475H184.029V145.476H184.799V148.622C184.799 149.711 185.393 150.327 186.537 150.327ZM191.261 150.228H192.592V146.785C192.592 145.905 193.197 145.465 193.857 145.465C194.506 145.465 194.88 145.828 194.88 146.675V150.228H196.211V146.785C196.211 145.905 196.816 145.465 197.476 145.465C198.136 145.465 198.499 145.828 198.499 146.675V150.228H199.83V146.587C199.83 145.003 198.972 144.354 197.916 144.354C197.201 144.354 196.409 144.673 195.969 145.388C195.683 144.673 195.089 144.354 194.341 144.354C193.494 144.354 192.867 144.816 192.592 145.355V144.475H191.261V150.228ZM203.888 150.338C205.362 150.338 206.341 149.678 206.528 148.468H205.241C205.142 149.029 204.724 149.348 203.921 149.348C202.931 149.348 202.381 148.732 202.337 147.643H206.55V147.258C206.55 145.201 205.263 144.354 203.833 144.354C202.194 144.354 200.973 145.542 200.973 147.324V147.412C200.973 149.227 202.194 150.338 203.888 150.338ZM202.359 146.752C202.491 145.861 203.03 145.322 203.833 145.322C204.658 145.322 205.164 145.762 205.23 146.752H202.359ZM209.697 150.327C210.104 150.327 210.39 150.261 210.599 150.184V149.128C210.412 149.205 210.214 149.238 209.95 149.238C209.532 149.238 209.29 149.007 209.29 148.501V145.476H210.555V144.475H209.29V143.21H207.959V144.475H207.189V145.476H207.959V148.622C207.959 149.711 208.553 150.327 209.697 150.327ZM211.8 150.228H213.131V146.84C213.131 145.927 213.736 145.465 214.484 145.465C215.276 145.465 215.628 145.861 215.628 146.73V150.228H216.959V146.609C216.959 145.025 216.145 144.354 214.99 144.354C214.044 144.354 213.406 144.827 213.131 145.388V141.813H211.8V150.228ZM221.055 150.338C222.749 150.338 224.014 149.172 224.014 147.379V147.291C224.014 145.531 222.749 144.354 221.066 144.354C219.372 144.354 218.107 145.542 218.107 147.324V147.412C218.107 149.161 219.361 150.338 221.055 150.338ZM221.066 149.304C220.054 149.304 219.471 148.567 219.471 147.39V147.302C219.471 146.114 220.076 145.399 221.066 145.399C222.056 145.399 222.65 146.125 222.65 147.313V147.39C222.65 148.567 222.056 149.304 221.066 149.304ZM227.703 149.282C226.845 149.282 226.207 148.677 226.207 147.412V147.324C226.207 146.081 226.779 145.399 227.758 145.399C228.726 145.399 229.309 146.026 229.309 147.291V147.379C229.309 148.666 228.627 149.282 227.703 149.282ZM227.373 150.338C228.22 150.338 228.957 149.832 229.265 149.26V150.228H230.596V141.813H229.265V145.355C228.946 144.783 228.363 144.354 227.428 144.354C225.932 144.354 224.843 145.52 224.843 147.357V147.445C224.843 149.315 225.932 150.338 227.373 150.338ZM234.147 150.338C235.621 150.338 236.446 149.667 236.446 148.501C236.446 147.28 235.643 146.95 234.29 146.741C233.377 146.587 233.102 146.422 233.102 146.004C233.102 145.597 233.443 145.322 234.015 145.322C234.631 145.322 234.928 145.564 235.038 146.092H236.27C236.127 144.794 235.192 144.354 234.015 144.354C232.937 144.354 231.859 144.926 231.859 146.081C231.859 147.159 232.42 147.588 233.938 147.83C234.785 147.973 235.17 148.149 235.17 148.622C235.17 149.106 234.851 149.359 234.136 149.359C233.355 149.359 233.058 149.018 232.992 148.435H231.738C231.793 149.656 232.662 150.338 234.147 150.338ZM242.753 150.338C244.315 150.338 245.316 149.403 245.415 148.083H244.194C244.117 148.897 243.512 149.315 242.808 149.315C241.829 149.315 241.213 148.655 241.213 147.401V147.313C241.213 146.125 241.862 145.421 242.775 145.421C243.479 145.421 243.985 145.74 244.095 146.51H245.382C245.228 144.926 244.029 144.354 242.753 144.354C241.147 144.354 239.849 145.509 239.849 147.335V147.423C239.849 149.26 241.103 150.338 242.753 150.338ZM249.125 150.338C250.819 150.338 252.084 149.172 252.084 147.379V147.291C252.084 145.531 250.819 144.354 249.136 144.354C247.442 144.354 246.177 145.542 246.177 147.324V147.412C246.177 149.161 247.431 150.338 249.125 150.338ZM249.136 149.304C248.124 149.304 247.541 148.567 247.541 147.39V147.302C247.541 146.114 248.146 145.399 249.136 145.399C250.126 145.399 250.72 146.125 250.72 147.313V147.39C250.72 148.567 250.126 149.304 249.136 149.304ZM253.286 150.228H254.617V146.84C254.617 145.927 255.222 145.465 255.97 145.465C256.762 145.465 257.114 145.861 257.114 146.73V150.228H258.445V146.609C258.445 145.025 257.631 144.354 256.476 144.354C255.53 144.354 254.892 144.827 254.617 145.388V144.475H253.286V150.228ZM260.21 150.228H261.541V145.476H262.85V144.475H261.541V143.65C261.541 143.155 261.761 142.803 262.289 142.803C262.531 142.803 262.696 142.825 262.85 142.891V141.857C262.641 141.791 262.454 141.758 262.124 141.758C260.903 141.758 260.21 142.44 260.21 143.705V144.475H259.429V145.476H260.21V150.228ZM264.495 143.529C264.935 143.529 265.287 143.199 265.287 142.77C265.287 142.33 264.935 142 264.495 142C264.055 142 263.703 142.33 263.703 142.77C263.703 143.199 264.055 143.529 264.495 143.529ZM263.846 150.228H265.177V144.475H263.846V150.228ZM269.297 148.974C268.439 148.974 267.779 148.314 267.779 147.247V147.159C267.779 146.114 268.351 145.399 269.341 145.399C270.298 145.399 270.892 146.048 270.892 147.137V147.214C270.892 148.314 270.221 148.974 269.297 148.974ZM269.253 152.34C271.035 152.34 272.168 151.493 272.179 149.799V144.475H270.848V145.355C270.518 144.783 269.946 144.354 269 144.354C267.515 144.354 266.415 145.564 266.415 147.181V147.258C266.415 148.919 267.526 149.997 268.967 149.997C269.814 149.997 270.529 149.48 270.848 148.93V149.777C270.848 150.811 270.276 151.328 269.242 151.328C268.373 151.328 267.933 150.998 267.823 150.426H266.481C266.635 151.526 267.449 152.34 269.253 152.34ZM275.686 150.338C276.621 150.338 277.226 149.887 277.512 149.326V150.228H278.843V144.475H277.512V147.896C277.512 148.809 276.885 149.271 276.17 149.271C275.4 149.271 275.037 148.875 275.037 148.006V144.475H273.706V148.16C273.706 149.689 274.553 150.338 275.686 150.338ZM280.421 150.228H281.752V147.236C281.752 146.015 282.456 145.641 283.622 145.63V144.387C282.654 144.398 282.115 144.827 281.752 145.553V144.475H280.421V150.228ZM286.512 149.381C285.852 149.381 285.588 149.062 285.588 148.578C285.588 147.874 286.237 147.643 287.249 147.643H287.931V148.215C287.931 148.952 287.326 149.381 286.512 149.381ZM286.193 150.338C287.073 150.338 287.579 150.019 287.953 149.524V150.228H289.262V146.455C289.262 144.882 288.25 144.354 286.963 144.354C285.676 144.354 284.609 144.915 284.499 146.257H285.786C285.852 145.685 286.193 145.355 286.886 145.355C287.667 145.355 287.931 145.74 287.931 146.51V146.807H287.216C285.566 146.807 284.268 147.291 284.268 148.633C284.268 149.832 285.137 150.338 286.193 150.338ZM292.745 150.327C293.152 150.327 293.438 150.261 293.647 150.184V149.128C293.46 149.205 293.262 149.238 292.998 149.238C292.58 149.238 292.338 149.007 292.338 148.501V145.476H293.603V144.475H292.338V143.21H291.007V144.475H290.237V145.476H291.007V148.622C291.007 149.711 291.601 150.327 292.745 150.327ZM295.53 143.529C295.97 143.529 296.322 143.199 296.322 142.77C296.322 142.33 295.97 142 295.53 142C295.09 142 294.738 142.33 294.738 142.77C294.738 143.199 295.09 143.529 295.53 143.529ZM294.881 150.228H296.212V144.475H294.881V150.228ZM300.397 150.338C302.091 150.338 303.356 149.172 303.356 147.379V147.291C303.356 145.531 302.091 144.354 300.408 144.354C298.714 144.354 297.449 145.542 297.449 147.324V147.412C297.449 149.161 298.703 150.338 300.397 150.338ZM300.408 149.304C299.396 149.304 298.813 148.567 298.813 147.39V147.302C298.813 146.114 299.418 145.399 300.408 145.399C301.398 145.399 301.992 146.125 301.992 147.313V147.39C301.992 148.567 301.398 149.304 300.408 149.304ZM304.559 150.228H305.89V146.84C305.89 145.927 306.495 145.465 307.243 145.465C308.035 145.465 308.387 145.861 308.387 146.73V150.228H309.718V146.609C309.718 145.025 308.904 144.354 307.749 144.354C306.803 144.354 306.165 144.827 305.89 145.388V144.475H304.559V150.228Z" fill="#0C1142"/>
<rect x="142.5" y="375.728" width="92" height="59" rx="3.5" stroke="#2BD4DB" stroke-linecap="round" stroke-dasharray="3 6"/>
<rect x="243.5" y="375.728" width="92" height="59" rx="3.5" stroke="#2BD4DB" stroke-linecap="round" stroke-dasharray="3 6"/>
<rect x="344.5" y="375.728" width="92" height="59" rx="3.5" stroke="#2BD4DB" stroke-linecap="round" stroke-dasharray="3 6"/>
<rect x="445.5" y="375.728" width="92" height="59" rx="3.5" stroke="#2BD4DB" stroke-linecap="round" stroke-dasharray="3 6"/>
<rect x="152.5" y="385.728" width="92" height="59" rx="3.5" fill="white" stroke="#0C1142"/>
<path d="M183.554 412.578H179.925C179.952 412.154 179.895 411.73 179.759 411.328C179.501 410.995 178.928 410.828 177.924 410.828C177.274 410.736 176.611 410.822 176.006 411.078C175.842 411.224 175.712 411.404 175.625 411.605C175.537 411.807 175.494 412.025 175.499 412.245C175.46 412.448 175.479 412.659 175.554 412.852C175.629 413.045 175.757 413.213 175.923 413.336C176.158 413.457 176.41 413.541 176.67 413.586L177.417 413.67C178.423 413.7 179.426 413.784 180.423 413.92C181.422 413.96 182.383 414.312 183.172 414.928C183.623 415.377 183.915 415.963 184.002 416.595C184.071 417.066 184.098 417.543 184.085 418.02C184.145 418.897 184.032 419.778 183.753 420.611C183.502 421.147 183.115 421.606 182.631 421.944C182.147 422.282 181.583 422.486 180.996 422.536C180.087 422.675 179.167 422.731 178.248 422.703C176.795 422.758 175.341 422.646 173.913 422.37C173.459 422.246 173.041 422.014 172.695 421.694C172.35 421.373 172.087 420.973 171.929 420.528C171.678 419.689 171.593 418.808 171.679 417.936H175.333V418.27C175.295 418.515 175.331 418.765 175.436 418.989C175.541 419.214 175.71 419.401 175.923 419.528C176.205 419.67 176.522 419.727 176.836 419.695H178.173C178.617 419.708 179.062 419.681 179.501 419.611C179.664 419.574 179.813 419.492 179.932 419.374C180.051 419.256 180.135 419.108 180.174 418.945C180.237 418.726 180.265 418.498 180.257 418.27C180.287 418.029 180.239 417.785 180.119 417.575C179.999 417.364 179.815 417.199 179.593 417.103C178.762 417.02 177.932 416.936 177.168 416.845C176.006 416.761 175.167 416.678 174.752 416.595C174.269 416.557 173.8 416.41 173.382 416.164C172.963 415.919 172.606 415.582 172.335 415.178C171.917 414.32 171.744 413.362 171.837 412.411C171.838 411.652 171.922 410.895 172.086 410.153C172.242 409.645 172.564 409.205 173 408.903C173.701 408.391 174.55 408.125 175.416 408.145C176.246 408.061 177.077 408.061 178.09 408.061C179.202 408.062 180.312 408.146 181.411 408.311C182.997 408.728 183.836 409.978 183.836 411.911C183.554 411.995 183.554 412.245 183.554 412.578ZM199.646 422.578V407.811H206.986C207.771 407.812 208.553 407.896 209.32 408.061C209.898 408.202 210.431 408.492 210.863 408.903C211.296 409.313 211.614 409.831 211.786 410.403C212.025 411.305 212.14 412.236 212.126 413.17C212.182 414.267 212.067 415.366 211.786 416.428C211.576 417.051 211.187 417.598 210.669 418C210.15 418.401 209.525 418.64 208.871 418.686C208.705 418.686 207.958 418.77 206.704 418.77H203.681V422.62L199.646 422.578ZM203.648 415.303H206.139C206.614 415.294 207.087 415.238 207.551 415.136C207.812 414.96 207.994 414.688 208.057 414.378C208.126 413.993 208.154 413.602 208.14 413.211C208.168 412.73 208.111 412.248 207.974 411.786C207.895 411.579 207.758 411.398 207.58 411.265C207.402 411.132 207.191 411.053 206.97 411.036H203.764L203.681 415.303H203.648ZM220.579 419.986H215.356L214.609 422.486H210.524L214.941 407.728H220.861L225.362 422.536H221.36L220.579 419.986ZM219.749 417.145L217.914 410.695L216.087 417.145H219.749Z" fill="#293688"/>
<path d="M189.764 412.578H197.935L197.852 412.495L196.839 414.586H189.009V415.178C188.995 415.431 189.023 415.684 189.092 415.928V416.011H196.349L196.266 415.928L195.261 418.02H189.764L189.847 418.103C190.224 418.68 190.711 419.177 191.28 419.565C191.848 419.953 192.487 420.225 193.16 420.365C193.834 420.505 194.528 420.511 195.203 420.382C195.879 420.252 196.522 419.99 197.097 419.611C197.497 419.352 197.863 419.041 198.184 418.686L198.101 418.603V421.103C196.453 422.197 194.439 422.591 192.502 422.199C190.564 421.807 188.861 420.661 187.763 419.011C187.517 418.677 187.318 418.31 187.174 417.92H184.508L184.591 418.003L185.588 415.911H186.676V414.503H184.508L184.591 414.586L185.588 412.495H187.174C187.753 411.185 188.677 410.058 189.847 409.236C191.251 408.305 192.925 407.873 194.602 408.009C196.278 408.145 197.861 408.841 199.098 409.986V409.903L198.267 411.745H198.35C197.461 410.668 196.191 409.98 194.806 409.825C193.422 409.669 192.031 410.059 190.927 410.911C190.425 411.332 190.003 411.84 189.681 412.411L189.59 412.495L189.764 412.578Z" fill="#FDBB11"/>
</g>
<rect x="119" y="116.228" width="442" height="352" rx="7" stroke="#0C1142" stroke-width="2"/>
<defs>
<linearGradient id="paint0_linear_3_3434" x1="396.068" y1="270.515" x2="427.491" y2="270.515" gradientUnits="userSpaceOnUse">
<stop stop-color="#017A40"/>
<stop offset="0.23" stop-color="#048643"/>
<stop offset="0.74" stop-color="#3FA548"/>
<stop offset="1" stop-color="#5CB447"/>
</linearGradient>
<linearGradient id="paint1_linear_3_3434" x1="-4638.2" y1="16374.5" x2="-4531.34" y2="16374.5" gradientUnits="userSpaceOnUse">
<stop stop-color="#017A40"/>
<stop offset="0.23" stop-color="#048643"/>
<stop offset="0.74" stop-color="#3FA548"/>
<stop offset="1" stop-color="#5CB447"/>
</linearGradient>
<linearGradient id="paint2_linear_3_3434" x1="-1121.14" y1="1617.99" x2="-1088.86" y2="1617.99" gradientUnits="userSpaceOnUse">
<stop stop-color="#017A40"/>
<stop offset="0.23" stop-color="#048643"/>
<stop offset="0.74" stop-color="#3FA548"/>
<stop offset="1" stop-color="#5CB447"/>
</linearGradient>
<linearGradient id="paint3_linear_3_3434" x1="374.894" y1="268.928" x2="406.768" y2="268.928" gradientUnits="userSpaceOnUse">
<stop stop-color="#2B2D6D"/>
<stop offset="0.48" stop-color="#064F91"/>
<stop offset="0.83" stop-color="#0A67AF"/>
<stop offset="1" stop-color="#1070B7"/>
</linearGradient>
<linearGradient id="paint4_linear_3_3434" x1="385.425" y1="268.928" x2="416.395" y2="268.928" gradientUnits="userSpaceOnUse">
<stop stop-color="#6D2D2F"/>
<stop offset="0.17" stop-color="#882731"/>
<stop offset="0.57" stop-color="#BD2034"/>
<stop offset="0.86" stop-color="#DA1E38"/>
<stop offset="1" stop-color="#E41D3C"/>
</linearGradient>
<linearGradient id="paint5_linear_3_3434" x1="491.224" y1="320.56" x2="491.224" y2="353.305" gradientUnits="userSpaceOnUse">
<stop stop-color="#1A1E46"/>
<stop offset="0.3515" stop-color="#1A1E46"/>
<stop offset="0.4737" stop-color="#2E467E"/>
<stop offset="0.5515" stop-color="#3664A9"/>
<stop offset="0.5925" stop-color="#3665A8"/>
<stop offset="0.6315" stop-color="#3465A2"/>
<stop offset="0.6697" stop-color="#326699"/>
<stop offset="0.7074" stop-color="#2F668C"/>
<stop offset="0.7448" stop-color="#2C667A"/>
<stop offset="0.7819" stop-color="#286663"/>
<stop offset="0.8181" stop-color="#256449"/>
<stop offset="0.8485" stop-color="#206230"/>
<stop offset="1" stop-color="#206230"/>
</linearGradient>
<clipPath id="clip0_3_3434">
<rect x="118" y="115.228" width="444" height="354" rx="8" fill="white"/>
</clipPath>
<clipPath id="clip1_3_3434">
<rect width="44.258" height="32.75" fill="white" transform="translate(469.08 320.561)"/>
</clipPath>
</defs>
</svg>
