<svg width="48" height="48" viewBox="0 0 48 48" fill="none" xmlns="http://www.w3.org/2000/svg">
<circle cx="19" cy="29" r="19" fill="url(#paint0_linear_7060_29603)"/>
<path d="M24.5 41.5C21 41.5 17.5 39 17.5 35.5C17.5 33.9146 17.5 32.5344 17.5 31.4988C17.5 30.3942 18.3954 29.5 19.5 29.5H29.5C30.6046 29.5 31.5 30.3954 31.5 31.5V35.5C31.5 39 28 41.5 24.5 41.5ZM24.5 41.5V46.5M24.5 6.5C21 6.5 17.5 9 17.5 12.5C17.5 14.1667 17.5 15.8333 17.5 17.5C17.5 18.6046 18.3954 19.5 19.5 19.5H29.5C30.6046 19.5 31.5 18.6046 31.5 17.5C31.5 15.8333 31.5 14.1667 31.5 12.5C31.5 9 28 6.5 24.5 6.5ZM24.5 6.5V1.5M21.5 19.5V24.5M27.5 19.5V24.5M12.5 36.5V29.5M36.5 12.5V19.5" stroke="#AAEEF1" stroke-linecap="round"/>
<path d="M24.5 41.5C21 41.5 17.5 39 17.5 35.5C17.5 33.9146 17.5 32.5344 17.5 31.4988C17.5 30.3942 18.3954 29.5 19.5 29.5H29.5C30.6046 29.5 31.5 30.3954 31.5 31.5V35.5C31.5 39 28 41.5 24.5 41.5ZM24.5 41.5V46.5M24.5 6.5C21 6.5 17.5 9 17.5 12.5C17.5 14.1667 17.5 15.8333 17.5 17.5C17.5 18.6046 18.3954 19.5 19.5 19.5H29.5C30.6046 19.5 31.5 18.6046 31.5 17.5C31.5 15.8333 31.5 14.1667 31.5 12.5C31.5 9 28 6.5 24.5 6.5ZM24.5 6.5V1.5M21.5 19.5V24.5M27.5 19.5V24.5M12.5 36.5V29.5M36.5 12.5V19.5" stroke="url(#paint1_linear_7060_29603)" stroke-linecap="round"/>
<defs>
<linearGradient id="paint0_linear_7060_29603" x1="38" y1="48" x2="23.5473" y2="2.86544" gradientUnits="userSpaceOnUse">
<stop stop-color="#3D4168"/>
<stop offset="1" stop-color="#0C1142"/>
</linearGradient>
<linearGradient id="paint1_linear_7060_29603" x1="37" y1="13.5" x2="11.5" y2="49" gradientUnits="userSpaceOnUse">
<stop stop-color="#2BDBD4" stop-opacity="0.8"/>
<stop offset="1" stop-color="#FFFFC8" stop-opacity="0.3"/>
</linearGradient>
</defs>
</svg>
