<?xml version="1.0" encoding="utf-8"?>
<!-- Generator: Adobe Illustrator 24.2.1, SVG Export Plug-In . SVG Version: 6.00 Build 0)  -->
<svg version="1.1" xmlns="http://www.w3.org/2000/svg" xmlns:xlink="http://www.w3.org/1999/xlink" x="0px" y="0px"
	 viewBox="0 0 64 64" style="enable-background:new 0 0 64 64;" xml:space="preserve">
<style type="text/css">
	.st0{fill:url(#SVGID_1_);}
	.st1{fill:none;stroke:#0C1142;stroke-miterlimit:10;}
	.st2{fill:url(#SVGID_2_);}
	.st3{fill:url(#SVGID_3_);}
	.st4{fill:url(#SVGID_4_);}
	.st5{fill:#0C1142;}
	.st6{clip-path:url(#SVGID_7_);fill:none;stroke:#FFFFFF;stroke-width:4;stroke-miterlimit:10;}
	.st7{fill:url(#SVGID_8_);}
	.st8{fill:url(#SVGID_9_);}
	.st9{fill:none;stroke:url(#SVGID_10_);stroke-miterlimit:10;}
	.st10{fill:none;stroke:url(#SVGID_11_);stroke-miterlimit:10;}
	.st11{fill:none;stroke:url(#SVGID_12_);stroke-miterlimit:10;}
	.st12{fill:url(#SVGID_13_);}
	.st13{fill:url(#SVGID_14_);}
	.st14{fill:url(#SVGID_15_);}
	.st15{fill:url(#SVGID_16_);}
	.st16{fill:url(#SVGID_17_);}
	.st17{fill:url(#SVGID_18_);}
	.st18{fill:none;stroke:#FFFFFF;stroke-miterlimit:10;}
	.st19{fill:url(#SVGID_19_);}
	.st20{fill:none;stroke:url(#SVGID_20_);stroke-miterlimit:10;}
	.st21{fill:url(#SVGID_21_);}
	.st22{fill:url(#SVGID_22_);}
	.st23{fill:url(#SVGID_23_);}
	.st24{fill:url(#SVGID_24_);}
	.st25{fill:url(#SVGID_25_);}
	.st26{fill:url(#SVGID_26_);}
	.st27{fill:url(#SVGID_27_);}
	.st28{fill:url(#SVGID_28_);}
	.st29{fill:url(#SVGID_29_);}
	.st30{fill:url(#SVGID_30_);}
	.st31{fill:url(#SVGID_31_);}
	.st32{fill:url(#SVGID_32_);}
	.st33{fill:url(#SVGID_33_);}
	.st34{fill:url(#SVGID_34_);}
	.st35{fill:url(#SVGID_35_);}
	.st36{fill:url(#SVGID_36_);}
	.st37{fill:#FFFFFF;}
	.st38{fill:url(#SVGID_37_);}
	.st39{fill:none;stroke:url(#SVGID_38_);stroke-miterlimit:10;}
	.st40{fill:none;stroke:url(#SVGID_39_);stroke-miterlimit:10;}
	.st41{fill:none;stroke:url(#SVGID_40_);stroke-miterlimit:10;}
	.st42{fill:url(#SVGID_41_);}
	.st43{fill:url(#SVGID_42_);}
	.st44{fill:url(#SVGID_43_);}
	.st45{fill:none;stroke:url(#SVGID_44_);stroke-miterlimit:10;}
	.st46{fill:url(#SVGID_45_);}
	.st47{fill:none;stroke:url(#SVGID_46_);stroke-miterlimit:10;}
	.st48{fill:none;stroke:url(#SVGID_47_);stroke-miterlimit:10;}
	.st49{fill:none;stroke:url(#SVGID_48_);stroke-miterlimit:10;}
	.st50{fill:url(#SVGID_49_);}
	.st51{fill:url(#SVGID_50_);}
	.st52{fill:url(#SVGID_51_);}
	.st53{fill:url(#SVGID_52_);}
	.st54{fill:url(#SVGID_53_);}
	.st55{fill:url(#SVGID_54_);}
	.st56{fill:url(#SVGID_55_);}
	.st57{fill:url(#SVGID_56_);}
	.st58{fill:none;stroke:url(#SVGID_57_);stroke-miterlimit:10;}
	.st59{fill:none;stroke:url(#SVGID_58_);stroke-miterlimit:10;}
	.st60{fill:none;stroke:url(#SVGID_59_);stroke-miterlimit:10;}
	.st61{fill:url(#SVGID_60_);}
	.st62{fill:none;stroke:url(#SVGID_61_);stroke-miterlimit:10;}
	.st63{fill:url(#SVGID_62_);}
	.st64{fill:url(#SVGID_63_);}
	.st65{fill:url(#SVGID_64_);}
	.st66{fill:url(#SVGID_65_);}
	.st67{fill:#FFFFFF;stroke:#0C1142;stroke-miterlimit:10;}
	.st68{fill:url(#SVGID_66_);}
	.st69{fill:url(#SVGID_67_);}
	.st70{fill:url(#SVGID_68_);}
	.st71{fill:url(#SVGID_69_);}
	.st72{fill:url(#SVGID_70_);}
	.st73{fill:none;stroke:url(#SVGID_71_);stroke-miterlimit:10;}
	.st74{fill:none;stroke:url(#SVGID_72_);stroke-miterlimit:10;}
	.st75{fill:none;stroke:url(#SVGID_73_);stroke-miterlimit:10;}
	.st76{fill:url(#SVGID_74_);}
	.st77{fill:none;}
	.st78{fill:none;stroke:url(#SVGID_75_);stroke-miterlimit:10;}
	.st79{fill:none;stroke:url(#SVGID_76_);stroke-miterlimit:10;}
	.st80{fill:none;stroke:url(#SVGID_77_);stroke-miterlimit:10;}
	.st81{fill:none;stroke:url(#SVGID_78_);stroke-miterlimit:10;}
	.st82{fill:url(#SVGID_79_);}
	.st83{fill:url(#SVGID_80_);}
	.st84{fill:none;stroke:url(#SVGID_81_);stroke-miterlimit:10;}
	.st85{fill:url(#SVGID_82_);}
	.st86{fill:url(#SVGID_83_);}
	.st87{fill:url(#SVGID_84_);}
	.st88{fill:url(#SVGID_85_);}
	.st89{fill:url(#SVGID_86_);}
	.st90{fill:url(#SVGID_87_);}
	.st91{fill:url(#SVGID_88_);}
	.st92{fill:url(#SVGID_89_);}
	.st93{fill:none;stroke:url(#SVGID_90_);stroke-miterlimit:10;}
	.st94{fill:none;stroke:url(#SVGID_91_);stroke-miterlimit:10;}
	.st95{fill:url(#SVGID_92_);}
	.st96{fill:url(#SVGID_93_);}
	.st97{fill:url(#SVGID_94_);}
	.st98{display:none;}
	.st99{display:inline;fill:none;stroke:#CCCCCC;stroke-width:5.000000e-02;stroke-miterlimit:10;}
	.st100{display:inline;}
	.st101{fill:#FF00FF;}
</style>
<g id="Icon">
	<line class="st1" x1="39" y1="18.5" x2="44" y2="18.5"/>
	<line class="st1" x1="39" y1="23.5" x2="44" y2="23.5"/>
	<line class="st1" x1="13" y1="43.5" x2="29" y2="43.5"/>
	<line class="st1" x1="13" y1="53.5" x2="26" y2="53.5"/>
	<linearGradient id="SVGID_1_" gradientUnits="userSpaceOnUse" x1="15.25" y1="51.25" x2="20.75" y2="45.75">
		<stop  offset="0" style="stop-color:#2BD4DB;stop-opacity:0.8"/>
		<stop  offset="1" style="stop-color:#2BD4DB;stop-opacity:0.2"/>
	</linearGradient>
	<line style="fill:none;stroke:url(#SVGID_1_);stroke-miterlimit:10;" x1="13" y1="48.5" x2="23" y2="48.5"/>
	<line class="st1" x1="25" y1="48.5" x2="32" y2="48.5"/>
	<line class="st1" x1="13" y1="23.5" x2="33" y2="23.5"/>
	<line class="st1" x1="13" y1="33.5" x2="35" y2="33.5"/>
	<linearGradient id="SVGID_2_" gradientUnits="userSpaceOnUse" x1="16" y1="21.9991" x2="23" y2="14.9991">
		<stop  offset="0" style="stop-color:#2BD4DB;stop-opacity:0.8"/>
		<stop  offset="1" style="stop-color:#2BD4DB;stop-opacity:0.2"/>
	</linearGradient>
	<line style="fill:none;stroke:url(#SVGID_2_);stroke-miterlimit:10;" x1="13" y1="18.5" x2="26" y2="18.5"/>
	<line class="st1" x1="13" y1="28.5" x2="24" y2="28.5"/>
	<line class="st1" x1="13" y1="7.5" x2="38" y2="7.5"/>
	<line class="st1" x1="13" y1="10.5" x2="31" y2="10.5"/>
	<linearGradient id="SVGID_3_" gradientUnits="userSpaceOnUse" x1="40" y1="29.9991" x2="43" y2="26.9991">
		<stop  offset="0" style="stop-color:#2BD4DB;stop-opacity:0.8"/>
		<stop  offset="1" style="stop-color:#2BD4DB;stop-opacity:0.2"/>
	</linearGradient>
	<line style="fill:none;stroke:url(#SVGID_3_);stroke-miterlimit:10;" x1="39" y1="28.5" x2="44" y2="28.5"/>
	<line class="st1" x1="39" y1="33.5" x2="44" y2="33.5"/>
	<path class="st5" d="M41.7,48.1c-1.1-0.5-1.8-0.9-1.8-1.6c0-0.6,0.7-1.2,1.5-1.2s1.5,0.5,1.5,1.2h1c0-1-0.9-1.9-2-2.1V43h-1v1.4
		c-1.1,0.2-2,1.1-2,2.1c0,1.3,1.2,2,2.3,2.5c1,0.5,1.7,0.9,1.7,1.5c0,0.6-0.7,1.2-1.5,1.2S40,51.2,40,50.5h-1c0,1,0.9,1.9,2,2.1V54
		h1v-1.4c1.1-0.2,2-1.1,2-2.1C44,49.2,42.8,48.7,41.7,48.1z"/>
	<linearGradient id="SVGID_4_" gradientUnits="userSpaceOnUse" x1="48" y1="17.0037" x2="48" y2="0">
		<stop  offset="0" style="stop-color:#2BD4DB;stop-opacity:0.8"/>
		<stop  offset="1" style="stop-color:#2BD4DB;stop-opacity:0.2"/>
	</linearGradient>
	<polygon class="st4" points="42,0 42,9 40,9 48,17 56,9 54,9 54,0 	"/>
	<line class="st1" x1="40" y1="0.5" x2="34" y2="0.5"/>
	<line class="st1" x1="31" y1="0.5" x2="25" y2="0.5"/>
	<line class="st1" x1="22" y1="0.5" x2="16" y2="0.5"/>
	<polyline class="st1" points="13,0.5 8.5,0.5 8.5,62.8 12.5,59 16.5,63 20.5,59 24,63 28,59 32.5,63 36.5,59 40.5,63 44.5,59 
		48.5,62.8 48.5,18 	"/>
</g>
<g id="Base_x5F_Grid" class="st98">
	<line class="st99" x1="5" y1="0" x2="5" y2="64"/>
	<line class="st99" x1="6" y1="0" x2="6" y2="64"/>
	<line class="st99" x1="7" y1="0" x2="7" y2="64"/>
	<line class="st99" x1="8" y1="0" x2="8" y2="64"/>
	<line class="st99" x1="9" y1="0" x2="9" y2="64"/>
	<line class="st99" x1="1" y1="0" x2="1" y2="64"/>
	<line class="st99" x1="2" y1="0" x2="2" y2="64"/>
	<line class="st99" x1="3" y1="0" x2="3" y2="64"/>
	<line class="st99" x1="4" y1="0" x2="4" y2="64"/>
	<line class="st99" x1="10" y1="0" x2="10" y2="64"/>
	<line class="st99" x1="11" y1="0" x2="11" y2="64"/>
	<line class="st99" x1="12" y1="0" x2="12" y2="64"/>
	<line class="st99" x1="13" y1="0" x2="13" y2="64"/>
	<line class="st99" x1="14" y1="0" x2="14" y2="64"/>
	<line class="st99" x1="15" y1="0" x2="15" y2="64"/>
	<line class="st99" x1="16" y1="0" x2="16" y2="64"/>
	<line class="st99" x1="17" y1="0" x2="17" y2="64"/>
	<line class="st99" x1="18" y1="0" x2="18" y2="64"/>
	<line class="st99" x1="19" y1="0" x2="19" y2="64"/>
	<line class="st99" x1="20" y1="0" x2="20" y2="64"/>
	<line class="st99" x1="21" y1="0" x2="21" y2="64"/>
	<line class="st99" x1="22" y1="0" x2="22" y2="64"/>
	<line class="st99" x1="23" y1="0" x2="23" y2="64"/>
	<line class="st99" x1="24" y1="0" x2="24" y2="64"/>
	<line class="st99" x1="25" y1="0" x2="25" y2="64"/>
	<line class="st99" x1="26" y1="0" x2="26" y2="64"/>
	<line class="st99" x1="27" y1="0" x2="27" y2="64"/>
	<line class="st99" x1="28" y1="0" x2="28" y2="64"/>
	<line class="st99" x1="29" y1="0" x2="29" y2="64"/>
	<line class="st99" x1="30" y1="0" x2="30" y2="64"/>
	<line class="st99" x1="31" y1="0" x2="31" y2="64"/>
	<line class="st99" x1="32" y1="0" x2="32" y2="64"/>
	<line class="st99" x1="33" y1="0" x2="33" y2="64"/>
	<line class="st99" x1="34" y1="0" x2="34" y2="64"/>
	<line class="st99" x1="35" y1="0" x2="35" y2="64"/>
	<line class="st99" x1="36" y1="0" x2="36" y2="64"/>
	<line class="st99" x1="37" y1="0" x2="37" y2="64"/>
	<line class="st99" x1="38" y1="0" x2="38" y2="64"/>
	<line class="st99" x1="39" y1="0" x2="39" y2="64"/>
	<line class="st99" x1="40" y1="0" x2="40" y2="64"/>
	<line class="st99" x1="41" y1="0" x2="41" y2="64"/>
	<line class="st99" x1="42" y1="0" x2="42" y2="64"/>
	<line class="st99" x1="43" y1="0" x2="43" y2="64"/>
	<line class="st99" x1="44" y1="0" x2="44" y2="64"/>
	<line class="st99" x1="45" y1="0" x2="45" y2="64"/>
	<line class="st99" x1="46" y1="0" x2="46" y2="64"/>
	<line class="st99" x1="47" y1="0" x2="47" y2="64"/>
	<line class="st99" x1="48" y1="0" x2="48" y2="64"/>
	<line class="st99" x1="49" y1="0" x2="49" y2="64"/>
	<line class="st99" x1="50" y1="0" x2="50" y2="64"/>
	<line class="st99" x1="51" y1="0" x2="51" y2="64"/>
	<line class="st99" x1="52" y1="0" x2="52" y2="64"/>
	<line class="st99" x1="53" y1="0" x2="53" y2="64"/>
	<line class="st99" x1="54" y1="0" x2="54" y2="64"/>
	<line class="st99" x1="55" y1="0" x2="55" y2="64"/>
	<line class="st99" x1="56" y1="0" x2="56" y2="64"/>
	<line class="st99" x1="57" y1="0" x2="57" y2="64"/>
	<line class="st99" x1="58" y1="0" x2="58" y2="64"/>
	<line class="st99" x1="59" y1="0" x2="59" y2="64"/>
	<line class="st99" x1="60" y1="0" x2="60" y2="64"/>
	<line class="st99" x1="61" y1="0" x2="61" y2="64"/>
	<line class="st99" x1="62" y1="0" x2="62" y2="64"/>
	<line class="st99" x1="63" y1="0" x2="63" y2="64"/>
	<line class="st99" x1="64" y1="5" x2="0" y2="5"/>
	<line class="st99" x1="64" y1="6" x2="0" y2="6"/>
	<line class="st99" x1="64" y1="7" x2="0" y2="7"/>
	<line class="st99" x1="64" y1="8" x2="0" y2="8"/>
	<line class="st99" x1="64" y1="9" x2="0" y2="9"/>
	<line class="st99" x1="64" y1="1" x2="0" y2="1"/>
	<line class="st99" x1="64" y1="2" x2="0" y2="2"/>
	<line class="st99" x1="64" y1="3" x2="0" y2="3"/>
	<line class="st99" x1="64" y1="4" x2="0" y2="4"/>
	<line class="st99" x1="64" y1="10" x2="0" y2="10"/>
	<line class="st99" x1="64" y1="11" x2="0" y2="11"/>
	<line class="st99" x1="64" y1="12" x2="0" y2="12"/>
	<line class="st99" x1="64" y1="13" x2="0" y2="13"/>
	<line class="st99" x1="64" y1="14" x2="0" y2="14"/>
	<line class="st99" x1="64" y1="15" x2="0" y2="15"/>
	<line class="st99" x1="64" y1="16" x2="0" y2="16"/>
	<line class="st99" x1="64" y1="17" x2="0" y2="17"/>
	<line class="st99" x1="64" y1="18" x2="0" y2="18"/>
	<line class="st99" x1="64" y1="19" x2="0" y2="19"/>
	<line class="st99" x1="64" y1="20" x2="0" y2="20"/>
	<line class="st99" x1="64" y1="21" x2="0" y2="21"/>
	<line class="st99" x1="64" y1="22" x2="0" y2="22"/>
	<line class="st99" x1="64" y1="23" x2="0" y2="23"/>
	<line class="st99" x1="64" y1="24" x2="0" y2="24"/>
	<line class="st99" x1="64" y1="25" x2="0" y2="25"/>
	<line class="st99" x1="64" y1="26" x2="0" y2="26"/>
	<line class="st99" x1="64" y1="27" x2="0" y2="27"/>
	<line class="st99" x1="64" y1="28" x2="0" y2="28"/>
	<line class="st99" x1="64" y1="29" x2="0" y2="29"/>
	<line class="st99" x1="64" y1="30" x2="0" y2="30"/>
	<line class="st99" x1="64" y1="31" x2="0" y2="31"/>
	<line class="st99" x1="64" y1="32" x2="0" y2="32"/>
	<line class="st99" x1="64" y1="33" x2="0" y2="33"/>
	<line class="st99" x1="64" y1="34" x2="0" y2="34"/>
	<line class="st99" x1="64" y1="35" x2="0" y2="35"/>
	<line class="st99" x1="64" y1="36" x2="0" y2="36"/>
	<line class="st99" x1="64" y1="37" x2="0" y2="37"/>
	<line class="st99" x1="64" y1="38" x2="0" y2="38"/>
	<line class="st99" x1="64" y1="39" x2="0" y2="39"/>
	<line class="st99" x1="64" y1="40" x2="0" y2="40"/>
	<line class="st99" x1="64" y1="41" x2="0" y2="41"/>
	<line class="st99" x1="64" y1="42" x2="0" y2="42"/>
	<line class="st99" x1="64" y1="43" x2="0" y2="43"/>
	<line class="st99" x1="64" y1="44" x2="0" y2="44"/>
	<line class="st99" x1="64" y1="45" x2="0" y2="45"/>
	<line class="st99" x1="64" y1="46" x2="0" y2="46"/>
	<line class="st99" x1="64" y1="47" x2="0" y2="47"/>
	<line class="st99" x1="64" y1="48" x2="0" y2="48"/>
	<line class="st99" x1="64" y1="49" x2="0" y2="49"/>
	<line class="st99" x1="64" y1="50" x2="0" y2="50"/>
	<line class="st99" x1="64" y1="51" x2="0" y2="51"/>
	<line class="st99" x1="64" y1="52" x2="0" y2="52"/>
	<line class="st99" x1="64" y1="53" x2="0" y2="53"/>
	<line class="st99" x1="64" y1="54" x2="0" y2="54"/>
	<line class="st99" x1="64" y1="55" x2="0" y2="55"/>
	<line class="st99" x1="64" y1="56" x2="0" y2="56"/>
	<line class="st99" x1="64" y1="57" x2="0" y2="57"/>
	<line class="st99" x1="64" y1="58" x2="0" y2="58"/>
	<line class="st99" x1="64" y1="59" x2="0" y2="59"/>
	<line class="st99" x1="64" y1="60" x2="0" y2="60"/>
	<line class="st99" x1="64" y1="61" x2="0" y2="61"/>
	<line class="st99" x1="64" y1="62" x2="0" y2="62"/>
	<line class="st99" x1="64" y1="63" x2="0" y2="63"/>
</g>
<g id="Optical_x5F_Grid" class="st98">
	<g class="st100">
		<path class="st101" d="M55.9,0.1v63.8H8.1V0.1H55.9 M56,0H8v64h48V0L56,0z"/>
	</g>
</g>
</svg>
