<svg width="600" height="264" viewBox="0 0 600 264" fill="none" xmlns="http://www.w3.org/2000/svg">
<path d="M403 76.5H474.959" stroke="#CECFD9"/>
<path d="M403 94.5H533.25" stroke="#CECFD9"/>
<path d="M403 112.5H510.738" stroke="#0C1142"/>
<path d="M403 148.5H493.451" stroke="#2BD4DB"/>
<path d="M403 130.5H570.234" stroke="#CECFD9"/>
<path d="M403 184.5H470.537" stroke="#CECFD9"/>
<path d="M403 202.5H524" stroke="#CECFD9"/>
<path d="M403 220.5H489" stroke="#2BD4DB"/>
<path d="M403 166.5H563.802" stroke="#CECFD9"/>
<path d="M43 76.5H114.959" stroke="#CECFD9"/>
<path d="M43 94.375H173.25" stroke="#CECFD9"/>
<path d="M24 112.5L151 112.5" stroke="#CECFD9"/>
<path d="M33 148.5L133 148.5" stroke="#2BD4DB"/>
<path d="M43 130.375H210.234" stroke="#CECFD9"/>
<path d="M36 184.5L111 184.5" stroke="#CECFD9"/>
<path d="M43 202.501H164" stroke="#CECFD9"/>
<path d="M30 220.5L129 220.5" stroke="#CECFD9"/>
<path d="M52 166.5L204 166.5" stroke="#CECFD9"/>
<rect x="64" y="24" width="263" height="230" rx="8" fill="#0C1142"/>
<path d="M81 76.5H119" stroke="#2BD4DB"/>
<path d="M81 94.5H151" stroke="#6D708E"/>
<path d="M81 112.5H138.085" stroke="#6D708E"/>
<path d="M81 130.5H169.441" stroke="#6D708E"/>
<path d="M81 148.5H128.437" stroke="#6D708E"/>
<path d="M81 184.5H116.377" stroke="#6D708E"/>
<path d="M81 220.5H103" stroke="#6D708E"/>
<path d="M81 202.5H133" stroke="#2BD4DB"/>
<path d="M81 166.5H166.225" stroke="#6D708E"/>
<ellipse cx="83.917" cy="43.5128" rx="3.91701" ry="3.90244" fill="#6D708E"/>
<ellipse cx="99.2647" cy="43.5128" rx="3.91701" ry="3.90244" fill="#6D708E"/>
<ellipse cx="114.612" cy="43.5128" rx="3.91701" ry="3.90244" fill="#6D708E"/>
<path d="M218.5 22C218.5 17.8579 221.858 14.5 226 14.5H418C422.142 14.5 425.5 17.8579 425.5 22V256C425.5 260.142 422.142 263.5 418 263.5H226C221.858 263.5 218.5 260.142 218.5 256V22Z" fill="white" stroke="#0C1142"/>
<path d="M252.159 45.5193L256.916 36.8513C257.028 36.6578 257.028 36.4644 256.916 36.2709C256.805 36.1161 256.619 36 256.433 36H246.621C246.436 36 246.25 36.1161 246.138 36.2709L241.084 45.2098C240.972 45.4033 240.972 45.6354 241.084 45.7902L246.138 54.7291C246.25 54.9226 246.436 55 246.621 55H256.433C256.619 55 256.805 54.8839 256.916 54.7291C257.028 54.5356 257.028 54.3422 256.916 54.1487L252.159 45.5193ZM251.527 44.3585L247.588 37.1609H255.504L251.527 44.3585ZM246.584 37.7413L250.858 45.5193L246.584 53.2974L242.199 45.5193L246.584 37.7413ZM247.588 53.8391L251.527 46.6415L255.467 53.8391H247.588Z" fill="#0C1142"/>
<rect x="242.5" y="139.5" width="159" height="23" rx="3.5" fill="white" stroke="#2BD4DB"/>
<rect x="-0.5" y="0.5" width="111" height="23" rx="3.5" transform="matrix(-1 0 0 1 401 175)" fill="white" stroke="#2BD4DB"/>
<rect x="242" y="213" width="160" height="24" rx="4" fill="#0C1142"/>
<path d="M302.3 229.01C302.3 228.85 302.313 228.68 302.34 228.5C302.373 228.313 302.42 228.117 302.48 227.91C302.547 227.697 302.627 227.473 302.72 227.24L303.44 227.52C303.373 227.707 303.313 227.883 303.26 228.05C303.213 228.217 303.177 228.373 303.15 228.52C303.13 228.667 303.12 228.807 303.12 228.94C303.12 229.287 303.21 229.573 303.39 229.8C303.57 230.027 303.817 230.197 304.13 230.31C304.443 230.423 304.797 230.48 305.19 230.48C305.637 230.48 306.01 230.42 306.31 230.3C306.617 230.18 306.86 230.02 307.04 229.82C307.22 229.627 307.347 229.41 307.42 229.17C307.5 228.93 307.54 228.693 307.54 228.46C307.54 228.207 307.49 227.9 307.39 227.54C307.297 227.18 307.12 226.733 306.86 226.2L307.61 225.82C307.743 226.073 307.863 226.34 307.97 226.62C308.083 226.893 308.173 227.177 308.24 227.47C308.313 227.757 308.35 228.05 308.35 228.35C308.35 228.61 308.317 228.877 308.25 229.15C308.19 229.423 308.087 229.687 307.94 229.94C307.793 230.2 307.597 230.43 307.35 230.63C307.11 230.837 306.81 231 306.45 231.12C306.097 231.24 305.673 231.3 305.18 231.3C304.793 231.3 304.423 231.253 304.07 231.16C303.723 231.073 303.417 230.937 303.15 230.75C302.89 230.563 302.683 230.327 302.53 230.04C302.377 229.753 302.3 229.41 302.3 229.01ZM305.32 225.02C305.18 225.02 305.06 224.973 304.96 224.88C304.867 224.78 304.82 224.663 304.82 224.53C304.82 224.397 304.867 224.28 304.96 224.18C305.06 224.08 305.18 224.03 305.32 224.03C305.453 224.03 305.567 224.08 305.66 224.18C305.76 224.28 305.81 224.397 305.81 224.53C305.81 224.663 305.76 224.78 305.66 224.88C305.567 224.973 305.453 225.02 305.32 225.02ZM313.576 223.64C313.576 223.493 313.566 223.317 313.546 223.11C313.526 222.903 313.502 222.697 313.476 222.49C313.449 222.283 313.422 222.107 313.396 221.96L314.256 221.86C314.276 221.993 314.296 222.17 314.316 222.39C314.342 222.603 314.362 222.817 314.376 223.03C314.389 223.243 314.396 223.42 314.396 223.56C314.396 223.88 314.372 224.193 314.326 224.5C314.286 224.8 314.219 225.097 314.126 225.39C314.032 225.677 313.909 225.957 313.756 226.23L313.636 226.45C313.449 226.763 313.219 227.067 312.946 227.36C312.672 227.647 312.352 227.92 311.986 228.18H313.246C313.472 228.18 313.646 228.153 313.766 228.1C313.886 228.04 313.966 227.963 314.006 227.87C314.052 227.777 314.076 227.677 314.076 227.57C314.076 227.39 313.966 227.167 313.746 226.9C313.532 226.627 313.236 226.327 312.856 226C312.476 225.667 312.046 225.317 311.566 224.95C311.086 224.583 310.579 224.21 310.046 223.83L310.516 223.17C311.129 223.623 311.669 224.033 312.136 224.4C312.609 224.767 313.012 225.103 313.346 225.41C313.686 225.71 313.962 225.99 314.176 226.25C314.396 226.503 314.556 226.747 314.656 226.98C314.762 227.207 314.816 227.43 314.816 227.65C314.816 227.797 314.789 227.95 314.736 228.11C314.689 228.263 314.602 228.41 314.476 228.55C314.356 228.683 314.182 228.793 313.956 228.88C313.736 228.96 313.449 229 313.096 229H310.796V228.19C311.482 227.697 312.026 227.217 312.426 226.75C312.832 226.283 313.126 225.797 313.306 225.29C313.486 224.783 313.576 224.233 313.576 223.64ZM311.606 222.61C311.406 222.61 311.226 222.577 311.066 222.51C310.906 222.437 310.759 222.367 310.626 222.3C310.492 222.233 310.369 222.2 310.256 222.2C310.136 222.2 310.026 222.23 309.926 222.29C309.832 222.35 309.732 222.433 309.626 222.54L309.246 222.22C309.399 222.027 309.559 221.877 309.726 221.77C309.892 221.657 310.069 221.6 310.256 221.6C310.422 221.6 310.576 221.633 310.716 221.7C310.856 221.767 310.996 221.833 311.136 221.9C311.282 221.967 311.439 222 311.606 222C311.712 222 311.812 221.983 311.906 221.95C311.999 221.91 312.112 221.85 312.246 221.77L312.536 222.18C312.322 222.367 312.139 222.487 311.986 222.54C311.839 222.587 311.712 222.61 311.606 222.61ZM316.387 229L316.187 221.86H316.997L317.197 229H316.387ZM323.417 232.94C323.117 232.94 322.801 232.91 322.467 232.85C322.134 232.797 321.821 232.69 321.527 232.53C321.241 232.377 321.004 232.157 320.817 231.87C320.637 231.59 320.547 231.227 320.547 230.78C320.547 230.327 320.631 229.93 320.797 229.59C320.971 229.257 321.191 228.963 321.457 228.71C321.731 228.45 322.017 228.217 322.317 228.01C322.617 227.803 322.901 227.61 323.167 227.43C323.441 227.25 323.661 227.07 323.827 226.89C324.001 226.703 324.087 226.5 324.087 226.28C324.087 226.193 324.057 226.107 323.997 226.02C323.944 225.927 323.854 225.85 323.727 225.79C323.607 225.73 323.444 225.7 323.237 225.7C323.091 225.7 322.927 225.72 322.747 225.76C322.567 225.8 322.394 225.857 322.227 225.93C322.067 225.997 321.934 226.073 321.827 226.16C322.007 226.307 322.174 226.45 322.327 226.59C322.487 226.73 322.651 226.883 322.817 227.05C322.984 227.21 323.164 227.393 323.357 227.6C323.524 227.693 323.687 227.78 323.847 227.86C324.014 227.933 324.191 228 324.377 228.06C324.564 228.113 324.777 228.157 325.017 228.19C325.257 228.217 325.537 228.23 325.857 228.23C325.997 228.23 326.097 228.27 326.157 228.35C326.224 228.423 326.257 228.513 326.257 228.62C326.257 228.727 326.211 228.827 326.117 228.92C326.024 229.007 325.904 229.05 325.757 229.05C325.204 229.05 324.744 229.007 324.377 228.92C324.017 228.833 323.711 228.717 323.457 228.57C323.204 228.423 322.961 228.26 322.727 228.08C322.614 227.933 322.487 227.787 322.347 227.64C322.207 227.493 322.054 227.347 321.887 227.2C321.727 227.047 321.554 226.903 321.367 226.77C321.327 226.737 321.287 226.677 321.247 226.59C321.207 226.503 321.174 226.413 321.147 226.32C321.121 226.227 321.107 226.157 321.107 226.11C321.107 226.01 321.171 225.89 321.297 225.75C321.424 225.61 321.594 225.477 321.807 225.35C322.021 225.217 322.264 225.107 322.537 225.02C322.811 224.933 323.094 224.89 323.387 224.89C323.861 224.89 324.227 225.007 324.487 225.24C324.747 225.473 324.877 225.747 324.877 226.06C324.877 226.4 324.791 226.703 324.617 226.97C324.451 227.237 324.234 227.48 323.967 227.7C323.701 227.92 323.417 228.133 323.117 228.34C322.824 228.547 322.544 228.763 322.277 228.99C322.011 229.21 321.791 229.453 321.617 229.72C321.451 229.987 321.367 230.297 321.367 230.65C321.367 230.957 321.441 231.207 321.587 231.4C321.734 231.593 321.917 231.74 322.137 231.84C322.357 231.947 322.584 232.02 322.817 232.06C323.051 232.1 323.251 232.12 323.417 232.12C323.651 232.12 323.887 232.103 324.127 232.07C324.374 232.037 324.627 231.983 324.887 231.91C325.154 231.837 325.421 231.747 325.687 231.64L325.947 232.28C325.754 232.393 325.517 232.5 325.237 232.6C324.957 232.707 324.661 232.79 324.347 232.85C324.034 232.91 323.724 232.94 323.417 232.94ZM325.76 229.05L325.86 228.23C326.026 228.23 326.21 228.23 326.41 228.23C326.616 228.223 326.823 228.217 327.03 228.21C327.243 228.203 327.44 228.19 327.62 228.17C327.8 228.143 327.95 228.11 328.07 228.07C328.31 227.983 328.496 227.877 328.63 227.75C328.763 227.617 328.856 227.443 328.91 227.23C328.97 227.01 329 226.73 329 226.39C329 226.11 328.963 225.85 328.89 225.61C328.816 225.37 328.713 225.177 328.58 225.03C328.446 224.883 328.286 224.81 328.1 224.81C327.946 224.81 327.806 224.87 327.68 224.99C327.56 225.103 327.463 225.25 327.39 225.43C327.323 225.61 327.29 225.79 327.29 225.97C327.29 226.11 327.316 226.23 327.37 226.33C327.43 226.43 327.526 226.51 327.66 226.57C327.793 226.623 327.966 226.65 328.18 226.65C328.373 226.65 328.566 226.63 328.76 226.59C328.96 226.55 329.13 226.497 329.27 226.43L329.31 227.13C329.203 227.203 329.083 227.263 328.95 227.31C328.816 227.357 328.676 227.39 328.53 227.41C328.383 227.43 328.236 227.44 328.09 227.44C327.75 227.44 327.46 227.387 327.22 227.28C326.986 227.167 326.806 227.017 326.68 226.83C326.56 226.637 326.5 226.417 326.5 226.17C326.5 225.917 326.54 225.663 326.62 225.41C326.7 225.15 326.813 224.913 326.96 224.7C327.106 224.487 327.283 224.317 327.49 224.19C327.696 224.057 327.926 223.99 328.18 223.99C328.54 223.99 328.836 224.107 329.07 224.34C329.31 224.573 329.486 224.88 329.6 225.26C329.72 225.633 329.78 226.03 329.78 226.45C329.78 226.95 329.693 227.38 329.52 227.74C329.353 228.093 329.073 228.387 328.68 228.62C328.526 228.707 328.34 228.78 328.12 228.84C327.906 228.893 327.67 228.937 327.41 228.97C327.156 229.003 326.89 229.023 326.61 229.03C326.33 229.043 326.046 229.05 325.76 229.05ZM327.99 222.96C327.85 222.96 327.73 222.913 327.63 222.82C327.536 222.72 327.49 222.603 327.49 222.47C327.49 222.337 327.536 222.22 327.63 222.12C327.73 222.02 327.85 221.97 327.99 221.97C328.123 221.97 328.236 222.02 328.33 222.12C328.43 222.22 328.48 222.337 328.48 222.47C328.48 222.603 328.43 222.72 328.33 222.82C328.236 222.913 328.123 222.96 327.99 222.96ZM330.582 228.55L330.982 227.86C331.116 227.947 331.302 228.03 331.542 228.11C331.782 228.19 332.062 228.23 332.382 228.23C332.716 228.23 332.979 228.197 333.172 228.13C333.372 228.063 333.516 227.967 333.602 227.84C333.696 227.707 333.742 227.553 333.742 227.38C333.742 227.247 333.712 227.083 333.652 226.89C333.599 226.69 333.479 226.423 333.292 226.09C333.106 225.75 332.819 225.307 332.432 224.76L333.122 224.31C333.476 224.797 333.756 225.237 333.962 225.63C334.176 226.023 334.326 226.37 334.412 226.67C334.506 226.963 334.552 227.217 334.552 227.43C334.552 227.697 334.486 227.957 334.352 228.21C334.219 228.457 333.996 228.66 333.682 228.82C333.369 228.98 332.936 229.06 332.382 229.06C332.142 229.06 331.909 229.04 331.682 229C331.462 228.96 331.259 228.903 331.072 228.83C330.886 228.75 330.722 228.657 330.582 228.55ZM335.918 229L335.718 221.86H336.528L336.728 229H335.918Z" fill="#FFFFC8"/>
<rect x="-0.5" y="0.5" width="37" height="23" rx="3.5" transform="matrix(-1 0 0 1 279 175)" fill="white" stroke="#2BD4DB"/>
<rect x="242.5" y="103.5" width="159" height="23" rx="3.5" fill="white" stroke="#2BD4DB"/>
<rect width="41" height="1" transform="matrix(-1 0 0 1 401 78)" fill="#0C1142"/>
<rect width="21" height="1" transform="matrix(-1 0 0 1 263 78)" fill="#CECFD9"/>
<rect width="82" height="1" transform="matrix(-1 0 0 1 401 87)" fill="#CECFD9"/>
<rect width="21" height="1" transform="matrix(-1 0 0 1 263 87)" fill="#CECFD9"/>
<path d="M415 26L411.5 29.5M408 33L411.5 29.5M411.5 29.5L408 26M411.5 29.5L415 33" stroke="#0C1142"/>
</svg>
