<svg width="64" height="64" viewBox="0 0 64 64" fill="none" xmlns="http://www.w3.org/2000/svg">
<g clip-path="url(#clip0_1152_0)">
<path d="M49.5 61.5V37.5C49.5 36.4 50.4 35.5 51.5 35.5H61.5C62.6 35.5 63.5 36.4 63.5 37.5V61.5C63.5 62.6 62.6 63.5 61.5 63.5H51.5C50.4 63.5 49.5 62.6 49.5 61.5Z" stroke="#0C1142" stroke-miterlimit="10"/>
<path d="M19.5 14.5H1.5C0.9 14.5 0.5 14.1 0.5 13.5V1.5C0.5 0.9 0.9 0.5 1.5 0.5H19.5C20.1 0.5 20.5 0.9 20.5 1.5V13.5C20.5 14.1 20.1 14.5 19.5 14.5Z" stroke="#0C1142" stroke-miterlimit="10"/>
<path d="M61 40V46H52V40H61ZM61.1 39H51.9C51.4 39 51 39.4 51 40V46C51 46.6 51.4 47 51.9 47H61.1C61.6 47 62 46.6 62 46V40C62 39.4 61.6 39 61.1 39Z" fill="#0C1142"/>
<path d="M14 7C15.1046 7 16 6.10457 16 5C16 3.89543 15.1046 3 14 3C12.8954 3 12 3.89543 12 5C12 6.10457 12.8954 7 14 7Z" fill="url(#paint0_linear_1152_0)"/>
<path d="M16 7C17.1046 7 18 6.10457 18 5C18 3.89543 17.1046 3 16 3C14.8954 3 14 3.89543 14 5C14 6.10457 14.8954 7 16 7Z" fill="url(#paint1_linear_1152_0)"/>
<path d="M61 41H52V43H61V41Z" fill="url(#paint2_linear_1152_0)"/>
<path d="M3 11.5H9" stroke="#0C1142" stroke-miterlimit="10"/>
<path d="M3 9.5H18" stroke="#0C1142" stroke-miterlimit="10"/>
<path d="M63 58.5H50" stroke="#0C1142" stroke-miterlimit="10"/>
<path d="M23.8 29.1C25.7 29 27.6 28.6 29.5 27.9L25.2 18.9C24.1 22.6 23.6 26 23.8 29.1Z" fill="url(#paint3_linear_1152_0)"/>
<path d="M35.6001 38.3C37.5001 37.5 39.2001 36.5 40.7001 35.4C40.6001 32.7 39.9001 30.1 38.7001 27.8C38.1001 26.7 37.4001 25.8 36.7001 24.9C35.4001 26.1 33.9001 27.2 32.1001 28.1C31.7001 28.3 31.3001 28.5 30.9001 28.6L35.6001 38.3Z" fill="url(#paint4_linear_1152_0)"/>
<path d="M28.2001 40.2C30.3001 40 32.5 39.5 34.6 38.7L29.9 28.9C27.9 29.6 25.8 30 23.8 30.1C24.1 32.9 24.8001 35.4 26.1 37.5C26.8001 38.5 27.4001 39.4 28.2001 40.2Z" fill="url(#paint5_linear_1152_0)"/>
<path d="M30.4 27.6C30.8 27.4 31.2 27.3 31.6 27.1C33.3 26.3 34.8 25.2 36 24.1C33.5 21.5 30.2 19.7 26.2 18.8L30.4 27.6Z" fill="url(#paint6_linear_1152_0)"/>
<path d="M37.4001 24.1C38.2001 25.1 39.0001 26.1 39.6001 27.3C40.8001 29.5 41.5001 32 41.7001 34.6C43.9001 32.7 45.6001 30.4 46.5001 27.9C46.4001 27.4 46.2001 26.9 46.0001 26.4C44.8001 23.4 42.8001 21 40.3001 19.4C39.6001 21.1 38.6001 22.7 37.4001 24.1Z" fill="url(#paint7_linear_1152_0)"/>
<path d="M35.0999 39.6C33.0999 40.3 31.1 40.8 29.2 41.1C31.5 43.1 34.4 44.5 37.9 45.3L35.0999 39.6Z" fill="url(#paint8_linear_1152_0)"/>
<path d="M27.8 41.2C27.1 41.3 26.5 41.3 25.8 41.3C23.5 41.3 21.3 40.9 19.5 40.2C23.2 45.9 30.5 48.4 37.1 46.1C33.3 45.2 30.2 43.6 27.8 41.2Z" fill="url(#paint9_linear_1152_0)"/>
<path d="M18.6001 38.8C20.8001 39.9 23.8001 40.4 26.9001 40.3C26.3001 39.6 25.8001 38.9 25.3001 38.1C23.9001 35.8 23.1001 33.1 22.8001 30.2C20.8001 30.2 18.9001 29.9 17.2001 29.2C16.7001 31.9 16.9001 34.8 18.0001 37.6C18.2001 38 18.4001 38.4 18.6001 38.8Z" fill="url(#paint10_linear_1152_0)"/>
<path d="M36 39.2L38.8 45.1C40 42.3 40.6 39.4 40.7 36.6C39.3 37.6 37.7 38.5 36 39.2Z" fill="url(#paint11_linear_1152_0)"/>
<path d="M41.7001 35.9C41.7001 38.8 41.2001 41.7 40.1001 44.7C45.1001 41.5 47.7001 35.6 46.8001 29.7C45.7001 32 44.0001 34.1 41.7001 35.9Z" fill="url(#paint12_linear_1152_0)"/>
<path d="M22.8 29.2C22.6 26.1 23.1 22.8 24.1 19.3C20.8 21.4 18.5 24.6 17.5 28.2C19.1 28.8 20.9 29.1 22.8 29.2Z" fill="url(#paint13_linear_1152_0)"/>
<path d="M36.7001 23.3C37.9001 22 38.8001 20.5 39.3001 18.9C35.6001 16.8 31.1001 16.3 26.9001 17.9C30.8001 18.9 34.2001 20.7 36.7001 23.3Z" fill="url(#paint14_linear_1152_0)"/>
<path d="M44.9 60.7C42.9 61.6 40.7 62.3 38.5 62.8" stroke="#0C1142" stroke-miterlimit="10"/>
<path d="M63.1001 27C63.4001 28.7 63.5001 30.5 63.5001 32.3" stroke="#0C1142" stroke-miterlimit="10"/>
<path d="M51.1001 6.89999C55.9001 10.6 59.6001 15.5 61.7001 21.2" stroke="#0C1142" stroke-miterlimit="10"/>
<path d="M34.5 0.600006C35.5 0.700006 36.4 0.800006 37.4 1.00001C40.4 1.50001 43.3 2.50001 46 3.80001" stroke="#0C1142" stroke-miterlimit="10"/>
<path d="M20.5 2.70001C23.1 1.70001 25.8 1.00001 28.6 0.700012" stroke="#0C1142" stroke-miterlimit="10"/>
<path d="M3.19995 19.4C3.99995 17.7 4.89995 16 5.89995 14.5" stroke="#0C1142" stroke-miterlimit="10"/>
<path d="M2.40004 42.8C0.600044 37.8 4.43459e-05 32.2 1.00004 26.6C1.10004 26.1 1.20004 25.6 1.30004 25.1" stroke="#0C1142" stroke-miterlimit="10"/>
<path d="M10.7 55.2C8.5 53.2 6.6 50.8 5 48.2" stroke="#0C1142" stroke-miterlimit="10"/>
<path d="M32.6001 63.5C30.6001 63.5 28.6001 63.4 26.6001 63C22.5001 62.3 18.8001 60.8 15.4001 58.8" stroke="#0C1142" stroke-miterlimit="10"/>
</g>
<defs>
<linearGradient id="paint0_linear_1152_0" x1="16" y1="5.0085" x2="12" y2="5.0085" gradientUnits="userSpaceOnUse">
<stop stop-color="#2BD4DB" stop-opacity="0.8"/>
<stop offset="1" stop-color="#2BD4DB" stop-opacity="0.2"/>
</linearGradient>
<linearGradient id="paint1_linear_1152_0" x1="18" y1="5.0085" x2="14" y2="5.0085" gradientUnits="userSpaceOnUse">
<stop stop-color="#2BD4DB" stop-opacity="0.8"/>
<stop offset="1" stop-color="#2BD4DB" stop-opacity="0.2"/>
</linearGradient>
<linearGradient id="paint2_linear_1152_0" x1="52" y1="42" x2="61" y2="42" gradientUnits="userSpaceOnUse">
<stop stop-color="#2BD4DB" stop-opacity="0.8"/>
<stop offset="1" stop-color="#2BD4DB" stop-opacity="0.2"/>
</linearGradient>
<linearGradient id="paint3_linear_1152_0" x1="17.2779" y1="24.0982" x2="46.8186" y2="24.0428" gradientUnits="userSpaceOnUse">
<stop stop-color="#2BD4DB" stop-opacity="0.8"/>
<stop offset="1" stop-color="#2BD4DB" stop-opacity="0.2"/>
</linearGradient>
<linearGradient id="paint4_linear_1152_0" x1="17.292" y1="31.5747" x2="46.8327" y2="31.5192" gradientUnits="userSpaceOnUse">
<stop stop-color="#2BD4DB" stop-opacity="0.8"/>
<stop offset="1" stop-color="#2BD4DB" stop-opacity="0.2"/>
</linearGradient>
<linearGradient id="paint5_linear_1152_0" x1="17.2975" y1="34.5515" x2="46.8382" y2="34.4961" gradientUnits="userSpaceOnUse">
<stop stop-color="#2BD4DB" stop-opacity="0.8"/>
<stop offset="1" stop-color="#2BD4DB" stop-opacity="0.2"/>
</linearGradient>
<linearGradient id="paint6_linear_1152_0" x1="17.2762" y1="23.2148" x2="46.8168" y2="23.1594" gradientUnits="userSpaceOnUse">
<stop stop-color="#2BD4DB" stop-opacity="0.8"/>
<stop offset="1" stop-color="#2BD4DB" stop-opacity="0.2"/>
</linearGradient>
<linearGradient id="paint7_linear_1152_0" x1="17.2835" y1="27.0816" x2="46.8243" y2="27.0262" gradientUnits="userSpaceOnUse">
<stop stop-color="#2BD4DB" stop-opacity="0.8"/>
<stop offset="1" stop-color="#2BD4DB" stop-opacity="0.2"/>
</linearGradient>
<linearGradient id="paint8_linear_1152_0" x1="17.3122" y1="42.4375" x2="46.853" y2="42.3821" gradientUnits="userSpaceOnUse">
<stop stop-color="#2BD4DB" stop-opacity="0.8"/>
<stop offset="1" stop-color="#2BD4DB" stop-opacity="0.2"/>
</linearGradient>
<linearGradient id="paint9_linear_1152_0" x1="17.3145" y1="43.6354" x2="46.8552" y2="43.5799" gradientUnits="userSpaceOnUse">
<stop stop-color="#2BD4DB" stop-opacity="0.8"/>
<stop offset="1" stop-color="#2BD4DB" stop-opacity="0.2"/>
</linearGradient>
<linearGradient id="paint10_linear_1152_0" x1="17.2979" y1="34.7508" x2="46.8387" y2="34.6954" gradientUnits="userSpaceOnUse">
<stop stop-color="#2BD4DB" stop-opacity="0.8"/>
<stop offset="1" stop-color="#2BD4DB" stop-opacity="0.2"/>
</linearGradient>
<linearGradient id="paint11_linear_1152_0" x1="17.3094" y1="40.8934" x2="46.8501" y2="40.838" gradientUnits="userSpaceOnUse">
<stop stop-color="#2BD4DB" stop-opacity="0.8"/>
<stop offset="1" stop-color="#2BD4DB" stop-opacity="0.2"/>
</linearGradient>
<linearGradient id="paint12_linear_1152_0" x1="17.3025" y1="37.1773" x2="46.8432" y2="37.1219" gradientUnits="userSpaceOnUse">
<stop stop-color="#2BD4DB" stop-opacity="0.8"/>
<stop offset="1" stop-color="#2BD4DB" stop-opacity="0.2"/>
</linearGradient>
<linearGradient id="paint13_linear_1152_0" x1="17.2781" y1="24.2351" x2="46.8188" y2="24.1797" gradientUnits="userSpaceOnUse">
<stop stop-color="#2BD4DB" stop-opacity="0.8"/>
<stop offset="1" stop-color="#2BD4DB" stop-opacity="0.2"/>
</linearGradient>
<linearGradient id="paint14_linear_1152_0" x1="17.2707" y1="20.2087" x2="46.8114" y2="20.1533" gradientUnits="userSpaceOnUse">
<stop stop-color="#2BD4DB" stop-opacity="0.8"/>
<stop offset="1" stop-color="#2BD4DB" stop-opacity="0.2"/>
</linearGradient>
<clipPath id="clip0_1152_0">
<rect width="64" height="64" fill="white"/>
</clipPath>
</defs>
</svg>
