<svg width="264" height="177" viewBox="0 0 264 177" fill="none" xmlns="http://www.w3.org/2000/svg">
<g filter="url(#filter0_d_303_10333)">
<rect x="40" y="24.5" width="184" height="96" rx="6" fill="white"/>
</g>
<rect x="40" y="24.5" width="184" height="96" rx="6" fill="white"/>
<path d="M67.5639 72.807C67.8639 72.807 68.1009 72.777 68.2749 72.717C68.4549 72.657 68.5839 72.57 68.6619 72.456C68.7459 72.336 68.7879 72.198 68.7879 72.042C68.7879 71.922 68.7549 71.778 68.6889 71.61C68.6289 71.442 68.5449 71.256 68.4369 71.052C68.3289 70.842 68.2029 70.623 68.0589 70.395C67.9209 70.161 67.7709 69.924 67.6089 69.684L68.2299 69.279C68.4639 69.633 68.6679 69.969 68.8419 70.287C69.0159 70.599 69.1629 70.893 69.2829 71.169C69.4029 71.439 69.4989 71.694 69.5709 71.934C69.6549 72.198 69.7479 72.393 69.8499 72.519C69.9579 72.645 70.0689 72.726 70.1829 72.762C70.2969 72.792 70.4019 72.807 70.4979 72.807C70.6239 72.807 70.7169 72.843 70.7769 72.915C70.8369 72.981 70.8669 73.062 70.8669 73.158C70.8669 73.254 70.8249 73.344 70.7409 73.428C70.6569 73.506 70.5489 73.545 70.4169 73.545C70.2189 73.545 70.0239 73.509 69.8319 73.437C69.6459 73.359 69.4839 73.236 69.3459 73.068C69.2079 72.894 69.1119 72.663 69.0579 72.375L69.4179 72.087C69.4179 72.327 69.3669 72.561 69.2649 72.789C69.1629 73.011 68.9769 73.194 68.7069 73.338C68.4429 73.482 68.0619 73.554 67.5639 73.554C67.3479 73.554 67.1379 73.536 66.9339 73.5C66.7359 73.464 66.5529 73.413 66.3849 73.347C66.2169 73.275 66.0699 73.191 65.9439 73.095L66.3039 72.474C66.4239 72.552 66.5919 72.627 66.8079 72.699C67.0239 72.771 67.2759 72.807 67.5639 72.807ZM70.4189 73.545L70.5089 72.807C70.8089 72.807 71.0429 72.786 71.2109 72.744C71.3789 72.696 71.5049 72.609 71.5889 72.483C71.6789 72.351 71.7509 72.162 71.8049 71.916C71.8589 71.67 71.9249 71.349 72.0029 70.953L72.7049 71.088C72.6809 71.196 72.6539 71.316 72.6239 71.448C72.5939 71.58 72.5669 71.712 72.5429 71.844C72.5249 71.97 72.5159 72.081 72.5159 72.177C72.5159 72.267 72.5219 72.351 72.5339 72.429C72.5459 72.507 72.5909 72.573 72.6689 72.627C72.7469 72.681 72.8789 72.726 73.0649 72.762C73.2509 72.792 73.5179 72.807 73.8659 72.807C73.9919 72.807 74.0819 72.843 74.1359 72.915C74.1959 72.981 74.2259 73.062 74.2259 73.158C74.2259 73.254 74.1839 73.344 74.0999 73.428C74.0159 73.506 73.9079 73.545 73.7759 73.545C73.4099 73.545 73.1189 73.527 72.9029 73.491C72.6869 73.449 72.5219 73.389 72.4079 73.311C72.2999 73.233 72.2219 73.137 72.1739 73.023C72.1319 72.903 72.0989 72.765 72.0749 72.609L72.3449 72.627C72.2489 72.819 72.1439 72.975 72.0299 73.095C71.9219 73.215 71.7959 73.308 71.6519 73.374C71.5079 73.44 71.3339 73.485 71.1299 73.509C70.9319 73.533 70.6949 73.545 70.4189 73.545ZM72.6869 75.246C72.5609 75.246 72.4529 75.201 72.3629 75.111C72.2789 75.027 72.2369 74.925 72.2369 74.805C72.2369 74.685 72.2789 74.58 72.3629 74.49C72.4529 74.4 72.5609 74.355 72.6869 74.355C72.8069 74.355 72.9089 74.4 72.9929 74.49C73.0829 74.58 73.1279 74.685 73.1279 74.805C73.1279 74.925 73.0829 75.027 72.9929 75.111C72.9089 75.201 72.8069 75.246 72.6869 75.246ZM71.4539 75.246C71.3279 75.246 71.2199 75.201 71.1299 75.111C71.0459 75.027 71.0039 74.925 71.0039 74.805C71.0039 74.685 71.0459 74.58 71.1299 74.49C71.2199 74.4 71.3279 74.355 71.4539 74.355C71.5739 74.355 71.6759 74.4 71.7599 74.49C71.8499 74.58 71.8949 74.685 71.8949 74.805C71.8949 74.925 71.8499 75.027 71.7599 75.111C71.6759 75.201 71.5739 75.246 71.4539 75.246ZM73.7764 73.545L73.8664 72.807H74.7124C75.0664 72.807 75.3454 72.789 75.5494 72.753C75.7594 72.711 75.9124 72.66 76.0084 72.6C76.1104 72.534 76.1764 72.465 76.2064 72.393C76.2424 72.315 76.2604 72.237 76.2604 72.159C76.2604 72.021 76.2064 71.85 76.0984 71.646C75.9964 71.442 75.7834 71.178 75.4594 70.854C75.2914 70.686 75.1234 70.533 74.9554 70.395C74.7874 70.251 74.6314 70.125 74.4874 70.017C74.3494 69.903 74.2384 69.807 74.1544 69.729C74.0704 69.651 74.0284 69.591 74.0284 69.549C74.0284 69.459 74.0344 69.372 74.0464 69.288C74.0644 69.204 74.0854 69.126 74.1094 69.054C74.1394 68.982 74.1754 68.925 74.2174 68.883C74.3374 68.757 74.4904 68.631 74.6764 68.505C74.8684 68.379 75.0904 68.247 75.3424 68.109C75.6004 67.971 75.8884 67.824 76.2064 67.668C76.5304 67.506 76.8844 67.329 77.2684 67.137L77.5744 67.803C77.0944 68.031 76.6924 68.226 76.3684 68.388C76.0504 68.544 75.7804 68.685 75.5584 68.811C75.3364 68.931 75.1414 69.045 74.9734 69.153C74.8054 69.261 74.6344 69.381 74.4604 69.513L74.5954 69.171C74.9734 69.471 75.3064 69.753 75.5944 70.017C75.8884 70.281 76.1344 70.536 76.3324 70.782C76.5304 71.022 76.6804 71.259 76.7824 71.493C76.8844 71.727 76.9354 71.964 76.9354 72.204C76.9354 72.336 76.9114 72.48 76.8634 72.636C76.8154 72.792 76.7134 72.939 76.5574 73.077C76.4014 73.215 76.1674 73.329 75.8554 73.419C75.5434 73.503 75.1234 73.545 74.5954 73.545H73.7764ZM80.0864 73.545C79.6064 73.545 79.2404 73.491 78.9884 73.383C78.7364 73.275 78.5624 73.107 78.4664 72.879C78.3704 72.651 78.3134 72.357 78.2954 71.997L78.1334 67.704H78.8714L79.0334 71.709C79.0454 72.003 79.0724 72.231 79.1144 72.393C79.1624 72.549 79.2644 72.657 79.4204 72.717C79.5824 72.777 79.8344 72.807 80.1764 72.807C80.3024 72.807 80.3924 72.843 80.4464 72.915C80.5064 72.981 80.5364 73.062 80.5364 73.158C80.5364 73.254 80.4944 73.344 80.4104 73.428C80.3264 73.506 80.2184 73.545 80.0864 73.545ZM77.6834 67.164L77.5754 66.678C77.7314 66.642 77.8574 66.612 77.9534 66.588C78.0494 66.564 78.1574 66.537 78.2774 66.507L78.2324 66.696C78.0764 66.648 77.9264 66.546 77.7824 66.39C77.6444 66.234 77.5754 66.057 77.5754 65.859C77.5754 65.679 77.6174 65.529 77.7014 65.409C77.7914 65.283 77.9054 65.19 78.0434 65.13C78.1874 65.07 78.3404 65.04 78.5024 65.04C78.5684 65.04 78.6374 65.046 78.7094 65.058C78.7874 65.07 78.8594 65.088 78.9254 65.112L78.8534 65.562C78.7934 65.55 78.7364 65.538 78.6824 65.526C78.6284 65.514 78.5684 65.508 78.5024 65.508C78.3644 65.508 78.2564 65.538 78.1784 65.598C78.1004 65.652 78.0614 65.73 78.0614 65.832C78.0614 65.958 78.1004 66.066 78.1784 66.156C78.2624 66.246 78.3554 66.318 78.4574 66.372C78.5654 66.42 78.6524 66.444 78.7184 66.444L78.3494 66.48C78.5114 66.438 78.6614 66.396 78.7994 66.354C78.9434 66.306 79.0724 66.261 79.1864 66.219L79.3304 66.678C79.1864 66.732 79.0154 66.789 78.8174 66.849C78.6254 66.909 78.4304 66.966 78.2324 67.02C78.0344 67.074 77.8514 67.122 77.6834 67.164ZM80.0869 73.545L80.1769 72.807C80.4769 72.807 80.7109 72.786 80.8789 72.744C81.0469 72.696 81.1729 72.609 81.2569 72.483C81.3469 72.351 81.4189 72.162 81.4729 71.916C81.5269 71.67 81.5929 71.349 81.6709 70.953L82.3729 71.088C82.3489 71.196 82.3219 71.316 82.2919 71.448C82.2619 71.58 82.2349 71.712 82.2109 71.844C82.1929 71.97 82.1839 72.081 82.1839 72.177C82.1839 72.267 82.1899 72.351 82.2019 72.429C82.2139 72.507 82.2589 72.573 82.3369 72.627C82.4149 72.681 82.5469 72.726 82.7329 72.762C82.9189 72.792 83.1859 72.807 83.5339 72.807C83.6599 72.807 83.7499 72.843 83.8039 72.915C83.8639 72.981 83.8939 73.062 83.8939 73.158C83.8939 73.254 83.8519 73.344 83.7679 73.428C83.6839 73.506 83.5759 73.545 83.4439 73.545C83.0779 73.545 82.7869 73.527 82.5709 73.491C82.3549 73.449 82.1899 73.389 82.0759 73.311C81.9679 73.233 81.8899 73.137 81.8419 73.023C81.7999 72.903 81.7669 72.765 81.7429 72.609L82.0129 72.627C81.9169 72.819 81.8119 72.975 81.6979 73.095C81.5899 73.215 81.4639 73.308 81.3199 73.374C81.1759 73.44 81.0019 73.485 80.7979 73.509C80.5999 73.533 80.3629 73.545 80.0869 73.545ZM82.4899 70.026C82.3639 70.026 82.2559 69.984 82.1659 69.9C82.0819 69.81 82.0399 69.705 82.0399 69.585C82.0399 69.465 82.0819 69.36 82.1659 69.27C82.2559 69.18 82.3639 69.135 82.4899 69.135C82.6099 69.135 82.7119 69.18 82.7959 69.27C82.8859 69.36 82.9309 69.465 82.9309 69.585C82.9309 69.705 82.8859 69.81 82.7959 69.9C82.7119 69.984 82.6099 70.026 82.4899 70.026ZM81.2569 70.026C81.1309 70.026 81.0229 69.984 80.9329 69.9C80.8489 69.81 80.8069 69.705 80.8069 69.585C80.8069 69.465 80.8489 69.36 80.9329 69.27C81.0229 69.18 81.1309 69.135 81.2569 69.135C81.3769 69.135 81.4789 69.18 81.5629 69.27C81.6529 69.36 81.6979 69.465 81.6979 69.585C81.6979 69.705 81.6529 69.81 81.5629 69.9C81.4789 69.984 81.3769 70.026 81.2569 70.026ZM83.4443 73.545L83.5253 72.807C83.8673 72.807 84.1073 72.774 84.2453 72.708C84.3833 72.642 84.4613 72.525 84.4793 72.357C84.5033 72.189 84.5093 71.955 84.4973 71.655L84.3263 67.074H85.0553L85.2353 71.574C85.2473 71.892 85.2353 72.174 85.1993 72.42C85.1693 72.666 85.0913 72.873 84.9653 73.041C84.8453 73.209 84.6623 73.335 84.4163 73.419C84.1763 73.503 83.8523 73.545 83.4443 73.545ZM91.6301 73.689L91.8641 72.951C92.4521 72.951 92.9381 72.93 93.3221 72.888C93.7061 72.84 94.0031 72.768 94.2131 72.672C94.4291 72.57 94.5791 72.441 94.6631 72.285C94.7471 72.123 94.7831 71.928 94.7711 71.7L94.6001 67.074H95.3291L95.5091 71.619C95.5211 71.925 95.5691 72.165 95.6531 72.339C95.7431 72.513 95.8631 72.636 96.0131 72.708C96.1631 72.774 96.3281 72.807 96.5081 72.807C96.6341 72.807 96.7241 72.843 96.7781 72.915C96.8381 72.981 96.8681 73.062 96.8681 73.158C96.8681 73.254 96.8261 73.344 96.7421 73.428C96.6581 73.506 96.5501 73.545 96.4181 73.545C96.1361 73.545 95.9081 73.503 95.7341 73.419C95.5601 73.329 95.4251 73.218 95.3291 73.086C95.2391 72.954 95.1791 72.816 95.1491 72.672L95.3381 72.681C95.2181 72.867 95.0561 73.026 94.8521 73.158C94.6481 73.284 94.3961 73.386 94.0961 73.464C93.7961 73.542 93.4421 73.599 93.0341 73.635C92.6321 73.671 92.1641 73.689 91.6301 73.689ZM91.3961 71.664L91.2251 71.097C91.4771 71.031 91.6811 70.974 91.8371 70.926C91.9931 70.878 92.1041 70.833 92.1701 70.791C92.2421 70.743 92.2781 70.695 92.2781 70.647C92.2781 70.581 92.2421 70.521 92.1701 70.467C92.1041 70.407 92.0261 70.347 91.9361 70.287C91.8521 70.221 91.7741 70.146 91.7021 70.062C91.6361 69.978 91.6031 69.876 91.6031 69.756C91.6031 69.648 91.6331 69.537 91.6931 69.423C91.7591 69.303 91.8731 69.18 92.0351 69.054C92.1971 68.922 92.4251 68.784 92.7191 68.64L92.9981 69.153C92.7221 69.285 92.5181 69.399 92.3861 69.495C92.2601 69.585 92.1971 69.666 92.1971 69.738C92.1971 69.792 92.2301 69.849 92.2961 69.909C92.3681 69.969 92.4461 70.035 92.5301 70.107C92.6201 70.179 92.6981 70.263 92.7641 70.359C92.8361 70.449 92.8721 70.557 92.8721 70.683C92.8721 70.767 92.8541 70.851 92.8181 70.935C92.7821 71.013 92.7101 71.094 92.6021 71.178C92.5001 71.256 92.3531 71.337 92.1611 71.421C91.9691 71.499 91.7141 71.58 91.3961 71.664ZM91.6301 73.689C91.0961 73.689 90.6251 73.653 90.2171 73.581C89.8151 73.515 89.4791 73.41 89.2091 73.266C88.9391 73.122 88.7351 72.936 88.5971 72.708C88.4591 72.474 88.3901 72.192 88.3901 71.862C88.3901 71.712 88.4021 71.559 88.4261 71.403C88.4501 71.241 88.4801 71.079 88.5161 70.917C88.5581 70.755 88.6001 70.599 88.6421 70.449L89.3171 70.62C89.2931 70.71 89.2661 70.818 89.2361 70.944C89.2061 71.064 89.1791 71.187 89.1551 71.313C89.1371 71.439 89.1281 71.553 89.1281 71.655C89.1281 71.967 89.2061 72.219 89.3621 72.411C89.5241 72.597 89.8031 72.735 90.1991 72.825C90.5951 72.909 91.1501 72.951 91.8641 72.951L92.0441 73.401L91.6301 73.689ZM96.417 73.545L96.507 72.807C96.807 72.807 97.041 72.786 97.209 72.744C97.377 72.696 97.503 72.609 97.587 72.483C97.677 72.351 97.749 72.162 97.803 71.916C97.857 71.67 97.923 71.349 98.001 70.953L98.703 71.088C98.679 71.196 98.652 71.316 98.622 71.448C98.592 71.58 98.565 71.712 98.541 71.844C98.523 71.97 98.514 72.081 98.514 72.177C98.514 72.267 98.52 72.351 98.532 72.429C98.544 72.507 98.589 72.573 98.667 72.627C98.745 72.681 98.877 72.726 99.063 72.762C99.249 72.792 99.516 72.807 99.864 72.807C99.99 72.807 100.08 72.843 100.134 72.915C100.194 72.981 100.224 73.062 100.224 73.158C100.224 73.254 100.182 73.344 100.098 73.428C100.014 73.506 99.906 73.545 99.774 73.545C99.408 73.545 99.117 73.527 98.901 73.491C98.685 73.449 98.52 73.389 98.406 73.311C98.298 73.233 98.22 73.137 98.172 73.023C98.13 72.903 98.097 72.765 98.073 72.609L98.343 72.627C98.247 72.819 98.142 72.975 98.028 73.095C97.92 73.215 97.794 73.308 97.65 73.374C97.506 73.44 97.332 73.485 97.128 73.509C96.93 73.533 96.693 73.545 96.417 73.545ZM98.82 70.026C98.694 70.026 98.586 69.984 98.496 69.9C98.412 69.81 98.37 69.705 98.37 69.585C98.37 69.465 98.412 69.36 98.496 69.27C98.586 69.18 98.694 69.135 98.82 69.135C98.94 69.135 99.042 69.18 99.126 69.27C99.216 69.36 99.261 69.465 99.261 69.585C99.261 69.705 99.216 69.81 99.126 69.9C99.042 69.984 98.94 70.026 98.82 70.026ZM97.587 70.026C97.461 70.026 97.353 69.984 97.263 69.9C97.179 69.81 97.137 69.705 97.137 69.585C97.137 69.465 97.179 69.36 97.263 69.27C97.353 69.18 97.461 69.135 97.587 69.135C97.707 69.135 97.809 69.18 97.893 69.27C97.983 69.36 98.028 69.465 98.028 69.585C98.028 69.705 97.983 69.81 97.893 69.9C97.809 69.984 97.707 70.026 97.587 70.026ZM99.7744 73.545L99.8644 72.807C100.218 72.807 100.494 72.795 100.692 72.771C100.89 72.741 101.031 72.672 101.115 72.564C101.199 72.45 101.241 72.273 101.241 72.033C101.241 71.883 101.217 71.706 101.169 71.502C101.121 71.292 101.058 71.07 100.98 70.836C100.902 70.602 100.818 70.371 100.728 70.143L101.457 69.873C101.535 70.065 101.607 70.284 101.673 70.53C101.745 70.776 101.805 71.019 101.853 71.259C101.901 71.499 101.925 71.709 101.925 71.889C101.925 72.189 101.883 72.444 101.799 72.654C101.721 72.864 101.595 73.035 101.421 73.167C101.247 73.299 101.022 73.395 100.746 73.455C100.476 73.515 100.152 73.545 99.7744 73.545ZM101.439 75.246C101.313 75.246 101.205 75.201 101.115 75.111C101.031 75.027 100.989 74.925 100.989 74.805C100.989 74.685 101.031 74.58 101.115 74.49C101.205 74.4 101.313 74.355 101.439 74.355C101.559 74.355 101.661 74.4 101.745 74.49C101.835 74.58 101.88 74.685 101.88 74.805C101.88 74.925 101.835 75.027 101.745 75.111C101.661 75.201 101.559 75.246 101.439 75.246ZM100.206 75.246C100.08 75.246 99.9724 75.201 99.8824 75.111C99.7984 75.027 99.7564 74.925 99.7564 74.805C99.7564 74.685 99.7984 74.58 99.8824 74.49C99.9724 74.4 100.08 74.355 100.206 74.355C100.326 74.355 100.428 74.4 100.512 74.49C100.602 74.58 100.647 74.685 100.647 74.805C100.647 74.925 100.602 75.027 100.512 75.111C100.428 75.201 100.326 75.246 100.206 75.246ZM102.986 75.57L102.824 74.832C103.184 74.784 103.514 74.715 103.814 74.625C104.12 74.541 104.381 74.418 104.597 74.256C104.819 74.094 104.99 73.881 105.11 73.617C105.23 73.353 105.29 73.023 105.29 72.627C105.29 72.219 105.215 71.88 105.065 71.61C104.915 71.34 104.72 71.205 104.48 71.205C104.354 71.205 104.237 71.253 104.129 71.349C104.021 71.445 103.931 71.574 103.859 71.736C103.793 71.898 103.76 72.075 103.76 72.267C103.76 72.375 103.784 72.465 103.832 72.537C103.88 72.603 103.949 72.657 104.039 72.699C104.135 72.735 104.255 72.762 104.399 72.78C104.543 72.798 104.711 72.807 104.903 72.807H106.802C106.928 72.807 107.018 72.843 107.072 72.915C107.132 72.981 107.162 73.062 107.162 73.158C107.162 73.254 107.12 73.344 107.036 73.428C106.952 73.506 106.844 73.545 106.712 73.545H104.561C104.291 73.545 104.039 73.506 103.805 73.428C103.577 73.35 103.391 73.23 103.247 73.068C103.109 72.9 103.04 72.681 103.04 72.411C103.04 72.159 103.079 71.919 103.157 71.691C103.235 71.457 103.34 71.25 103.472 71.07C103.61 70.884 103.769 70.737 103.949 70.629C104.135 70.521 104.336 70.467 104.552 70.467C104.828 70.467 105.074 70.548 105.29 70.71C105.506 70.872 105.677 71.118 105.803 71.448C105.929 71.772 105.992 72.183 105.992 72.681C105.992 73.239 105.878 73.719 105.65 74.121C105.428 74.529 105.092 74.853 104.642 75.093C104.198 75.333 103.646 75.492 102.986 75.57ZM110.174 73.572C109.928 73.572 109.676 73.539 109.418 73.473C109.16 73.401 108.911 73.302 108.671 73.176C108.437 73.05 108.224 72.897 108.032 72.717C107.846 72.531 107.696 72.324 107.582 72.096C107.474 71.868 107.42 71.622 107.42 71.358C107.42 71.088 107.474 70.839 107.582 70.611C107.696 70.383 107.855 70.2 108.059 70.062C108.269 69.918 108.512 69.846 108.788 69.846C109.058 69.846 109.289 69.921 109.481 70.071C109.673 70.215 109.82 70.404 109.922 70.638C110.03 70.866 110.084 71.106 110.084 71.358C110.084 71.706 109.985 72.018 109.787 72.294C109.595 72.564 109.334 72.792 109.004 72.978C108.674 73.164 108.311 73.305 107.915 73.401C107.519 73.497 107.117 73.545 106.709 73.545L106.799 72.807C107.123 72.807 107.411 72.786 107.663 72.744C107.921 72.696 108.143 72.633 108.329 72.555C108.605 72.447 108.821 72.318 108.977 72.168C109.139 72.012 109.253 71.853 109.319 71.691C109.385 71.529 109.418 71.382 109.418 71.25C109.418 71.124 109.391 71.004 109.337 70.89C109.289 70.77 109.217 70.674 109.121 70.602C109.031 70.524 108.92 70.485 108.788 70.485C108.656 70.485 108.536 70.524 108.428 70.602C108.326 70.674 108.245 70.77 108.185 70.89C108.125 71.01 108.095 71.136 108.095 71.268C108.095 71.52 108.158 71.745 108.284 71.943C108.416 72.135 108.584 72.3 108.788 72.438C108.998 72.576 109.22 72.681 109.454 72.753C109.694 72.825 109.922 72.861 110.138 72.861C110.342 72.861 110.492 72.828 110.588 72.762C110.684 72.69 110.732 72.573 110.732 72.411C110.732 72.381 110.723 72.327 110.705 72.249C110.693 72.165 110.645 72.051 110.561 71.907C110.483 71.763 110.348 71.586 110.156 71.376C109.964 71.16 109.694 70.905 109.346 70.611C108.998 70.311 108.548 69.963 107.996 69.567L108.419 69.009C108.995 69.429 109.469 69.801 109.841 70.125C110.219 70.443 110.516 70.722 110.732 70.962C110.954 71.196 111.116 71.403 111.218 71.583C111.326 71.757 111.395 71.913 111.425 72.051C111.455 72.183 111.47 72.309 111.47 72.429C111.47 72.627 111.425 72.813 111.335 72.987C111.251 73.161 111.113 73.302 110.921 73.41C110.735 73.518 110.486 73.572 110.174 73.572ZM114.485 73.509C114.485 73.293 114.515 73.053 114.575 72.789C114.635 72.525 114.731 72.234 114.863 71.916L115.511 72.168C115.415 72.42 115.343 72.651 115.295 72.861C115.247 73.071 115.223 73.266 115.223 73.446C115.223 73.776 115.304 74.043 115.466 74.247C115.634 74.457 115.856 74.61 116.132 74.706C116.414 74.802 116.723 74.85 117.059 74.85C117.467 74.85 117.809 74.805 118.085 74.715C118.361 74.631 118.58 74.514 118.742 74.364C118.904 74.214 119.018 74.043 119.084 73.851C119.156 73.665 119.192 73.47 119.192 73.266C119.192 73.002 119.171 72.753 119.129 72.519C119.093 72.285 119.042 72.057 118.976 71.835C118.916 71.607 118.85 71.376 118.778 71.142L119.507 70.944C119.573 71.172 119.624 71.358 119.66 71.502C119.696 71.64 119.723 71.751 119.741 71.835C119.765 71.919 119.786 71.994 119.804 72.06C119.87 72.282 119.957 72.447 120.065 72.555C120.173 72.657 120.296 72.726 120.434 72.762C120.578 72.792 120.725 72.807 120.875 72.807C121.001 72.807 121.091 72.843 121.145 72.915C121.205 72.981 121.235 73.062 121.235 73.158C121.235 73.254 121.193 73.344 121.109 73.428C121.025 73.506 120.917 73.545 120.785 73.545C120.533 73.545 120.323 73.503 120.155 73.419C119.987 73.329 119.855 73.218 119.759 73.086C119.669 72.954 119.609 72.816 119.579 72.672L119.948 73.131C119.93 73.437 119.87 73.734 119.768 74.022C119.672 74.316 119.516 74.58 119.3 74.814C119.084 75.054 118.79 75.243 118.418 75.381C118.052 75.519 117.59 75.588 117.032 75.588C116.69 75.588 116.366 75.546 116.06 75.462C115.754 75.378 115.481 75.249 115.241 75.075C115.007 74.907 114.821 74.691 114.683 74.427C114.551 74.169 114.485 73.863 114.485 73.509ZM117.203 69.918C117.077 69.918 116.969 69.876 116.879 69.792C116.795 69.702 116.753 69.597 116.753 69.477C116.753 69.357 116.795 69.252 116.879 69.162C116.969 69.072 117.077 69.027 117.203 69.027C117.323 69.027 117.425 69.072 117.509 69.162C117.599 69.252 117.644 69.357 117.644 69.477C117.644 69.597 117.599 69.702 117.509 69.792C117.425 69.876 117.323 69.918 117.203 69.918ZM120.789 73.545L120.879 72.807C121.047 72.807 121.188 72.771 121.302 72.699C121.416 72.627 121.527 72.507 121.635 72.339C121.743 72.171 121.86 71.946 121.986 71.664C122.16 71.28 122.331 70.989 122.499 70.791C122.673 70.593 122.844 70.458 123.012 70.386C123.186 70.314 123.357 70.278 123.525 70.278C123.729 70.278 123.918 70.332 124.092 70.44C124.266 70.542 124.419 70.68 124.551 70.854C124.683 71.028 124.785 71.22 124.857 71.43C124.935 71.634 124.974 71.838 124.974 72.042C124.974 72.402 124.911 72.69 124.785 72.906C124.659 73.116 124.497 73.269 124.299 73.365C124.107 73.455 123.906 73.5 123.696 73.5C123.51 73.5 123.27 73.464 122.976 73.392C122.688 73.32 122.322 73.137 121.878 72.843L122.229 72.276C122.523 72.462 122.787 72.591 123.021 72.663C123.261 72.729 123.459 72.762 123.615 72.762C123.789 72.762 123.927 72.738 124.029 72.69C124.131 72.636 124.206 72.561 124.254 72.465C124.302 72.369 124.326 72.261 124.326 72.141C124.326 71.967 124.284 71.793 124.2 71.619C124.116 71.445 124.008 71.301 123.876 71.187C123.75 71.073 123.615 71.016 123.471 71.016C123.363 71.016 123.258 71.046 123.156 71.106C123.054 71.166 122.949 71.277 122.841 71.439C122.733 71.601 122.61 71.835 122.472 72.141C122.328 72.465 122.19 72.723 122.058 72.915C121.932 73.101 121.803 73.239 121.671 73.329C121.539 73.419 121.401 73.476 121.257 73.5C121.119 73.53 120.963 73.545 120.789 73.545ZM130.789 75.948C130.429 75.948 130.09 75.906 129.772 75.822C129.454 75.744 129.169 75.618 128.917 75.444C128.671 75.276 128.476 75.057 128.332 74.787C128.194 74.517 128.125 74.193 128.125 73.815C128.125 73.725 128.134 73.599 128.152 73.437C128.176 73.269 128.224 73.068 128.296 72.834C128.368 72.6 128.482 72.342 128.638 72.06L129.295 72.366C129.205 72.552 129.13 72.723 129.07 72.879C129.01 73.029 128.965 73.17 128.935 73.302C128.911 73.428 128.899 73.554 128.899 73.68C128.899 74.052 128.992 74.349 129.178 74.571C129.37 74.793 129.622 74.952 129.934 75.048C130.252 75.144 130.603 75.192 130.987 75.192C131.263 75.192 131.521 75.171 131.761 75.129C132.001 75.087 132.217 75.027 132.409 74.949C132.607 74.871 132.781 74.778 132.931 74.67C133.081 74.562 133.207 74.442 133.309 74.31C133.411 74.184 133.486 74.046 133.534 73.896C133.594 73.716 133.636 73.518 133.66 73.302C133.69 73.086 133.705 72.921 133.705 72.807C133.705 72.471 133.669 72.189 133.597 71.961C133.525 71.727 133.426 71.55 133.3 71.43C133.18 71.31 133.045 71.25 132.895 71.25C132.799 71.25 132.706 71.28 132.616 71.34C132.532 71.394 132.457 71.469 132.391 71.565C132.325 71.661 132.271 71.772 132.229 71.898C132.193 72.018 132.175 72.144 132.175 72.276C132.175 72.384 132.199 72.474 132.247 72.546C132.295 72.612 132.364 72.666 132.454 72.708C132.55 72.744 132.67 72.771 132.814 72.789C132.958 72.801 133.126 72.807 133.318 72.807H135.217C135.343 72.807 135.433 72.843 135.487 72.915C135.547 72.981 135.577 73.062 135.577 73.158C135.577 73.254 135.535 73.344 135.451 73.428C135.367 73.506 135.259 73.545 135.127 73.545H132.976C132.772 73.545 132.58 73.524 132.4 73.482C132.22 73.44 132.058 73.374 131.914 73.284C131.776 73.194 131.665 73.077 131.581 72.933C131.503 72.789 131.461 72.615 131.455 72.411C131.449 72.189 131.482 71.967 131.554 71.745C131.632 71.523 131.74 71.319 131.878 71.133C132.016 70.947 132.178 70.8 132.364 70.692C132.55 70.578 132.751 70.521 132.967 70.521C133.243 70.521 133.492 70.605 133.714 70.773C133.936 70.941 134.113 71.205 134.245 71.565C134.377 71.919 134.443 72.375 134.443 72.933C134.443 73.095 134.41 73.317 134.344 73.599C134.284 73.881 134.194 74.151 134.074 74.409C133.93 74.691 133.747 74.928 133.525 75.12C133.303 75.318 133.048 75.477 132.76 75.597C132.478 75.723 132.172 75.813 131.842 75.867C131.512 75.921 131.161 75.948 130.789 75.948ZM133.606 69.594C133.48 69.594 133.372 69.552 133.282 69.468C133.198 69.378 133.156 69.273 133.156 69.153C133.156 69.033 133.198 68.928 133.282 68.838C133.372 68.748 133.48 68.703 133.606 68.703C133.726 68.703 133.828 68.748 133.912 68.838C134.002 68.928 134.047 69.033 134.047 69.153C134.047 69.273 134.002 69.378 133.912 69.468C133.828 69.552 133.726 69.594 133.606 69.594ZM132.373 69.594C132.247 69.594 132.139 69.552 132.049 69.468C131.965 69.378 131.923 69.273 131.923 69.153C131.923 69.033 131.965 68.928 132.049 68.838C132.139 68.748 132.247 68.703 132.373 68.703C132.493 68.703 132.595 68.748 132.679 68.838C132.769 68.928 132.814 69.033 132.814 69.153C132.814 69.273 132.769 69.378 132.679 69.468C132.595 69.552 132.493 69.594 132.373 69.594ZM136.585 67.181C136.345 67.181 136.186 67.103 136.108 66.947C136.03 66.785 135.991 66.614 135.991 66.434C135.991 66.368 135.994 66.299 136 66.227C136.012 66.149 136.027 66.062 136.045 65.966L136.495 65.84C136.477 65.942 136.462 66.038 136.45 66.128C136.444 66.212 136.441 66.287 136.441 66.353C136.441 66.467 136.459 66.551 136.495 66.605C136.531 66.659 136.588 66.686 136.666 66.686C136.756 66.686 136.831 66.641 136.891 66.551C136.951 66.455 136.984 66.266 136.99 65.984V65.714L137.422 65.552V66.101C137.422 66.185 137.437 66.26 137.467 66.326C137.503 66.386 137.575 66.416 137.683 66.416C137.791 66.416 137.863 66.383 137.899 66.317C137.935 66.251 137.953 66.167 137.953 66.065C137.953 65.963 137.941 65.861 137.917 65.759C137.893 65.651 137.86 65.546 137.818 65.444L138.223 65.318C138.283 65.432 138.331 65.564 138.367 65.714C138.409 65.858 138.43 65.99 138.43 66.11C138.43 66.308 138.373 66.488 138.259 66.65C138.151 66.806 137.98 66.884 137.746 66.884C137.56 66.884 137.407 66.836 137.287 66.74C137.173 66.638 137.116 66.518 137.116 66.38L137.323 66.461C137.323 66.665 137.251 66.836 137.107 66.974C136.969 67.112 136.795 67.181 136.585 67.181ZM135.124 73.545L135.214 72.807C135.364 72.807 135.517 72.807 135.673 72.807C135.835 72.801 135.994 72.792 136.15 72.78C136.306 72.768 136.456 72.753 136.6 72.735C136.744 72.717 136.873 72.69 136.987 72.654C137.197 72.588 137.389 72.501 137.563 72.393C137.743 72.285 137.887 72.153 137.995 71.997C138.109 71.841 138.166 71.661 138.166 71.457C138.166 71.319 138.133 71.178 138.067 71.034C138.001 70.884 137.911 70.758 137.797 70.656C137.683 70.554 137.551 70.503 137.401 70.503C137.257 70.503 137.122 70.551 136.996 70.647C136.876 70.743 136.777 70.869 136.699 71.025C136.627 71.175 136.591 71.331 136.591 71.493C136.591 71.685 136.639 71.859 136.735 72.015C136.837 72.165 136.96 72.294 137.104 72.402C137.248 72.51 137.392 72.597 137.536 72.663L136.681 72.915C136.585 72.843 136.471 72.744 136.339 72.618C136.213 72.486 136.099 72.324 135.997 72.132C135.901 71.94 135.853 71.721 135.853 71.475C135.853 71.235 135.895 71.013 135.979 70.809C136.069 70.599 136.186 70.416 136.33 70.26C136.48 70.104 136.648 69.984 136.834 69.9C137.026 69.81 137.224 69.765 137.428 69.765C137.722 69.765 137.98 69.846 138.202 70.008C138.424 70.17 138.595 70.377 138.715 70.629C138.841 70.875 138.904 71.133 138.904 71.403C138.904 71.661 138.856 71.895 138.76 72.105C138.664 72.309 138.532 72.492 138.364 72.654C138.202 72.816 138.01 72.954 137.788 73.068C137.572 73.182 137.341 73.275 137.095 73.347C136.957 73.389 136.807 73.422 136.645 73.446C136.489 73.47 136.324 73.488 136.15 73.5C135.976 73.518 135.802 73.53 135.628 73.536C135.454 73.542 135.286 73.545 135.124 73.545ZM139.579 73.545C139.279 73.545 138.967 73.527 138.643 73.491C138.325 73.449 138.022 73.398 137.734 73.338C137.452 73.272 137.218 73.2 137.032 73.122L137.653 72.672C137.833 72.696 138.046 72.72 138.292 72.744C138.538 72.762 138.784 72.777 139.03 72.789C139.276 72.801 139.489 72.807 139.669 72.807C139.795 72.807 139.885 72.843 139.939 72.915C139.999 72.981 140.029 73.062 140.029 73.158C140.029 73.254 139.987 73.344 139.903 73.428C139.819 73.506 139.711 73.545 139.579 73.545ZM137.977 68.838C137.851 68.838 137.743 68.796 137.653 68.712C137.569 68.622 137.527 68.517 137.527 68.397C137.527 68.277 137.569 68.172 137.653 68.082C137.743 67.992 137.851 67.947 137.977 67.947C138.097 67.947 138.199 67.992 138.283 68.082C138.373 68.172 138.418 68.277 138.418 68.397C138.418 68.517 138.373 68.622 138.283 68.712C138.199 68.796 138.097 68.838 137.977 68.838ZM136.744 68.838C136.618 68.838 136.51 68.796 136.42 68.712C136.336 68.622 136.294 68.517 136.294 68.397C136.294 68.277 136.336 68.172 136.42 68.082C136.51 67.992 136.618 67.947 136.744 67.947C136.864 67.947 136.966 67.992 137.05 68.082C137.14 68.172 137.185 68.277 137.185 68.397C137.185 68.517 137.14 68.622 137.05 68.712C136.966 68.796 136.864 68.838 136.744 68.838ZM145.313 73.545C145.061 73.545 144.83 73.53 144.62 73.5C144.41 73.464 144.221 73.401 144.053 73.311C143.885 73.221 143.744 73.092 143.63 72.924C143.516 72.75 143.429 72.522 143.369 72.24L143.9 71.925C143.978 72.165 144.074 72.348 144.188 72.474C144.302 72.6 144.455 72.687 144.647 72.735C144.845 72.783 145.097 72.807 145.403 72.807C145.529 72.807 145.619 72.843 145.673 72.915C145.733 72.981 145.763 73.062 145.763 73.158C145.763 73.254 145.721 73.344 145.637 73.428C145.553 73.506 145.445 73.545 145.313 73.545ZM139.58 73.545L139.661 72.807C139.973 72.807 140.279 72.783 140.579 72.735C140.879 72.687 141.173 72.618 141.461 72.528C141.749 72.438 142.025 72.33 142.289 72.204C142.559 72.072 142.814 71.922 143.054 71.754C142.898 71.616 142.718 71.496 142.514 71.394C142.31 71.292 142.085 71.214 141.839 71.16C141.599 71.1 141.344 71.07 141.074 71.07C140.978 71.07 140.888 71.073 140.804 71.079C140.72 71.085 140.636 71.097 140.552 71.115C140.468 71.127 140.372 71.145 140.264 71.169L140.12 70.485C140.282 70.437 140.444 70.401 140.606 70.377C140.768 70.347 140.924 70.332 141.074 70.332C141.386 70.332 141.668 70.371 141.92 70.449C142.172 70.521 142.4 70.611 142.604 70.719C142.814 70.827 143.009 70.935 143.189 71.043C143.375 71.151 143.555 71.244 143.729 71.322C143.903 71.394 144.083 71.43 144.269 71.43H144.458L144.521 72.078C144.263 72.078 144.026 72.114 143.81 72.186C143.594 72.258 143.381 72.351 143.171 72.465C142.967 72.573 142.751 72.69 142.523 72.816C142.295 72.936 142.043 73.053 141.767 73.167C141.491 73.275 141.173 73.365 140.813 73.437C140.459 73.509 140.048 73.545 139.58 73.545ZM145.495 67.082V66.578L147.511 65.984V66.497L145.495 67.082ZM145.311 73.545L145.401 72.807C145.755 72.807 146.031 72.795 146.229 72.771C146.427 72.741 146.568 72.672 146.652 72.564C146.736 72.45 146.778 72.273 146.778 72.033C146.778 71.883 146.754 71.706 146.706 71.502C146.658 71.292 146.595 71.07 146.517 70.836C146.439 70.602 146.355 70.371 146.265 70.143L146.994 69.873C147.072 70.065 147.144 70.284 147.21 70.53C147.282 70.776 147.342 71.019 147.39 71.259C147.438 71.499 147.462 71.709 147.462 71.889C147.462 72.189 147.42 72.444 147.336 72.654C147.258 72.864 147.132 73.035 146.958 73.167C146.784 73.299 146.559 73.395 146.283 73.455C146.013 73.515 145.689 73.545 145.311 73.545ZM147.273 68.937C147.147 68.937 147.039 68.895 146.949 68.811C146.865 68.721 146.823 68.616 146.823 68.496C146.823 68.376 146.865 68.271 146.949 68.181C147.039 68.091 147.147 68.046 147.273 68.046C147.393 68.046 147.495 68.091 147.579 68.181C147.669 68.271 147.714 68.376 147.714 68.496C147.714 68.616 147.669 68.721 147.579 68.811C147.495 68.895 147.393 68.937 147.273 68.937ZM146.04 68.937C145.914 68.937 145.806 68.895 145.716 68.811C145.632 68.721 145.59 68.616 145.59 68.496C145.59 68.376 145.632 68.271 145.716 68.181C145.806 68.091 145.914 68.046 146.04 68.046C146.16 68.046 146.262 68.091 146.346 68.181C146.436 68.271 146.481 68.376 146.481 68.496C146.481 68.616 146.436 68.721 146.346 68.811C146.262 68.895 146.16 68.937 146.04 68.937ZM110.094 89.046C109.824 89.046 109.539 89.019 109.239 88.965C108.939 88.917 108.657 88.821 108.393 88.677C108.135 88.539 107.922 88.341 107.754 88.083C107.592 87.831 107.511 87.504 107.511 87.102C107.511 86.694 107.586 86.337 107.736 86.031C107.892 85.731 108.09 85.467 108.33 85.239C108.576 85.005 108.834 84.795 109.104 84.609C109.374 84.423 109.629 84.249 109.869 84.087C110.115 83.925 110.313 83.763 110.463 83.601C110.619 83.433 110.697 83.25 110.697 83.052C110.697 82.974 110.67 82.896 110.616 82.818C110.568 82.734 110.487 82.665 110.373 82.611C110.265 82.557 110.118 82.53 109.932 82.53C109.8 82.53 109.653 82.548 109.491 82.584C109.329 82.62 109.173 82.671 109.023 82.737C108.879 82.797 108.759 82.866 108.663 82.944C108.825 83.076 108.975 83.205 109.113 83.331C109.257 83.457 109.404 83.595 109.554 83.745C109.704 83.889 109.866 84.054 110.04 84.24C110.19 84.324 110.337 84.402 110.481 84.474C110.631 84.54 110.79 84.6 110.958 84.654C111.126 84.702 111.318 84.741 111.534 84.771C111.75 84.795 112.002 84.807 112.29 84.807C112.416 84.807 112.506 84.843 112.56 84.915C112.62 84.981 112.65 85.062 112.65 85.158C112.65 85.254 112.608 85.344 112.524 85.428C112.44 85.506 112.332 85.545 112.2 85.545C111.702 85.545 111.288 85.506 110.958 85.428C110.634 85.35 110.358 85.245 110.13 85.113C109.902 84.981 109.683 84.834 109.473 84.672C109.371 84.54 109.257 84.408 109.131 84.276C109.005 84.144 108.867 84.012 108.717 83.88C108.573 83.742 108.417 83.613 108.249 83.493C108.213 83.463 108.177 83.409 108.141 83.331C108.105 83.253 108.075 83.172 108.051 83.088C108.027 83.004 108.015 82.941 108.015 82.899C108.015 82.809 108.072 82.701 108.186 82.575C108.3 82.449 108.453 82.329 108.645 82.215C108.837 82.095 109.056 81.996 109.302 81.918C109.548 81.84 109.803 81.801 110.067 81.801C110.493 81.801 110.823 81.906 111.057 82.116C111.291 82.326 111.408 82.572 111.408 82.854C111.408 83.16 111.33 83.433 111.174 83.673C111.024 83.913 110.829 84.132 110.589 84.33C110.349 84.528 110.094 84.72 109.824 84.906C109.56 85.092 109.308 85.287 109.068 85.491C108.828 85.689 108.63 85.908 108.474 86.148C108.324 86.388 108.249 86.667 108.249 86.985C108.249 87.261 108.315 87.486 108.447 87.66C108.579 87.834 108.744 87.966 108.942 88.056C109.14 88.152 109.344 88.218 109.554 88.254C109.764 88.29 109.944 88.308 110.094 88.308C110.304 88.308 110.517 88.293 110.733 88.263C110.955 88.233 111.183 88.185 111.417 88.119C111.657 88.053 111.897 87.972 112.137 87.876L112.371 88.452C112.197 88.554 111.984 88.65 111.732 88.74C111.48 88.836 111.213 88.911 110.931 88.965C110.649 89.019 110.37 89.046 110.094 89.046ZM112.202 85.545L112.292 84.807C112.442 84.807 112.607 84.807 112.787 84.807C112.973 84.801 113.159 84.795 113.345 84.789C113.537 84.783 113.714 84.771 113.876 84.753C114.038 84.729 114.173 84.699 114.281 84.663C114.497 84.585 114.665 84.489 114.785 84.375C114.905 84.255 114.989 84.099 115.037 83.907C115.091 83.709 115.118 83.457 115.118 83.151C115.118 82.899 115.085 82.665 115.019 82.449C114.953 82.233 114.86 82.059 114.74 81.927C114.62 81.795 114.476 81.729 114.308 81.729C114.17 81.729 114.044 81.783 113.93 81.891C113.822 81.993 113.735 82.125 113.669 82.287C113.609 82.449 113.579 82.611 113.579 82.773C113.579 82.899 113.603 83.007 113.651 83.097C113.705 83.187 113.792 83.259 113.912 83.313C114.032 83.361 114.188 83.385 114.38 83.385C114.554 83.385 114.728 83.367 114.902 83.331C115.082 83.295 115.235 83.247 115.361 83.187L115.397 83.817C115.301 83.883 115.193 83.937 115.073 83.979C114.953 84.021 114.827 84.051 114.695 84.069C114.563 84.087 114.431 84.096 114.299 84.096C113.993 84.096 113.732 84.048 113.516 83.952C113.306 83.85 113.144 83.715 113.03 83.547C112.922 83.373 112.868 83.175 112.868 82.953C112.868 82.725 112.904 82.497 112.976 82.269C113.048 82.035 113.15 81.822 113.282 81.63C113.414 81.438 113.573 81.285 113.759 81.171C113.945 81.051 114.152 80.991 114.38 80.991C114.704 80.991 114.971 81.096 115.181 81.306C115.397 81.516 115.556 81.792 115.658 82.134C115.766 82.47 115.82 82.827 115.82 83.205C115.82 83.655 115.742 84.042 115.586 84.366C115.436 84.684 115.184 84.948 114.83 85.158C114.692 85.236 114.524 85.302 114.326 85.356C114.134 85.404 113.921 85.443 113.687 85.473C113.459 85.503 113.219 85.521 112.967 85.527C112.715 85.539 112.46 85.545 112.202 85.545ZM114.209 80.064C114.083 80.064 113.975 80.022 113.885 79.938C113.801 79.848 113.759 79.743 113.759 79.623C113.759 79.503 113.801 79.398 113.885 79.308C113.975 79.218 114.083 79.173 114.209 79.173C114.329 79.173 114.431 79.218 114.515 79.308C114.605 79.398 114.65 79.503 114.65 79.623C114.65 79.743 114.605 79.848 114.515 79.938C114.431 80.022 114.329 80.064 114.209 80.064ZM118.163 84.807C118.463 84.807 118.7 84.777 118.874 84.717C119.054 84.657 119.183 84.57 119.261 84.456C119.345 84.336 119.387 84.198 119.387 84.042C119.387 83.922 119.354 83.778 119.288 83.61C119.228 83.442 119.144 83.256 119.036 83.052C118.928 82.842 118.802 82.623 118.658 82.395C118.52 82.161 118.37 81.924 118.208 81.684L118.829 81.279C119.063 81.633 119.267 81.969 119.441 82.287C119.615 82.599 119.762 82.893 119.882 83.169C120.002 83.439 120.098 83.694 120.17 83.934C120.254 84.198 120.347 84.393 120.449 84.519C120.557 84.645 120.668 84.726 120.782 84.762C120.896 84.792 121.001 84.807 121.097 84.807C121.223 84.807 121.316 84.843 121.376 84.915C121.436 84.981 121.466 85.062 121.466 85.158C121.466 85.254 121.424 85.344 121.34 85.428C121.256 85.506 121.148 85.545 121.016 85.545C120.818 85.545 120.623 85.509 120.431 85.437C120.245 85.359 120.083 85.236 119.945 85.068C119.807 84.894 119.711 84.663 119.657 84.375L120.017 84.087C120.017 84.327 119.966 84.561 119.864 84.789C119.762 85.011 119.576 85.194 119.306 85.338C119.042 85.482 118.661 85.554 118.163 85.554C117.947 85.554 117.737 85.536 117.533 85.5C117.335 85.464 117.152 85.413 116.984 85.347C116.816 85.275 116.669 85.191 116.543 85.095L116.903 84.474C117.023 84.552 117.191 84.627 117.407 84.699C117.623 84.771 117.875 84.807 118.163 84.807ZM121.018 85.545L121.099 84.807C121.441 84.807 121.681 84.774 121.819 84.708C121.957 84.642 122.035 84.525 122.053 84.357C122.077 84.189 122.083 83.955 122.071 83.655L121.9 79.074H122.629L122.809 83.574C122.821 83.892 122.809 84.174 122.773 84.42C122.743 84.666 122.665 84.873 122.539 85.041C122.419 85.209 122.236 85.335 121.99 85.419C121.75 85.503 121.426 85.545 121.018 85.545ZM124.183 85.5L124.003 79.074H124.732L124.912 85.5H124.183ZM132.212 85.545C131.888 85.545 131.6 85.5 131.348 85.41C131.102 85.314 130.904 85.155 130.754 84.933C130.61 84.705 130.529 84.39 130.511 83.988L130.367 80.856H131.096L131.24 83.826C131.258 84.108 131.309 84.321 131.393 84.465C131.477 84.603 131.594 84.696 131.744 84.744C131.9 84.786 132.086 84.807 132.302 84.807C132.428 84.807 132.518 84.843 132.572 84.915C132.632 84.981 132.662 85.062 132.662 85.158C132.662 85.254 132.62 85.344 132.536 85.428C132.452 85.506 132.344 85.545 132.212 85.545ZM130.853 84.555C130.511 84.663 130.178 84.717 129.854 84.717C129.53 84.717 129.236 84.669 128.972 84.573C128.708 84.477 128.498 84.339 128.342 84.159C128.186 83.973 128.108 83.751 128.108 83.493C128.108 83.241 128.171 83.004 128.297 82.782C128.429 82.56 128.606 82.362 128.828 82.188C129.056 82.014 129.317 81.87 129.611 81.756C129.911 81.636 130.229 81.555 130.565 81.513L130.691 82.269C130.391 82.281 130.124 82.323 129.89 82.395C129.662 82.461 129.467 82.548 129.305 82.656C129.149 82.764 129.029 82.881 128.945 83.007C128.861 83.133 128.819 83.256 128.819 83.376C128.819 83.508 128.867 83.616 128.963 83.7C129.059 83.784 129.182 83.85 129.332 83.898C129.482 83.94 129.647 83.967 129.827 83.979C130.007 83.985 130.181 83.979 130.349 83.961C130.517 83.937 130.661 83.904 130.781 83.862L130.853 84.555ZM130.664 79.821C130.538 79.821 130.43 79.779 130.34 79.695C130.256 79.605 130.214 79.5 130.214 79.38C130.214 79.26 130.256 79.155 130.34 79.065C130.43 78.975 130.538 78.93 130.664 78.93C130.784 78.93 130.886 78.975 130.97 79.065C131.06 79.155 131.105 79.26 131.105 79.38C131.105 79.5 131.06 79.605 130.97 79.695C130.886 79.779 130.784 79.821 130.664 79.821ZM129.431 79.821C129.305 79.821 129.197 79.779 129.107 79.695C129.023 79.605 128.981 79.5 128.981 79.38C128.981 79.26 129.023 79.155 129.107 79.065C129.197 78.975 129.305 78.93 129.431 78.93C129.551 78.93 129.653 78.975 129.737 79.065C129.827 79.155 129.872 79.26 129.872 79.38C129.872 79.5 129.827 79.605 129.737 79.695C129.653 79.779 129.551 79.821 129.431 79.821ZM132.215 85.545L132.305 84.807C132.605 84.807 132.839 84.786 133.007 84.744C133.175 84.696 133.301 84.609 133.385 84.483C133.475 84.351 133.547 84.162 133.601 83.916C133.655 83.67 133.721 83.349 133.799 82.953L134.501 83.088C134.477 83.196 134.45 83.316 134.42 83.448C134.39 83.58 134.363 83.712 134.339 83.844C134.321 83.97 134.312 84.081 134.312 84.177C134.312 84.267 134.318 84.351 134.33 84.429C134.342 84.507 134.387 84.573 134.465 84.627C134.543 84.681 134.675 84.726 134.861 84.762C135.047 84.792 135.314 84.807 135.662 84.807C135.788 84.807 135.878 84.843 135.932 84.915C135.992 84.981 136.022 85.062 136.022 85.158C136.022 85.254 135.98 85.344 135.896 85.428C135.812 85.506 135.704 85.545 135.572 85.545C135.206 85.545 134.915 85.527 134.699 85.491C134.483 85.449 134.318 85.389 134.204 85.311C134.096 85.233 134.018 85.137 133.97 85.023C133.928 84.903 133.895 84.765 133.871 84.609L134.141 84.627C134.045 84.819 133.94 84.975 133.826 85.095C133.718 85.215 133.592 85.308 133.448 85.374C133.304 85.44 133.13 85.485 132.926 85.509C132.728 85.533 132.491 85.545 132.215 85.545ZM134.483 87.246C134.357 87.246 134.249 87.201 134.159 87.111C134.075 87.027 134.033 86.925 134.033 86.805C134.033 86.685 134.075 86.58 134.159 86.49C134.249 86.4 134.357 86.355 134.483 86.355C134.603 86.355 134.705 86.4 134.789 86.49C134.879 86.58 134.924 86.685 134.924 86.805C134.924 86.925 134.879 87.027 134.789 87.111C134.705 87.201 134.603 87.246 134.483 87.246ZM133.25 87.246C133.124 87.246 133.016 87.201 132.926 87.111C132.842 87.027 132.8 86.925 132.8 86.805C132.8 86.685 132.842 86.58 132.926 86.49C133.016 86.4 133.124 86.355 133.25 86.355C133.37 86.355 133.472 86.4 133.556 86.49C133.646 86.58 133.691 86.685 133.691 86.805C133.691 86.925 133.646 87.027 133.556 87.111C133.472 87.201 133.37 87.246 133.25 87.246ZM135.572 85.545L135.653 84.807C135.995 84.807 136.235 84.774 136.373 84.708C136.511 84.642 136.589 84.525 136.607 84.357C136.631 84.189 136.637 83.955 136.625 83.655L136.472 79.074H137.219L137.363 83.637C137.375 83.943 137.423 84.183 137.507 84.357C137.597 84.525 137.717 84.642 137.867 84.708C138.017 84.774 138.182 84.807 138.362 84.807C138.488 84.807 138.578 84.843 138.632 84.915C138.692 84.981 138.722 85.062 138.722 85.158C138.722 85.254 138.68 85.344 138.596 85.428C138.512 85.506 138.404 85.545 138.272 85.545C138.02 85.545 137.81 85.506 137.642 85.428C137.48 85.344 137.351 85.239 137.255 85.113C137.165 84.981 137.105 84.843 137.075 84.699L137.264 84.717C137.204 84.897 137.105 85.05 136.967 85.176C136.835 85.296 136.655 85.389 136.427 85.455C136.199 85.515 135.914 85.545 135.572 85.545ZM138.271 85.545L138.361 84.807C138.529 84.807 138.661 84.771 138.757 84.699C138.859 84.627 138.955 84.507 139.045 84.339C139.141 84.171 139.261 83.946 139.405 83.664C139.549 83.376 139.693 83.142 139.837 82.962C139.987 82.776 140.131 82.632 140.269 82.53C140.413 82.422 140.548 82.347 140.674 82.305C140.8 82.263 140.917 82.242 141.025 82.242C141.223 82.242 141.4 82.287 141.556 82.377C141.712 82.461 141.859 82.608 141.997 82.818C142.135 83.022 142.276 83.304 142.42 83.664C142.558 83.994 142.681 84.243 142.789 84.411C142.903 84.573 143.02 84.681 143.14 84.735C143.266 84.783 143.407 84.807 143.563 84.807C143.689 84.807 143.779 84.843 143.833 84.915C143.893 84.981 143.923 85.062 143.923 85.158C143.923 85.254 143.881 85.344 143.797 85.428C143.713 85.506 143.605 85.545 143.473 85.545C143.239 85.545 143.023 85.506 142.825 85.428C142.633 85.35 142.471 85.227 142.339 85.059L142.465 84.87C142.399 85.056 142.309 85.209 142.195 85.329C142.087 85.443 141.964 85.527 141.826 85.581C141.688 85.641 141.541 85.671 141.385 85.671C141.187 85.671 140.983 85.629 140.773 85.545C140.569 85.461 140.371 85.341 140.179 85.185C139.987 85.029 139.819 84.846 139.675 84.636C139.519 84.912 139.369 85.116 139.225 85.248C139.087 85.374 138.943 85.455 138.793 85.491C138.643 85.527 138.469 85.545 138.271 85.545ZM140.017 83.952C140.119 84.12 140.227 84.267 140.341 84.393C140.461 84.519 140.581 84.624 140.701 84.708C140.821 84.786 140.938 84.846 141.052 84.888C141.172 84.924 141.28 84.942 141.376 84.942C141.586 84.942 141.739 84.867 141.835 84.717C141.937 84.567 141.934 84.357 141.826 84.087C141.772 83.949 141.715 83.814 141.655 83.682C141.601 83.55 141.541 83.43 141.475 83.322C141.409 83.208 141.334 83.121 141.25 83.061C141.166 82.995 141.073 82.962 140.971 82.962C140.881 82.962 140.785 82.992 140.683 83.052C140.587 83.112 140.482 83.214 140.368 83.358C140.26 83.502 140.143 83.7 140.017 83.952ZM143.474 85.545L143.564 84.807C143.942 84.807 144.233 84.804 144.437 84.798C144.647 84.792 144.8 84.786 144.896 84.78C144.992 84.768 145.058 84.762 145.094 84.762C144.986 84.702 144.86 84.609 144.716 84.483C144.572 84.351 144.446 84.186 144.338 83.988C144.23 83.784 144.176 83.544 144.176 83.268C144.176 82.926 144.254 82.626 144.41 82.368C144.572 82.11 144.791 81.909 145.067 81.765C145.349 81.621 145.67 81.549 146.03 81.549C146.168 81.549 146.315 81.561 146.471 81.585C146.627 81.609 146.777 81.645 146.921 81.693L146.768 82.386C146.648 82.356 146.522 82.332 146.39 82.314C146.258 82.296 146.138 82.287 146.03 82.287C145.814 82.287 145.622 82.329 145.454 82.413C145.286 82.491 145.154 82.602 145.058 82.746C144.962 82.89 144.914 83.064 144.914 83.268C144.914 83.424 144.947 83.568 145.013 83.7C145.079 83.826 145.166 83.94 145.274 84.042C145.382 84.144 145.502 84.228 145.634 84.294C145.766 84.36 145.895 84.411 146.021 84.447C146.153 84.483 146.27 84.498 146.372 84.492C146.444 84.468 146.51 84.447 146.57 84.429C146.63 84.411 146.696 84.39 146.768 84.366C146.846 84.336 146.939 84.297 147.047 84.249C147.161 84.201 147.305 84.138 147.479 84.06L147.731 84.717C147.329 84.879 146.918 85.023 146.498 85.149C146.084 85.275 145.631 85.374 145.139 85.446C144.653 85.512 144.098 85.545 143.474 85.545Z" fill="#0C1142"/>
<path d="M92.0871 53.196L93.1111 51.308L94.1831 53.196L95.3991 52.316L94.0391 50.684L95.9751 50.316L95.5591 48.892L93.7351 49.692L93.9431 47.612H92.3431L92.5511 49.692L90.7271 48.892L90.2951 50.316L92.2151 50.684L90.8551 52.316L92.0871 53.196ZM104.947 53.196L105.971 51.308L107.043 53.196L108.259 52.316L106.899 50.684L108.835 50.316L108.419 48.892L106.595 49.692L106.803 47.612H105.203L105.411 49.692L103.587 48.892L103.155 50.316L105.075 50.684L103.715 52.316L104.947 53.196ZM117.806 53.196L118.83 51.308L119.902 53.196L121.118 52.316L119.758 50.684L121.694 50.316L121.278 48.892L119.454 49.692L119.662 47.612H118.062L118.27 49.692L116.446 48.892L116.014 50.316L117.934 50.684L116.574 52.316L117.806 53.196ZM130.665 53.196L131.689 51.308L132.761 53.196L133.977 52.316L132.617 50.684L134.553 50.316L134.137 48.892L132.313 49.692L132.521 47.612H130.921L131.129 49.692L129.305 48.892L128.873 50.316L130.793 50.684L129.433 52.316L130.665 53.196ZM143.525 53.196L144.549 51.308L145.621 53.196L146.837 52.316L145.477 50.684L147.413 50.316L146.997 48.892L145.173 49.692L145.381 47.612H143.781L143.989 49.692L142.165 48.892L141.733 50.316L143.653 50.684L142.293 52.316L143.525 53.196Z" fill="#0C1142"/>
<mask id="path-6-outside-1_303_10333" maskUnits="userSpaceOnUse" x="160" y="38.5" width="54" height="70" fill="black">
<rect fill="white" x="160" y="38.5" width="54" height="70"/>
<path d="M161 49.7983C161 49.7983 175.876 39.5 187 39.5C198.124 39.5 213 49.7983 213 49.7983C213 49.7983 213 58.9982 213 73.4553C213 88.3354 187 106.5 187 106.5C187 106.5 161 88.3354 161 73.4553C161 59.5615 161 49.7983 161 49.7983Z"/>
</mask>
<path d="M161 49.7983C161 49.7983 175.876 39.5 187 39.5C198.124 39.5 213 49.7983 213 49.7983C213 49.7983 213 58.9982 213 73.4553C213 88.3354 187 106.5 187 106.5C187 106.5 161 88.3354 161 73.4553C161 59.5615 161 49.7983 161 49.7983Z" fill="#FFFFE9"/>
<path d="M161 49.7983C161 49.7983 175.876 39.5 187 39.5C198.124 39.5 213 49.7983 213 49.7983C213 49.7983 213 58.9982 213 73.4553C213 88.3354 187 106.5 187 106.5C187 106.5 161 88.3354 161 73.4553C161 59.5615 161 49.7983 161 49.7983Z" fill="url(#paint0_radial_303_10333)" fill-opacity="0.15"/>
<path d="M161 49.7983C161 49.7983 175.876 39.5 187 39.5C198.124 39.5 213 49.7983 213 49.7983C213 49.7983 213 58.9982 213 73.4553C213 88.3354 187 106.5 187 106.5C187 106.5 161 88.3354 161 73.4553C161 59.5615 161 49.7983 161 49.7983Z" fill="url(#paint1_radial_303_10333)" fill-opacity="0.15"/>
<path d="M161 49.7983C161 49.7983 175.876 39.5 187 39.5C198.124 39.5 213 49.7983 213 49.7983C213 49.7983 213 58.9982 213 73.4553C213 88.3354 187 106.5 187 106.5C187 106.5 161 88.3354 161 73.4553C161 59.5615 161 49.7983 161 49.7983Z" fill="url(#paint2_radial_303_10333)" fill-opacity="0.15"/>
<path d="M161 49.7983C161 49.7983 175.876 39.5 187 39.5C198.124 39.5 213 49.7983 213 49.7983C213 49.7983 213 58.9982 213 73.4553C213 88.3354 187 106.5 187 106.5C187 106.5 161 88.3354 161 73.4553C161 59.5615 161 49.7983 161 49.7983Z" stroke="#242955" stroke-width="2" mask="url(#path-6-outside-1_303_10333)"/>
<path d="M210 51.5C210 51.5 210 63.6622 210 72.4459C210 85.5918 188 101.5 188 101.5" stroke="#0C1142"/>
<path d="M188 42.5C179.045 43.0197 170.667 46.5851 164 52.7128C164 59.5213 164 74.5 164 74.5" stroke="#0C1142"/>
<path d="M178.877 67.62C180.845 67.62 182.093 66.636 182.093 65.052C182.093 63.912 181.433 63.204 180.437 62.976C181.265 62.664 181.829 62.076 181.829 61.104C181.829 59.832 180.785 58.8 178.997 58.8C177.161 58.8 176.045 59.94 175.961 61.428H177.377C177.473 60.564 178.061 60.012 178.973 60.012C179.861 60.012 180.305 60.528 180.305 61.224C180.305 62.028 179.861 62.484 178.877 62.484H178.265V63.624H178.925C179.969 63.624 180.473 64.092 180.473 65.028C180.473 65.88 179.957 66.42 178.841 66.42C177.689 66.42 177.185 65.748 177.101 64.848H175.649C175.721 66.492 176.837 67.62 178.877 67.62ZM183.689 67.5H186.269C189.281 67.5 190.733 65.724 190.733 63.228V63.12C190.733 60.624 189.281 58.92 186.293 58.92H183.689V67.5ZM185.285 66.24V60.18H186.209C188.225 60.18 189.065 61.296 189.065 63.144V63.24C189.065 65.136 188.141 66.24 186.221 66.24H185.285ZM195.054 67.62C196.95 67.62 198.21 66.456 198.21 64.968C198.21 63.252 197.166 62.676 195.15 62.4C193.662 62.184 193.374 61.836 193.374 61.14C193.374 60.48 193.878 60.012 194.85 60.012C195.834 60.012 196.35 60.396 196.506 61.296H197.97C197.802 59.652 196.698 58.812 194.85 58.812C193.062 58.812 191.862 59.868 191.862 61.272C191.862 62.88 192.834 63.504 194.886 63.78C196.278 64.008 196.674 64.308 196.674 65.1C196.674 65.892 196.002 66.42 195.054 66.42C193.602 66.42 193.254 65.7 193.146 64.836H191.61C191.73 66.456 192.714 67.62 195.054 67.62ZM178.098 83.5H184.302V82.264H180.654L182.562 80.404C183.582 79.42 184.242 78.448 184.242 77.332C184.242 75.82 183.186 74.8 181.41 74.8C179.598 74.8 178.47 75.88 178.362 77.752H179.826C179.97 76.54 180.51 76.048 181.362 76.048C182.19 76.048 182.646 76.552 182.646 77.356C182.646 78.172 182.154 78.928 181.338 79.792L178.098 83.212V83.5ZM186.525 83.584C187.065 83.584 187.485 83.176 187.485 82.648C187.485 82.12 187.065 81.7 186.525 81.7C185.997 81.7 185.577 82.12 185.577 82.648C185.577 83.176 185.997 83.584 186.525 83.584ZM191.88 83.62C194.124 83.62 195.468 81.976 195.468 79.396V78.964C195.468 76.384 194.052 74.8 191.88 74.8C189.72 74.8 188.28 76.396 188.28 79V79.432C188.28 82.012 189.696 83.62 191.88 83.62ZM191.916 82.348C190.632 82.348 189.888 81.364 189.888 79.42V78.988C189.888 77.08 190.596 76.048 191.892 76.048C193.176 76.048 193.872 77.152 193.872 78.976V79.396C193.872 81.34 193.236 82.348 191.916 82.348Z" fill="#0C1142"/>
<defs>
<filter id="filter0_d_303_10333" x="0" y="0.5" width="264" height="176" filterUnits="userSpaceOnUse" color-interpolation-filters="sRGB">
<feFlood flood-opacity="0" result="BackgroundImageFix"/>
<feColorMatrix in="SourceAlpha" type="matrix" values="0 0 0 0 0 0 0 0 0 0 0 0 0 0 0 0 0 0 127 0" result="hardAlpha"/>
<feOffset dy="16"/>
<feGaussianBlur stdDeviation="20"/>
<feColorMatrix type="matrix" values="0 0 0 0 0.0470588 0 0 0 0 0.0666667 0 0 0 0 0.258824 0 0 0 0.5 0"/>
<feBlend mode="normal" in2="BackgroundImageFix" result="effect1_dropShadow_303_10333"/>
<feBlend mode="normal" in="SourceGraphic" in2="effect1_dropShadow_303_10333" result="shape"/>
</filter>
<radialGradient id="paint0_radial_303_10333" cx="0" cy="0" r="1" gradientUnits="userSpaceOnUse" gradientTransform="translate(209.941 45.0036) rotate(122.865) scale(46.1506 80.821)">
<stop stop-color="#2BD4DB"/>
<stop offset="1" stop-color="#2BD4DB" stop-opacity="0"/>
</radialGradient>
<radialGradient id="paint1_radial_303_10333" cx="0" cy="0" r="1" gradientUnits="userSpaceOnUse" gradientTransform="translate(182.221 48.5929) rotate(69.4767) scale(81.2498 212.732)">
<stop stop-color="#2BD4DB"/>
<stop offset="1" stop-color="#2BD4DB" stop-opacity="0"/>
</radialGradient>
<radialGradient id="paint2_radial_303_10333" cx="0" cy="0" r="1" gradientUnits="userSpaceOnUse" gradientTransform="translate(162.327 88.7608) rotate(25.9593) scale(58.8293 478.1)">
<stop stop-color="#2BD4DB" stop-opacity="0.5"/>
<stop offset="1" stop-color="#2BD4DB" stop-opacity="0"/>
</radialGradient>
</defs>
</svg>
