<svg width="64" height="64" viewBox="0 0 64 64" fill="none" xmlns="http://www.w3.org/2000/svg">
<path d="M36.9 40.8C36.3 41.4 36 42.1 35.8 42.9L32 39L28.2 42.8C29 42.9 29.7 43.3 30.3 43.9C31.8 45.4 31.8 47.8 30.3 49.2C28.8 50.7 26.4 50.7 25 49.2C24.4 48.6 24.1 47.9 23.9 47.1L20 51L32 63L44 51L40.2 47.2C41 47.1 41.7 46.7 42.3 46.1C43.8 44.6 43.8 42.2 42.3 40.8C40.7 39.3 38.4 39.3 36.9 40.8Z" stroke="#0C1142" stroke-miterlimit="10"/>
<path d="M32 39L28.2 35.2C28.1 36 27.7 36.7 27.1 37.3C25.6 38.8 23.2 38.8 21.8 37.3C20.3 35.8 20.3 33.4 21.8 32C22.4 31.4 23.1 31.1 23.9 30.9L20 27L8 39L20 51" stroke="#0C1142" stroke-miterlimit="10"/>
<path d="M44 51L56 39L44 27L40.2 30.8C40.1 30 39.7 29.3 39.1 28.7C37.6 27.2 35.2 27.2 33.8 28.7C32.3 30.2 32.3 32.6 33.8 34C34.4 34.6 35.1 34.9 35.9 35.1L32 39" stroke="#0C1142" stroke-miterlimit="10"/>
<path d="M19.7001 7.90001L22.4001 13.8C21.5001 13.5 20.4001 13.5 19.5001 14C17.4001 14.9 16.5001 17.3 17.5001 19.4C18.4001 21.5 20.8001 22.4 22.9001 21.4C23.9001 21 24.6001 20.2 24.9001 19.3L27.6001 25.2L33.5001 22.5C32.6001 22.1 31.9001 21.4 31.4001 20.5C30.5001 18.4 31.4001 16 33.4001 15.1C35.4001 14.2 37.9001 15.1 38.8001 17.1C39.2001 18.1 39.3001 19.1 39.0001 20L44.9001 17.3L37.0001 0.100006L19.7001 7.90001Z" fill="url(#paint0_linear_1152_2)"/>
<defs>
<linearGradient id="paint0_linear_1152_2" x1="17.4181" y1="19.4008" x2="40.9562" y2="8.72369" gradientUnits="userSpaceOnUse">
<stop stop-color="#2BD4DB" stop-opacity="0.8"/>
<stop offset="1" stop-color="#2BD4DB" stop-opacity="0.2"/>
</linearGradient>
</defs>
</svg>
