<svg width="64" height="64" viewBox="0 0 64 64" fill="none" xmlns="http://www.w3.org/2000/svg">
<path d="M21.5 18V10.5C21.5 9.4 22.4 8.5 23.5 8.5H61.5C62.6 8.5 63.5 9.4 63.5 10.5V36.5C63.5 37.6 62.6 38.5 61.5 38.5H27" stroke="#0C1142" stroke-miterlimit="10"/>
<path d="M49.5 21C51.9853 21 54 18.9853 54 16.5C54 14.0147 51.9853 12 49.5 12C47.0147 12 45 14.0147 45 16.5C45 18.9853 47.0147 21 49.5 21Z" fill="url(#paint0_linear_5923_9818)"/>
<path d="M55.5 21C57.9853 21 60 18.9853 60 16.5C60 14.0147 57.9853 12 55.5 12C53.0147 12 51 14.0147 51 16.5C51 18.9853 53.0147 21 55.5 21Z" fill="url(#paint1_linear_5923_9818)"/>
<path d="M29 33.5H44" stroke="#0C1142" stroke-miterlimit="10"/>
<path d="M29 29.5H54" stroke="#0C1142" stroke-miterlimit="10"/>
<path d="M14 16C6.2 16 0 22.2 0 29.8C0 40 14 56 14 56C14 56 28 40 28 29.8C28 22.2 21.7 16 14 16ZM14 34C11.2 34 9 31.8 9 29C9 26.2 11.2 24 14 24C16.8 24 19 26.2 19 29C19 31.8 16.7 34 14 34Z" fill="url(#paint2_linear_5923_9818)"/>
<path d="M45 51.5H25" stroke="#0C1142" stroke-miterlimit="10"/>
<path d="M27.9999 55L24.3999 51.5L27.9999 48" stroke="#0C1142" stroke-miterlimit="10"/>
<path d="M59.3999 42L62.9999 45.5L59.3999 49" stroke="#0C1142" stroke-miterlimit="10"/>
<path d="M42 45.5H63" stroke="#0C1142" stroke-miterlimit="10"/>
<path d="M35 45.5H40" stroke="url(#paint3_linear_5923_9818)"/>
<path d="M47 51.5H52" stroke="url(#paint4_linear_5923_9818)"/>
<defs>
<linearGradient id="paint0_linear_5923_9818" x1="54" y1="16.5" x2="45" y2="16.5" gradientUnits="userSpaceOnUse">
<stop stop-color="#2BD4DB" stop-opacity="0.8"/>
<stop offset="1" stop-color="#2BD4DB" stop-opacity="0.2"/>
</linearGradient>
<linearGradient id="paint1_linear_5923_9818" x1="60" y1="16.5" x2="51" y2="16.5" gradientUnits="userSpaceOnUse">
<stop stop-color="#2BD4DB" stop-opacity="0.8"/>
<stop offset="1" stop-color="#2BD4DB" stop-opacity="0.2"/>
</linearGradient>
<linearGradient id="paint2_linear_5923_9818" x1="2.3253" y1="46.0535" x2="23.558" y2="20.4253" gradientUnits="userSpaceOnUse">
<stop stop-color="#2BD4DB" stop-opacity="0.2"/>
<stop offset="1" stop-color="#55DDE2" stop-opacity="0.8"/>
</linearGradient>
<linearGradient id="paint3_linear_5923_9818" x1="40" y1="44" x2="35" y2="44" gradientUnits="userSpaceOnUse">
<stop stop-color="#6BE1E6" stop-opacity="0.8"/>
<stop offset="1" stop-color="#2BD4DB" stop-opacity="0.2"/>
</linearGradient>
<linearGradient id="paint4_linear_5923_9818" x1="52" y1="50.5" x2="47" y2="50.5" gradientUnits="userSpaceOnUse">
<stop stop-color="#6BE1E6" stop-opacity="0.8"/>
<stop offset="1" stop-color="#2BD4DB" stop-opacity="0.2"/>
</linearGradient>
</defs>
</svg>
