<svg width="64" height="64" viewBox="0 0 64 64" fill="none" xmlns="http://www.w3.org/2000/svg">
<path d="M33 41.5H5.5C4.4 41.5 3.5 40.6 3.5 39.5V5.5C3.5 4.4 4.4 3.5 5.5 3.5H56.5C57.6 3.5 58.5 4.4 58.5 5.5V22" stroke="#0C1142" stroke-miterlimit="10"/>
<path d="M4 33.5H33" stroke="#0C1142" stroke-miterlimit="10"/>
<path d="M29.5 60.5H5.5C4.4 60.5 3.5 59.6 3.5 58.5V48.5C3.5 47.4 4.4 46.5 5.5 46.5H29.5C30.6 46.5 31.5 47.4 31.5 48.5V58.5C31.5 59.6 30.6 60.5 29.5 60.5Z" stroke="#0C1142" stroke-miterlimit="10"/>
<path d="M26.5 46.5V61" stroke="#0C1142" stroke-miterlimit="10"/>
<path d="M59 23H36C34.9 23 34 23.9 34 25V52H61V25C61 23.9 60.1 23 59 23Z" fill="url(#paint0_linear_1152_9)"/>
<path d="M43.2 38.1L46.7 41.6L54.5999 33.6" stroke="white" stroke-miterlimit="10"/>
<path d="M12.5 53.5L14.5 55.5L19.5 50.5" stroke="#0C1142" stroke-miterlimit="10"/>
<path d="M42.5 17.5L44.5 19.5L49.5 14.5" stroke="#0C1142" stroke-miterlimit="10"/>
<path d="M23.5 41V47" stroke="#0C1142" stroke-miterlimit="10"/>
<path d="M58.5 60.5H36.5C35.4 60.5 34.5 59.6 34.5 58.5V53.5H60.5V58.5C60.5 59.6 59.6 60.5 58.5 60.5Z" stroke="#0C1142" stroke-miterlimit="10"/>
<path d="M4 10.5H58.5" stroke="#0C1142" stroke-miterlimit="10"/>
<path d="M7 8C7.55228 8 8 7.55228 8 7C8 6.44772 7.55228 6 7 6C6.44772 6 6 6.44772 6 7C6 7.55228 6.44772 8 7 8Z" fill="#0C1142"/>
<path d="M10 8C10.5523 8 11 7.55228 11 7C11 6.44772 10.5523 6 10 6C9.44772 6 9 6.44772 9 7C9 7.55228 9.44772 8 10 8Z" fill="#0C1142"/>
<path d="M8 15.5H22" stroke="#0C1142" stroke-miterlimit="10"/>
<path d="M24 15.5H29" stroke="#0C1142" stroke-miterlimit="10"/>
<path d="M17 20.5H29" stroke="#0C1142" stroke-miterlimit="10"/>
<path d="M8 20.5H15" stroke="url(#paint1_linear_1152_9)" stroke-miterlimit="10"/>
<path d="M8 25.5H29" stroke="#0C1142" stroke-miterlimit="10"/>
<defs>
<linearGradient id="paint0_linear_1152_9" x1="34" y1="37.5" x2="61" y2="37.5" gradientUnits="userSpaceOnUse">
<stop stop-color="#2BD4DB" stop-opacity="0.8"/>
<stop offset="1" stop-color="#2BD4DB" stop-opacity="0.2"/>
</linearGradient>
<linearGradient id="paint1_linear_1152_9" x1="-nan" y1="-nan" x2="-nan" y2="-nan" gradientUnits="userSpaceOnUse">
<stop stop-color="#2BD4DB" stop-opacity="0.8"/>
<stop offset="1" stop-color="#2BD4DB" stop-opacity="0.2"/>
</linearGradient>
</defs>
</svg>
