<svg width="64" height="64" viewBox="0 0 64 64" fill="none" xmlns="http://www.w3.org/2000/svg">
<path d="M32 38C35.3137 38 38 35.3137 38 32C38 28.6863 35.3137 26 32 26C28.6863 26 26 28.6863 26 32C26 35.3137 28.6863 38 32 38Z" fill="url(#paint0_linear_1152_1)"/>
<path d="M54.5 25C56.433 25 58 23.433 58 21.5C58 19.567 56.433 18 54.5 18C52.567 18 51 19.567 51 21.5C51 23.433 52.567 25 54.5 25Z" fill="url(#paint1_linear_1152_1)"/>
<path d="M9.5 23C11.433 23 13 21.433 13 19.5C13 17.567 11.433 16 9.5 16C7.567 16 6 17.567 6 19.5C6 21.433 7.567 23 9.5 23Z" fill="url(#paint2_linear_1152_1)"/>
<path d="M26.5 12C28.433 12 30 10.433 30 8.5C30 6.567 28.433 5 26.5 5C24.567 5 23 6.567 23 8.5C23 10.433 24.567 12 26.5 12Z" fill="url(#paint3_linear_1152_1)"/>
<path d="M32.0001 20.5C38.3001 20.5 43.5001 25.6 43.5001 32C43.5001 38.4 38.4001 43.5 32.0001 43.5C31.0001 43.5 30.0001 43.4 29.1001 43.1" stroke="#0C1142" stroke-miterlimit="10"/>
<path d="M25.3 41.3C22.4 39.2 20.5 35.8 20.5 32" stroke="#0C1142" stroke-miterlimit="10"/>
<path d="M31 8.5H42.2L49.2 12.5H60.2" stroke="#0C1142" stroke-miterlimit="10"/>
<path d="M3 12.5H21.6L25.5 15.5" stroke="#0C1142" stroke-miterlimit="10"/>
<path d="M58.5 60.5H5.5C4.4 60.5 3.5 59.6 3.5 58.5V5.5C3.5 4.4 4.4 3.5 5.5 3.5H58.5C59.6 3.5 60.5 4.4 60.5 5.5V58.5C60.5 59.6 59.6 60.5 58.5 60.5Z" stroke="#0C1142" stroke-miterlimit="10"/>
<path d="M36.5 59C38.433 59 40 57.433 40 55.5C40 53.567 38.433 52 36.5 52C34.567 52 33 53.567 33 55.5C33 57.433 34.567 59 36.5 59Z" fill="url(#paint4_linear_1152_1)"/>
<path d="M32.1001 55.5H21.0001L14.0001 50.5H3.6001" stroke="#0C1142" stroke-miterlimit="10"/>
<path d="M61 50.5H42.4L39.5 47.5" stroke="#0C1142" stroke-miterlimit="10"/>
<path d="M54.5 26V29.5H49.7H49.3C48.1 21 40.8 14.5 32 14.5C23.5 14.5 16.5 20.5 14.9 28.5H14.1H9.5V24" stroke="#0C1142" stroke-miterlimit="10"/>
<path d="M3.5 37.5H14.5H15.4C17.7 44.5 24.3 49.5 32 49.5C40.8 49.5 48.1 43 49.3 34.5H50H60.3" stroke="#0C1142" stroke-miterlimit="10"/>
<defs>
<linearGradient id="paint0_linear_1152_1" x1="26.0066" y1="31.9933" x2="37.9934" y2="31.9933" gradientUnits="userSpaceOnUse">
<stop stop-color="#2BD4DB" stop-opacity="0.8"/>
<stop offset="1" stop-color="#2BD4DB" stop-opacity="0.2"/>
</linearGradient>
<linearGradient id="paint1_linear_1152_1" x1="52.0251" y1="23.9746" x2="56.9749" y2="19.0254" gradientUnits="userSpaceOnUse">
<stop stop-color="#2BD4DB" stop-opacity="0.8"/>
<stop offset="1" stop-color="#2BD4DB" stop-opacity="0.2"/>
</linearGradient>
<linearGradient id="paint2_linear_1152_1" x1="7.022" y1="21.9746" x2="11.9717" y2="17.0254" gradientUnits="userSpaceOnUse">
<stop stop-color="#2BD4DB" stop-opacity="0.8"/>
<stop offset="1" stop-color="#2BD4DB" stop-opacity="0.2"/>
</linearGradient>
<linearGradient id="paint3_linear_1152_1" x1="24.0251" y1="10.9707" x2="28.9749" y2="6.0215" gradientUnits="userSpaceOnUse">
<stop stop-color="#2BD4DB" stop-opacity="0.8"/>
<stop offset="1" stop-color="#2BD4DB" stop-opacity="0.2"/>
</linearGradient>
<linearGradient id="paint4_linear_1152_1" x1="38.9749" y1="57.979" x2="34.0252" y2="53.0292" gradientUnits="userSpaceOnUse">
<stop stop-color="#2BD4DB" stop-opacity="0.8"/>
<stop offset="1" stop-color="#2BD4DB" stop-opacity="0.2"/>
</linearGradient>
</defs>
</svg>
