<svg width="48" height="48" viewBox="0 0 48 48" fill="none" xmlns="http://www.w3.org/2000/svg">
<circle cx="24" cy="24" r="18" fill="url(#paint0_linear)"/>
<path d="M31.135 30.0627C31.7514 29.7141 32.5063 29.7174 33.1196 30.0715L37.625 32.6727C38.2438 33.0299 38.625 33.6902 38.625 34.4047V39.5953C38.625 40.3099 38.2438 40.9701 37.625 41.3274L33.1196 43.9286C32.5063 44.2827 31.7514 44.286 31.135 43.9373L26.5153 41.3243C25.8879 40.9694 25.5 40.3044 25.5 39.5835V34.4165C25.5 33.6957 25.8879 33.0306 26.5153 32.6757L31.135 30.0627Z" stroke="white" stroke-linecap="round"/>
<path d="M31.135 30.0627C31.7514 29.7141 32.5063 29.7174 33.1196 30.0715L37.625 32.6727C38.2438 33.0299 38.625 33.6902 38.625 34.4047V39.5953C38.625 40.3099 38.2438 40.9701 37.625 41.3274L33.1196 43.9286C32.5063 44.2827 31.7514 44.286 31.135 43.9373L26.5153 41.3243C25.8879 40.9694 25.5 40.3044 25.5 39.5835V34.4165C25.5 33.6957 25.8879 33.0306 26.5153 32.6757L31.135 30.0627Z" stroke="#AAEEF1" stroke-linecap="round"/>
<path d="M31.135 30.0627C31.7514 29.7141 32.5063 29.7174 33.1196 30.0715L37.625 32.6727C38.2438 33.0299 38.625 33.6902 38.625 34.4047V39.5953C38.625 40.3099 38.2438 40.9701 37.625 41.3274L33.1196 43.9286C32.5063 44.2827 31.7514 44.286 31.135 43.9373L26.5153 41.3243C25.8879 40.9694 25.5 40.3044 25.5 39.5835V34.4165C25.5 33.6957 25.8879 33.0306 26.5153 32.6757L31.135 30.0627Z" stroke="url(#paint1_linear)" stroke-linecap="round"/>
<path d="M38.9518 16.6451C39.5946 16.2495 40.4054 16.2495 41.0482 16.6451L45.5482 19.4143C46.1397 19.7783 46.5 20.4231 46.5 21.1176V25.8824C46.5 26.577 46.1397 27.2218 45.5482 27.5858L41.0482 30.355C40.4054 30.7506 39.5946 30.7506 38.9518 30.355L34.4518 27.5858C33.8603 27.2218 33.5 26.577 33.5 25.8824V21.1176C33.5 20.4231 33.8603 19.7783 34.4518 19.4143L38.9518 16.6451Z" stroke="white" stroke-linecap="round"/>
<path d="M38.9518 16.6451C39.5946 16.2495 40.4054 16.2495 41.0482 16.6451L45.5482 19.4143C46.1397 19.7783 46.5 20.4231 46.5 21.1176V25.8824C46.5 26.577 46.1397 27.2218 45.5482 27.5858L41.0482 30.355C40.4054 30.7506 39.5946 30.7506 38.9518 30.355L34.4518 27.5858C33.8603 27.2218 33.5 26.577 33.5 25.8824V21.1176C33.5 20.4231 33.8603 19.7783 34.4518 19.4143L38.9518 16.6451Z" stroke="#AAEEF1" stroke-linecap="round"/>
<path d="M38.9518 16.6451C39.5946 16.2495 40.4054 16.2495 41.0482 16.6451L45.5482 19.4143C46.1397 19.7783 46.5 20.4231 46.5 21.1176V25.8824C46.5 26.577 46.1397 27.2218 45.5482 27.5858L41.0482 30.355C40.4054 30.7506 39.5946 30.7506 38.9518 30.355L34.4518 27.5858C33.8603 27.2218 33.5 26.577 33.5 25.8824V21.1176C33.5 20.4231 33.8603 19.7783 34.4518 19.4143L38.9518 16.6451Z" stroke="url(#paint2_linear)" stroke-linecap="round"/>
<path d="M6.95181 16.6451C7.59462 16.2495 8.40538 16.2495 9.04819 16.6451L13.5482 19.4143C14.1397 19.7783 14.5 20.4231 14.5 21.1176V25.8824C14.5 26.577 14.1397 27.2218 13.5482 27.5858L9.04819 30.355C8.40538 30.7506 7.59462 30.7506 6.95181 30.355L2.45181 27.5858C1.86031 27.2218 1.5 26.577 1.5 25.8824V21.1176C1.5 20.4231 1.86031 19.7783 2.45181 19.4143L6.95181 16.6451Z" stroke="white" stroke-linecap="round"/>
<path d="M6.95181 16.6451C7.59462 16.2495 8.40538 16.2495 9.04819 16.6451L13.5482 19.4143C14.1397 19.7783 14.5 20.4231 14.5 21.1176V25.8824C14.5 26.577 14.1397 27.2218 13.5482 27.5858L9.04819 30.355C8.40538 30.7506 7.59462 30.7506 6.95181 30.355L2.45181 27.5858C1.86031 27.2218 1.5 26.577 1.5 25.8824V21.1176C1.5 20.4231 1.86031 19.7783 2.45181 19.4143L6.95181 16.6451Z" stroke="#AAEEF1" stroke-linecap="round"/>
<path d="M6.95181 16.6451C7.59462 16.2495 8.40538 16.2495 9.04819 16.6451L13.5482 19.4143C14.1397 19.7783 14.5 20.4231 14.5 21.1176V25.8824C14.5 26.577 14.1397 27.2218 13.5482 27.5858L9.04819 30.355C8.40538 30.7506 7.59462 30.7506 6.95181 30.355L2.45181 27.5858C1.86031 27.2218 1.5 26.577 1.5 25.8824V21.1176C1.5 20.4231 1.86031 19.7783 2.45181 19.4143L6.95181 16.6451Z" stroke="url(#paint3_linear)" stroke-linecap="round"/>
<path d="M14.9518 2.64504C15.5946 2.24947 16.4054 2.24947 17.0482 2.64504L21.5482 5.41428C22.1397 5.77827 22.5 6.42307 22.5 7.11759V11.8824C22.5 12.5769 22.1397 13.2217 21.5482 13.5857L17.0482 16.355C16.4054 16.7505 15.5946 16.7505 14.9518 16.355L10.4518 13.5857C9.86031 13.2217 9.5 12.5769 9.5 11.8824V7.11759C9.5 6.42307 9.86031 5.77827 10.4518 5.41427L14.9518 2.64504Z" stroke="#55587B" stroke-linecap="round"/>
<path d="M30.9518 2.64504C31.5946 2.24947 32.4054 2.24947 33.0482 2.64504L37.5482 5.41428C38.1397 5.77827 38.5 6.42307 38.5 7.11759V11.8824C38.5 12.5769 38.1397 13.2217 37.5482 13.5857L33.0482 16.355C32.4054 16.7505 31.5946 16.7505 30.9518 16.355L26.4518 13.5857C25.8603 13.2217 25.5 12.5769 25.5 11.8824V7.11759C25.5 6.42307 25.8603 5.77827 26.4518 5.41427L30.9518 2.64504Z" stroke="white" stroke-linecap="round"/>
<path d="M30.9518 2.64504C31.5946 2.24947 32.4054 2.24947 33.0482 2.64504L37.5482 5.41428C38.1397 5.77827 38.5 6.42307 38.5 7.11759V11.8824C38.5 12.5769 38.1397 13.2217 37.5482 13.5857L33.0482 16.355C32.4054 16.7505 31.5946 16.7505 30.9518 16.355L26.4518 13.5857C25.8603 13.2217 25.5 12.5769 25.5 11.8824V7.11759C25.5 6.42307 25.8603 5.77827 26.4518 5.41427L30.9518 2.64504Z" stroke="#AAEEF1" stroke-linecap="round"/>
<path d="M30.9518 2.64504C31.5946 2.24947 32.4054 2.24947 33.0482 2.64504L37.5482 5.41428C38.1397 5.77827 38.5 6.42307 38.5 7.11759V11.8824C38.5 12.5769 38.1397 13.2217 37.5482 13.5857L33.0482 16.355C32.4054 16.7505 31.5946 16.7505 30.9518 16.355L26.4518 13.5857C25.8603 13.2217 25.5 12.5769 25.5 11.8824V7.11759C25.5 6.42307 25.8603 5.77827 26.4518 5.41427L30.9518 2.64504Z" stroke="url(#paint4_linear)" stroke-linecap="round"/>
<path d="M14.9518 30.645C15.5946 30.2495 16.4054 30.2495 17.0482 30.645L21.5482 33.4143C22.1397 33.7783 22.5 34.4231 22.5 35.1176V39.8824C22.5 40.5769 22.1397 41.2217 21.5482 41.5857L17.0482 44.355C16.4054 44.7505 15.5946 44.7505 14.9518 44.355L10.4518 41.5857C9.86031 41.2217 9.5 40.5769 9.5 39.8824V35.1176C9.5 34.4231 9.86031 33.7783 10.4518 33.4143L14.9518 30.645Z" stroke="#55587B" stroke-linecap="round"/>
<defs>
<linearGradient id="paint0_linear" x1="42" y1="42" x2="28.308" y2="-0.759059" gradientUnits="userSpaceOnUse">
<stop stop-color="#3D4168"/>
<stop offset="1" stop-color="#0C1142"/>
</linearGradient>
<linearGradient id="paint1_linear" x1="45" y1="12.5007" x2="1.83" y2="44.7733" gradientUnits="userSpaceOnUse">
<stop stop-color="#2BD4DB" stop-opacity="0.8"/>
<stop offset="1" stop-color="#FFFFC8" stop-opacity="0.3"/>
</linearGradient>
<linearGradient id="paint2_linear" x1="45" y1="12.5007" x2="1.83" y2="44.7733" gradientUnits="userSpaceOnUse">
<stop stop-color="#2BD4DB" stop-opacity="0.8"/>
<stop offset="1" stop-color="#FFFFC8" stop-opacity="0.3"/>
</linearGradient>
<linearGradient id="paint3_linear" x1="45" y1="12.5007" x2="1.83" y2="44.7733" gradientUnits="userSpaceOnUse">
<stop stop-color="#2BD4DB" stop-opacity="0.8"/>
<stop offset="1" stop-color="#FFFFC8" stop-opacity="0.3"/>
</linearGradient>
<linearGradient id="paint4_linear" x1="38.0667" y1="-0.072488" x2="21.3181" y2="6.64281" gradientUnits="userSpaceOnUse">
<stop stop-color="#2BD4DB" stop-opacity="0.8"/>
<stop offset="1" stop-color="#FFFFC8" stop-opacity="0.3"/>
</linearGradient>
</defs>
</svg>
