<svg width="64" height="64" viewBox="0 0 64 64" fill="none" xmlns="http://www.w3.org/2000/svg">
<path d="M48 59.5H23.5C22.4 59.5 21.5 58.6 21.5 57.5V14.5C21.5 13.4 22.4 12.5 23.5 12.5H53.5C54.6 12.5 55.5 13.4 55.5 14.5V50" stroke="#0C1142" stroke-miterlimit="10"/>
<path d="M13 47.5H10.5C9.4 47.5 8.5 46.6 8.5 45.5V2.5C8.5 1.4 9.4 0.5 10.5 0.5H40.5C41.6 0.5 42.5 1.4 42.5 2.5V5" stroke="#0C1142" stroke-miterlimit="10"/>
<path d="M20 54H16.1C15 54 14 53.1 14 51.9V8C14 6.9 14.9 6 16 6H46.9C48.1 6 49 6.9 49 8.1V11H23C21.3 11 20 12.3 20 14V54Z" fill="url(#paint0_linear_5923_9808)"/>
<path d="M55.5 64C59.0899 64 62 61.0899 62 57.5C62 53.9101 59.0899 51 55.5 51C51.9101 51 49 53.9101 49 57.5C49 61.0899 51.9101 64 55.5 64Z" fill="url(#paint1_linear_5923_9808)"/>
<path d="M38.5 20V24" stroke="#0C1142" stroke-miterlimit="10"/>
<path d="M36.5 36V38" stroke="#0C1142" stroke-miterlimit="10"/>
<path d="M43 39V42.5C43 45 41 47 38.5 47C36 47 34 45 34 42.5V39H43ZM44 38H33V42.5C33 45.5 35.5 48 38.5 48C41.5 48 44 45.5 44 42.5V38Z" fill="#0C1142"/>
<path d="M38.5 52V48" stroke="#0C1142" stroke-miterlimit="10"/>
<path d="M38.5 25C41 25 43 27 43 29.5V33H34V29.5C34 27 36 25 38.5 25ZM38.5 24C35.5 24 33 26.5 33 29.5V34H44V29.5C44 26.5 41.5 24 38.5 24Z" fill="#0C1142"/>
<path d="M40.5 36V38" stroke="#0C1142" stroke-miterlimit="10"/>
<path d="M24.5 49V55.5C24.5 56.1 24.9 56.5 25.5 56.5H32" stroke="#0C1142" stroke-miterlimit="10"/>
<path d="M19 3.5H12.5C11.9 3.5 11.5 3.9 11.5 4.5V11" stroke="#0C1142" stroke-miterlimit="10"/>
<path d="M51 57.5H60" stroke="white" stroke-miterlimit="10"/>
<path d="M55.5 53V62" stroke="white" stroke-miterlimit="10"/>
<defs>
<linearGradient id="paint0_linear_5923_9808" x1="14" y1="30" x2="49" y2="30" gradientUnits="userSpaceOnUse">
<stop stop-color="#2BD4DB" stop-opacity="0.8"/>
<stop offset="1" stop-color="#2BD4DB" stop-opacity="0.2"/>
</linearGradient>
<linearGradient id="paint1_linear_5923_9808" x1="49" y1="57.5" x2="62" y2="57.5" gradientUnits="userSpaceOnUse">
<stop stop-color="#2BD4DB" stop-opacity="0.8"/>
<stop offset="1" stop-color="#2BD4DB" stop-opacity="0.2"/>
</linearGradient>
</defs>
</svg>
