<svg width="48" height="48" viewBox="0 0 48 48" fill="none" xmlns="http://www.w3.org/2000/svg">
<circle cx="29" cy="29" r="19" fill="url(#paint0_linear)"/>
<path d="M17 2.9032C16.219 5.24634 12.9662 7.59882 15.0002 9C15.4359 9.30017 15.8092 9.23025 16.2503 9.52257C18.2034 10.8171 17.4481 13.5087 16.2503 15.5226C15.8639 16.1721 15.5605 16.4928 15.0002 17C14.7027 17.2693 14.272 17.5616 13.9324 17.7771C13.5901 17.9943 13.1839 18.0778 12.7785 18.082C11.9552 18.0904 10.5441 18.2243 10.0002 19C9.07572 20.3183 9.86635 21.8567 11.0002 23C12.1607 24.1702 12.9424 23.0067 15.1002 24C16.3792 24.5888 16.7223 25.7099 18.1002 26C18.8645 26.1609 19.411 25.6324 20.1002 26C21.5209 26.7577 19.9646 28.6416 19.1002 30C18.5072 30.9319 17.7036 31.0748 17.1002 32C16.0124 33.6679 16.1374 37.042 16.5 39M4.56452 12.275C5.26152 12.275 5.69858 16.1964 5.78458 17.0404C5.79554 17.1479 5.81369 17.2512 5.84207 17.3555C6.03649 18.07 6.8769 21.0291 7.70022 21.9492C9.00222 23.4044 10.6724 23.289 11.7002 24.9492C12.3502 25.9993 10.9472 27.7738 11.1004 28.9992C11.1973 29.7742 11.0035 30.2242 11.1004 30.9992C11.2536 32.2246 11.9078 32.7793 12.1004 33.9992C12.2831 35.1564 12.1827 36.1338 12 37.291M33.586 34.7568C31.905 32.7475 32.3062 33.1101 30.8997 30.9C29.8514 29.2526 27.464 26.9034 27.8997 25C28.369 22.95 31.3284 24.3978 32.8997 23C33.9682 22.0495 34.6399 21.9192 34.9997 20C35.3216 18.2834 34.7462 16 32.9997 16C32.1265 16 31.8642 16.8765 30.9997 17C29.0667 17.2761 27.7721 15.7933 26.9997 14C25.6707 10.9146 31.8135 10.0399 32.5 6.5M39.5 21C39.5 31.4934 31.4934 39.5 21 39.5C10.5066 39.5 2.5 31.4934 2.5 21C2.5 10.5066 10.5066 2.5 21 2.5C31.4934 2.5 39.5 10.5066 39.5 21Z" stroke="white" stroke-linecap="round"/>
<path d="M17 2.9032C16.219 5.24634 12.9662 7.59882 15.0002 9C15.4359 9.30017 15.8092 9.23025 16.2503 9.52257C18.2034 10.8171 17.4481 13.5087 16.2503 15.5226C15.8639 16.1721 15.5605 16.4928 15.0002 17C14.7027 17.2693 14.272 17.5616 13.9324 17.7771C13.5901 17.9943 13.1839 18.0778 12.7785 18.082C11.9552 18.0904 10.5441 18.2243 10.0002 19C9.07572 20.3183 9.86635 21.8567 11.0002 23C12.1607 24.1702 12.9424 23.0067 15.1002 24C16.3792 24.5888 16.7223 25.7099 18.1002 26C18.8645 26.1609 19.411 25.6324 20.1002 26C21.5209 26.7577 19.9646 28.6416 19.1002 30C18.5072 30.9319 17.7036 31.0748 17.1002 32C16.0124 33.6679 16.1374 37.042 16.5 39M4.56452 12.275C5.26152 12.275 5.69858 16.1964 5.78458 17.0404C5.79554 17.1479 5.81369 17.2512 5.84207 17.3555C6.03649 18.07 6.8769 21.0291 7.70022 21.9492C9.00222 23.4044 10.6724 23.289 11.7002 24.9492C12.3502 25.9993 10.9472 27.7738 11.1004 28.9992C11.1973 29.7742 11.0035 30.2242 11.1004 30.9992C11.2536 32.2246 11.9078 32.7793 12.1004 33.9992C12.2831 35.1564 12.1827 36.1338 12 37.291M33.586 34.7568C31.905 32.7475 32.3062 33.1101 30.8997 30.9C29.8514 29.2526 27.464 26.9034 27.8997 25C28.369 22.95 31.3284 24.3978 32.8997 23C33.9682 22.0495 34.6399 21.9192 34.9997 20C35.3216 18.2834 34.7462 16 32.9997 16C32.1265 16 31.8642 16.8765 30.9997 17C29.0667 17.2761 27.7721 15.7933 26.9997 14C25.6707 10.9146 31.8135 10.0399 32.5 6.5M39.5 21C39.5 31.4934 31.4934 39.5 21 39.5C10.5066 39.5 2.5 31.4934 2.5 21C2.5 10.5066 10.5066 2.5 21 2.5C31.4934 2.5 39.5 10.5066 39.5 21Z" stroke="#AAEEF1" stroke-linecap="round"/>
<path d="M17 2.9032C16.219 5.24634 12.9662 7.59882 15.0002 9C15.4359 9.30017 15.8092 9.23025 16.2503 9.52257C18.2034 10.8171 17.4481 13.5087 16.2503 15.5226C15.8639 16.1721 15.5605 16.4928 15.0002 17C14.7027 17.2693 14.272 17.5616 13.9324 17.7771C13.5901 17.9943 13.1839 18.0778 12.7785 18.082C11.9552 18.0904 10.5441 18.2243 10.0002 19C9.07572 20.3183 9.86635 21.8567 11.0002 23C12.1607 24.1702 12.9424 23.0067 15.1002 24C16.3792 24.5888 16.7223 25.7099 18.1002 26C18.8645 26.1609 19.411 25.6324 20.1002 26C21.5209 26.7577 19.9646 28.6416 19.1002 30C18.5072 30.9319 17.7036 31.0748 17.1002 32C16.0124 33.6679 16.1374 37.042 16.5 39M4.56452 12.275C5.26152 12.275 5.69858 16.1964 5.78458 17.0404C5.79554 17.1479 5.81369 17.2512 5.84207 17.3555C6.03649 18.07 6.8769 21.0291 7.70022 21.9492C9.00222 23.4044 10.6724 23.289 11.7002 24.9492C12.3502 25.9993 10.9472 27.7738 11.1004 28.9992C11.1973 29.7742 11.0035 30.2242 11.1004 30.9992C11.2536 32.2246 11.9078 32.7793 12.1004 33.9992C12.2831 35.1564 12.1827 36.1338 12 37.291M33.586 34.7568C31.905 32.7475 32.3062 33.1101 30.8997 30.9C29.8514 29.2526 27.464 26.9034 27.8997 25C28.369 22.95 31.3284 24.3978 32.8997 23C33.9682 22.0495 34.6399 21.9192 34.9997 20C35.3216 18.2834 34.7462 16 32.9997 16C32.1265 16 31.8642 16.8765 30.9997 17C29.0667 17.2761 27.7721 15.7933 26.9997 14C25.6707 10.9146 31.8135 10.0399 32.5 6.5M39.5 21C39.5 31.4934 31.4934 39.5 21 39.5C10.5066 39.5 2.5 31.4934 2.5 21C2.5 10.5066 10.5066 2.5 21 2.5C31.4934 2.5 39.5 10.5066 39.5 21Z" stroke="url(#paint1_linear)" stroke-linecap="round"/>
<defs>
<linearGradient id="paint0_linear" x1="48" y1="48" x2="33.5473" y2="2.86544" gradientUnits="userSpaceOnUse">
<stop stop-color="#3D4168"/>
<stop offset="1" stop-color="#0C1142"/>
</linearGradient>
<linearGradient id="paint1_linear" x1="33" y1="6" x2="-9.22215" y2="32.4877" gradientUnits="userSpaceOnUse">
<stop stop-color="#2BD4DB" stop-opacity="0.8"/>
<stop offset="1" stop-color="#FFFFC8" stop-opacity="0.3"/>
</linearGradient>
</defs>
</svg>
