<svg width="64" height="64" viewBox="0 0 64 64" fill="none" xmlns="http://www.w3.org/2000/svg">
<path d="M62 38H15C13.9 38 13 37.1 13 36V28C13 26.9 13.9 26 15 26H62C63.1 26 64 26.9 64 28V36C64 37.1 63.1 38 62 38Z" fill="url(#paint0_linear_1152_29)"/>
<path d="M22.5 34.5L17.5 29.5" stroke="white" stroke-miterlimit="10"/>
<path d="M48.5 19.5H2.5C1.4 19.5 0.5 18.6 0.5 17.5V10.5C0.5 9.4 1.4 8.5 2.5 8.5H48.5C49.6 8.5 50.5 9.4 50.5 10.5V17.5C50.5 18.6 49.6 19.5 48.5 19.5Z" stroke="#0C1142" stroke-miterlimit="10"/>
<path d="M46 33.5H30" stroke="white" stroke-miterlimit="10"/>
<path d="M55 33.5H48" stroke="white" stroke-miterlimit="10"/>
<path d="M10.5 11.5L6.5 15.5L4.5 13.5" stroke="#0C1142" stroke-miterlimit="10"/>
<path d="M10.5 47.5L6.5 51.5L4.5 49.5" stroke="#0C1142" stroke-miterlimit="10"/>
<path d="M30 30.5H59" stroke="white" stroke-miterlimit="10"/>
<path d="M30 15.5H14" stroke="#0C1142" stroke-miterlimit="10"/>
<path d="M39 15.5H32" stroke="#0C1142" stroke-miterlimit="10"/>
<path d="M14 12.5H46" stroke="#0C1142" stroke-miterlimit="10"/>
<path d="M48.5 55.5H2.5C1.4 55.5 0.5 54.6 0.5 53.5V46.5C0.5 45.4 1.4 44.5 2.5 44.5H48.5C49.6 44.5 50.5 45.4 50.5 46.5V53.5C50.5 54.6 49.6 55.5 48.5 55.5Z" stroke="#0C1142" stroke-miterlimit="10"/>
<path d="M30 51.5H14" stroke="#0C1142" stroke-miterlimit="10"/>
<path d="M39 51.5H29" stroke="#0C1142" stroke-miterlimit="10"/>
<path d="M26 48.5H43" stroke="#0C1142" stroke-miterlimit="10"/>
<path d="M14 48.5H24" stroke="#0C1142" stroke-miterlimit="10"/>
<path d="M22.5 29.5L17.5 34.5" stroke="white" stroke-miterlimit="10"/>
<defs>
<linearGradient id="paint0_linear_1152_29" x1="13" y1="32" x2="64" y2="32" gradientUnits="userSpaceOnUse">
<stop stop-color="#2BD4DB" stop-opacity="0.8"/>
<stop offset="1" stop-color="#2BD4DB" stop-opacity="0.2"/>
</linearGradient>
</defs>
</svg>
