<svg width="64" height="64" viewBox="0 0 64 64" fill="none" xmlns="http://www.w3.org/2000/svg">
<path d="M58 43.5H31" stroke="#0C1142" stroke-miterlimit="10"/>
<path d="M58 43.5H31" stroke="#0C1142" stroke-miterlimit="10"/>
<path d="M38 48.5H31" stroke="#0C1142" stroke-miterlimit="10"/>
<path d="M38 48.5H31" stroke="#0C1142" stroke-miterlimit="10"/>
<path d="M58 48.5H40" stroke="#0C1142" stroke-miterlimit="10"/>
<path d="M58 48.5H40" stroke="#0C1142" stroke-miterlimit="10"/>
<path d="M39 29V43H35V29H39ZM40 28H39H35H34V29V43V44H35H39H40V43V29V28Z" fill="#0C1142"/>
<path d="M47 12H42V43H47V12Z" fill="url(#paint0_linear)"/>
<path d="M54 22V43H50V22H54ZM55 21H54H50H49V22V43V44H50H54H55V43V22V21Z" fill="#0C1142"/>
<path d="M15 43.5H26" stroke="#0C1142" stroke-miterlimit="10"/>
<path d="M6 43.5H13" stroke="#0C1142" stroke-miterlimit="10"/>
<path d="M22 48.5H26" stroke="#0C1142" stroke-miterlimit="10"/>
<path d="M18 48.5H20" stroke="#0C1142" stroke-miterlimit="10"/>
<path d="M6 48.5H16" stroke="#0C1142" stroke-miterlimit="10"/>
<path d="M7.7 23.5H24.3C25 23.5 25.5 24 25.5 24.7V35.3C25.5 36 25 36.5 24.3 36.5H7.7C7 36.5 6.5 36 6.5 35.3V24.7C6.5 24 7 23.5 7.7 23.5Z" stroke="#0C1142" stroke-miterlimit="10"/>
<path d="M9 33.5H23" stroke="#0C1142" stroke-miterlimit="10"/>
<path d="M21 30C22.1046 30 23 29.1046 23 28C23 26.8954 22.1046 26 21 26C19.8954 26 19 26.8954 19 28C19 29.1046 19.8954 30 21 30Z" fill="url(#paint1_linear)"/>
<path d="M18 30C19.1046 30 20 29.1046 20 28C20 26.8954 19.1046 26 18 26C16.8954 26 16 26.8954 16 28C16 29.1046 16.8954 30 18 30Z" fill="url(#paint2_linear)"/>
<path d="M62 9C62.6 9 63 9.4 63 10V54C63 54.6 62.6 55 62 55H2C1.4 55 1 54.6 1 54V10C1 9.4 1.4 9 2 9H62ZM62 8H2C0.9 8 0 8.9 0 10V54C0 55.1 0.9 56 2 56H62C63.1 56 64 55.1 64 54V10C64 8.9 63.1 8 62 8Z" fill="#0C1142"/>
<path d="M4 13C4.55228 13 5 12.5523 5 12C5 11.4477 4.55228 11 4 11C3.44772 11 3 11.4477 3 12C3 12.5523 3.44772 13 4 13Z" fill="#0C1142"/>
<path d="M7 13C7.55228 13 8 12.5523 8 12C8 11.4477 7.55228 11 7 11C6.44772 11 6 11.4477 6 12C6 12.5523 6.44772 13 7 13Z" fill="#0C1142"/>
<path d="M48 15.5H64" stroke="#0C1142" stroke-miterlimit="10"/>
<path d="M0.199951 15.5H41" stroke="#0C1142" stroke-miterlimit="10"/>
<defs>
<linearGradient id="paint0_linear" x1="44.5" y1="43" x2="44.5" y2="12" gradientUnits="userSpaceOnUse">
<stop stop-color="#2BD4DB" stop-opacity="0.2"/>
<stop offset="1" stop-color="#2BD4DB" stop-opacity="0.8"/>
</linearGradient>
<linearGradient id="paint1_linear" x1="23" y1="28" x2="19" y2="28" gradientUnits="userSpaceOnUse">
<stop stop-color="#2BD4DB" stop-opacity="0.8"/>
<stop offset="1" stop-color="#2BD4DB" stop-opacity="0.2"/>
</linearGradient>
<linearGradient id="paint2_linear" x1="20" y1="28" x2="16" y2="28" gradientUnits="userSpaceOnUse">
<stop stop-color="#2BD4DB" stop-opacity="0.8"/>
<stop offset="1" stop-color="#2BD4DB" stop-opacity="0.2"/>
</linearGradient>
</defs>
</svg>
