<svg width="64" height="64" viewBox="0 0 64 64" fill="none" xmlns="http://www.w3.org/2000/svg">
<path d="M48 41V34L41.5 30L35 34V41L41.5 45L48 41Z" fill="url(#paint0_linear_5923_9803)"/>
<path d="M39 26V19L32.5 15L26 19V26L32.5 30L39 26Z" fill="url(#paint1_linear_5923_9803)"/>
<path d="M30 41V34L23.5 30L17 34V41L23.5 45L30 41Z" fill="url(#paint2_linear_5923_9803)"/>
<path d="M32 10C44.2 10 54 19.8 54 32C54 44.2 44.2 54 32 54C19.8 54 10 44.2 10 32C10 19.8 19.8 10 32 10ZM32 9C19.3 9 9 19.3 9 32C9 44.7 19.3 55 32 55C44.7 55 55 44.7 55 32C55 19.3 44.7 9 32 9Z" fill="#0C1142"/>
<path d="M51.5 15.5V11.5H55.5" stroke="#0C1142" stroke-miterlimit="10"/>
<path d="M47 60.5H63" stroke="#0C1142" stroke-miterlimit="10"/>
<path d="M60.1 57.6L63 60.5L60.1 63.4" stroke="#0C1142" stroke-miterlimit="10"/>
<path d="M44 27C44.5523 27 45 26.5523 45 26C45 25.4477 44.5523 25 44 25C43.4477 25 43 25.4477 43 26C43 26.5523 43.4477 27 44 27Z" fill="#0C1142"/>
<path d="M21 27C21.5523 27 22 26.5523 22 26C22 25.4477 21.5523 25 21 25C20.4477 25 20 25.4477 20 26C20 26.5523 20.4477 27 21 27Z" fill="#0C1142"/>
<path d="M32.5 46C33.0523 46 33.5 45.5523 33.5 45C33.5 44.4477 33.0523 44 32.5 44C31.9477 44 31.5 44.4477 31.5 45C31.5 45.5523 31.9477 46 32.5 46Z" fill="#0C1142"/>
<path d="M51.8 11.5C57.2 16.7 60.5 24 60.5 32C60.5 47.7 47.7 60.5 32 60.5H30.2H0" stroke="#0C1142" stroke-miterlimit="10"/>
<path d="M16.6 55.9C13.6 53.9 10.9 51.4 8.8 48.5C5.5 43.8 3.5 38.1 3.5 32C3.5 16.2 16.3 3.5 32 3.5C37.3 3.5 42.2 4.9 46.5 7.4" stroke="#0C1142" stroke-miterlimit="10"/>
<defs>
<linearGradient id="paint0_linear_5923_9803" x1="36.4825" y1="42.5011" x2="46.4825" y2="32.5011" gradientUnits="userSpaceOnUse">
<stop stop-color="#2BD4DB" stop-opacity="0.8"/>
<stop offset="1" stop-color="#2BD4DB" stop-opacity="0.2"/>
</linearGradient>
<linearGradient id="paint1_linear_5923_9803" x1="27.4781" y1="27.5011" x2="37.4781" y2="17.5011" gradientUnits="userSpaceOnUse">
<stop stop-color="#2BD4DB" stop-opacity="0.8"/>
<stop offset="1" stop-color="#2BD4DB" stop-opacity="0.2"/>
</linearGradient>
<linearGradient id="paint2_linear_5923_9803" x1="18.4781" y1="42.5011" x2="28.4781" y2="32.5011" gradientUnits="userSpaceOnUse">
<stop stop-color="#2BD4DB" stop-opacity="0.8"/>
<stop offset="1" stop-color="#2BD4DB" stop-opacity="0.2"/>
</linearGradient>
</defs>
</svg>
