<svg width="64" height="64" viewBox="0 0 64 64" fill="none" xmlns="http://www.w3.org/2000/svg">
<g clip-path="url(#clip0_1152_4)">
<path d="M11 0C4.9 0 0 4.8 0 10.7C0 18.6 11 31 11 31C11 31 22 18.6 22 10.7C22 4.8 17.1 0 11 0Z" fill="url(#paint0_linear_1152_4)"/>
<path d="M11 13.6C8.8 13.6 7 11.8 7 9.60001C7 7.40001 8.8 5.60001 11 5.60001C13.2 5.60001 15 7.40001 15 9.60001C15 11.8 13.2 13.6 11 13.6Z" fill="white"/>
<path d="M48 12.9C43.6 12.9 40 16.5 40 20.8C40 26.7 48 35.9 48 35.9C48 35.9 56 26.7 56 20.8C56 16.5 52.4 12.9 48 12.9Z" fill="url(#paint1_linear_1152_4)"/>
<path d="M48 23C46.3 23 45 21.7 45 20C45 18.3 46.3 17 48 17C49.7 17 51 18.3 51 20C51 21.7 49.7 23 48 23Z" fill="white"/>
<path d="M32 44.5C28.7 44.5 26 47.1 26 50.4C26 54.7 32 61.5 32 61.5C32 61.5 38 54.7 38 50.4C38 47.2 35.3 44.5 32 44.5Z" fill="url(#paint2_linear_1152_4)"/>
<path d="M32 52C30.9 52 30 51.1 30 50C30 48.9 30.9 48 32 48C33.1 48 34 48.9 34 50C34 51.1 33.1 52 32 52Z" fill="white"/>
<path d="M61.7 20.2C56.7 7.6 44.7 0 32 0V1C35.8 1 39.4 1.7 42.8 2.9C41.9 4.8 40.6 6.7 39 8.4C31.7 4 24.2 3.2 21 3C24.5 1.7 28.2 1 32 1V0C28 0 24 0.7 20.2 2.3C20 2.4 19.8 2.5 19.6 2.5C20.3 3.2 20.9 4 21.5 4.9C23.6 6.1 27 8.8 31.1 14.5C28.1 16.2 24.7 17.6 21.3 18.6L20.5 19.8C21.4 24 22.9 29 25.1 34.7C25.7 36.2 26.3 37.6 26.9 38.9C22.9 40.1 18.7 40.8 14.6 40.9C14.4 40.4 14.2 39.9 14 39.4C13.1 36.6 12.5 33.8 12.2 31.2C12 31.5 11.8 31.7 11.8 31.7L11.3 32.2C11.6 34.6 12.2 37.1 13 39.7C13.1 40.1 13.3 40.5 13.4 40.9C9.20001 40.8 5.10001 40 1.60001 38.2C0.500012 32.5 1.00001 26.8 2.90001 21.5C2.70001 21.1 2.50001 20.7 2.20001 20.3C-0.599988 27.6 -0.799988 35.9 2.30001 43.8C4.20001 48.7 7.20001 52.8 10.9 56V56.1H11C16.8 61.1 24.3 64 32 64C35.9 64 40 63.3 43.8 61.7C60.3 55.2 68.3 36.6 61.7 20.2ZM22 4.1C25.4 4.4 31.9 5.4 38.2 9.2C36.4 11 34.2 12.6 31.9 14.1C27.8 8.1 24.2 5.4 22 4.1ZM26 34.3C23.8 28.7 22.3 23.8 21.4 19.5C25 18.5 28.4 17 31.6 15.3C33.6 18.3 35.8 22 38.1 26.7C39 28.8 39.8 30.9 40.4 32.9C39.8 33.3 39.1 33.7 38.5 34C35.3 35.8 31.7 37.3 27.9 38.5C27.2 37.2 26.6 35.8 26 34.3ZM3.20001 43.5C2.70001 42.2 2.20001 40.8 1.90001 39.4C5.50001 41.1 9.60001 41.8 13.9 41.8C16.9 49 21.5 53.5 26.2 56.3C21.5 56.6 16.6 56.2 11.4 55.1C7.90001 52.1 5.10001 48.1 3.20001 43.5ZM42.8 61C39.3 62.3 35.7 63 32 63V63.1L31.9 63C24.9 63 18.3 60.6 13 56.5C16.4 57.1 19.8 57.5 23 57.5C24.6 57.5 26.1 57.4 27.6 57.3C27.2 56.7 26.9 56.1 26.5 55.4C22.1 52.7 17.8 48.5 14.9 41.8C19 41.7 23.2 40.9 27.2 39.7C27.9 41.2 28.7 42.6 29.4 43.9C29.7 43.8 30 43.7 30.4 43.6C29.6 42.3 28.9 40.9 28.2 39.4C32 38.2 35.6 36.6 38.9 34.8C39.5 34.5 40.1 34.1 40.7 33.8C42.9 40.8 43.8 47 44.1 51.6C42.2 52.5 40.2 53.4 38.1 54.1L37.8 55.3C40 57.6 41.9 59.2 43 60.1C41.4 60.1 38.6 59.9 35.3 59.1C35.1 59.4 34.9 59.7 34.7 60C38.1 60.8 41 61 42.8 61ZM44.1 59.6C43.1 58.9 41.2 57.4 38.8 54.9C40.7 54.3 42.4 53.5 44.1 52.7C44.3 56 44.2 58.4 44.1 59.6ZM41.5 33.3C42.2 32.8 42.9 32.4 43.6 31.9C43.4 31.6 43.2 31.4 43 31.1C42.4 31.5 41.8 31.9 41.1 32.4C40.4 30.4 39.7 28.4 38.8 26.3C36.6 21.6 34.4 17.8 32.3 14.8C34.8 13.3 37.1 11.6 39 9.7C40.5 10.7 42 11.8 43.4 13.1C43.7 12.9 44 12.8 44.3 12.6C43 11.2 41.4 10 39.8 9C41.5 7.2 42.8 5.3 43.7 3.3C48.5 5.3 52.8 8.4 56.1 12.5H56C55.9 13.6 55.7 14.8 55.4 15.9C55.7 16.3 55.9 16.7 56.1 17.1C56.5 15.9 56.8 14.8 56.9 13.6C58.5 15.7 59.8 18 60.8 20.6C62.2 24.1 62.9 27.8 63 31.5C61.2 36.6 57.9 41.4 53.5 45.4C54.8 40.8 55.2 35.4 53.9 29.6C53.6 30 53.4 30.4 53.1 30.8C54.2 36.7 53.5 42.1 52 46.6C49.9 48.3 47.5 49.9 45 51.3C44.7 46.4 43.7 40.3 41.5 33.3ZM45.1 52.2C47.4 51 49.5 49.7 51.4 48.2C49.4 53.4 46.6 57.2 45.1 59C45.2 57.6 45.3 55.3 45.1 52.2ZM60.5 44.2C57.6 51 52.4 56.4 45.9 59.7C47.6 57.7 50.9 53.2 52.9 47.1C57.3 43.4 60.7 39 62.9 34.3C62.7 37.7 61.9 41 60.5 44.2Z" fill="#0C1142"/>
</g>
<defs>
<linearGradient id="paint0_linear_1152_4" x1="1.9507" y1="23.2639" x2="18.4445" y2="3.3555" gradientUnits="userSpaceOnUse">
<stop stop-color="#2BD4DB" stop-opacity="0.2"/>
<stop offset="1" stop-color="#55DDE2" stop-opacity="0.8"/>
</linearGradient>
<linearGradient id="paint1_linear_1152_4" x1="41.2802" y1="30.2202" x2="53.4762" y2="15.4994" gradientUnits="userSpaceOnUse">
<stop stop-color="#2BD4DB" stop-opacity="0.2"/>
<stop offset="1" stop-color="#55DDE2" stop-opacity="0.8"/>
</linearGradient>
<linearGradient id="paint2_linear_1152_4" x1="27.0208" y1="57.3091" x2="36.0575" y2="46.4017" gradientUnits="userSpaceOnUse">
<stop stop-color="#2BD4DB" stop-opacity="0.2"/>
<stop offset="1" stop-color="#55DDE2" stop-opacity="0.8"/>
</linearGradient>
<clipPath id="clip0_1152_4">
<rect width="64" height="64" fill="white"/>
</clipPath>
</defs>
</svg>
