<svg width="48" height="48" viewBox="0 0 48 48" fill="none" xmlns="http://www.w3.org/2000/svg">
<path d="M48 19C48 29.4934 39.4934 38 29 38C18.5066 38 10 29.4934 10 19C10 8.50659 18.5066 0 29 0C39.4934 0 48 8.50659 48 19Z" fill="url(#paint0_linear)"/>
<path d="M23.5 38V40V42M14 42.5H24H34M40.33 21.5C40.33 22.7084 39.8894 24.3296 39.1549 25.2892C38.4205 26.2487 37.3905 26.9398 36.2241 27.2554C35.0577 27.5711 33.8198 27.4939 32.7017 27.0356C31.5835 26.5774 30.6474 25.7637 30.038 24.7203C29.4286 23.6768 29.1798 22.4617 29.33 21.2627C29.4802 20.0637 30.0211 18.9475 30.8691 18.0867C31.7171 17.2258 32.825 16.6682 34.0217 16.5C35.2183 16.3318 36.437 16.5623 37.4895 17.156L34.83 21.5H40.33ZM4.5 37.5H43.5C44.6046 37.5 45.5 36.6046 45.5 35.5V9.5C45.5 8.39543 44.6046 7.5 43.5 7.5H4.5C3.39543 7.5 2.5 8.39543 2.5 9.5V35.5C2.5 36.6046 3.39543 37.5 4.5 37.5Z" stroke="#AAEEF1" stroke-linecap="round"/>
<path d="M23.5 38V40V42M14 42.5H24H34M40.33 21.5C40.33 22.7084 39.8894 24.3296 39.1549 25.2892C38.4205 26.2487 37.3905 26.9398 36.2241 27.2554C35.0577 27.5711 33.8198 27.4939 32.7017 27.0356C31.5835 26.5774 30.6474 25.7637 30.038 24.7203C29.4286 23.6768 29.1798 22.4617 29.33 21.2627C29.4802 20.0637 30.0211 18.9475 30.8691 18.0867C31.7171 17.2258 32.825 16.6682 34.0217 16.5C35.2183 16.3318 36.437 16.5623 37.4895 17.156L34.83 21.5H40.33ZM4.5 37.5H43.5C44.6046 37.5 45.5 36.6046 45.5 35.5V9.5C45.5 8.39543 44.6046 7.5 43.5 7.5H4.5C3.39543 7.5 2.5 8.39543 2.5 9.5V35.5C2.5 36.6046 3.39543 37.5 4.5 37.5Z" stroke="url(#paint1_linear)" stroke-linecap="round"/>
<path d="M7.83008 16.5H20.8301M7.83008 20.5H15.8301M7.83008 24.5H12.8301" stroke="#AAEEF1" stroke-linecap="round"/>
<path d="M7.83008 16.5H20.8301M7.83008 20.5H15.8301M7.83008 24.5H12.8301" stroke="url(#paint2_linear)" stroke-linecap="round"/>
<defs>
<linearGradient id="paint0_linear" x1="48" y1="38" x2="33.5473" y2="-7.13456" gradientUnits="userSpaceOnUse">
<stop stop-color="#3D4168"/>
<stop offset="1" stop-color="#0C1142"/>
</linearGradient>
<linearGradient id="paint1_linear" x1="67.5375" y1="-21.375" x2="28.7008" y2="62.1239" gradientUnits="userSpaceOnUse">
<stop stop-color="#2BD4DB" stop-opacity="0.8"/>
<stop offset="1" stop-color="#FFFFC8" stop-opacity="0.3"/>
</linearGradient>
<linearGradient id="paint2_linear" x1="27.4926" y1="9.9" x2="20.2277" y2="30.5596" gradientUnits="userSpaceOnUse">
<stop stop-color="#2BD4DB" stop-opacity="0.8"/>
<stop offset="1" stop-color="#FFFFC8" stop-opacity="0.3"/>
</linearGradient>
</defs>
</svg>
