<svg width="456" height="184" viewBox="0 0 456 184" fill="none" xmlns="http://www.w3.org/2000/svg">
<g clip-path="url(#clip0_1_1027)">
<rect width="456" height="184" rx="8" fill="white"/>
<path d="M69.5 95H68.5V233H69.5V95Z" fill="#E8E6E6"/>
<path d="M116.5 95H115.5V233H116.5V95Z" fill="#E8E6E6"/>
<path d="M163.5 95H162.5V233H163.5V95Z" fill="#E8E6E6"/>
<path d="M205.5 95H204.5V233H205.5V95Z" fill="#E8E6E6"/>
<path d="M251.5 95H250.5V233H251.5V95Z" fill="#E8E6E6"/>
<path d="M298.5 95H297.5V233H298.5V95Z" fill="#E8E6E6"/>
<path d="M345.5 95H344.5V233H345.5V95Z" fill="#E8E6E6"/>
<path d="M387.5 95H386.5V233H387.5V95Z" fill="#E8E6E6"/>
<path d="M434.5 95H433.5V233H434.5V95Z" fill="#E8E6E6"/>
<path d="M514.4 125.8L523.5 95.8L521.6 95.2L512.5 125.2L514.4 125.8ZM505 134.2L514.1 126.2L512.8 124.7L503.7 132.7L505 134.2ZM486.9 134.2L496 126.2L494.7 124.7L485.6 132.7L486.9 134.2ZM477.9 143.2L487 134.2L485.6 132.8L476.5 141.8L477.9 143.2ZM494.6 126.2L503.7 134.2L505 132.7L495.9 124.7L494.6 126.2ZM459.9 146L469 129.2L467.2 128.3L458.1 145.1L459.9 146ZM450.5 152.8L459.6 146.3L458.4 144.7L449.3 151.2L450.5 152.8ZM467.2 129.2L476.3 143L478 141.9L468.9 128.1L467.2 129.2ZM441.5 160.8L450.6 152.8L449.3 151.3L440.2 159.3L441.5 160.8ZM432.7 175.5L441.8 160.5L440.1 159.5L431 174.5L432.7 175.5ZM403.6 137.3L412.7 162.8L414.6 162.1L405.5 136.6L403.6 137.3ZM395.2 134.4L404.3 137.9L405 136L395.9 132.5L395.2 134.4ZM413.1 163.4L422.2 168.9L423.2 167.2L414.1 161.7L413.1 163.4ZM422.1 168.8L431.2 175.8L432.4 174.2L423.3 167.2L422.1 168.8ZM351.1 146L360.2 129.2L358.4 128.3L349.3 145.1L351.1 146ZM340.2 125.9L349.3 145.9L351.1 145.1L342 125.1L340.2 125.9ZM367.4 119.9L376.5 139.9L378.3 139.1L369.2 119.1L367.4 119.9ZM360 129.4L369.1 120.2L367.7 118.8L358.6 128L360 129.4ZM386.5 134.5H395.6V132.5H386.5V134.5ZM377.9 140.3L387 134.3L385.9 132.6L376.8 138.6L377.9 140.3ZM322.4 134.3L331.5 140.3L332.6 138.6L323.5 132.6L322.4 134.3ZM314.4 140.3L323.5 134.3L322.4 132.6L313.3 138.6L314.4 140.3ZM305.1 143.4L314.2 140.4L313.6 138.5L304.5 141.5L305.1 143.4ZM295 134.2L304.1 143.2L305.5 141.8L296.4 132.8L295 134.2ZM332.9 140L342 126L340.3 124.9L331.2 138.9L332.9 140ZM277.9 140.5L287 138L286.5 136.1L277.4 138.6L277.9 140.5ZM268.3 138L277.4 140.5L277.9 138.6L268.8 136.1L268.3 138ZM260 143.4L269.1 137.9L268.1 136.2L259 141.7L260 143.4ZM250.4 143.5H259.5V141.5H250.4V143.5ZM241.6 146.4L250.7 143.4L250.1 141.5L241 144.5L241.6 146.4ZM231.3 110.2L240.4 145.7L242.3 145.2L233.2 109.7L231.3 110.2ZM214.6 134.4L223.7 129.6L222.8 127.8L213.7 132.6L214.6 134.4ZM205.8 146.1L214.9 134.1L213.3 132.9L204.2 144.9L205.8 146.1ZM224.1 129.1L233.2 110.4L231.4 109.5L222.3 128.2L224.1 129.1ZM196 146.5H205.1V144.5H196V146.5ZM187.8 168.4L196.9 145.9L195 145.2L185.9 167.7L187.8 168.4ZM177.2 160.8L186.3 168.8L187.6 167.3L178.5 159.3L177.2 160.8ZM167.8 137.4L176.9 160.4L178.8 159.7L169.7 136.7L167.8 137.4ZM159.3 134.4L168.4 137.9L169.1 136L160 132.5L159.3 134.4ZM141.2 143.4L150.3 146.4L150.9 144.5L141.8 141.5L141.2 143.4ZM133.1 150.3L142.2 143.3L141 141.7L131.9 148.7L133.1 150.3ZM151.4 146.1L160.5 134.1L158.9 132.9L149.8 144.9L151.4 146.1ZM124.2 163.1L133.3 150.1L131.7 149L122.6 162L124.2 163.1ZM113.4 142.9L122.5 162.9L124.3 162.1L115.2 142.1L113.4 142.9ZM106.2 168.3L115.3 142.8L113.4 142.1L104.3 167.6L106.2 168.3ZM95.7 163.4L104.8 168.9L105.8 167.2L96.7 161.7L95.7 163.4ZM86.3 146L95.4 163L97.2 162.1L88 145L86.3 146ZM78.9 160.5L88 146L86.3 144.9L77.2 159.4L78.9 160.5ZM68.1 137.4L77.2 160.4L79.1 159.7L70 136.7L68.1 137.4ZM287 137.9L296.1 134.4L295.4 132.5L286.3 136L287 137.9ZM513.4 125.5L514.1 126.2C514.2 126.1 514.3 125.9 514.4 125.7L513.4 125.5ZM504.4 133.5L503.7 134.2C504.1 134.5 504.6 134.5 505 134.2L504.4 133.5ZM495.3 125.5L496 124.8C495.6 124.5 495.1 124.5 494.7 124.8L495.3 125.5ZM459 145.5L459.6 146.3C459.7 146.2 459.8 146.1 459.9 146L459 145.5ZM468.1 128.7L468.9 128.2C468.7 127.9 468.4 127.7 468 127.7C467.6 127.7 467.3 127.9 467.2 128.2L468.1 128.7ZM477.1 142.5L476.3 143C476.5 143.3 476.7 143.4 477 143.4C477.3 143.4 477.6 143.3 477.8 143.1L477.1 142.5ZM440.9 160L440.2 159.3C440.1 159.4 440.1 159.4 440 159.5L440.9 160ZM404.6 137L405.5 136.7C405.4 136.4 405.2 136.2 404.9 136.1L404.6 137ZM413.7 162.5L412.8 162.8C412.9 163 413 163.2 413.2 163.3L413.7 162.5ZM431.8 175L431.2 175.8C431.4 176 431.7 176 432 176C432.3 175.9 432.5 175.8 432.7 175.5L431.8 175ZM422.7 168L423.3 167.2C423.3 167.2 423.2 167.2 423.2 167.1L422.7 168ZM350.2 145.5L349.3 145.9C349.5 146.2 349.8 146.5 350.2 146.5C350.6 146.5 350.9 146.3 351.1 146L350.2 145.5ZM368.3 119.5L369.2 119.1C369.1 118.8 368.8 118.6 368.5 118.5C368.2 118.4 367.8 118.5 367.6 118.8L368.3 119.5ZM386.5 133.5V132.5C386.3 132.5 386.1 132.6 385.9 132.7L386.5 133.5ZM359.2 128.7L358.5 128C358.4 128.1 358.4 128.1 358.3 128.2L359.2 128.7ZM377.4 139.5L376.5 139.9C376.6 140.2 376.9 140.4 377.1 140.4C377.4 140.5 377.7 140.4 377.9 140.3L377.4 139.5ZM323 133.5L323.6 132.7C323.3 132.5 322.8 132.5 322.5 132.7L323 133.5ZM304.8 142.5L304.1 143.2C304.4 143.5 304.8 143.6 305.1 143.4L304.8 142.5ZM313.9 139.5L314.2 140.4C314.3 140.4 314.4 140.3 314.4 140.3L313.9 139.5ZM332 139.5L331.4 140.3C331.6 140.4 331.9 140.5 332.2 140.4C332.5 140.3 332.7 140.2 332.8 140L332 139.5ZM277.6 139.5L277.3 140.5C277.5 140.5 277.7 140.5 277.8 140.5L277.6 139.5ZM259.5 142.5V143.5C259.7 143.5 259.9 143.4 260 143.4L259.5 142.5ZM268.5 137L268.8 136C268.5 135.9 268.3 136 268 136.1L268.5 137ZM241.3 145.5L240.3 145.7C240.4 146 240.5 146.2 240.8 146.3C241 146.4 241.3 146.5 241.6 146.4L241.3 145.5ZM214.1 133.5L213.6 132.6C213.5 132.7 213.4 132.8 213.3 132.9L214.1 133.5ZM223.2 128.7L223.7 129.6C223.9 129.5 224 129.3 224.1 129.2L223.2 128.7ZM250.4 142.5V141.5C250.3 141.5 250.2 141.5 250.1 141.6L250.4 142.5ZM232.3 110L233.3 109.8C233.2 109.4 232.8 109.1 232.4 109.1C232 109.1 231.6 109.3 231.4 109.7L232.3 110ZM205.1 145.5V146.5C205.4 146.5 205.7 146.4 205.9 146.1L205.1 145.5ZM186.9 168L186.2 168.7C186.4 168.9 186.8 169 187.1 168.9C187.4 168.8 187.7 168.6 187.8 168.3L186.9 168ZM168.8 137L169.7 136.6C169.6 136.3 169.4 136.1 169.1 136L168.8 137ZM177.8 160L176.9 160.4C177 160.5 177.1 160.7 177.2 160.8L177.8 160ZM141.6 142.5L141.9 141.6C141.6 141.5 141.2 141.6 141 141.8L141.6 142.5ZM150.6 145.5L150.3 146.4C150.7 146.5 151.2 146.4 151.4 146.1L150.6 145.5ZM123.4 162.5L122.5 162.9C122.6 163.2 123 163.4 123.3 163.5C123.7 163.5 124 163.4 124.2 163.1L123.4 162.5ZM132.5 149.5L131.9 148.7C131.8 148.8 131.7 148.8 131.7 148.9L132.5 149.5ZM114.3 142.5L115.2 142.1C115 141.7 114.7 141.5 114.2 141.5C113.7 141.5 113.4 141.8 113.3 142.2L114.3 142.5ZM96.2 162.5L95.3 163C95.4 163.2 95.5 163.3 95.7 163.4L96.2 162.5ZM78.1 160L77.2 160.4C77.3 160.8 77.7 161 78 161C78.4 161 78.7 160.9 78.9 160.5L78.1 160ZM87.1 145.5L88 145C87.8 144.7 87.5 144.5 87.2 144.5C86.8 144.5 86.5 144.7 86.3 145L87.1 145.5ZM105.3 168L104.8 168.9C105.1 169.1 105.4 169.1 105.7 169C106 168.9 106.2 168.7 106.3 168.4L105.3 168ZM523.5 95.8C523.7 95.3 523.4 94.7 522.8 94.6C522.3 94.4 521.7 94.7 521.6 95.3L523.5 95.8ZM69.9 136.6C69.7 136.1 69.1 135.8 68.6 136C68.1 136.2 67.8 136.8 68 137.3L69.9 136.6ZM449.9 152L449.3 151.2C449.3 151.2 449.2 151.2 449.2 151.3L449.9 152ZM395.5 133.5L395.9 132.6C395.8 132.6 395.7 132.5 395.5 132.5V133.5ZM341.1 125.5L342 125.1C341.8 124.8 341.5 124.5 341.2 124.5C340.9 124.5 340.5 124.6 340.3 125L341.1 125.5ZM295.8 133.5L296.5 132.8C296.2 132.5 295.8 132.4 295.4 132.6L295.8 133.5ZM286.7 137L287 138H287.1L286.7 137ZM196 145.5V144.5C195.6 144.5 195.2 144.7 195.1 145.1L196 145.5ZM159.7 133.5L160.1 132.6C159.7 132.4 159.2 132.6 158.9 132.9L159.7 133.5Z" fill="#3368F6"/>
<path opacity="0.1" d="M296 134.2L286.9 137.7L277.8 140.2L268.7 137.7L259.6 143.2H250.5L241.4 146.2L232.3 110.7L223.2 129.4L214.1 134.2L205 146.2H195.9L186.8 168.7L177.7 160.7L168.6 137.7L159.5 134.2L150.4 146.2L141.3 143.2L132.2 150.2L123.1 163.2L114 143.2L104.9 168.7L95.8 163.2L86.7 146.2L77.6 160.7L67.6 137.7V233.7H523.1V96.2001L513.1 126.2L504 134.2L494.9 126.2L485.8 134.2L476.7 143.2L467.6 129.4L458.5 146.2L449.4 152.7L440.3 160.7L431.2 175.7L422.1 168.7L413 163.2L403.9 137.7L394.8 134.2H385.7L376.6 140.2L367.5 120.2L358.4 129.4L349.3 146.2L340.2 126.2L331.1 140.2L322 134.2L312.9 140.2L303.8 143.2L296 134.2Z" fill="url(#paint0_linear_1_1027)"/>
<path d="M30.5795 25.2102V24.2727H37.125V25.2102H34.3807V33H33.3239V25.2102H30.5795Z" fill="#272932"/>
<path d="M40.3295 33.1363C39.7386 33.1363 39.2202 32.9957 38.7741 32.7145C38.331 32.4332 37.9844 32.0398 37.7344 31.5341C37.4872 31.0284 37.3636 30.4375 37.3636 29.7613C37.3636 29.0795 37.4872 28.4844 37.7344 27.9758C37.9844 27.4673 38.331 27.0724 38.7741 26.7912C39.2202 26.5099 39.7386 26.3693 40.3295 26.3693C40.9205 26.3693 41.4375 26.5099 41.8807 26.7912C42.3267 27.0724 42.6733 27.4673 42.9205 27.9758C43.1705 28.4844 43.2955 29.0795 43.2955 29.7613C43.2955 30.4375 43.1705 31.0284 42.9205 31.5341C42.6733 32.0398 42.3267 32.4332 41.8807 32.7145C41.4375 32.9957 40.9205 33.1363 40.3295 33.1363ZM40.3295 32.2329C40.7784 32.2329 41.1477 32.1179 41.4375 31.8878C41.7273 31.6576 41.9418 31.3551 42.081 30.9801C42.2202 30.6051 42.2898 30.1988 42.2898 29.7613C42.2898 29.3238 42.2202 28.9162 42.081 28.5383C41.9418 28.1605 41.7273 27.8551 41.4375 27.6221C41.1477 27.3892 40.7784 27.2727 40.3295 27.2727C39.8807 27.2727 39.5114 27.3892 39.2216 27.6221C38.9318 27.8551 38.7173 28.1605 38.5781 28.5383C38.4389 28.9162 38.3693 29.3238 38.3693 29.7613C38.3693 30.1988 38.4389 30.6051 38.5781 30.9801C38.7173 31.3551 38.9318 31.6576 39.2216 31.8878C39.5114 32.1179 39.8807 32.2329 40.3295 32.2329Z" fill="#272932"/>
<path d="M47.6772 26.4545V27.3068H44.2852V26.4545H47.6772ZM45.2738 24.8863H46.2795V31.125C46.2795 31.4091 46.3207 31.6221 46.4031 31.7642C46.4883 31.9034 46.5962 31.9971 46.7269 32.0454C46.8604 32.0909 47.0011 32.1136 47.1488 32.1136C47.2596 32.1136 47.3505 32.1079 47.4215 32.0966C47.4925 32.0824 47.5494 32.071 47.592 32.0625L47.7965 32.9659C47.7283 32.9915 47.6332 33.017 47.511 33.0426C47.3889 33.071 47.234 33.0852 47.0465 33.0852C46.7624 33.0852 46.484 33.0241 46.2113 32.902C45.9414 32.7798 45.717 32.5937 45.538 32.3437C45.3619 32.0937 45.2738 31.7784 45.2738 31.3977V24.8863Z" fill="#272932"/>
<path d="M51.1161 33.1534C50.7014 33.1534 50.3249 33.0753 49.9869 32.919C49.6488 32.7599 49.3803 32.5312 49.1815 32.2329C48.9826 31.9318 48.8832 31.5682 48.8832 31.142C48.8832 30.767 48.957 30.463 49.1048 30.2301C49.2525 29.9943 49.4499 29.8096 49.6971 29.6761C49.9442 29.5426 50.217 29.4432 50.5153 29.3778C50.8164 29.3096 51.119 29.2557 51.4229 29.2159C51.8207 29.1648 52.1431 29.1264 52.3903 29.1008C52.6403 29.0724 52.8221 29.0255 52.9357 28.9602C53.0522 28.8949 53.1104 28.7812 53.1104 28.6193V28.5852C53.1104 28.1648 52.9954 27.838 52.7653 27.6051C52.538 27.3721 52.1928 27.2557 51.7298 27.2557C51.2496 27.2557 50.8732 27.3608 50.6005 27.571C50.3278 27.7812 50.136 28.0057 50.0252 28.2443L49.0707 27.9034C49.2411 27.5057 49.4684 27.196 49.7525 26.9744C50.0394 26.75 50.3519 26.5937 50.69 26.5057C51.0309 26.4148 51.3661 26.3693 51.6957 26.3693C51.9059 26.3693 52.1474 26.3949 52.4201 26.446C52.6957 26.4943 52.9613 26.5951 53.217 26.7486C53.4755 26.902 53.69 27.1335 53.8604 27.4432C54.0309 27.7528 54.1161 28.1676 54.1161 28.6875V33H53.1104V32.1136H53.0593C52.9911 32.2557 52.8775 32.4076 52.7184 32.5696C52.5593 32.7315 52.3477 32.8693 52.0835 32.9829C51.8192 33.0966 51.4968 33.1534 51.1161 33.1534ZM51.2695 32.25C51.6673 32.25 52.0025 32.1719 52.2752 32.0156C52.5508 31.8594 52.7582 31.6576 52.8974 31.4105C53.0394 31.1633 53.1104 30.9034 53.1104 30.6307V29.7102C53.0678 29.7613 52.9741 29.8082 52.8292 29.8508C52.6871 29.8906 52.5224 29.9261 52.3349 29.9574C52.1502 29.9858 51.9698 30.0113 51.7937 30.0341C51.6204 30.054 51.4798 30.071 51.3718 30.0852C51.1104 30.1193 50.8661 30.1747 50.6388 30.2514C50.4144 30.3253 50.2326 30.4375 50.0934 30.588C49.957 30.7358 49.8888 30.9375 49.8888 31.1932C49.8888 31.5426 50.0181 31.8068 50.2766 31.9858C50.538 32.1619 50.869 32.25 51.2695 32.25Z" fill="#272932"/>
<path d="M56.9574 24.2727V33H55.9517V24.2727H56.9574Z" fill="#272932"/>
<path d="M67.5266 26.4545L65.1062 33H64.0835L61.663 26.4545H62.7539L64.5607 31.6704H64.6289L66.4357 26.4545H67.5266Z" fill="#272932"/>
<path d="M70.581 33.1534C70.1662 33.1534 69.7898 33.0753 69.4517 32.919C69.1136 32.7599 68.8452 32.5312 68.6463 32.2329C68.4474 31.9318 68.348 31.5682 68.348 31.142C68.348 30.767 68.4219 30.463 68.5696 30.2301C68.7173 29.9943 68.9148 29.8096 69.1619 29.6761C69.4091 29.5426 69.6818 29.4432 69.9801 29.3778C70.2813 29.3096 70.5838 29.2557 70.8878 29.2159C71.2855 29.1648 71.608 29.1264 71.8551 29.1008C72.1051 29.0724 72.2869 29.0255 72.4006 28.9602C72.517 28.8949 72.5753 28.7812 72.5753 28.6193V28.5852C72.5753 28.1648 72.4602 27.838 72.2301 27.6051C72.0028 27.3721 71.6577 27.2557 71.1946 27.2557C70.7145 27.2557 70.3381 27.3608 70.0653 27.571C69.7926 27.7812 69.6009 28.0057 69.4901 28.2443L68.5355 27.9034C68.706 27.5057 68.9332 27.196 69.2173 26.9744C69.5043 26.75 69.8168 26.5937 70.1548 26.5057C70.4957 26.4148 70.831 26.3693 71.1605 26.3693C71.3707 26.3693 71.6122 26.3949 71.8849 26.446C72.1605 26.4943 72.4261 26.5951 72.6818 26.7486C72.9403 26.902 73.1548 27.1335 73.3253 27.4432C73.4957 27.7528 73.581 28.1676 73.581 28.6875V33H72.5753V32.1136H72.5241C72.456 32.2557 72.3423 32.4076 72.1832 32.5696C72.0241 32.7315 71.8125 32.8693 71.5483 32.9829C71.2841 33.0966 70.9617 33.1534 70.581 33.1534ZM70.7344 32.25C71.1321 32.25 71.4673 32.1719 71.7401 32.0156C72.0156 31.8594 72.223 31.6576 72.3622 31.4105C72.5043 31.1633 72.5753 30.9034 72.5753 30.6307V29.7102C72.5327 29.7613 72.4389 29.8082 72.294 29.8508C72.152 29.8906 71.9872 29.9261 71.7997 29.9574C71.6151 29.9858 71.4347 30.0113 71.2585 30.0341C71.0852 30.054 70.9446 30.071 70.8366 30.0852C70.5753 30.1193 70.331 30.1747 70.1037 30.2514C69.8793 30.3253 69.6974 30.4375 69.5582 30.588C69.4219 30.7358 69.3537 30.9375 69.3537 31.1932C69.3537 31.5426 69.483 31.8068 69.7415 31.9858C70.0028 32.1619 70.3338 32.25 70.7344 32.25Z" fill="#272932"/>
<path d="M76.4222 24.2727V33H75.4166V24.2727H76.4222Z" fill="#272932"/>
<path d="M82.3892 30.3238V26.4545H83.3949V33H82.3892V31.892H82.321C82.1676 32.2244 81.929 32.5071 81.6051 32.74C81.2813 32.9701 80.8722 33.0852 80.3778 33.0852C79.9688 33.0852 79.6051 32.9957 79.2869 32.8167C78.9688 32.6349 78.7188 32.3622 78.5369 31.9986C78.3551 31.6321 78.2642 31.1704 78.2642 30.6136V26.4545H79.2699V30.5454C79.2699 31.0227 79.4034 31.4034 79.6705 31.6875C79.9403 31.9716 80.2841 32.1136 80.7017 32.1136C80.9517 32.1136 81.206 32.0497 81.4645 31.9219C81.7259 31.794 81.9446 31.598 82.1207 31.3338C82.2997 31.0696 82.3892 30.7329 82.3892 30.3238Z" fill="#272932"/>
<path d="M87.9812 33.1363C87.3505 33.1363 86.8065 32.9971 86.3491 32.7187C85.8945 32.4375 85.5437 32.0454 85.2965 31.5426C85.0522 31.0369 84.93 30.4488 84.93 29.7784C84.93 29.1079 85.0522 28.517 85.2965 28.0057C85.5437 27.4915 85.8874 27.0909 86.3278 26.804C86.771 26.5142 87.288 26.3693 87.8789 26.3693C88.2198 26.3693 88.5565 26.4261 88.8889 26.5398C89.2212 26.6534 89.5238 26.838 89.7965 27.0937C90.0692 27.3466 90.2866 27.6818 90.4485 28.0994C90.6104 28.517 90.6914 29.0312 90.6914 29.642V30.0682H85.646V29.1988H89.6687C89.6687 28.8295 89.5948 28.5 89.4471 28.2102C89.3022 27.9204 89.0948 27.6917 88.8249 27.5241C88.5579 27.3565 88.2425 27.2727 87.8789 27.2727C87.4783 27.2727 87.1317 27.3721 86.8391 27.571C86.5494 27.767 86.3264 28.0227 86.1701 28.338C86.0139 28.6534 85.9357 28.9915 85.9357 29.3523V29.9318C85.9357 30.4261 86.021 30.8451 86.1914 31.1889C86.3647 31.5298 86.6048 31.7898 86.9116 31.9687C87.2184 32.1449 87.5749 32.2329 87.9812 32.2329C88.2454 32.2329 88.484 32.196 88.6971 32.1221C88.913 32.0454 89.0991 31.9318 89.2553 31.7812C89.4116 31.6278 89.5323 31.4375 89.6175 31.2102L90.5891 31.4829C90.4869 31.8125 90.315 32.1023 90.0735 32.3523C89.832 32.5994 89.5337 32.7926 89.1786 32.9318C88.8235 33.0682 88.4244 33.1363 87.9812 33.1363Z" fill="#272932"/>
<path d="M202.415 33H201.307L204.511 24.2727H205.602L208.807 33H207.699L205.091 25.6534H205.023L202.415 33ZM202.824 29.5909H207.29V30.5284H202.824V29.5909Z" fill="#272932"/>
<path d="M214.562 26.4545L212.141 33H211.119L208.698 26.4545H209.789L211.596 31.6705H211.664L213.471 26.4545H214.562Z" fill="#272932"/>
<path d="M218.297 35.5909C217.811 35.5909 217.393 35.5284 217.044 35.4034C216.695 35.2812 216.403 35.1193 216.17 34.9176C215.94 34.7188 215.757 34.5057 215.621 34.2784L216.422 33.7159C216.513 33.8352 216.628 33.9716 216.767 34.125C216.906 34.2812 217.097 34.4162 217.338 34.5298C217.582 34.6463 217.902 34.7045 218.297 34.7045C218.825 34.7045 219.261 34.5767 219.605 34.321C219.949 34.0653 220.121 33.6648 220.121 33.1193V31.7898H220.036C219.962 31.9091 219.857 32.0568 219.72 32.233C219.587 32.4063 219.393 32.5611 219.141 32.6974C218.891 32.831 218.553 32.8977 218.126 32.8977C217.598 32.8977 217.124 32.7727 216.703 32.5227C216.286 32.2727 215.955 31.9091 215.71 31.4318C215.469 30.9545 215.348 30.375 215.348 29.6932C215.348 29.0227 215.466 28.4389 215.702 27.9418C215.938 27.4418 216.266 27.0554 216.686 26.7827C217.107 26.5071 217.592 26.3693 218.143 26.3693C218.57 26.3693 218.908 26.4403 219.158 26.5824C219.411 26.7216 219.604 26.8807 219.737 27.0597C219.874 27.2358 219.979 27.3807 220.053 27.4943H220.155V26.4545H221.126V33.1875C221.126 33.75 220.999 34.2074 220.743 34.5597C220.49 34.9148 220.149 35.1747 219.72 35.3395C219.294 35.5071 218.82 35.5909 218.297 35.5909ZM218.263 31.9943C218.666 31.9943 219.007 31.902 219.286 31.7173C219.564 31.5327 219.776 31.267 219.92 30.9205C220.065 30.5739 220.138 30.1591 220.138 29.6761C220.138 29.2045 220.067 28.7884 219.925 28.4276C219.783 28.0668 219.572 27.7841 219.294 27.5795C219.016 27.375 218.672 27.2727 218.263 27.2727C217.837 27.2727 217.482 27.3807 217.197 27.5966C216.916 27.8125 216.705 28.1023 216.563 28.4659C216.423 28.8295 216.354 29.233 216.354 29.6761C216.354 30.1307 216.425 30.5327 216.567 30.8821C216.712 31.2287 216.925 31.5014 217.206 31.7003C217.49 31.8963 217.842 31.9943 218.263 31.9943Z" fill="#272932"/>
<path d="M223.7 33.0682C223.49 33.0682 223.31 32.9929 223.159 32.8423C223.009 32.6918 222.933 32.5114 222.933 32.3011C222.933 32.0909 223.009 31.9105 223.159 31.7599C223.31 31.6094 223.49 31.5341 223.7 31.5341C223.911 31.5341 224.091 31.6094 224.241 31.7599C224.392 31.9105 224.467 32.0909 224.467 32.3011C224.467 32.4403 224.432 32.5682 224.361 32.6847C224.293 32.8011 224.2 32.8949 224.084 32.9659C223.97 33.0341 223.842 33.0682 223.7 33.0682Z" fill="#272932"/>
<path d="M232.494 26.4545V27.3068H229.102V26.4545H232.494ZM230.09 24.8864H231.096V31.125C231.096 31.4091 231.137 31.6222 231.219 31.7642C231.305 31.9034 231.413 31.9972 231.543 32.0455C231.677 32.0909 231.817 32.1136 231.965 32.1136C232.076 32.1136 232.167 32.108 232.238 32.0966C232.309 32.0824 232.366 32.071 232.408 32.0625L232.613 32.9659C232.545 32.9915 232.45 33.017 232.327 33.0426C232.205 33.071 232.05 33.0852 231.863 33.0852C231.579 33.0852 231.3 33.0241 231.028 32.902C230.758 32.7798 230.533 32.5938 230.354 32.3438C230.178 32.0938 230.09 31.7784 230.09 31.3977V24.8864Z" fill="#272932"/>
<path d="M234.006 33V26.4545H234.978V27.4432H235.046C235.165 27.1193 235.381 26.8565 235.694 26.6548C236.006 26.4531 236.359 26.3523 236.751 26.3523C236.825 26.3523 236.917 26.3537 237.028 26.3565C237.138 26.3594 237.222 26.3636 237.279 26.3693V27.392C237.245 27.3835 237.167 27.3707 237.045 27.3537C236.925 27.3338 236.799 27.3239 236.665 27.3239C236.347 27.3239 236.063 27.3906 235.813 27.5241C235.566 27.6548 235.37 27.8366 235.225 28.0696C235.083 28.2997 235.012 28.5625 235.012 28.858V33H234.006Z" fill="#272932"/>
<path d="M240.397 33.1534C239.983 33.1534 239.606 33.0753 239.268 32.919C238.93 32.7599 238.662 32.5313 238.463 32.233C238.264 31.9318 238.164 31.5682 238.164 31.142C238.164 30.767 238.238 30.4631 238.386 30.2301C238.534 29.9943 238.731 29.8097 238.978 29.6761C239.225 29.5426 239.498 29.4432 239.797 29.3778C240.098 29.3097 240.4 29.2557 240.704 29.2159C241.102 29.1648 241.424 29.1264 241.672 29.1009C241.922 29.0724 242.103 29.0256 242.217 28.9602C242.333 28.8949 242.392 28.7812 242.392 28.6193V28.5852C242.392 28.1648 242.277 27.8381 242.047 27.6051C241.819 27.3722 241.474 27.2557 241.011 27.2557C240.531 27.2557 240.154 27.3608 239.882 27.571C239.609 27.7812 239.417 28.0057 239.306 28.2443L238.352 27.9034C238.522 27.5057 238.75 27.196 239.034 26.9744C239.321 26.75 239.633 26.5938 239.971 26.5057C240.312 26.4148 240.647 26.3693 240.977 26.3693C241.187 26.3693 241.429 26.3949 241.701 26.446C241.977 26.4943 242.243 26.5952 242.498 26.7486C242.757 26.902 242.971 27.1335 243.142 27.4432C243.312 27.7528 243.397 28.1676 243.397 28.6875V33H242.392V32.1136H242.341C242.272 32.2557 242.159 32.4077 242 32.5696C241.841 32.7315 241.629 32.8693 241.365 32.983C241.1 33.0966 240.778 33.1534 240.397 33.1534ZM240.551 32.25C240.949 32.25 241.284 32.1719 241.556 32.0156C241.832 31.8594 242.039 31.6577 242.179 31.4105C242.321 31.1634 242.392 30.9034 242.392 30.6307V29.7102C242.349 29.7614 242.255 29.8082 242.11 29.8509C241.968 29.8906 241.804 29.9261 241.616 29.9574C241.431 29.9858 241.251 30.0114 241.075 30.0341C240.902 30.054 240.761 30.071 240.653 30.0852C240.392 30.1193 240.147 30.1747 239.92 30.2514C239.696 30.3253 239.514 30.4375 239.375 30.5881C239.238 30.7358 239.17 30.9375 239.17 31.1932C239.17 31.5426 239.299 31.8068 239.558 31.9858C239.819 32.1619 240.15 32.25 240.551 32.25Z" fill="#272932"/>
<path d="M246.239 29.0625V33H245.233V26.4545H246.205V27.4773H246.29C246.443 27.1449 246.676 26.8778 246.989 26.6761C247.301 26.4716 247.705 26.3693 248.199 26.3693C248.642 26.3693 249.03 26.4602 249.362 26.642C249.695 26.821 249.953 27.0938 250.138 27.4602C250.322 27.8239 250.415 28.2841 250.415 28.8409V33H249.409V28.9091C249.409 28.3949 249.276 27.9943 249.009 27.7074C248.741 27.4176 248.375 27.2727 247.909 27.2727C247.588 27.2727 247.301 27.3423 247.048 27.4815C246.798 27.6207 246.601 27.8239 246.456 28.0909C246.311 28.358 246.239 28.6818 246.239 29.0625Z" fill="#272932"/>
<path d="M256.889 27.9205L255.985 28.1761C255.929 28.0256 255.845 27.8793 255.734 27.7372C255.626 27.5923 255.478 27.473 255.291 27.3793C255.103 27.2855 254.863 27.2386 254.571 27.2386C254.17 27.2386 253.836 27.331 253.569 27.5156C253.305 27.6974 253.173 27.929 253.173 28.2102C253.173 28.4602 253.264 28.6577 253.446 28.8026C253.627 28.9474 253.912 29.0682 254.298 29.1648L255.27 29.4034C255.855 29.5455 256.291 29.7628 256.578 30.0554C256.865 30.3452 257.008 30.7187 257.008 31.1761C257.008 31.5511 256.9 31.8864 256.684 32.1818C256.471 32.4773 256.173 32.7102 255.789 32.8807C255.406 33.0511 254.96 33.1364 254.451 33.1364C253.784 33.1364 253.231 32.9915 252.794 32.7017C252.356 32.4119 252.079 31.9886 251.963 31.4318L252.917 31.1932C253.008 31.5455 253.18 31.8097 253.433 31.9858C253.689 32.1619 254.022 32.25 254.434 32.25C254.903 32.25 255.275 32.1506 255.551 31.9517C255.829 31.75 255.968 31.5085 255.968 31.2273C255.968 31 255.889 30.8097 255.73 30.6562C255.571 30.5 255.326 30.3835 254.997 30.3068L253.906 30.0511C253.306 29.9091 252.866 29.6889 252.585 29.3906C252.306 29.0895 252.167 28.7131 252.167 28.2614C252.167 27.892 252.271 27.5653 252.478 27.2812C252.689 26.9972 252.974 26.7741 253.335 26.6122C253.699 26.4503 254.11 26.3693 254.571 26.3693C255.218 26.3693 255.727 26.5114 256.096 26.7955C256.468 27.0795 256.733 27.4545 256.889 27.9205Z" fill="#272932"/>
<path d="M260.448 33.1534C260.033 33.1534 259.657 33.0753 259.319 32.919C258.981 32.7599 258.712 32.5313 258.513 32.233C258.315 31.9318 258.215 31.5682 258.215 31.142C258.215 30.767 258.289 30.4631 258.437 30.2301C258.585 29.9943 258.782 29.8097 259.029 29.6761C259.276 29.5426 259.549 29.4432 259.847 29.3778C260.148 29.3097 260.451 29.2557 260.755 29.2159C261.153 29.1648 261.475 29.1264 261.722 29.1009C261.972 29.0724 262.154 29.0256 262.268 28.9602C262.384 28.8949 262.442 28.7812 262.442 28.6193V28.5852C262.442 28.1648 262.327 27.8381 262.097 27.6051C261.87 27.3722 261.525 27.2557 261.062 27.2557C260.582 27.2557 260.205 27.3608 259.933 27.571C259.66 27.7812 259.468 28.0057 259.357 28.2443L258.403 27.9034C258.573 27.5057 258.8 27.196 259.085 26.9744C259.371 26.75 259.684 26.5938 260.022 26.5057C260.363 26.4148 260.698 26.3693 261.028 26.3693C261.238 26.3693 261.479 26.3949 261.752 26.446C262.028 26.4943 262.293 26.5952 262.549 26.7486C262.808 26.902 263.022 27.1335 263.192 27.4432C263.363 27.7528 263.448 28.1676 263.448 28.6875V33H262.442V32.1136H262.391C262.323 32.2557 262.21 32.4077 262.05 32.5696C261.891 32.7315 261.68 32.8693 261.415 32.983C261.151 33.0966 260.829 33.1534 260.448 33.1534ZM260.602 32.25C260.999 32.25 261.335 32.1719 261.607 32.0156C261.883 31.8594 262.09 31.6577 262.229 31.4105C262.371 31.1634 262.442 30.9034 262.442 30.6307V29.7102C262.4 29.7614 262.306 29.8082 262.161 29.8509C262.019 29.8906 261.854 29.9261 261.667 29.9574C261.482 29.9858 261.302 30.0114 261.126 30.0341C260.952 30.054 260.812 30.071 260.704 30.0852C260.442 30.1193 260.198 30.1747 259.971 30.2514C259.746 30.3253 259.565 30.4375 259.425 30.5881C259.289 30.7358 259.221 30.9375 259.221 31.1932C259.221 31.5426 259.35 31.8068 259.609 31.9858C259.87 32.1619 260.201 32.25 260.602 32.25Z" fill="#272932"/>
<path d="M267.943 33.1364C267.329 33.1364 266.801 32.9915 266.358 32.7017C265.914 32.4119 265.574 32.0128 265.335 31.5043C265.096 30.9957 264.977 30.4148 264.977 29.7614C264.977 29.0966 265.099 28.5099 265.343 28.0014C265.591 27.4901 265.934 27.0909 266.375 26.804C266.818 26.5142 267.335 26.3693 267.926 26.3693C268.386 26.3693 268.801 26.4545 269.17 26.625C269.539 26.7955 269.842 27.0341 270.078 27.3409C270.314 27.6477 270.46 28.0057 270.517 28.4148H269.511C269.434 28.1165 269.264 27.8523 269 27.6222C268.738 27.3892 268.386 27.2727 267.943 27.2727C267.551 27.2727 267.207 27.375 266.912 27.5795C266.619 27.7812 266.39 28.0668 266.226 28.4361C266.064 28.8026 265.983 29.233 265.983 29.7273C265.983 30.233 266.062 30.6733 266.221 31.0483C266.383 31.4233 266.61 31.7145 266.903 31.9219C267.199 32.1293 267.545 32.233 267.943 32.233C268.204 32.233 268.441 32.1875 268.654 32.0966C268.868 32.0057 269.048 31.875 269.196 31.7045C269.343 31.5341 269.449 31.3295 269.511 31.0909H270.517C270.46 31.4773 270.319 31.8253 270.095 32.1349C269.873 32.4418 269.579 32.6861 269.213 32.8679C268.849 33.0469 268.426 33.1364 267.943 33.1364Z" fill="#272932"/>
<path d="M274.833 26.4545V27.3068H271.441V26.4545H274.833ZM272.43 24.8864H273.436V31.125C273.436 31.4091 273.477 31.6222 273.559 31.7642C273.645 31.9034 273.752 31.9972 273.883 32.0455C274.017 32.0909 274.157 32.1136 274.305 32.1136C274.416 32.1136 274.507 32.108 274.578 32.0966C274.649 32.0824 274.706 32.071 274.748 32.0625L274.953 32.9659C274.885 32.9915 274.789 33.017 274.667 33.0426C274.545 33.071 274.39 33.0852 274.203 33.0852C273.919 33.0852 273.64 33.0241 273.368 32.902C273.098 32.7798 272.873 32.5938 272.694 32.3438C272.518 32.0938 272.43 31.7784 272.43 31.3977V24.8864Z" fill="#272932"/>
<path d="M276.346 33V26.4545H277.352V33H276.346ZM276.858 25.3636C276.662 25.3636 276.493 25.2969 276.351 25.1634C276.211 25.0298 276.142 24.8693 276.142 24.6818C276.142 24.4943 276.211 24.3338 276.351 24.2003C276.493 24.0668 276.662 24 276.858 24C277.054 24 277.221 24.0668 277.36 24.2003C277.502 24.3338 277.574 24.4943 277.574 24.6818C277.574 24.8693 277.502 25.0298 277.36 25.1634C277.221 25.2969 277.054 25.3636 276.858 25.3636Z" fill="#272932"/>
<path d="M281.853 33.1364C281.262 33.1364 280.744 32.9957 280.298 32.7145C279.854 32.4332 279.508 32.0398 279.258 31.5341C279.011 31.0284 278.887 30.4375 278.887 29.7614C278.887 29.0795 279.011 28.4844 279.258 27.9759C279.508 27.4673 279.854 27.0724 280.298 26.7912C280.744 26.5099 281.262 26.3693 281.853 26.3693C282.444 26.3693 282.961 26.5099 283.404 26.7912C283.85 27.0724 284.197 27.4673 284.444 27.9759C284.694 28.4844 284.819 29.0795 284.819 29.7614C284.819 30.4375 284.694 31.0284 284.444 31.5341C284.197 32.0398 283.85 32.4332 283.404 32.7145C282.961 32.9957 282.444 33.1364 281.853 33.1364ZM281.853 32.233C282.302 32.233 282.671 32.1179 282.961 31.8878C283.251 31.6577 283.465 31.3551 283.604 30.9801C283.744 30.6051 283.813 30.1989 283.813 29.7614C283.813 29.3239 283.744 28.9162 283.604 28.5384C283.465 28.1605 283.251 27.8551 282.961 27.6222C282.671 27.3892 282.302 27.2727 281.853 27.2727C281.404 27.2727 281.035 27.3892 280.745 27.6222C280.455 27.8551 280.241 28.1605 280.102 28.5384C279.962 28.9162 279.893 29.3239 279.893 29.7614C279.893 30.1989 279.962 30.6051 280.102 30.9801C280.241 31.3551 280.455 31.6577 280.745 31.8878C281.035 32.1179 281.404 32.233 281.853 32.233Z" fill="#272932"/>
<path d="M287.36 29.0625V33H286.354V26.4545H287.326V27.4773H287.411C287.564 27.1449 287.797 26.8778 288.11 26.6761C288.422 26.4716 288.826 26.3693 289.32 26.3693C289.763 26.3693 290.151 26.4602 290.483 26.642C290.816 26.821 291.074 27.0938 291.259 27.4602C291.444 27.8239 291.536 28.2841 291.536 28.8409V33H290.53V28.9091C290.53 28.3949 290.397 27.9943 290.13 27.7074C289.863 27.4176 289.496 27.2727 289.03 27.2727C288.709 27.2727 288.422 27.3423 288.169 27.4815C287.919 27.6207 287.722 27.8239 287.577 28.0909C287.432 28.358 287.36 28.6818 287.36 29.0625Z" fill="#272932"/>
<path d="M381.977 24.2727V33H380.955L376.199 26.1477H376.114V33H375.057V24.2727H376.08L380.852 31.1421H380.938V24.2727H381.977Z" fill="#272932"/>
<path d="M386.615 33.1364C386.024 33.1364 385.505 32.9958 385.059 32.7145C384.616 32.4333 384.27 32.0398 384.02 31.5341C383.772 31.0284 383.649 30.4375 383.649 29.7614C383.649 29.0796 383.772 28.4844 384.02 27.9759C384.27 27.4673 384.616 27.0725 385.059 26.7912C385.505 26.51 386.024 26.3693 386.615 26.3693C387.206 26.3693 387.723 26.51 388.166 26.7912C388.612 27.0725 388.958 27.4673 389.206 27.9759C389.456 28.4844 389.581 29.0796 389.581 29.7614C389.581 30.4375 389.456 31.0284 389.206 31.5341C388.958 32.0398 388.612 32.4333 388.166 32.7145C387.723 32.9958 387.206 33.1364 386.615 33.1364ZM386.615 32.233C387.064 32.233 387.433 32.1179 387.723 31.8878C388.012 31.6577 388.227 31.3551 388.366 30.9801C388.505 30.6051 388.575 30.1989 388.575 29.7614C388.575 29.3239 388.505 28.9162 388.366 28.5384C388.227 28.1605 388.012 27.8551 387.723 27.6222C387.433 27.3892 387.064 27.2727 386.615 27.2727C386.166 27.2727 385.797 27.3892 385.507 27.6222C385.217 27.8551 385.002 28.1605 384.863 28.5384C384.724 28.9162 384.654 29.3239 384.654 29.7614C384.654 30.1989 384.724 30.6051 384.863 30.9801C385.002 31.3551 385.217 31.6577 385.507 31.8878C385.797 32.1179 386.166 32.233 386.615 32.233Z" fill="#272932"/>
<path d="M391.849 33.0682C391.639 33.0682 391.458 32.9929 391.308 32.8423C391.157 32.6918 391.082 32.5114 391.082 32.3011C391.082 32.0909 391.157 31.9105 391.308 31.76C391.458 31.6094 391.639 31.5341 391.849 31.5341C392.059 31.5341 392.239 31.6094 392.39 31.76C392.54 31.9105 392.616 32.0909 392.616 32.3011C392.616 32.4404 392.58 32.5682 392.509 32.6847C392.441 32.8011 392.349 32.8949 392.232 32.9659C392.119 33.0341 391.991 33.0682 391.849 33.0682Z" fill="#272932"/>
<path d="M400.455 33.1364C399.864 33.1364 399.345 32.9958 398.899 32.7145C398.456 32.4333 398.109 32.0398 397.859 31.5341C397.612 31.0284 397.489 30.4375 397.489 29.7614C397.489 29.0796 397.612 28.4844 397.859 27.9759C398.109 27.4673 398.456 27.0725 398.899 26.7912C399.345 26.51 399.864 26.3693 400.455 26.3693C401.045 26.3693 401.563 26.51 402.006 26.7912C402.452 27.0725 402.798 27.4673 403.045 27.9759C403.295 28.4844 403.42 29.0796 403.42 29.7614C403.42 30.4375 403.295 31.0284 403.045 31.5341C402.798 32.0398 402.452 32.4333 402.006 32.7145C401.563 32.9958 401.045 33.1364 400.455 33.1364ZM400.455 32.233C400.903 32.233 401.273 32.1179 401.563 31.8878C401.852 31.6577 402.067 31.3551 402.206 30.9801C402.345 30.6051 402.415 30.1989 402.415 29.7614C402.415 29.3239 402.345 28.9162 402.206 28.5384C402.067 28.1605 401.852 27.8551 401.563 27.6222C401.273 27.3892 400.903 27.2727 400.455 27.2727C400.006 27.2727 399.636 27.3892 399.347 27.6222C399.057 27.8551 398.842 28.1605 398.703 28.5384C398.564 28.9162 398.494 29.3239 398.494 29.7614C398.494 30.1989 398.564 30.6051 398.703 30.9801C398.842 31.3551 399.057 31.6577 399.347 31.8878C399.636 32.1179 400.006 32.233 400.455 32.233Z" fill="#272932"/>
<path d="M407.87 26.4546V27.3068H404.342V26.4546H407.87ZM405.399 33V25.5511C405.399 25.1761 405.487 24.8636 405.663 24.6136C405.839 24.3636 406.068 24.1761 406.349 24.0511C406.63 23.9261 406.927 23.8636 407.24 23.8636C407.487 23.8636 407.689 23.8835 407.845 23.9233C408.001 23.9631 408.118 24 408.194 24.0341L407.904 24.9034C407.853 24.8864 407.782 24.8651 407.691 24.8395C407.603 24.8139 407.487 24.8011 407.342 24.8011C407.01 24.8011 406.77 24.885 406.622 25.0526C406.477 25.2202 406.404 25.4659 406.404 25.7898V33H405.399Z" fill="#272932"/>
<path d="M415.501 26.4546V27.3068H412.109V26.4546H415.501ZM413.098 24.8864H414.104V31.125C414.104 31.4091 414.145 31.6222 414.227 31.7642C414.313 31.9034 414.42 31.9972 414.551 32.0455C414.685 32.0909 414.825 32.1136 414.973 32.1136C415.084 32.1136 415.175 32.108 415.246 32.0966C415.317 32.0824 415.374 32.071 415.416 32.0625L415.621 32.9659C415.553 32.9915 415.457 33.0171 415.335 33.0426C415.213 33.071 415.058 33.0852 414.871 33.0852C414.587 33.0852 414.308 33.0242 414.036 32.902C413.766 32.7798 413.541 32.5938 413.362 32.3438C413.186 32.0938 413.098 31.7784 413.098 31.3977V24.8864Z" fill="#272932"/>
<path d="M417.014 33V26.4546H417.986V27.4432H418.054C418.173 27.1193 418.389 26.8565 418.702 26.6548C419.014 26.4531 419.366 26.3523 419.759 26.3523C419.832 26.3523 419.925 26.3537 420.036 26.3565C420.146 26.3594 420.23 26.3636 420.287 26.3693V27.3921C420.253 27.3835 420.175 27.3708 420.053 27.3537C419.933 27.3338 419.807 27.3239 419.673 27.3239C419.355 27.3239 419.071 27.3906 418.821 27.5242C418.574 27.6548 418.378 27.8367 418.233 28.0696C418.091 28.2997 418.02 28.5625 418.02 28.858V33H417.014Z" fill="#272932"/>
<path d="M423.405 33.1534C422.99 33.1534 422.614 33.0753 422.276 32.919C421.938 32.76 421.669 32.5313 421.471 32.233C421.272 31.9318 421.172 31.5682 421.172 31.1421C421.172 30.7671 421.246 30.4631 421.394 30.2301C421.542 29.9943 421.739 29.8097 421.986 29.6761C422.233 29.5426 422.506 29.4432 422.804 29.3779C423.105 29.3097 423.408 29.2557 423.712 29.2159C424.11 29.1648 424.432 29.1264 424.679 29.1009C424.929 29.0725 425.111 29.0256 425.225 28.9602C425.341 28.8949 425.4 28.7813 425.4 28.6193V28.5852C425.4 28.1648 425.284 27.8381 425.054 27.6051C424.827 27.3722 424.482 27.2557 424.019 27.2557C423.539 27.2557 423.162 27.3608 422.89 27.571C422.617 27.7813 422.425 28.0057 422.314 28.2443L421.36 27.9034C421.53 27.5057 421.757 27.196 422.042 26.9744C422.328 26.75 422.641 26.5938 422.979 26.5057C423.32 26.4148 423.655 26.3693 423.985 26.3693C424.195 26.3693 424.436 26.3949 424.709 26.446C424.985 26.4943 425.25 26.5952 425.506 26.7486C425.765 26.902 425.979 27.1335 426.15 27.4432C426.32 27.7529 426.405 28.1676 426.405 28.6875V33H425.4V32.1136H425.348C425.28 32.2557 425.167 32.4077 425.007 32.5696C424.848 32.7315 424.637 32.8693 424.373 32.983C424.108 33.0966 423.786 33.1534 423.405 33.1534ZM423.559 32.25C423.956 32.25 424.292 32.1719 424.564 32.0156C424.84 31.8594 425.047 31.6577 425.186 31.4105C425.328 31.1634 425.4 30.9034 425.4 30.6307V29.7102C425.357 29.7614 425.263 29.8082 425.118 29.8509C424.976 29.8906 424.811 29.9261 424.624 29.9574C424.439 29.9858 424.259 30.0114 424.083 30.0341C423.909 30.054 423.769 30.071 423.661 30.0852C423.4 30.1193 423.155 30.1747 422.928 30.2514C422.703 30.3253 422.522 30.4375 422.382 30.5881C422.246 30.7358 422.178 30.9375 422.178 31.1932C422.178 31.5426 422.307 31.8068 422.566 31.9858C422.827 32.1619 423.158 32.25 423.559 32.25Z" fill="#272932"/>
<path d="M429.246 29.0625V33H428.241V26.4546H429.212V27.4773H429.298C429.451 27.1449 429.684 26.8779 429.996 26.6761C430.309 26.4716 430.712 26.3693 431.207 26.3693C431.65 26.3693 432.038 26.4602 432.37 26.6421C432.702 26.821 432.961 27.0938 433.146 27.4602C433.33 27.8239 433.423 28.2841 433.423 28.8409V33H432.417V28.9091C432.417 28.3949 432.283 27.9943 432.016 27.7074C431.749 27.4176 431.383 27.2727 430.917 27.2727C430.596 27.2727 430.309 27.3423 430.056 27.4815C429.806 27.6208 429.609 27.8239 429.464 28.0909C429.319 28.358 429.246 28.6818 429.246 29.0625Z" fill="#272932"/>
<path d="M439.897 27.9205L438.993 28.1761C438.936 28.0256 438.853 27.8793 438.742 27.7372C438.634 27.5923 438.486 27.473 438.299 27.3793C438.111 27.2855 437.871 27.2386 437.578 27.2386C437.178 27.2386 436.844 27.331 436.577 27.5156C436.313 27.6975 436.181 27.929 436.181 28.2102C436.181 28.4602 436.272 28.6577 436.453 28.8026C436.635 28.9475 436.919 29.0682 437.306 29.1648L438.277 29.4034C438.863 29.5455 439.299 29.7628 439.586 30.0554C439.873 30.3452 440.016 30.7188 440.016 31.1761C440.016 31.5511 439.908 31.8864 439.692 32.1818C439.479 32.4773 439.181 32.7102 438.797 32.8807C438.414 33.0511 437.968 33.1364 437.459 33.1364C436.792 33.1364 436.239 32.9915 435.801 32.7017C435.364 32.4119 435.087 31.9886 434.971 31.4318L435.925 31.1932C436.016 31.5455 436.188 31.8097 436.441 31.9858C436.696 32.1619 437.03 32.25 437.442 32.25C437.911 32.25 438.283 32.1506 438.559 31.9517C438.837 31.75 438.976 31.5085 438.976 31.2273C438.976 31 438.897 30.8097 438.738 30.6563C438.578 30.5 438.334 30.3835 438.005 30.3068L436.914 30.0511C436.314 29.9091 435.874 29.6889 435.593 29.3906C435.314 29.0895 435.175 28.7131 435.175 28.2614C435.175 27.8921 435.279 27.5654 435.486 27.2813C435.696 26.9972 435.982 26.7742 436.343 26.6122C436.706 26.4503 437.118 26.3693 437.578 26.3693C438.226 26.3693 438.735 26.5114 439.104 26.7955C439.476 27.0796 439.74 27.4546 439.897 27.9205Z" fill="#272932"/>
<path d="M443.456 33.1534C443.041 33.1534 442.665 33.0753 442.327 32.919C441.989 32.76 441.72 32.5313 441.521 32.233C441.322 31.9318 441.223 31.5682 441.223 31.1421C441.223 30.7671 441.297 30.4631 441.445 30.2301C441.592 29.9943 441.79 29.8097 442.037 29.6761C442.284 29.5426 442.557 29.4432 442.855 29.3779C443.156 29.3097 443.459 29.2557 443.763 29.2159C444.161 29.1648 444.483 29.1264 444.73 29.1009C444.98 29.0725 445.162 29.0256 445.276 28.9602C445.392 28.8949 445.45 28.7813 445.45 28.6193V28.5852C445.45 28.1648 445.335 27.8381 445.105 27.6051C444.878 27.3722 444.533 27.2557 444.07 27.2557C443.589 27.2557 443.213 27.3608 442.94 27.571C442.668 27.7813 442.476 28.0057 442.365 28.2443L441.411 27.9034C441.581 27.5057 441.808 27.196 442.092 26.9744C442.379 26.75 442.692 26.5938 443.03 26.5057C443.371 26.4148 443.706 26.3693 444.036 26.3693C444.246 26.3693 444.487 26.3949 444.76 26.446C445.036 26.4943 445.301 26.5952 445.557 26.7486C445.815 26.902 446.03 27.1335 446.2 27.4432C446.371 27.7529 446.456 28.1676 446.456 28.6875V33H445.45V32.1136H445.399C445.331 32.2557 445.217 32.4077 445.058 32.5696C444.899 32.7315 444.688 32.8693 444.423 32.983C444.159 33.0966 443.837 33.1534 443.456 33.1534ZM443.609 32.25C444.007 32.25 444.342 32.1719 444.615 32.0156C444.891 31.8594 445.098 31.6577 445.237 31.4105C445.379 31.1634 445.45 30.9034 445.45 30.6307V29.7102C445.408 29.7614 445.314 29.8082 445.169 29.8509C445.027 29.8906 444.862 29.9261 444.675 29.9574C444.49 29.9858 444.31 30.0114 444.134 30.0341C443.96 30.054 443.82 30.071 443.712 30.0852C443.45 30.1193 443.206 30.1747 442.979 30.2514C442.754 30.3253 442.572 30.4375 442.433 30.5881C442.297 30.7358 442.229 30.9375 442.229 31.1932C442.229 31.5426 442.358 31.8068 442.616 31.9858C442.878 32.1619 443.209 32.25 443.609 32.25Z" fill="#272932"/>
<path d="M450.951 33.1364C450.337 33.1364 449.809 32.9915 449.365 32.7017C448.922 32.4119 448.581 32.0128 448.343 31.5043C448.104 30.9957 447.985 30.4148 447.985 29.7614C447.985 29.0966 448.107 28.51 448.351 28.0014C448.598 27.4901 448.942 27.0909 449.382 26.804C449.826 26.5142 450.343 26.3693 450.934 26.3693C451.394 26.3693 451.809 26.4546 452.178 26.625C452.547 26.7955 452.85 27.0341 453.086 27.3409C453.321 27.6477 453.468 28.0057 453.525 28.4148H452.519C452.442 28.1165 452.272 27.8523 452.007 27.6222C451.746 27.3892 451.394 27.2727 450.951 27.2727C450.559 27.2727 450.215 27.375 449.919 27.5796C449.627 27.7813 449.398 28.0668 449.233 28.4361C449.071 28.8026 448.99 29.233 448.99 29.7273C448.99 30.233 449.07 30.6733 449.229 31.0483C449.391 31.4233 449.618 31.7145 449.911 31.9219C450.206 32.1293 450.553 32.233 450.951 32.233C451.212 32.233 451.449 32.1875 451.662 32.0966C451.875 32.0057 452.056 31.875 452.203 31.7046C452.351 31.5341 452.456 31.3296 452.519 31.0909H453.525C453.468 31.4773 453.327 31.8253 453.103 32.135C452.881 32.4418 452.587 32.6861 452.221 32.8679C451.857 33.0469 451.434 33.1364 450.951 33.1364Z" fill="#272932"/>
<path d="M457.841 26.4546V27.3068H454.449V26.4546H457.841ZM455.438 24.8864H456.444V31.125C456.444 31.4091 456.485 31.6222 456.567 31.7642C456.652 31.9034 456.76 31.9972 456.891 32.0455C457.025 32.0909 457.165 32.1136 457.313 32.1136C457.424 32.1136 457.515 32.108 457.586 32.0966C457.657 32.0824 457.713 32.071 457.756 32.0625L457.961 32.9659C457.892 32.9915 457.797 33.0171 457.675 33.0426C457.553 33.071 457.398 33.0852 457.211 33.0852C456.926 33.0852 456.648 33.0242 456.375 32.902C456.105 32.7798 455.881 32.5938 455.702 32.3438C455.526 32.0938 455.438 31.7784 455.438 31.3977V24.8864Z" fill="#272932"/>
<path d="M459.354 33V26.4546H460.36V33H459.354ZM459.865 25.3636C459.669 25.3636 459.5 25.2969 459.358 25.1634C459.219 25.0298 459.15 24.8693 459.15 24.6818C459.15 24.4943 459.219 24.3338 459.358 24.2003C459.5 24.0668 459.669 24 459.865 24C460.061 24 460.229 24.0668 460.368 24.2003C460.51 24.3338 460.581 24.4943 460.581 24.6818C460.581 24.8693 460.51 25.0298 460.368 25.1634C460.229 25.2969 460.061 25.3636 459.865 25.3636Z" fill="#272932"/>
<path d="M464.861 33.1364C464.27 33.1364 463.751 32.9958 463.305 32.7145C462.862 32.4333 462.516 32.0398 462.266 31.5341C462.018 31.0284 461.895 30.4375 461.895 29.7614C461.895 29.0796 462.018 28.4844 462.266 27.9759C462.516 27.4673 462.862 27.0725 463.305 26.7912C463.751 26.51 464.27 26.3693 464.861 26.3693C465.452 26.3693 465.969 26.51 466.412 26.7912C466.858 27.0725 467.205 27.4673 467.452 27.9759C467.702 28.4844 467.827 29.0796 467.827 29.7614C467.827 30.4375 467.702 31.0284 467.452 31.5341C467.205 32.0398 466.858 32.4333 466.412 32.7145C465.969 32.9958 465.452 33.1364 464.861 33.1364ZM464.861 32.233C465.31 32.233 465.679 32.1179 465.969 31.8878C466.259 31.6577 466.473 31.3551 466.612 30.9801C466.751 30.6051 466.821 30.1989 466.821 29.7614C466.821 29.3239 466.751 28.9162 466.612 28.5384C466.473 28.1605 466.259 27.8551 465.969 27.6222C465.679 27.3892 465.31 27.2727 464.861 27.2727C464.412 27.2727 464.043 27.3892 463.753 27.6222C463.463 27.8551 463.249 28.1605 463.109 28.5384C462.97 28.9162 462.901 29.3239 462.901 29.7614C462.901 30.1989 462.97 30.6051 463.109 30.9801C463.249 31.3551 463.463 31.6577 463.753 31.8878C464.043 32.1179 464.412 32.233 464.861 32.233Z" fill="#272932"/>
<path d="M470.368 29.0625V33H469.362V26.4546H470.333V27.4773H470.419C470.572 27.1449 470.805 26.8779 471.118 26.6761C471.43 26.4716 471.833 26.3693 472.328 26.3693C472.771 26.3693 473.159 26.4602 473.491 26.6421C473.824 26.821 474.082 27.0938 474.267 27.4602C474.451 27.8239 474.544 28.2841 474.544 28.8409V33H473.538V28.9091C473.538 28.3949 473.404 27.9943 473.137 27.7074C472.87 27.4176 472.504 27.2727 472.038 27.2727C471.717 27.2727 471.43 27.3423 471.177 27.4815C470.927 27.6208 470.73 27.8239 470.585 28.0909C470.44 28.358 470.368 28.6818 470.368 29.0625Z" fill="#272932"/>
<path d="M481.018 27.9205L480.114 28.1761C480.058 28.0256 479.974 27.8793 479.863 27.7372C479.755 27.5923 479.607 27.473 479.42 27.3793C479.232 27.2855 478.992 27.2386 478.7 27.2386C478.299 27.2386 477.965 27.331 477.698 27.5156C477.434 27.6975 477.302 27.929 477.302 28.2102C477.302 28.4602 477.393 28.6577 477.575 28.8026C477.756 28.9475 478.04 29.0682 478.427 29.1648L479.398 29.4034C479.984 29.5455 480.42 29.7628 480.707 30.0554C480.994 30.3452 481.137 30.7188 481.137 31.1761C481.137 31.5511 481.029 31.8864 480.813 32.1818C480.6 32.4773 480.302 32.7102 479.918 32.8807C479.535 33.0511 479.089 33.1364 478.58 33.1364C477.913 33.1364 477.36 32.9915 476.923 32.7017C476.485 32.4119 476.208 31.9886 476.092 31.4318L477.046 31.1932C477.137 31.5455 477.309 31.8097 477.562 31.9858C477.817 32.1619 478.151 32.25 478.563 32.25C479.032 32.25 479.404 32.1506 479.68 31.9517C479.958 31.75 480.097 31.5085 480.097 31.2273C480.097 31 480.018 30.8097 479.859 30.6563C479.7 30.5 479.455 30.3835 479.126 30.3068L478.035 30.0511C477.435 29.9091 476.995 29.6889 476.714 29.3906C476.435 29.0895 476.296 28.7131 476.296 28.2614C476.296 27.8921 476.4 27.5654 476.607 27.2813C476.817 26.9972 477.103 26.7742 477.464 26.6122C477.827 26.4503 478.239 26.3693 478.7 26.3693C479.347 26.3693 479.856 26.5114 480.225 26.7955C480.597 27.0796 480.862 27.4546 481.018 27.9205Z" fill="#272932"/>
<path d="M35.5341 50.3637V62H33.7727V52.125H33.7045L30.9205 53.9432V52.2614L33.8239 50.3637H35.5341Z" fill="#272932"/>
<path d="M42.5511 50.2046C43.0701 50.2084 43.5814 50.3031 44.0852 50.4887C44.589 50.6743 45.0436 50.9773 45.4489 51.3978C45.858 51.8182 46.1837 52.3864 46.4261 53.1023C46.6723 53.8144 46.7973 54.7008 46.8011 55.7614C46.8011 56.7803 46.6989 57.6875 46.4943 58.483C46.2898 59.2747 45.9962 59.9432 45.6136 60.4887C45.2348 61.0341 44.7746 61.4489 44.233 61.733C43.6913 62.0171 43.0814 62.1591 42.4034 62.1591C41.7102 62.1591 41.0947 62.0228 40.5568 61.75C40.0189 61.4773 39.5814 61.1004 39.2443 60.6194C38.9072 60.1345 38.697 59.5777 38.6136 58.9489H40.3466C40.4602 59.4489 40.6913 59.8542 41.0398 60.1648C41.392 60.4716 41.8466 60.625 42.4034 60.625C43.2557 60.625 43.9205 60.2538 44.3977 59.5114C44.875 58.7652 45.1155 57.7235 45.1193 56.3864H45.0284C44.8314 56.7122 44.5852 56.9925 44.2898 57.2273C43.9981 57.4622 43.6705 57.644 43.3068 57.7728C42.9432 57.9016 42.5549 57.9659 42.142 57.9659C41.4716 57.9659 40.8617 57.8012 40.3125 57.4716C39.7633 57.1421 39.3258 56.6894 39 56.1137C38.6742 55.5379 38.5114 54.8807 38.5114 54.1421C38.5114 53.4072 38.678 52.7406 39.0114 52.1421C39.3485 51.5436 39.8182 51.0701 40.4205 50.7216C41.0265 50.3694 41.7367 50.197 42.5511 50.2046ZM42.5568 51.6819C42.1136 51.6819 41.714 51.7917 41.358 52.0114C41.0057 52.2273 40.7273 52.5209 40.5227 52.8921C40.3182 53.2595 40.2159 53.6686 40.2159 54.1194C40.2159 54.5701 40.3144 54.9792 40.5114 55.3466C40.7121 55.7103 40.9848 56 41.3295 56.2159C41.678 56.4281 42.0758 56.5341 42.5227 56.5341C42.8561 56.5341 43.1667 56.4697 43.4545 56.3409C43.7424 56.2122 43.9943 56.0341 44.2102 55.8069C44.4261 55.5758 44.5947 55.3144 44.7159 55.0228C44.8371 54.7311 44.8977 54.4243 44.8977 54.1023C44.8977 53.6743 44.7955 53.2766 44.5909 52.9091C44.3902 52.5417 44.1136 52.2463 43.7614 52.0228C43.4091 51.7955 43.0076 51.6819 42.5568 51.6819Z" fill="#272932"/>
<path d="M52.9162 62.1591C52.3973 62.1516 51.8859 62.0569 51.3821 61.875C50.8821 61.6932 50.4276 61.3902 50.0185 60.9659C49.6094 60.5417 49.2817 59.9716 49.0355 59.2557C48.7931 58.5398 48.6719 57.6459 48.6719 56.5739C48.6719 55.5588 48.7723 54.6572 48.973 53.8694C49.1776 53.0815 49.4711 52.4167 49.8537 51.875C50.2363 51.3296 50.6984 50.9148 51.2401 50.6307C51.7817 50.3466 52.3897 50.2046 53.0639 50.2046C53.7571 50.2046 54.3726 50.3409 54.9105 50.6137C55.4484 50.8864 55.884 51.2633 56.2173 51.7444C56.5545 52.2254 56.7685 52.7728 56.8594 53.3864H55.1264C55.009 52.9016 54.776 52.5057 54.4276 52.1989C54.0791 51.8921 53.6245 51.7387 53.0639 51.7387C52.2116 51.7387 51.5469 52.1099 51.0696 52.8523C50.5961 53.5947 50.3575 54.6269 50.3537 55.9489H50.4389C50.6397 55.6194 50.8859 55.3391 51.1776 55.108C51.473 54.8731 51.8026 54.6932 52.1662 54.5682C52.5336 54.4394 52.92 54.375 53.3253 54.375C53.9995 54.375 54.6094 54.5398 55.1548 54.8694C55.7041 55.1951 56.1416 55.6459 56.4673 56.2216C56.7931 56.7974 56.956 57.4565 56.956 58.1989C56.956 58.9413 56.7874 59.6137 56.4503 60.2159C56.1169 60.8182 55.6473 61.2955 55.0412 61.6478C54.4351 61.9963 53.7268 62.1667 52.9162 62.1591ZM52.9105 60.6819C53.3575 60.6819 53.7571 60.572 54.1094 60.3523C54.4616 60.1326 54.7401 59.8372 54.9446 59.4659C55.1491 59.0947 55.2514 58.68 55.2514 58.2216C55.2514 57.7747 55.151 57.3675 54.9503 57C54.7533 56.6326 54.4806 56.3409 54.1321 56.125C53.7874 55.9091 53.3935 55.8012 52.9503 55.8012C52.6132 55.8012 52.3007 55.8656 52.0128 55.9944C51.7287 56.1231 51.4787 56.3012 51.2628 56.5284C51.0469 56.7557 50.8764 57.0171 50.7514 57.3125C50.6302 57.6042 50.5696 57.9129 50.5696 58.2387C50.5696 58.6743 50.67 59.0777 50.8707 59.4489C51.0753 59.8201 51.3537 60.1194 51.706 60.3466C52.062 60.5701 52.4635 60.6819 52.9105 60.6819Z" fill="#272932"/>
<path d="M60.7273 60.4091L60.642 61.0284C60.5852 61.483 60.4886 61.9565 60.3523 62.4489C60.2197 62.9451 60.0814 63.4053 59.9375 63.8296C59.7973 64.2538 59.6818 64.591 59.5909 64.841H58.3864C58.4356 64.6061 58.5038 64.2879 58.5909 63.8864C58.678 63.4887 58.7633 63.0436 58.8466 62.5512C58.9299 62.0588 58.9924 61.5569 59.0341 61.0455L59.0909 60.4091H60.7273Z" fill="#272932"/>
<path d="M66.733 62.1591C65.9527 62.1591 65.2557 62.0247 64.642 61.7557C64.0322 61.4868 63.5492 61.1137 63.1932 60.6364C62.8409 60.1553 62.6515 59.5985 62.625 58.9659H64.4091C64.4318 59.3106 64.5473 59.6099 64.7557 59.8637C64.9678 60.1137 65.2443 60.3069 65.5852 60.4432C65.9261 60.5796 66.3049 60.6478 66.7216 60.6478C67.1799 60.6478 67.5852 60.5682 67.9375 60.4091C68.2936 60.25 68.572 60.0284 68.7727 59.7444C68.9735 59.4565 69.0739 59.125 69.0739 58.75C69.0739 58.3599 68.9735 58.0171 68.7727 57.7216C68.5758 57.4224 68.286 57.1875 67.9034 57.0171C67.5246 56.8466 67.0663 56.7614 66.5284 56.7614H65.5455V55.3296H66.5284C66.9602 55.3296 67.339 55.2519 67.6648 55.0966C67.9943 54.9413 68.2519 54.7254 68.4375 54.4489C68.6231 54.1686 68.7159 53.8409 68.7159 53.4659C68.7159 53.1061 68.6345 52.7936 68.4716 52.5284C68.3125 52.2595 68.0852 52.0493 67.7898 51.8978C67.4981 51.7463 67.1534 51.6705 66.7557 51.6705C66.3769 51.6705 66.0227 51.7406 65.6932 51.8807C65.3674 52.0171 65.1023 52.2141 64.8977 52.4716C64.6932 52.7254 64.5833 53.0303 64.5682 53.3864H62.8693C62.8883 52.7576 63.0739 52.2046 63.4261 51.7273C63.7822 51.25 64.2519 50.8769 64.8352 50.608C65.4186 50.3391 66.0663 50.2046 66.7784 50.2046C67.5246 50.2046 68.1686 50.3504 68.7102 50.6421C69.2557 50.93 69.6761 51.3144 69.9716 51.7955C70.2708 52.2766 70.4186 52.8031 70.4148 53.375C70.4186 54.0266 70.2367 54.5796 69.8693 55.0341C69.5057 55.4887 69.0208 55.7936 68.4148 55.9489V56.0398C69.1875 56.1572 69.786 56.4641 70.2102 56.9603C70.6383 57.4565 70.8504 58.072 70.8466 58.8069C70.8504 59.447 70.6723 60.0209 70.3125 60.5284C69.9564 61.036 69.4697 61.4356 68.8523 61.7273C68.2348 62.0152 67.5284 62.1591 66.733 62.1591Z" fill="#272932"/>
<path d="M73.3864 62L78.4659 51.9546V51.8694H72.5909V50.3637H80.2841V51.9205L75.2216 62H73.3864Z" fill="#272932"/>
<path d="M86.0611 62.1932C85.1634 62.1894 84.3963 61.9527 83.7599 61.483C83.1236 61.0133 82.6368 60.3296 82.2997 59.4319C81.9626 58.5341 81.794 57.4527 81.794 56.1875C81.794 54.9262 81.9626 53.8485 82.2997 52.9546C82.6406 52.0606 83.1293 51.3788 83.7656 50.9091C84.4058 50.4394 85.1709 50.2046 86.0611 50.2046C86.9512 50.2046 87.7145 50.4413 88.3509 50.9148C88.9872 51.3845 89.474 52.0663 89.8111 52.9603C90.152 53.8504 90.3224 54.9262 90.3224 56.1875C90.3224 57.4565 90.1539 58.5398 89.8168 59.4375C89.4796 60.3315 88.9929 61.0152 88.3565 61.4887C87.7202 61.9584 86.955 62.1932 86.0611 62.1932ZM86.0611 60.6762C86.849 60.6762 87.4645 60.2917 87.9077 59.5228C88.3546 58.7538 88.5781 57.6421 88.5781 56.1875C88.5781 55.2216 88.4759 54.4053 88.2713 53.7387C88.0705 53.0682 87.7808 52.5606 87.402 52.2159C87.027 51.8675 86.58 51.6932 86.0611 51.6932C85.277 51.6932 84.6615 52.0796 84.2145 52.8523C83.7675 53.625 83.5421 54.7368 83.5384 56.1875C83.5384 57.1572 83.6387 57.9773 83.8395 58.6478C84.044 59.3144 84.3338 59.8201 84.7088 60.1648C85.0838 60.5057 85.5346 60.6762 86.0611 60.6762Z" fill="#272932"/>
<path d="M93.0582 62.108C92.7476 62.108 92.4806 61.9981 92.2571 61.7784C92.0336 61.555 91.9219 61.286 91.9219 60.9716C91.9219 60.661 92.0336 60.3959 92.2571 60.1762C92.4806 59.9527 92.7476 59.8409 93.0582 59.8409C93.3688 59.8409 93.6359 59.9527 93.8594 60.1762C94.0829 60.3959 94.1946 60.661 94.1946 60.9716C94.1946 61.18 94.1416 61.3713 94.0355 61.5455C93.9332 61.7159 93.7969 61.8523 93.6264 61.9546C93.456 62.0569 93.2666 62.108 93.0582 62.108Z" fill="#272932"/>
<path d="M100.077 62.1932C99.179 62.1894 98.4119 61.9527 97.7756 61.483C97.1392 61.0133 96.6525 60.3296 96.3153 59.4319C95.9782 58.5341 95.8097 57.4527 95.8097 56.1875C95.8097 54.9262 95.9782 53.8485 96.3153 52.9546C96.6562 52.0606 97.1449 51.3788 97.7812 50.9091C98.4214 50.4394 99.1866 50.2046 100.077 50.2046C100.967 50.2046 101.73 50.4413 102.366 50.9148C103.003 51.3845 103.49 52.0663 103.827 52.9603C104.168 53.8504 104.338 54.9262 104.338 56.1875C104.338 57.4565 104.17 58.5398 103.832 59.4375C103.495 60.3315 103.009 61.0152 102.372 61.4887C101.736 61.9584 100.971 62.1932 100.077 62.1932ZM100.077 60.6762C100.865 60.6762 101.48 60.2917 101.923 59.5228C102.37 58.7538 102.594 57.6421 102.594 56.1875C102.594 55.2216 102.491 54.4053 102.287 53.7387C102.086 53.0682 101.796 52.5606 101.418 52.2159C101.043 51.8675 100.596 51.6932 100.077 51.6932C99.2926 51.6932 98.6771 52.0796 98.2301 52.8523C97.7831 53.625 97.5578 54.7368 97.554 56.1875C97.554 57.1572 97.6544 57.9773 97.8551 58.6478C98.0597 59.3144 98.3494 59.8201 98.7244 60.1648C99.0994 60.5057 99.5502 60.6762 100.077 60.6762Z" fill="#272932"/>
<path d="M110.405 62.1591C109.625 62.1591 108.928 62.0247 108.314 61.7557C107.704 61.4868 107.221 61.1137 106.865 60.6364C106.513 60.1553 106.323 59.5985 106.297 58.9659H108.081C108.104 59.3106 108.219 59.6099 108.428 59.8637C108.64 60.1137 108.916 60.3069 109.257 60.4432C109.598 60.5796 109.977 60.6478 110.393 60.6478C110.852 60.6478 111.257 60.5682 111.609 60.4091C111.965 60.25 112.244 60.0284 112.445 59.7444C112.645 59.4565 112.746 59.125 112.746 58.75C112.746 58.3599 112.645 58.0171 112.445 57.7216C112.248 57.4224 111.958 57.1875 111.575 57.0171C111.196 56.8466 110.738 56.7614 110.2 56.7614H109.217V55.3296H110.2C110.632 55.3296 111.011 55.2519 111.337 55.0966C111.666 54.9413 111.924 54.7254 112.109 54.4489C112.295 54.1686 112.388 53.8409 112.388 53.4659C112.388 53.1061 112.306 52.7936 112.143 52.5284C111.984 52.2595 111.757 52.0493 111.462 51.8978C111.17 51.7463 110.825 51.6705 110.428 51.6705C110.049 51.6705 109.695 51.7406 109.365 51.8807C109.039 52.0171 108.774 52.2141 108.57 52.4716C108.365 52.7254 108.255 53.0303 108.24 53.3864H106.541C106.56 52.7576 106.746 52.2046 107.098 51.7273C107.454 51.25 107.924 50.8769 108.507 50.608C109.09 50.3391 109.738 50.2046 110.45 50.2046C111.196 50.2046 111.84 50.3504 112.382 50.6421C112.928 50.93 113.348 51.3144 113.643 51.7955C113.943 52.2766 114.09 52.8031 114.087 53.375C114.09 54.0266 113.909 54.5796 113.541 55.0341C113.178 55.4887 112.693 55.7936 112.087 55.9489V56.0398C112.859 56.1572 113.458 56.4641 113.882 56.9603C114.31 57.4565 114.522 58.072 114.518 58.8069C114.522 59.447 114.344 60.0209 113.984 60.5284C113.628 61.036 113.142 61.4356 112.524 61.7273C111.907 62.0152 111.2 62.1591 110.405 62.1591Z" fill="#272932"/>
<path d="M131.023 56C130.929 55.7131 130.805 55.456 130.652 55.2287C130.501 54.9986 130.321 54.8026 130.111 54.6407C129.903 54.4787 129.668 54.3551 129.403 54.2699C129.139 54.1847 128.849 54.1421 128.534 54.1421C128.017 54.1421 127.547 54.2756 127.124 54.5426C126.7 54.8097 126.364 55.2032 126.114 55.723C125.864 56.2429 125.739 56.8807 125.739 57.6364C125.739 58.3921 125.865 59.0299 126.118 59.5497C126.371 60.0696 126.713 60.4631 127.145 60.7301C127.577 60.9972 128.063 61.1307 128.602 61.1307C129.102 61.1307 129.543 61.0242 129.923 60.8111C130.307 60.5952 130.605 60.2912 130.818 59.8992C131.034 59.5043 131.142 59.0398 131.142 58.5057L131.466 58.5739H128.841V57.6364H132.165V58.5739C132.165 59.2926 132.011 59.9176 131.705 60.4489C131.401 60.9801 130.98 61.3921 130.443 61.6847C129.909 61.9745 129.295 62.1194 128.602 62.1194C127.83 62.1194 127.151 61.9375 126.565 61.5739C125.983 61.2103 125.528 60.6932 125.202 60.0228C124.878 59.3523 124.716 58.5569 124.716 57.6364C124.716 56.9461 124.808 56.3253 124.993 55.7742C125.18 55.2202 125.445 54.7486 125.786 54.3594C126.126 53.9702 126.53 53.6719 126.996 53.4645C127.462 53.2571 127.974 53.1534 128.534 53.1534C128.994 53.1534 129.423 53.223 129.821 53.3622C130.222 53.4986 130.578 53.6932 130.891 53.9461C131.206 54.1961 131.469 54.4958 131.679 54.8452C131.889 55.1918 132.034 55.5767 132.114 56H131.023Z" fill="#999595"/>
<path d="M133.975 62V53.2728H137.026C137.634 53.2728 138.135 53.3779 138.53 53.5881C138.925 53.7955 139.219 54.0753 139.412 54.4276C139.605 54.777 139.702 55.1648 139.702 55.5909C139.702 55.9659 139.635 56.2756 139.502 56.5199C139.371 56.7642 139.198 56.9574 138.982 57.0995C138.769 57.2415 138.537 57.3466 138.287 57.4148V57.5C138.554 57.5171 138.823 57.6108 139.093 57.7813C139.363 57.9517 139.588 58.1961 139.77 58.5142C139.952 58.8324 140.043 59.2216 140.043 59.6819C140.043 60.1194 139.944 60.5128 139.745 60.8622C139.546 61.2117 139.232 61.4887 138.803 61.6932C138.374 61.8978 137.816 62 137.128 62H133.975ZM135.032 61.0625H137.128C137.819 61.0625 138.309 60.929 138.598 60.662C138.891 60.3921 139.037 60.0654 139.037 59.6819C139.037 59.3864 138.962 59.1137 138.811 58.8637C138.661 58.6108 138.446 58.4091 138.168 58.2586C137.89 58.1051 137.56 58.0284 137.179 58.0284H135.032V61.0625ZM135.032 57.108H136.992C137.31 57.108 137.597 57.0455 137.853 56.9205C138.111 56.7955 138.316 56.6194 138.466 56.3921C138.62 56.1648 138.696 55.8978 138.696 55.5909C138.696 55.2074 138.563 54.8821 138.296 54.6151C138.029 54.3452 137.605 54.2103 137.026 54.2103H135.032V57.108Z" fill="#999595"/>
<path d="M141.779 62V53.2728H144.728C145.413 53.2728 145.973 53.3963 146.407 53.6435C146.845 53.8878 147.169 54.2188 147.379 54.6364C147.589 55.054 147.694 55.5199 147.694 56.0341C147.694 56.5483 147.589 57.0157 147.379 57.4361C147.172 57.8566 146.85 58.1918 146.416 58.4418C145.981 58.689 145.424 58.8125 144.745 58.8125H142.632V57.875H144.711C145.18 57.875 145.556 57.7941 145.841 57.6321C146.125 57.4702 146.331 57.2515 146.458 56.9759C146.589 56.6975 146.654 56.3836 146.654 56.0341C146.654 55.6847 146.589 55.3722 146.458 55.0966C146.331 54.8211 146.123 54.6051 145.836 54.4489C145.549 54.2898 145.169 54.2103 144.694 54.2103H142.836V62H141.779Z" fill="#999595"/>
<path d="M30.6989 98.2103V97.3409L34.5341 91.2728H35.1648V92.6194H34.7386L31.8409 97.2046V97.2728H37.0057V98.2103H30.6989ZM34.8068 100V97.9461V97.5412V91.2728H35.8125V100H34.8068Z" fill="#999595"/>
<path d="M41.4492 100.119C40.8072 100.119 40.2603 99.9446 39.8086 99.5952C39.3569 99.2429 39.0117 98.733 38.7731 98.0654C38.5344 97.3949 38.4151 96.5853 38.4151 95.6364C38.4151 94.6932 38.5344 93.8878 38.7731 93.2202C39.0146 92.5497 39.3612 92.0384 39.8129 91.6861C40.2674 91.331 40.8129 91.1534 41.4492 91.1534C42.0856 91.1534 42.6296 91.331 43.0813 91.6861C43.5359 92.0384 43.8825 92.5497 44.1211 93.2202C44.3626 93.8878 44.4833 94.6932 44.4833 95.6364C44.4833 96.5853 44.364 97.3949 44.1254 98.0654C43.8867 98.733 43.5415 99.2429 43.0898 99.5952C42.6381 99.9446 42.0913 100.119 41.4492 100.119ZM41.4492 99.1819C42.0856 99.1819 42.5799 98.875 42.9322 98.2614C43.2844 97.6478 43.4606 96.7728 43.4606 95.6364C43.4606 94.8807 43.3796 94.2372 43.2177 93.706C43.0586 93.1747 42.8285 92.7699 42.5273 92.4915C42.229 92.2131 41.8697 92.0739 41.4492 92.0739C40.8185 92.0739 40.3256 92.385 39.9705 93.0071C39.6154 93.6265 39.4379 94.5029 39.4379 95.6364C39.4379 96.3921 39.5174 97.0341 39.6765 97.5625C39.8356 98.0909 40.0643 98.4929 40.3626 98.7685C40.6637 99.0441 41.0259 99.1819 41.4492 99.1819Z" fill="#999595"/>
<path d="M48.9492 100.119C48.3072 100.119 47.7603 99.9446 47.3086 99.5952C46.8569 99.2429 46.5117 98.733 46.2731 98.0654C46.0344 97.3949 45.9151 96.5853 45.9151 95.6364C45.9151 94.6932 46.0344 93.8878 46.2731 93.2202C46.5146 92.5497 46.8612 92.0384 47.3129 91.6861C47.7674 91.331 48.3129 91.1534 48.9492 91.1534C49.5856 91.1534 50.1296 91.331 50.5813 91.6861C51.0359 92.0384 51.3825 92.5497 51.6211 93.2202C51.8626 93.8878 51.9833 94.6932 51.9833 95.6364C51.9833 96.5853 51.864 97.3949 51.6254 98.0654C51.3867 98.733 51.0415 99.2429 50.5898 99.5952C50.1381 99.9446 49.5913 100.119 48.9492 100.119ZM48.9492 99.1819C49.5856 99.1819 50.0799 98.875 50.4322 98.2614C50.7844 97.6478 50.9606 96.7728 50.9606 95.6364C50.9606 94.8807 50.8796 94.2372 50.7177 93.706C50.5586 93.1747 50.3285 92.7699 50.0273 92.4915C49.729 92.2131 49.3697 92.0739 48.9492 92.0739C48.3185 92.0739 47.8256 92.385 47.4705 93.0071C47.1154 93.6265 46.9379 94.5029 46.9379 95.6364C46.9379 96.3921 47.0174 97.0341 47.1765 97.5625C47.3356 98.0909 47.5643 98.4929 47.8626 98.7685C48.1637 99.0441 48.5259 99.1819 48.9492 99.1819Z" fill="#999595"/>
<path d="M33.8523 132.119C33.2898 132.119 32.7884 132.023 32.348 131.83C31.9105 131.636 31.5625 131.368 31.304 131.024C31.0483 130.678 30.9091 130.276 30.8864 129.818H31.9602C31.983 130.099 32.0795 130.342 32.25 130.547C32.4205 130.749 32.6435 130.905 32.919 131.016C33.1946 131.126 33.5 131.182 33.8352 131.182C34.2102 131.182 34.5426 131.117 34.8324 130.986C35.1222 130.855 35.3494 130.673 35.5142 130.44C35.679 130.207 35.7614 129.938 35.7614 129.631C35.7614 129.31 35.6818 129.027 35.5227 128.783C35.3636 128.536 35.1307 128.342 34.8239 128.203C34.517 128.064 34.142 127.994 33.6989 127.994H33V127.057H33.6989C34.0455 127.057 34.3494 126.994 34.6108 126.869C34.875 126.744 35.081 126.568 35.2287 126.341C35.3793 126.114 35.4545 125.847 35.4545 125.54C35.4545 125.244 35.3892 124.987 35.2585 124.768C35.1278 124.55 34.9432 124.379 34.7045 124.257C34.4688 124.135 34.1903 124.074 33.8693 124.074C33.5682 124.074 33.2841 124.129 33.017 124.24C32.7528 124.348 32.5369 124.506 32.3693 124.713C32.2017 124.918 32.1108 125.165 32.0966 125.455H31.0739C31.0909 124.997 31.2287 124.597 31.4872 124.253C31.7457 123.906 32.0838 123.636 32.5014 123.443C32.9219 123.25 33.3835 123.153 33.8864 123.153C34.4261 123.153 34.8892 123.263 35.2756 123.482C35.6619 123.697 35.9588 123.983 36.1662 124.338C36.3736 124.693 36.4773 125.077 36.4773 125.489C36.4773 125.98 36.348 126.399 36.0895 126.746C35.8338 127.092 35.4858 127.332 35.0455 127.466V127.534C35.5966 127.625 36.027 127.859 36.3366 128.237C36.6463 128.612 36.8011 129.077 36.8011 129.631C36.8011 130.105 36.6719 130.531 36.4134 130.909C36.1577 131.284 35.8082 131.58 35.3651 131.795C34.9219 132.011 34.4176 132.119 33.8523 132.119Z" fill="#999595"/>
<path d="M41.3906 132.119C40.7486 132.119 40.2017 131.945 39.75 131.595C39.2983 131.243 38.9531 130.733 38.7145 130.065C38.4759 129.395 38.3565 128.585 38.3565 127.636C38.3565 126.693 38.4759 125.888 38.7145 125.22C38.956 124.55 39.3026 124.038 39.7543 123.686C40.2088 123.331 40.7543 123.153 41.3906 123.153C42.027 123.153 42.571 123.331 43.0227 123.686C43.4773 124.038 43.8239 124.55 44.0625 125.22C44.304 125.888 44.4247 126.693 44.4247 127.636C44.4247 128.585 44.3054 129.395 44.0668 130.065C43.8281 130.733 43.483 131.243 43.0312 131.595C42.5795 131.945 42.0327 132.119 41.3906 132.119ZM41.3906 131.182C42.027 131.182 42.5213 130.875 42.8736 130.261C43.2259 129.648 43.402 128.773 43.402 127.636C43.402 126.881 43.321 126.237 43.1591 125.706C43 125.175 42.7699 124.77 42.4688 124.492C42.1705 124.213 41.8111 124.074 41.3906 124.074C40.7599 124.074 40.267 124.385 39.9119 125.007C39.5568 125.626 39.3793 126.503 39.3793 127.636C39.3793 128.392 39.4588 129.034 39.6179 129.563C39.777 130.091 40.0057 130.493 40.304 130.768C40.6051 131.044 40.9673 131.182 41.3906 131.182Z" fill="#999595"/>
<path d="M48.8906 132.119C48.2486 132.119 47.7017 131.945 47.25 131.595C46.7983 131.243 46.4531 130.733 46.2145 130.065C45.9759 129.395 45.8565 128.585 45.8565 127.636C45.8565 126.693 45.9759 125.888 46.2145 125.22C46.456 124.55 46.8026 124.038 47.2543 123.686C47.7088 123.331 48.2543 123.153 48.8906 123.153C49.527 123.153 50.071 123.331 50.5227 123.686C50.9773 124.038 51.3239 124.55 51.5625 125.22C51.804 125.888 51.9247 126.693 51.9247 127.636C51.9247 128.585 51.8054 129.395 51.5668 130.065C51.3281 130.733 50.983 131.243 50.5312 131.595C50.0795 131.945 49.5327 132.119 48.8906 132.119ZM48.8906 131.182C49.527 131.182 50.0213 130.875 50.3736 130.261C50.7259 129.648 50.902 128.773 50.902 127.636C50.902 126.881 50.821 126.237 50.6591 125.706C50.5 125.175 50.2699 124.77 49.9688 124.492C49.6705 124.213 49.3111 124.074 48.8906 124.074C48.2599 124.074 47.767 124.385 47.4119 125.007C47.0568 125.626 46.8793 126.503 46.8793 127.636C46.8793 128.392 46.9588 129.034 47.1179 129.563C47.277 130.091 47.5057 130.493 47.804 130.768C48.1051 131.044 48.4673 131.182 48.8906 131.182Z" fill="#999595"/>
<path d="M30.9034 164V163.233L33.7841 160.08C34.1222 159.71 34.4006 159.389 34.6193 159.117C34.8381 158.841 35 158.582 35.1051 158.341C35.2131 158.097 35.267 157.841 35.267 157.574C35.267 157.267 35.1932 157.001 35.0455 156.777C34.9006 156.553 34.7017 156.379 34.4489 156.257C34.196 156.135 33.9119 156.074 33.5966 156.074C33.2614 156.074 32.9688 156.143 32.7188 156.283C32.4716 156.419 32.2798 156.611 32.1435 156.858C32.0099 157.105 31.9432 157.395 31.9432 157.727H30.9375C30.9375 157.216 31.0554 156.767 31.2912 156.381C31.527 155.994 31.848 155.693 32.2543 155.477C32.6634 155.261 33.1222 155.153 33.6307 155.153C34.142 155.153 34.5952 155.261 34.9901 155.477C35.3849 155.693 35.6946 155.984 35.919 156.351C36.1435 156.717 36.2557 157.125 36.2557 157.574C36.2557 157.895 36.1974 158.209 36.081 158.516C35.9673 158.82 35.7685 159.159 35.4844 159.534C35.2031 159.906 34.8125 160.361 34.3125 160.898L32.3523 162.994V163.063H36.4091V164H30.9034Z" fill="#999595"/>
<path d="M41.0156 164.119C40.3736 164.119 39.8267 163.945 39.375 163.595C38.9233 163.243 38.5781 162.733 38.3395 162.065C38.1009 161.395 37.9815 160.585 37.9815 159.636C37.9815 158.693 38.1009 157.888 38.3395 157.22C38.581 156.55 38.9276 156.038 39.3793 155.686C39.8338 155.331 40.3793 155.153 41.0156 155.153C41.652 155.153 42.196 155.331 42.6477 155.686C43.1023 156.038 43.4489 156.55 43.6875 157.22C43.929 157.888 44.0497 158.693 44.0497 159.636C44.0497 160.585 43.9304 161.395 43.6918 162.065C43.4531 162.733 43.108 163.243 42.6563 163.595C42.2045 163.945 41.6577 164.119 41.0156 164.119ZM41.0156 163.182C41.652 163.182 42.1463 162.875 42.4986 162.261C42.8509 161.648 43.027 160.773 43.027 159.636C43.027 158.881 42.946 158.237 42.7841 157.706C42.625 157.175 42.3949 156.77 42.0938 156.492C41.7955 156.213 41.4361 156.074 41.0156 156.074C40.3849 156.074 39.892 156.385 39.5369 157.007C39.1818 157.626 39.0043 158.503 39.0043 159.636C39.0043 160.392 39.0838 161.034 39.2429 161.563C39.402 162.091 39.6307 162.493 39.929 162.768C40.2301 163.044 40.5923 163.182 41.0156 163.182Z" fill="#999595"/>
<path d="M48.5156 164.119C47.8736 164.119 47.3267 163.945 46.875 163.595C46.4233 163.243 46.0781 162.733 45.8395 162.065C45.6009 161.395 45.4815 160.585 45.4815 159.636C45.4815 158.693 45.6009 157.888 45.8395 157.22C46.081 156.55 46.4276 156.038 46.8793 155.686C47.3338 155.331 47.8793 155.153 48.5156 155.153C49.152 155.153 49.696 155.331 50.1477 155.686C50.6023 156.038 50.9489 156.55 51.1875 157.22C51.429 157.888 51.5497 158.693 51.5497 159.636C51.5497 160.585 51.4304 161.395 51.1918 162.065C50.9531 162.733 50.608 163.243 50.1562 163.595C49.7045 163.945 49.1577 164.119 48.5156 164.119ZM48.5156 163.182C49.152 163.182 49.6463 162.875 49.9986 162.261C50.3509 161.648 50.527 160.773 50.527 159.636C50.527 158.881 50.446 158.237 50.2841 157.706C50.125 157.175 49.8949 156.77 49.5938 156.492C49.2955 156.213 48.9361 156.074 48.5156 156.074C47.8849 156.074 47.392 156.385 47.0369 157.007C46.6818 157.626 46.5043 158.503 46.5043 159.636C46.5043 160.392 46.5838 161.034 46.7429 161.563C46.902 162.091 47.1307 162.493 47.429 162.768C47.7301 163.044 48.0923 163.182 48.5156 163.182Z" fill="#999595"/>
<path d="M259.023 56C258.929 55.7131 258.805 55.456 258.652 55.2287C258.501 54.9986 258.321 54.8026 258.111 54.6407C257.903 54.4787 257.668 54.3551 257.403 54.2699C257.139 54.1847 256.849 54.1421 256.534 54.1421C256.017 54.1421 255.547 54.2756 255.124 54.5426C254.7 54.8097 254.364 55.2032 254.114 55.723C253.864 56.2429 253.739 56.8807 253.739 57.6364C253.739 58.3921 253.865 59.0299 254.118 59.5497C254.371 60.0696 254.713 60.4631 255.145 60.7301C255.577 60.9972 256.063 61.1307 256.602 61.1307C257.102 61.1307 257.543 61.0242 257.923 60.8111C258.307 60.5952 258.605 60.2912 258.818 59.8992C259.034 59.5043 259.142 59.0398 259.142 58.5057L259.466 58.5739H256.841V57.6364H260.165V58.5739C260.165 59.2926 260.011 59.9176 259.705 60.4489C259.401 60.9801 258.98 61.3921 258.443 61.6847C257.909 61.9745 257.295 62.1194 256.602 62.1194C255.83 62.1194 255.151 61.9375 254.565 61.5739C253.983 61.2103 253.528 60.6932 253.202 60.0228C252.878 59.3523 252.716 58.5569 252.716 57.6364C252.716 56.9461 252.808 56.3253 252.993 55.7742C253.18 55.2202 253.445 54.7486 253.786 54.3594C254.126 53.9702 254.53 53.6719 254.996 53.4645C255.462 53.2571 255.974 53.1534 256.534 53.1534C256.994 53.1534 257.423 53.223 257.821 53.3622C258.222 53.4986 258.578 53.6932 258.891 53.9461C259.206 54.1961 259.469 54.4958 259.679 54.8452C259.889 55.1918 260.034 55.5767 260.114 56H259.023Z" fill="#999595"/>
<path d="M261.975 62V53.2728H265.026C265.634 53.2728 266.135 53.3779 266.53 53.5881C266.925 53.7955 267.219 54.0753 267.412 54.4276C267.605 54.777 267.702 55.1648 267.702 55.5909C267.702 55.9659 267.635 56.2756 267.502 56.5199C267.371 56.7642 267.198 56.9574 266.982 57.0995C266.769 57.2415 266.537 57.3466 266.287 57.4148V57.5C266.554 57.5171 266.823 57.6108 267.093 57.7813C267.363 57.9517 267.588 58.1961 267.77 58.5142C267.952 58.8324 268.043 59.2216 268.043 59.6819C268.043 60.1194 267.944 60.5128 267.745 60.8622C267.546 61.2117 267.232 61.4887 266.803 61.6932C266.374 61.8978 265.816 62 265.128 62H261.975ZM263.032 61.0625H265.128C265.819 61.0625 266.309 60.929 266.598 60.662C266.891 60.3921 267.037 60.0654 267.037 59.6819C267.037 59.3864 266.962 59.1137 266.811 58.8637C266.661 58.6108 266.446 58.4091 266.168 58.2586C265.89 58.1051 265.56 58.0284 265.179 58.0284H263.032V61.0625ZM263.032 57.108H264.992C265.31 57.108 265.597 57.0455 265.853 56.9205C266.111 56.7955 266.316 56.6194 266.466 56.3921C266.62 56.1648 266.696 55.8978 266.696 55.5909C266.696 55.2074 266.563 54.8821 266.296 54.6151C266.029 54.3452 265.605 54.2103 265.026 54.2103H263.032V57.108Z" fill="#999595"/>
<path d="M269.779 62V53.2728H272.728C273.413 53.2728 273.973 53.3963 274.407 53.6435C274.845 53.8878 275.169 54.2188 275.379 54.6364C275.589 55.054 275.694 55.5199 275.694 56.0341C275.694 56.5483 275.589 57.0157 275.379 57.4361C275.172 57.8566 274.85 58.1918 274.416 58.4418C273.981 58.689 273.424 58.8125 272.745 58.8125H270.632V57.875H272.711C273.18 57.875 273.556 57.7941 273.841 57.6321C274.125 57.4702 274.331 57.2515 274.458 56.9759C274.589 56.6975 274.654 56.3836 274.654 56.0341C274.654 55.6847 274.589 55.3722 274.458 55.0966C274.331 54.8211 274.123 54.6051 273.836 54.4489C273.549 54.2898 273.169 54.2103 272.694 54.2103H270.836V62H269.779Z" fill="#999595"/>
<path d="M206.534 50.3637V62H204.773V52.125H204.705L201.92 53.9432V52.2614L204.824 50.3637H206.534Z" fill="#272932"/>
<path d="M209.438 59.7273V58.3069L214.466 50.3637H215.585V52.4546H214.875L211.278 58.1478V58.2387H218.17V59.7273H209.438ZM214.955 62V59.2955L214.966 58.6478V50.3637H216.631V62H214.955Z" fill="#272932"/>
<path d="M220.855 62.108C220.545 62.108 220.277 61.9982 220.054 61.7785C219.83 61.555 219.719 61.286 219.719 60.9716C219.719 60.661 219.83 60.3959 220.054 60.1762C220.277 59.9527 220.545 59.841 220.855 59.841C221.166 59.841 221.433 59.9527 221.656 60.1762C221.88 60.3959 221.991 60.661 221.991 60.9716C221.991 61.18 221.938 61.3713 221.832 61.5455C221.73 61.716 221.594 61.8523 221.423 61.9546C221.253 62.0569 221.063 62.108 220.855 62.108Z" fill="#272932"/>
<path d="M227.885 62.1591C227.366 62.1516 226.855 62.0569 226.351 61.875C225.851 61.6932 225.396 61.3902 224.987 60.966C224.578 60.5417 224.25 59.9716 224.004 59.2557C223.762 58.5398 223.641 57.6459 223.641 56.5739C223.641 55.5588 223.741 54.6572 223.942 53.8694C224.146 53.0815 224.44 52.4167 224.822 51.875C225.205 51.3296 225.667 50.9148 226.209 50.6307C226.75 50.3466 227.358 50.2046 228.033 50.2046C228.726 50.2046 229.341 50.341 229.879 50.6137C230.417 50.8864 230.853 51.2633 231.186 51.7444C231.523 52.2254 231.737 52.7728 231.828 53.3864H230.095C229.978 52.9016 229.745 52.5057 229.396 52.1989C229.048 51.8921 228.593 51.7387 228.033 51.7387C227.18 51.7387 226.516 52.1099 226.038 52.8523C225.565 53.5947 225.326 54.6269 225.322 55.9489H225.408C225.608 55.6194 225.855 55.3391 226.146 55.108C226.442 54.8732 226.771 54.6932 227.135 54.5682C227.502 54.4394 227.889 54.375 228.294 54.375C228.968 54.375 229.578 54.5398 230.124 54.8694C230.673 55.1951 231.11 55.6459 231.436 56.2216C231.762 56.7974 231.925 57.4565 231.925 58.1989C231.925 58.9413 231.756 59.6137 231.419 60.216C231.086 60.8182 230.616 61.2955 230.01 61.6478C229.404 61.9963 228.696 62.1667 227.885 62.1591ZM227.879 60.6819C228.326 60.6819 228.726 60.572 229.078 60.3523C229.43 60.1326 229.709 59.8372 229.913 59.466C230.118 59.0947 230.22 58.68 230.22 58.2216C230.22 57.7747 230.12 57.3675 229.919 57C229.722 56.6326 229.449 56.341 229.101 56.125C228.756 55.9091 228.362 55.8012 227.919 55.8012C227.582 55.8012 227.269 55.8656 226.982 55.9944C226.697 56.1232 226.447 56.3012 226.232 56.5285C226.016 56.7557 225.845 57.0171 225.72 57.3125C225.599 57.6042 225.538 57.9129 225.538 58.2387C225.538 58.6743 225.639 59.0777 225.839 59.4489C226.044 59.8201 226.322 60.1194 226.675 60.3466C227.031 60.5701 227.432 60.6819 227.879 60.6819Z" fill="#272932"/>
<path d="M238.057 62.1591C237.538 62.1516 237.027 62.0569 236.523 61.875C236.023 61.6932 235.568 61.3902 235.159 60.966C234.75 60.5417 234.422 59.9716 234.176 59.2557C233.934 58.5398 233.813 57.6459 233.813 56.5739C233.813 55.5588 233.913 54.6572 234.114 53.8694C234.318 53.0815 234.612 52.4167 234.994 51.875C235.377 51.3296 235.839 50.9148 236.381 50.6307C236.922 50.3466 237.53 50.2046 238.205 50.2046C238.898 50.2046 239.513 50.341 240.051 50.6137C240.589 50.8864 241.025 51.2633 241.358 51.7444C241.695 52.2254 241.909 52.7728 242 53.3864H240.267C240.15 52.9016 239.917 52.5057 239.568 52.1989C239.22 51.8921 238.765 51.7387 238.205 51.7387C237.352 51.7387 236.688 52.1099 236.21 52.8523C235.737 53.5947 235.498 54.6269 235.494 55.9489H235.58C235.78 55.6194 236.027 55.3391 236.318 55.108C236.614 54.8732 236.943 54.6932 237.307 54.5682C237.674 54.4394 238.061 54.375 238.466 54.375C239.14 54.375 239.75 54.5398 240.295 54.8694C240.845 55.1951 241.282 55.6459 241.608 56.2216C241.934 56.7974 242.097 57.4565 242.097 58.1989C242.097 58.9413 241.928 59.6137 241.591 60.216C241.258 60.8182 240.788 61.2955 240.182 61.6478C239.576 61.9963 238.867 62.1667 238.057 62.1591ZM238.051 60.6819C238.498 60.6819 238.898 60.572 239.25 60.3523C239.602 60.1326 239.881 59.8372 240.085 59.466C240.29 59.0947 240.392 58.68 240.392 58.2216C240.392 57.7747 240.292 57.3675 240.091 57C239.894 56.6326 239.621 56.341 239.273 56.125C238.928 55.9091 238.534 55.8012 238.091 55.8012C237.754 55.8012 237.441 55.8656 237.153 55.9944C236.869 56.1232 236.619 56.3012 236.403 56.5285C236.187 56.7557 236.017 57.0171 235.892 57.3125C235.771 57.6042 235.71 57.9129 235.71 58.2387C235.71 58.6743 235.811 59.0777 236.011 59.4489C236.216 59.8201 236.494 60.1194 236.847 60.3466C237.203 60.5701 237.604 60.6819 238.051 60.6819Z" fill="#272932"/>
<path d="M375.511 62L380.591 51.9546V51.8694H374.716V50.3637H382.409V51.9205L377.347 62H375.511Z" fill="#272932"/>
<path d="M388.098 50.2046C388.617 50.2084 389.128 50.3031 389.632 50.4887C390.136 50.6743 390.59 50.9773 390.996 51.3978C391.405 51.8182 391.731 52.3864 391.973 53.1023C392.219 53.8144 392.344 54.7008 392.348 55.7614C392.348 56.7803 392.246 57.6875 392.041 58.483C391.837 59.2747 391.543 59.9432 391.161 60.4887C390.782 61.0341 390.321 61.4489 389.78 61.733C389.238 62.0171 388.628 62.1591 387.95 62.1591C387.257 62.1591 386.642 62.0228 386.104 61.75C385.566 61.4773 385.128 61.1004 384.791 60.6194C384.454 60.1345 384.244 59.5777 384.161 58.9489H385.893C386.007 59.4489 386.238 59.8542 386.587 60.1648C386.939 60.4716 387.393 60.625 387.95 60.625C388.803 60.625 389.467 60.2538 389.945 59.5114C390.422 58.7652 390.662 57.7235 390.666 56.3864H390.575C390.378 56.7122 390.132 56.9925 389.837 57.2273C389.545 57.4622 389.217 57.644 388.854 57.7728C388.49 57.9016 388.102 57.9659 387.689 57.9659C387.018 57.9659 386.409 57.8012 385.859 57.4716C385.31 57.1421 384.873 56.6894 384.547 56.1137C384.221 55.5379 384.058 54.8807 384.058 54.1421C384.058 53.4072 384.225 52.7406 384.558 52.1421C384.895 51.5436 385.365 51.0701 385.967 50.7216C386.573 50.3694 387.284 50.197 388.098 50.2046ZM388.104 51.6819C387.661 51.6819 387.261 51.7917 386.905 52.0114C386.553 52.2273 386.274 52.5209 386.07 52.8921C385.865 53.2595 385.763 53.6686 385.763 54.1194C385.763 54.5701 385.861 54.9792 386.058 55.3466C386.259 55.7103 386.532 56 386.876 56.2159C387.225 56.4281 387.623 56.5341 388.07 56.5341C388.403 56.5341 388.714 56.4697 389.001 56.3409C389.289 56.2122 389.541 56.0341 389.757 55.8069C389.973 55.5758 390.142 55.3144 390.263 55.0228C390.384 54.7311 390.445 54.4243 390.445 54.1023C390.445 53.6743 390.342 53.2766 390.138 52.9091C389.937 52.5417 389.661 52.2463 389.308 52.0228C388.956 51.7955 388.554 51.6819 388.104 51.6819Z" fill="#272932"/>
<path d="M396.212 60.4091L396.126 61.0284C396.07 61.483 395.973 61.9565 395.837 62.4489C395.704 62.9451 395.566 63.4053 395.422 63.8296C395.282 64.2538 395.166 64.591 395.075 64.841H393.871C393.92 64.6061 393.988 64.2879 394.075 63.8864C394.162 63.4887 394.248 63.0436 394.331 62.5512C394.414 62.0588 394.477 61.5569 394.518 61.0455L394.575 60.4091H396.212Z" fill="#272932"/>
<path d="M402.129 62.1591C401.315 62.1591 400.595 62.019 399.97 61.7387C399.349 61.4584 398.862 61.072 398.51 60.5796C398.158 60.0872 397.983 59.5266 397.987 58.8978C397.983 58.4053 398.084 57.9527 398.288 57.5398C398.497 57.1231 398.779 56.7766 399.135 56.5C399.491 56.2197 399.889 56.0417 400.328 55.9659V55.8978C399.749 55.7576 399.285 55.447 398.936 54.9659C398.588 54.4849 398.415 53.9319 398.419 53.3069C398.415 52.7122 398.572 52.1819 398.891 51.7159C399.213 51.2463 399.654 50.8769 400.214 50.608C400.775 50.3391 401.413 50.2046 402.129 50.2046C402.838 50.2046 403.47 50.3409 404.027 50.6137C404.588 50.8826 405.029 51.2519 405.351 51.7216C405.673 52.1875 405.836 52.7159 405.839 53.3069C405.836 53.9319 405.658 54.4849 405.305 54.9659C404.953 55.447 404.495 55.7576 403.93 55.8978V55.9659C404.366 56.0417 404.758 56.2197 405.107 56.5C405.459 56.7766 405.739 57.1231 405.947 57.5398C406.16 57.9527 406.268 58.4053 406.271 58.8978C406.268 59.5266 406.089 60.0872 405.737 60.5796C405.385 61.072 404.896 61.4584 404.271 61.7387C403.65 62.019 402.936 62.1591 402.129 62.1591ZM402.129 60.7216C402.61 60.7216 403.027 60.6421 403.379 60.483C403.732 60.3201 404.004 60.0947 404.197 59.8069C404.391 59.5152 404.489 59.1743 404.493 58.7841C404.489 58.3788 404.383 58.0209 404.175 57.7103C403.97 57.3997 403.692 57.1553 403.339 56.9773C402.987 56.7993 402.584 56.7103 402.129 56.7103C401.671 56.7103 401.264 56.7993 400.908 56.9773C400.552 57.1553 400.271 57.3997 400.067 57.7103C399.862 58.0209 399.762 58.3788 399.766 58.7841C399.762 59.1743 399.855 59.5152 400.044 59.8069C400.237 60.0947 400.512 60.3201 400.868 60.483C401.224 60.6421 401.644 60.7216 402.129 60.7216ZM402.129 55.3069C402.516 55.3069 402.858 55.2292 403.158 55.0739C403.457 54.9186 403.692 54.7027 403.862 54.4262C404.036 54.1497 404.125 53.8258 404.129 53.4546C404.125 53.0909 404.038 52.7728 403.868 52.5C403.701 52.2273 403.468 52.0171 403.169 51.8694C402.87 51.7178 402.523 51.6421 402.129 51.6421C401.728 51.6421 401.375 51.7178 401.072 51.8694C400.773 52.0171 400.54 52.2273 400.374 52.5C400.207 52.7728 400.125 53.0909 400.129 53.4546C400.125 53.8258 400.209 54.1497 400.379 54.4262C400.55 54.7027 400.785 54.9186 401.084 55.0739C401.387 55.2292 401.735 55.3069 402.129 55.3069Z" fill="#272932"/>
<path d="M408.063 59.7273V58.3069L413.091 50.3637H414.21V52.4546H413.5L409.903 58.1478V58.2387H416.795V59.7273H408.063ZM413.58 62V59.2955L413.591 58.6478V50.3637H415.256V62H413.58Z" fill="#272932"/>
<path d="M422.616 62.1591C421.904 62.1591 421.264 62.0228 420.696 61.75C420.132 61.4735 419.681 61.0947 419.344 60.6137C419.007 60.1326 418.827 59.5834 418.804 58.9659H420.509C420.55 59.4659 420.772 59.8769 421.173 60.1989C421.575 60.5209 422.056 60.6819 422.616 60.6819C423.063 60.6819 423.459 60.5796 423.804 60.375C424.152 60.1667 424.425 59.8807 424.622 59.5171C424.823 59.1534 424.923 58.7387 424.923 58.2728C424.923 57.7993 424.821 57.3769 424.616 57.0057C424.412 56.6345 424.13 56.3428 423.77 56.1307C423.414 55.9186 423.005 55.8106 422.543 55.8069C422.19 55.8069 421.836 55.8675 421.48 55.9887C421.124 56.1099 420.836 56.269 420.616 56.4659L419.009 56.2273L419.662 50.3637H426.06V51.8694H421.122L420.753 55.125H420.821C421.048 54.9053 421.349 54.7216 421.724 54.5739C422.103 54.4262 422.509 54.3523 422.94 54.3523C423.649 54.3523 424.279 54.5209 424.832 54.858C425.389 55.1951 425.827 55.6553 426.145 56.2387C426.467 56.8182 426.626 57.4849 426.622 58.2387C426.626 58.9925 426.455 59.6648 426.111 60.2557C425.77 60.8466 425.296 61.3125 424.69 61.6534C424.088 61.9906 423.397 62.1591 422.616 62.1591Z" fill="#272932"/>
</g>
<rect x="0.5" y="0.5" width="455" height="183" rx="7.5" stroke="#E8E6E6"/>
<defs>
<linearGradient id="paint0_linear_1_1027" x1="295.35" y1="96.2001" x2="295.35" y2="233.2" gradientUnits="userSpaceOnUse">
<stop stop-color="#2C5CD8"/>
<stop offset="1" stop-color="#2C5CD8" stop-opacity="0"/>
</linearGradient>
<clipPath id="clip0_1_1027">
<rect width="456" height="184" rx="8" fill="white"/>
</clipPath>
</defs>
</svg>
