<svg width="48" height="48" viewBox="0 0 48 48" fill="none" xmlns="http://www.w3.org/2000/svg">
<circle cx="29" cy="29" r="19" fill="url(#paint0_linear_7060_29565)"/>
<path d="M28.5 9.5C28.5 8.39543 29.3954 7.5 30.5 7.5H32.5C33.6046 7.5 34.5 8.39543 34.5 9.5V41.5C34.5 42.6046 33.6046 43.5 32.5 43.5H30.5C29.3954 43.5 28.5 42.6046 28.5 41.5V9.5Z" stroke="#AAEEF1"/>
<path d="M28.5 9.5C28.5 8.39543 29.3954 7.5 30.5 7.5H32.5C33.6046 7.5 34.5 8.39543 34.5 9.5V41.5C34.5 42.6046 33.6046 43.5 32.5 43.5H30.5C29.3954 43.5 28.5 42.6046 28.5 41.5V9.5Z" stroke="url(#paint1_linear_7060_29565)"/>
<path d="M16.5 21.5C16.5 20.3954 17.3954 19.5 18.5 19.5H20.5C21.6046 19.5 22.5 20.3954 22.5 21.5V41.5C22.5 42.6046 21.6046 43.5 20.5 43.5H18.5C17.3954 43.5 16.5 42.6046 16.5 41.5V21.5Z" stroke="#AAEEF1"/>
<path d="M16.5 21.5C16.5 20.3954 17.3954 19.5 18.5 19.5H20.5C21.6046 19.5 22.5 20.3954 22.5 21.5V41.5C22.5 42.6046 21.6046 43.5 20.5 43.5H18.5C17.3954 43.5 16.5 42.6046 16.5 41.5V21.5Z" stroke="url(#paint2_linear_7060_29565)"/>
<path d="M4.5 33.5C4.5 32.3954 5.39543 31.5 6.5 31.5H8.5C9.60457 31.5 10.5 32.3954 10.5 33.5V41.5C10.5 42.6046 9.60457 43.5 8.5 43.5H6.5C5.39543 43.5 4.5 42.6046 4.5 41.5V33.5Z" stroke="#AAEEF1"/>
<path d="M4.5 33.5C4.5 32.3954 5.39543 31.5 6.5 31.5H8.5C9.60457 31.5 10.5 32.3954 10.5 33.5V41.5C10.5 42.6046 9.60457 43.5 8.5 43.5H6.5C5.39543 43.5 4.5 42.6046 4.5 41.5V33.5Z" stroke="url(#paint3_linear_7060_29565)"/>
<defs>
<linearGradient id="paint0_linear_7060_29565" x1="48" y1="48" x2="33.5473" y2="2.86544" gradientUnits="userSpaceOnUse">
<stop stop-color="#3D4168"/>
<stop offset="1" stop-color="#0C1142"/>
</linearGradient>
<linearGradient id="paint1_linear_7060_29565" x1="37.6343" y1="10.7239" x2="-11.0862" y2="42.8659" gradientUnits="userSpaceOnUse">
<stop stop-color="#2BD4DB" stop-opacity="0.8"/>
<stop offset="1" stop-color="#FFFFC8" stop-opacity="0.3"/>
</linearGradient>
<linearGradient id="paint2_linear_7060_29565" x1="37.6343" y1="10.7239" x2="-11.0862" y2="42.8659" gradientUnits="userSpaceOnUse">
<stop stop-color="#2BD4DB" stop-opacity="0.8"/>
<stop offset="1" stop-color="#FFFFC8" stop-opacity="0.3"/>
</linearGradient>
<linearGradient id="paint3_linear_7060_29565" x1="37.6343" y1="10.7239" x2="-11.0862" y2="42.8659" gradientUnits="userSpaceOnUse">
<stop stop-color="#2BD4DB" stop-opacity="0.8"/>
<stop offset="1" stop-color="#FFFFC8" stop-opacity="0.3"/>
</linearGradient>
</defs>
</svg>
